<svg xmlns="http://www.w3.org/2000/svg" viewBox="0 0 500 500"><path d="M412.7 245.9c-90.4-52.2-236.6-52.2-326.4 0s-89.4 136.8 1 189.1 236.6 52.2 326.5 0 89.3-137-1.1-189.1" fill="#f5f5f5"/><path d="m450.5 283.8-60.6-35-50.3 29.2 60.7 35zM96.6 341.3l146.7 84.6a16 16 0 0 0 14.4 0l145.7-84.6q3-1.9 3-4.2c0-2.3-1-3-3-4.2l-146.7-84.7a16 16 0 0 0-14.4 0L96.5 332.9q-3 1.8-3 4.2c0 2.4 1.1 3 3.1 4.2M380.4 410c-14-8.2-37-8.2-51 0s-14 21.3.2 29.5 37 8.1 51 0 14-21.4-.2-29.6m-216.9-6.1c-14.1-8.2-37-8.2-51 0s-14 21.4.1 29.5 37 8.2 51 0 14-21.3-.1-29.5" fill="#e0e0e0"/><path fill="#455a64" d="m342.8 241.8-.1 35 57.2 33 .1-35z"/><path fill="#fff" d="M346.8 274.4v-25.6l49.1 28.3-.1 25.6z"/><path fill="#455a64" d="M346.8 274.4v-25.6l49.1 28.3-.1 25.6z"/><path fill="#fff" opacity=".1" d="M346.8 274.4v-25.6l49.1 28.3-.1 25.6z"/><path fill="#455a64" d="m400 274.8-.1 35 47.3-27.5.1-35.1z"/><path opacity=".1" d="m400 274.8-.1 35 47.3-27.5.1-35.1z"/><path fill="#fff" opacity=".1" d="m400 274.8-.1 35 47.3-27.5.1-35.1z"/><path fill="#455a64" d="m447.3 247.2-57.2-33-47.3 27.6 57.2 33z"/><path fill="#fff" opacity=".1" d="m447.3 247.2-57.2-33-47.3 27.6 57.2 33z"/><path fill="#fff" d="m377.7 271.3 3.1 1.8-.1 3.2-3.1-1.8z"/><path fill="#19b5b5" d="M380.7 276.3v13.8l-3.1-1.8v-13.8zm5.6 14.2v2.8l-3.1-1.8v-2.8z"/><path fill="#fff" d="m383.2 274.5 3.2 1.8-.1 14.2-3.1-1.8zm5.6 3.2 3.1 1.8v4.6l-3.1-1.8z"/><path fill="#19b5b5" d="M391.9 284.1v12.5l-3.1-1.8v-12.5z"/><path fill="#455a64" d="m342.8 201.2-.1 35 57.2 33 .1-35z"/><path fill="#fff" d="M346.8 233.9v-25.6l49.1 28.3-.1 25.5z"/><path fill="#455a64" d="M346.8 233.9v-25.6l49.1 28.3-.1 25.5z"/><path fill="#fff" opacity=".1" d="M346.8 233.9v-25.6l49.1 28.3-.1 25.5z"/><path fill="#455a64" d="m400 234.2-.1 35 47.3-27.5.1-35z"/><path opacity=".1" d="m400 234.2-.1 35 47.3-27.5.1-35z"/><path fill="#fff" opacity=".1" d="m400 234.2-.1 35 47.3-27.5.1-35z"/><path fill="#455a64" d="m447.3 206.7-57.2-33-47.3 27.5 57.2 33z"/><path fill="#fff" opacity=".1" d="m447.3 206.7-57.2-33-47.3 27.5 57.2 33z"/><path fill="#fff" d="m377.7 230.7 3.1 1.8-.1 12.3-3.1-1.8z"/><path fill="#19b5b5" d="M380.7 244.8v4.7l-3.1-1.8V243zm5.6.6v7.4l-3.1-1.8v-7.4z"/><path fill="#fff" d="m383.2 233.9 3.2 1.8-.1 9.7-3.1-1.8zm5.6 3.3 3.1 1.7v10.2l-3.1-1.8z"/><path fill="#19b5b5" d="M391.9 249.1v6.9l-3.1-1.8v-6.9z"/><path fill="#455a64" d="m342.8 160.6-.1 35 57.2 33.1.1-35.1z"/><path fill="#fff" d="M346.8 193.3v-25.6l49.1 28.3-.1 25.6z"/><path fill="#455a64" d="M346.8 193.3v-25.6l49.1 28.3-.1 25.6z"/><path fill="#fff" opacity=".1" d="M346.8 193.3v-25.6l49.1 28.3-.1 25.6z"/><path fill="#455a64" d="m400 193.6-.1 35.1 47.3-27.6.1-35z"/><path opacity=".1" d="m400 193.6-.1 35.1 47.3-27.6.1-35z"/><path fill="#fff" opacity=".1" d="m400 193.6-.1 35.1 47.3-27.6.1-35z"/><path fill="#455a64" d="m447.3 166.1-57.2-33-47.3 27.5 57.2 33z"/><path fill="#fff" opacity=".1" d="m447.3 166.1-57.2-33-47.3 27.5 57.2 33z"/><path fill="#fff" d="m377.7 190.1 3.1 1.8-.1 4.3-3.1-1.8z"/><path fill="#19b5b5" d="M380.7 196.2V209l-3.1-1.8v-12.8zm5.6 10.1v5.9l-3.1-1.8v-5.9z"/><path fill="#fff" d="m383.2 193.4 3.2 1.8-.1 11.1-3.1-1.8zm5.6 3.2 3.1 1.8v8l-3.1-1.8z"/><path fill="#19b5b5" d="M391.9 206.4v9l-3.1-1.8v-9z"/><path fill="#455a64" d="m342.8 120-.1 35.1 57.2 33 .1-35z"/><path fill="#fff" d="M346.8 152.7v-25.6l49.1 28.3-.1 25.6z"/><path fill="#455a64" d="M346.8 152.7v-25.6l49.1 28.3-.1 25.6z"/><path fill="#fff" opacity=".1" d="M346.8 152.7v-25.6l49.1 28.3-.1 25.6z"/><path fill="#455a64" d="m400 153.1-.1 35 47.3-27.6.1-35z"/><path opacity=".1" d="m400 153.1-.1 35 47.3-27.6.1-35z"/><path fill="#fff" opacity=".1" d="m400 153.1-.1 35 47.3-27.6.1-35z"/><path fill="#455a64" d="m447.3 125.5-57.2-33-47.3 27.5 57.2 33.1z"/><path fill="#fff" opacity=".1" d="m447.3 125.5-57.2-33-47.3 27.5 57.2 33.1z"/><path fill="#fff" d="m377.7 149.6 3.1 1.7-.1 8.6-3.1-1.8z"/><path fill="#19b5b5" d="M380.7 159.9v8.5l-3.1-1.8v-8.5zm5.6-1.9v13.6l-3.1-1.8v-13.6z"/><path fill="#fff" d="m383.2 152.8 3.2 1.8-.1 3.4-3.1-1.8zm5.6 3.2 3.1 1.8v6l-3.1-1.8z"/><path fill="#19b5b5" d="M391.9 163.8v11l-3.1-1.8v-11z"/><path d="M361.7 155.2h.1m5.6-6.4a15 15 0 0 0-6.6-11.5q-2.8-1.5-4.7-.5l-3.4 2q1.9-1 4.7.5a15 15 0 0 1 6.6 11.5q0 3-1.8 4.1l3.3-1.8v-.1h.1q1.7-1.1 1.8-4.2" fill="#e0e0e0"/><path d="M367.4 148.8a15 15 0 0 0-6.6-11.5q-2.8-1.5-4.7-.5l-3.4 2q1.9-1 4.7.5a15 15 0 0 1 6.6 11.5q0 3-1.8 4.1l3.3-1.8v-.1h.1q1.7-1.1 1.8-4.2" opacity=".2"/><path d="M364 150.8a15 15 0 0 0-6.6-11.5q-2.8-1.5-4.7-.5c-1.9 1-2 2.2-2 4.3a15 15 0 0 0 6.6 11.5 5 5 0 0 0 4.5.5l.4-.1q1.6-1.2 1.8-4.2" fill="#e0e0e0"/><path d="M364 150.8a15 15 0 0 0-6.6-11.5q-2.8-1.5-4.7-.5c-1.9 1-2 2.2-2 4.3a15 15 0 0 0 6.6 11.5 5 5 0 0 0 4.5.5l.4-.1q1.6-1.2 1.8-4.2" opacity=".1"/><path d="M360.8 150.2a10 10 0 0 0-4.7-8.2 3 3 0 0 0-3.3-.3l-2.4 1.4a3 3 0 0 1 3.3.3 10 10 0 0 1 4.7 8.2 3 3 0 0 1-1.3 3l2.3-1.4h.1a3 3 0 0 0 1.3-3" fill="#e0e0e0"/><path d="M360.8 150.2a10 10 0 0 0-4.7-8.2 3 3 0 0 0-3.3-.3l-2.4 1.4a3 3 0 0 1 3.3.3 10 10 0 0 1 4.7 8.2 3 3 0 0 1-1.3 3l2.3-1.4h.1a3 3 0 0 0 1.3-3" opacity=".2"/><path d="M358.4 151.6a10 10 0 0 0-4.7-8.2 3 3 0 0 0-3.4-.3 3 3 0 0 0-1.4 3 10 10 0 0 0 4.7 8.1 3 3 0 0 0 3.2.5l.3-.2a3 3 0 0 0 1.3-3" fill="#e0e0e0"/><path d="M358.4 151.6a10 10 0 0 0-4.7-8.2 3 3 0 0 0-3.4-.3 3 3 0 0 0-1.4 3 10 10 0 0 0 4.7 8.1 3 3 0 0 0 3.2.5l.3-.2a3 3 0 0 0 1.3-3" opacity=".1"/><path d="M353.2 146.7a1 1 0 0 0-1.3-.1l-.1.1a57 57 0 0 0-6.4 4.2 117 117 0 0 1-14.8 9.3A34 34 0 0 1 312 165a20 20 0 0 1-15.4-8.8q-3.4-5.9-2.3-15.8l1.1-7.2a90 90 0 0 0 1.4-10.7c.3-5.3-.4-12.9-5.2-18.5a19 19 0 0 0-10.5-6.2c-8.4-1.7-16.5 2.5-23.4 6.6l2.6 4.4c6.4-3.8 13.2-7.3 19.8-6a14 14 0 0 1 7.6 4.5c3.7 4.3 4.2 10.5 4 15a82 82 0 0 1-1.3 10l-1.2 7.5q-1.3 11.6 3 18.9a25 25 0 0 0 21.7 11.5 40 40 0 0 0 19.2-5.4 124 124 0 0 0 15.4-9.7 52 52 0 0 1 5.7-3.8l.3-.1a1 1 0 0 0 .5-1.2 4 4 0 0 0-1.8-3.2" fill="#f0f0f0"/><path d="M265.5 103a4 4 0 0 0-1.8-2l-1.2.7a3.2 3.2 0 0 1 1.8 4.7l1.3-.6a4 4 0 0 0-.1-2.7m7.3-2.8a4 4 0 0 0-1.8-2l-1.3.3v.1a3 3 0 0 1 2.2 2 3 3 0 0 1-.1 2.6l1.2-.3a4 4 0 0 0-.2-2.7m8.2-.4a4 4 0 0 0-.5-2.3l-1.3-.1a3 3 0 0 1 .9 2.3 3 3 0 0 1-1.5 2.6l.1.1 1.1.2a4 4 0 0 0 1.3-2.9m7.3 4.2a4 4 0 0 0 .6-2.5l-1.3-1a3.2 3.2 0 0 1-2.5 4.5l1 .8a4 4 0 0 0 2.2-1.8m4.6 6.2a4 4 0 0 0 1.4-2l-.8-1.5a3.3 3.3 0 0 1-4 3.3l.5 1h.2a4 4 0 0 0 2.7-.8m1.6 7.4a4 4 0 0 0 2-1.3l-.2-1.5a3 3 0 0 1-2 1.8 3 3 0 0 1-3-.6l.2 1.2a5 5 0 0 0 2 .5zm-.1 7.8a4 4 0 0 0 2.1-.7l.1-1.3a3 3 0 0 1-2.6 1 3 3 0 0 1-2.4-1.7l-.1 1.5a4 4 0 0 0 2.4 1.1Zm-1.6 7.7h.8l1.8-.3.2-1.3a4 4 0 0 1-2.6.6 4 4 0 0 1-2.4-1.5l-.3 1.3a5 5 0 0 0 2.5 1.2m-1.2 8.2a5 5 0 0 0 2.6-.3v-1.2a4 4 0 0 1-2.5.5 4 4 0 0 1-2.4-1.6l-.2 1v.4a5 5 0 0 0 2.5 1.2m-.1 7.9a5 5 0 0 0 2.6-.8v-1.2a4 4 0 0 1-2.6 1 4 4 0 0 1-2.6-1l.1 1.3a5 5 0 0 0 2.5.7m2.3 7.8a5 5 0 0 0 2.3-1.6l-.5-1.1a4 4 0 0 1-2.1 1.7 4 4 0 0 1-2.8-.3l.5 1.3 1.3.2zm6.6 3.5-1-.8a4 4 0 0 1-1.3 2.5 4 4 0 0 1-2.6.8l1 1a5 5 0 0 0 2.2-1 5 5 0 0 0 1.6-2.5m5.7 6.4a5 5 0 0 0 .8-3q-.6-.1-1.1-.4a4 4 0 0 1-.5 2.8 4 4 0 0 1-2.3 1.6l1.4.6a5 5 0 0 0 1.7-1.6m8.5.5a5 5 0 0 0-1-2.4h-1.4a4 4 0 0 1 1.4 2.5 4 4 0 0 1-.8 2.6h1.2a5 5 0 0 0 .6-2.7m9.2-.9a5 5 0 0 0-1.3-2.8l-1.1.3a4 4 0 0 1 1.4 2.6 4 4 0 0 1-.7 2.5l1.4-.3a5 5 0 0 0 .3-2.3m7.3-3.5a5 5 0 0 0-1.6-2.2l-1 .6a4 4 0 0 1 1.7 2 4 4 0 0 1-.1 2.8l1.3-.6a5 5 0 0 0-.3-2.7m7.4-3.7a5 5 0 0 0-2-2.3l-1 .6a4 4 0 0 1 2 2 4 4 0 0 1 .1 2.7l1.2-.7a5 5 0 0 0-.3-2.3m7.2-4.9a5 5 0 0 0-1.9-2.2l-1 .7a4 4 0 0 1 2 2 4 4 0 0 1-.2 3l1.3-1a5 5 0 0 0-.2-2.5m5.8-4a5 5 0 0 0-2-2.3l-1 .7a4 4 0 0 1 2 2 4 4 0 0 1-.1 3l1.3-1a5 5 0 0 0-.2-2.4" fill="#e0e0e0"/><path fill="#455a64" d="M65.4 274.1v3.8l61.7-35.6v-3.7zm0 6.6v3.8l39.7-22.9v-3.8z"/><path fill="#fff" opacity=".3" d="M65.4 274.1v3.8l61.7-35.6v-3.7zm0 6.6v3.8l39.7-22.9v-3.8z"/><path d="m120.3 206-1.7 1.4c-2 2.3-2.4 5.5-2.7 8.2l-1 11.3a26 26 0 0 1-1.1 6 12 12 0 0 1-3.5 5.2l-.6.4a3 3 0 0 1-3.8 0 10 10 0 0 1-2.5-3.5 9 9 0 0 0-3.4-3.8 5 5 0 0 0-4.7.4l-.9.5c-3.2 2.5-5 7.3-6.5 11.5s-3.4 9-6.6 11.3l-.7.4a5.4 5.4 0 0 1-6.3-.5c-1.8-1.3-3.2-3.3-5.4-3.9a5 5 0 0 0-3.5.5v18.3l76.6-44.2v-30.3a26 26 0 0 0-3 8c-.8 3.6-.6 7.6-3 10.8a7 7 0 0 1-2.3 2 4 4 0 0 1-3 .6c-1.6-.4-2.5-1.9-3.1-3.5-.9-2.2-1.3-5-2.6-6.6a3.6 3.6 0 0 0-4.7-.6" fill="#455a64"/><path d="m120.3 206-1.7 1.4c-2 2.3-2.4 5.5-2.7 8.2l-1 11.3a26 26 0 0 1-1.1 6 12 12 0 0 1-3.5 5.2l-.6.4a3 3 0 0 1-3.8 0 10 10 0 0 1-2.5-3.5 9 9 0 0 0-3.4-3.8 5 5 0 0 0-4.7.4l-.9.5c-3.2 2.5-5 7.3-6.5 11.5s-3.4 9-6.6 11.3l-.7.4a5.4 5.4 0 0 1-6.3-.5c-1.8-1.3-3.2-3.3-5.4-3.9a5 5 0 0 0-3.5.5v18.3l76.6-44.2v-30.3a26 26 0 0 0-3 8c-.8 3.6-.6 7.6-3 10.8a7 7 0 0 1-2.3 2 4 4 0 0 1-3 .6c-1.6-.4-2.5-1.9-3.1-3.5-.9-2.2-1.3-5-2.6-6.6a3.6 3.6 0 0 0-4.7-.6" fill="#fff" opacity=".5"/><path d="m68.3 155.6 69.1-40a2 2 0 0 1 1.9-.2h.1l2.8 1.7a2 2 0 0 0-1.9.2l-69.1 40a6 6 0 0 0-2.8 4.6v18.7a2 2 0 0 0 .8 1.7l-2.8-1.6a2 2 0 0 1-.8-1.7v-18.7a6 6 0 0 1 2.7-4.7" fill="#455a64"/><path d="M68.5 180.6V162a6 6 0 0 1 2.7-4.8l69.2-39.9a2 2 0 0 1 1.9-.2 2 2 0 0 1 .8 1.7v18.7a6 6 0 0 1-2.8 4.6l-69 40a1.7 1.7 0 0 1-2.8-1.5" fill="#455a64"/><path d="m68.3 155.6 69.1-40a2 2 0 0 1 1.9-.2h.1l2.8 1.7a2 2 0 0 0-1.9.2l-69.1 40a6 6 0 0 0-2.4 3l-3-1.6a6 6 0 0 1 2.5-3.1" fill="#fff" opacity=".3"/><path d="m68.8 160.3-.3 1.7v18.6a2 2 0 0 0 .7 1.7l-2.8-1.6a2 2 0 0 1-.8-1.7v-18.7l.3-1.6Z" opacity=".2"/><path d="M143 118.9a2 2 0 0 0-.7-1.7l-2.8-1.6h-.2a2 2 0 0 0-1.8.2l-69.2 39.8-.7.5-.2.1-.5.6v.1l-1 1.8-.2.8-.1.8v18.6a2 2 0 0 0 .8 1.8l2.9 1.6a2 2 0 0 0 2-.2l69-40a6 6 0 0 0 2.8-4.6Z" fill="#fff" opacity=".3"/><path fill="#fff" d="M74.3 172.9v3l19.6-11.3v-3zm0-6.5v3.1l22.1-12.8-.1-3zm0-6.4v3.1l9.8-5.7v-3.1zm54.4-25a2 2 0 0 0-1.1 2v2q.1 1.1 1 .6l1.9-1a2 2 0 0 0 1-1.8v-2.1q0-1.1-1-.7Z"/><path d="m129.6 127.1-.3.2v2.5l.3-.2c3.4-2 6.3-.4 6.3 3.6a12 12 0 0 1-1.3 5.1l1.9.3a16 16 0 0 0 1.6-6.6c0-5.4-3.9-7.6-8.5-4.9M110.7 138l-.3.2v2.5l.3-.2c3.5-2 6.3-.4 6.3 3.6a12 12 0 0 1-1.2 5.1l1.8.3a16 16 0 0 0 1.6-6.7c0-5.3-3.8-7.5-8.5-4.8" fill="#455a64"/><path d="m129.6 127.1-.3.2v2.5l.3-.2c3.4-2 6.3-.4 6.3 3.6a12 12 0 0 1-1.3 5.1l1.9.3a16 16 0 0 0 1.6-6.6c0-5.4-3.9-7.6-8.5-4.9" fill="#fff" opacity=".3"/><path d="M129.3 127.3c-4.6 2.8-8.2 9.2-8.2 14.4s3.8 7.6 8.5 4.9a18 18 0 0 0 6.9-8l-1.9-.2a13 13 0 0 1-5 5.7c-3.5 2-6.3.4-6.3-3.6a14 14 0 0 1 6-10.7Z" fill="#fff"/><path d="m110.7 138-.3.2v2.5l.3-.2c3.5-2 6.3-.4 6.3 3.6a12 12 0 0 1-1.2 5.1l1.8.3a16 16 0 0 0 1.6-6.7c0-5.3-3.8-7.5-8.5-4.8" fill="#fff" opacity=".3"/><path d="M67.4 196.9a4 4 0 0 0-1.9 3.2v3.6q.2 1.9 2 1.1l3-1.8a4 4 0 0 0 2-3.3v-3.6c0-1.2-1-1.6-2-1Zm0 10.1a4 4 0 0 0-1.9 3.3v3.6q.2 1.8 2 1l3-1.8a4 4 0 0 0 2-3.2v-3.6q-.2-1.9-2-1.1Zm.1 10.2a4 4 0 0 0-2 3.3v3.6c0 1.2 1 1.7 2 1l3.1-1.8a4 4 0 0 0 1.9-3.2v-3.6c0-1.2-.9-1.7-1.9-1.1Z" fill="#455a64"/><path d="M67.4 196.9a4 4 0 0 0-1.9 3.2v3.6q.2 1.9 2 1.1l3-1.8a4 4 0 0 0 2-3.3v-3.6c0-1.2-1-1.6-2-1Zm0 10.1a4 4 0 0 0-1.9 3.3v3.6q.2 1.8 2 1l3-1.8a4 4 0 0 0 2-3.2v-3.6q-.2-1.9-2-1.1Zm.1 10.2a4 4 0 0 0-2 3.3v3.6c0 1.2 1 1.7 2 1l3.1-1.8a4 4 0 0 0 1.9-3.2v-3.6c0-1.2-.9-1.7-1.9-1.1Zm7.7-1.9v3.6l44.1-25.5v-3.6zm0-10.2v3.6l66.7-38.5v-3.6zm0-10v3.6l59.7-34.7v-3.6z" opacity=".3" fill="#fff"/><path d="M109.8 146a2 2 0 0 0-1 1.9v2q0 1.2 1 .7l1.8-1a2 2 0 0 0 1.1-2v-2q-.1-1.1-1-.6Z" fill="#fff"/><path d="M110.4 138.2c-4.5 2.8-8.2 9.2-8.1 14.4s3.8 7.6 8.5 4.9a18 18 0 0 0 6.8-8l-1.9-.3a13 13 0 0 1-5 5.8c-3.4 2-6.3.4-6.3-3.6a14 14 0 0 1 6-10.7Z" fill="#fff"/><path fill="#455a64" d="M75.2 215.3v3.6l44.1-25.5v-3.6zm0-10.2v3.6l66.7-38.5v-3.6zm0-10v3.6l59.7-34.7v-3.6z"/><path d="M403.4 313.4 257.7 398a16 16 0 0 1-14.4 0L96.6 313.4q-3-1.9-3-4.2v23q0 2.4 3 4.3L243.3 421a16 16 0 0 0 14.4 0l145.7-84.7q3-1.7 3-4.1v-23.1q0 2.3-3 4.2" fill="#19b5b5"/><path d="M96.6 313.4 243.3 398a16 16 0 0 0 14.4 0l145.7-84.7q3-1.9 3-4.2c0-2.3-1-3-3-4.2l-146.7-84.7a16 16 0 0 0-14.4 0L96.5 305q-3 1.9-3 4.2c0 2.3 1.1 3 3.1 4.2" fill="#19b5b5"/><path fill="#19b5b5" d="m361.1 317-111.5-64.4-110.7 64.3 111.5 64.4z"/><path opacity=".4" d="m361.1 317-111.5-64.4-110.7 64.3 111.5 64.4z"/><path fill="#19b5b5" d="m125.5 309.2 13.4 7.7 110.7-64.3v-15.5z"/><path fill="#19b5b5" d="M249.6 237.1v15.5L361.1 317l13.4-7.8z"/><path opacity=".2" d="m125.5 309.2 13.4 7.7 110.7-64.3v-15.5z"/><path opacity=".1" d="M249.6 237.1v15.5L361.1 317l13.4-7.8zM243.3 398 96.6 313.5q-3-1.9-3-4.2v23q0 2.4 3 4.3L243.3 421a15 15 0 0 0 7.1 1.7v-23a15 15 0 0 1-7.1-1.7"/><path d="M403.4 313.4 257.7 398a15 15 0 0 1-7.3 1.7v23a15 15 0 0 0 7.3-1.7l145.7-84.7q3-1.7 3-4.1v-23.1q0 2.3-3 4.2" opacity=".2"/><path fill="#19b5b5" opacity=".1" d="m250 109.7-124.9 72.1v-25.5L250 84.2zm0 51-124.9 72.1v-25.5L250 135.2z"/><path fill="#19b5b5" opacity=".1" d="m250 135.2-124.9 72.1v-25.5L250 109.7z"/><path fill="#19b5b5" opacity=".2" d="m250 186.1-124.9 72.1v-25.4L250 160.7z"/><path fill="#19b5b5" opacity=".3" d="m250 211.6-124.9 72.1v-25.5L250 186.1z"/><path fill="#19b5b5" opacity=".3" d="m250 237.1-124.9 72.1v-25.5L250 211.6z"/><path fill="#19b5b5" opacity=".1" d="m250 84.2-124.9 72.1v-25.5L250 58.7z"/><path fill="#19b5b5" opacity=".1" d="m249.6 109.7 124.9 72.1v-25.5L249.6 84.2zm0 51 124.9 72.1v-25.5l-124.9-72.1z"/><path fill="#19b5b5" opacity=".1" d="m249.6 135.2 124.9 72.1v-25.5l-124.9-72.1z"/><path fill="#19b5b5" opacity=".2" d="m249.6 186.1 124.9 72.1v-25.4l-124.9-72.1z"/><path fill="#19b5b5" opacity=".3" d="m249.6 211.6 124.9 72.1v-25.5l-124.9-72.1z"/><path fill="#19b5b5" opacity=".3" d="m249.6 237.1 124.9 72.1v-25.5l-124.9-72.1z"/><path fill="#19b5b5" opacity=".1" d="m249.6 84.2 124.9 72.1v-25.5L249.6 58.7z"/><g opacity=".5"><path fill="#19b5b5" d="m280.9 212.9 2.2 1.3.2-55.9-2.3-1.3zm-.1 9.8 2.3 1.4V219l-2.2-1.3zm-3-6.5 2.3 1.3v-5l-2.2-1.3zm8.9 9.9 2.3 1.3v-5l-2.3-1.3zm.2-60.3v5l2.2 1.3v-5zm-3.1 42.1 2.3 1.3.1-31.5-2.3-1.4zm-5.9-3.4 2.2 1.3.1-31.6-2.2-1.3zm8.9-16.1 2.3 1.3v-10.4l-2.3-1.3zm0 21.2 2.2 1.3.1-15.8-2.3-1.3zm-97.3-53.9v5l2.3 1.3v-5zm-8.9-.1 2.3 1.3v-5l-2.3-1.4zm0-10.3 2.3 1.3V135l-2.2-1.3zm8.9 25.6 2.2 1.3.1-5-2.3-1.3zm-5.9 19.2 2.2 1.3.2-49.4-2.3-1.3zm-.2 39.8 2.3 1.3.1-33.1-2.3-1.3zm3.1-38.1 2.2 1.3.1-22.6-2.3-1.3zm-.1 20.1 2.3 1.3v-14.8l-2.2-1.3zm-5.9-6.6 2.2 1.3.1-37.9-2.2-1.3zm8.8 16.1 2.3 1.3.1-16.9-2.3-1.3zm.1-28.4 2.3 1.3v-9.7l-2.3-1.3zM316 233.5v5l2.3 1.3v-5zm-9.1 82 2.3 1.3v-5l-2.3-1.3zm9.1-66.2 2.2 1.3.1-5-2.3-1.3zm-6.1 57.2 2.3 1.3.2-83.2-2.2-1.3zm3-10.3 2.3 1.3.1-53.6-2.2-1.3zm-5.8-41.2 2.2 1.3.1-10.1-2.3-1.3zm-.1 22.6 2.3 1.3V262l-2.3-1.3zm-.1 21 2.3 1.3v-16.8l-2.2-1.3zm9-4.9 2.2 1.3.1-16.9-2.3-1.3zm0-27.9 2.3 1.4V257l-2.2-1.3zm-104-167.4v5l2.3 1.3v-5zm-9 46.8 2.2 1.3.1-5-2.3-1.3zm-.1 10.9 2.3 1.3v-5l-2.2-1.3zm3.1-14.2 2.3 1.3.1-46.1-2.3-1.3zm3-15.3 2.3 1.3v-21.7l-2.2-1.3zm-.1 22.9 2.3 1.3v-17.3l-2.2-1.3zm-5.8-43 2.3 1.3V97.7l-2.3-1.3zm-.1 21.6 2.3 1.4v-10.1l-2.2-1.3zm8.8 38.7 2.3 1.3.1-26.8-2.3-1.3zm.1-32.9 2.3 1.3v-21.5l-2.2-1.4z"/><path d="m280.9 212.9 2.2 1.3.2-55.9-2.3-1.3zm-.1 9.8 2.3 1.4V219l-2.2-1.3zm-3-6.5 2.3 1.3v-5l-2.2-1.3zm8.9 9.9 2.3 1.3v-5l-2.3-1.3zm.2-60.3v5l2.2 1.3v-5zm-3.1 42.1 2.3 1.3.1-31.5-2.3-1.4zm-5.9-3.4 2.2 1.3.1-31.6-2.2-1.3zm8.9-16.1 2.3 1.3v-10.4l-2.3-1.3zm0 21.2 2.2 1.3.1-15.8-2.3-1.3zm-97.3-53.9v5l2.3 1.3v-5zm-8.9-.1 2.3 1.3v-5l-2.3-1.4zm0-10.3 2.3 1.3V135l-2.2-1.3zm8.9 25.6 2.2 1.3.1-5-2.3-1.3zm-5.9 19.2 2.2 1.3.2-49.4-2.3-1.3zm-.2 39.8 2.3 1.3.1-33.1-2.3-1.3zm3.1-38.1 2.2 1.3.1-22.6-2.3-1.3zm-.1 20.1 2.3 1.3v-14.8l-2.2-1.3zm-5.9-6.6 2.2 1.3.1-37.9-2.2-1.3zm8.8 16.1 2.3 1.3.1-16.9-2.3-1.3zm.1-28.4 2.3 1.3v-9.7l-2.3-1.3zM316 233.5v5l2.3 1.3v-5zm-9.1 82 2.3 1.3v-5l-2.3-1.3zm9.1-66.2 2.2 1.3.1-5-2.3-1.3zm-6.1 57.2 2.3 1.3.2-83.2-2.2-1.3zm3-10.3 2.3 1.3.1-53.6-2.2-1.3zm-5.8-41.2 2.2 1.3.1-10.1-2.3-1.3zm-.1 22.6 2.3 1.3V262l-2.3-1.3zm-.1 21 2.3 1.3v-16.8l-2.2-1.3zm9-4.9 2.2 1.3.1-16.9-2.3-1.3zm0-27.9 2.3 1.4V257l-2.2-1.3zm-104-167.4v5l2.3 1.3v-5zm-9 46.8 2.2 1.3.1-5-2.3-1.3zm-.1 10.9 2.3 1.3v-5l-2.2-1.3zm3.1-14.2 2.3 1.3.1-46.1-2.3-1.3zm3-15.3 2.3 1.3v-21.7l-2.2-1.3zm-.1 22.9 2.3 1.3v-17.3l-2.2-1.3zm-5.8-43 2.3 1.3V97.7l-2.3-1.3zm-.1 21.6 2.3 1.4v-10.1l-2.2-1.3zm8.8 38.7 2.3 1.3.1-26.8-2.3-1.3zm.1-32.9 2.3 1.3v-21.5l-2.2-1.4z" opacity=".8" fill="#fff"/></g><path d="m262.4 111.1-.1 1.5a14 14 0 0 1-2.3 7 14 14 0 0 0-2.3 7.7v2.7a5 5 0 0 1-1.7 3.9c-6.7 6-15 3.1-9.7-2a2 2 0 0 0 .7-1.6v-3.8l11.7-15.3Z" fill="#455a64"/><path d="M261 113.7a7 7 0 0 0-5.1 4.7l-1.3 5a5 5 0 0 1-3.6 3.3l-5.9 1a4.4 4.4 0 0 1-4.8-2.7c-4.7-12-2.4-23.5 8.5-25 10.6-1.2 13.6 7.4 13.6 12a2 2 0 0 1-1.4 1.7" fill="#455a64"/><path d="M249.4 113.5a1 1 0 1 1-.9-1 1 1 0 0 1 .9 1m-7.7-.7a1 1 0 1 1-.9-1 1 1 0 0 1 .9 1" fill="#19b5b5"/><path d="m255.6 178-10.8-5.8-12.5 1.1v6l-.4 15.2q0 2.8 3.5 4.9a19 19 0 0 0 16.8 0q3.4-2.2 3.4-4.9Z" fill="#455a64"/><path d="M232.2 186.4a9 9 0 0 1-4-5 24 24 0 0 1-1-6.3 62 62 0 0 1 .5-14.4 28 28 0 0 1 3.2-9 10 10 0 0 1 6.8-5c11.1-2.5 21.2.6 27 4.7a7 7 0 0 1 3.2 5.8 37 37 0 0 1-12 30c-5 4.8-9.7-.4-11.5-4.8s-4.2-7.7-7.6-7.7-4.5 4.6-4.5 4.6Z" fill="#19b5b5"/><path d="M232.2 186.4a9 9 0 0 1-4-5 24 24 0 0 1-1-6.3 62 62 0 0 1 .5-14.4 28 28 0 0 1 3.2-9 10 10 0 0 1 6.8-5c11.1-2.5 21.2.6 27 4.7a7 7 0 0 1 3.2 5.8 37 37 0 0 1-12 30c-5 4.8-9.7-.4-11.5-4.8s-4.2-7.7-7.6-7.7-4.5 4.6-4.5 4.6Z" fill="#fff" opacity=".6"/><path d="m258.4 174.2 2.2-7-.6-.2-2 6.6a19 19 0 0 0-3.7-3.8 26 26 0 0 0-15.4-4.8h-1.1a38 38 0 0 1 9-17.6l-.4-.4a38 38 0 0 0-9.2 18 33 33 0 0 0-10 2v.6a33 33 0 0 1 10-2 38 38 0 0 0-.7 9.2h.5a38 38 0 0 1 .7-9.2h1.2a25 25 0 0 1 15 4.8 18 18 0 0 1 3.9 4l-2.3 5.8a30 30 0 0 1-6 8.5l.6.2a31 31 0 0 0 5.9-8.5l2.2-5.4a17 17 0 0 1 2.6 7l.4-.6a17 17 0 0 0-2.8-7.2" fill="#455a64"/><path d="M249.5 146a10 10 0 0 0-7.7 1.6c-6.6 5.6 2.1 8.8 9 2.6l1-1.3c.5-.9.3-2.6-2.4-2.9" fill="#37474f"/><path d="M267.4 156.8q-.9-3.5-3.4-4a7 7 0 0 1 1 2.4 15 15 0 0 1-4 12.8 5 5 0 0 1-4 1.6c1.4 2 4 2.2 6.3 0a15 15 0 0 0 4-12.8" fill="#19b5b5"/><path d="M267.4 156.8q-.9-3.5-3.4-4a7 7 0 0 1 1 2.4 15 15 0 0 1-4 12.8 5 5 0 0 1-4 1.6c1.4 2 4 2.2 6.3 0a15 15 0 0 0 4-12.8" fill="#fff" opacity=".3"/><path d="M261 168a15 15 0 0 0 4-12.8 7 7 0 0 0-1-2.3 5 5 0 0 0-4 1.6 15 15 0 0 0-4 12.7 7 7 0 0 0 1 2.4 5 5 0 0 0 4-1.6" fill="#37474f"/><path d="M143.2 187.5a1 1 0 0 0 1.1-.7s2-5 6.4-6.9a1.1 1.1 0 1 0-1-2c-5.2 2.3-7.4 7.8-7.5 8a1 1 0 0 0 .7 1.5z" fill="#455a64"/><path d="M147.1 187.3a1 1 0 0 0 1-.8 13 13 0 0 1 5.8-6.7 1.1 1.1 0 0 0-1-2 15 15 0 0 0-6.9 8 1 1 0 0 0 .7 1.4z" fill="#455a64"/><path d="M151.8 186.4a1 1 0 0 0 .9-.8 17 17 0 0 1 5.1-7.4 1.1 1.1 0 0 0-1.3-1.7 19 19 0 0 0-6 8.5 1 1 0 0 0 .8 1.4z" fill="#455a64"/><circle cx="154.5" cy="177.9" r="6.5" fill="#19b5b5"/><circle cx="154.5" cy="177.9" r="6.5" fill="#fff" opacity=".6"/><path d="M156.7 179.6a4 4 0 0 0 2.8-1 137 137 0 0 1 36.4-23.7 4 4 0 1 0-3.3-7.5 145 145 0 0 0-38.6 25.1 4 4 0 0 0 2.8 7.1Z" fill="#455a64"/><circle cx="197.9" cy="149.7" r="10.6" transform="rotate(-12.5 197.9 149.7)" fill="#19b5b5"/><circle cx="197.9" cy="149.7" r="10.6" transform="rotate(-12.5 197.9 149.7)" fill="#fff" opacity=".4"/><path d="M203 156.8a13 13 0 0 0 2.4-12 12 12 0 0 0-3.3-4.8l-2.2-.7a11 11 0 0 1 4.8 5.7 12 12 0 0 1-2.3 11.3 15 15 0 0 1-5.1 3.9h1.6a16 16 0 0 0 4.1-3.4" fill="#455a64"/><path d="m203.1 155-.6-1.5a9 9 0 0 1 2.5-7.7 3 3 0 0 1 2.1-1H205a3 3 0 0 0-2.2 1 9 9 0 0 0-2.5 7.7l.6 1.4a2 2 0 0 0 1.6 1h2.4a2 2 0 0 1-1.7-1" fill="#455a64"/><path d="M209.5 147.2q-.6-2.1-2-2.4h-.4a3 3 0 0 0-2.1 1 9 9 0 0 0-2.5 7.7l.6 1.5a2 2 0 0 0 1.7 1 3 3 0 0 0 2.2-1 9 9 0 0 0 2.4-7.8" fill="#37474f"/><path d="M153 180.4a1 1 0 0 0-1.5 0 12 12 0 0 0-3.5 7 1.1 1.1 0 0 0 2.2.3 10 10 0 0 1 2.8-5.7 1 1 0 0 0 0-1.6m136.5 12.5-.6-1.5a9 9 0 0 1 2.4-7.7 3 3 0 0 1 2.2-1h-2.3a3 3 0 0 0-2.2 1 9 9 0 0 0-2.4 7.8l.6 1.4a2 2 0 0 0 1.6 1h2.3a2 2 0 0 1-1.6-1" fill="#455a64"/><path d="M295.8 185.1q-.5-2.1-2-2.3h-.3a3 3 0 0 0-2.2 1 9 9 0 0 0-2.4 7.7l.6 1.4a2 2 0 0 0 1.7 1 3 3 0 0 0 2.2-1 9 9 0 0 0 2.4-7.8" fill="#455a64"/><circle cx="300.2" cy="189.9" r="10.6" transform="rotate(-76.8 300.2 189.9)" fill="#19b5b5"/><circle cx="300.2" cy="189.9" r="10.6" transform="rotate(-76.8 300.2 189.9)" fill="#fff" opacity=".4"/><path d="M303.2 198a11.2 11.2 0 0 0 1-18l-2.2-.5a10.5 10.5 0 0 1-7.2 19.4l2 1h.1a11 11 0 0 0 6.3-1.8" fill="#455a64"/><path d="M343.1 219.9a4 4 0 0 1-2.7-1.1A137 137 0 0 0 304 195a4 4 0 1 1 3.3-7.5 145 145 0 0 1 38.6 25.1 4 4 0 0 1-2.7 7.2Z" fill="#455a64"/><circle cx="345.4" cy="218.2" r="6.5" fill="#19b5b5"/><circle cx="345.4" cy="218.2" r="6.5" fill="#fff" opacity=".6"/><path d="M351.8 229.6a1 1 0 0 1-1-.8s-1.6-5-6-7.2a1.1 1.1 0 1 1 1-2 15 15 0 0 1 7 8.6 1 1 0 0 1-.7 1.4zm3.2-2a1 1 0 0 1-1-.7 13 13 0 0 0-5.9-6.6 1.1 1.1 0 0 1 1-2 15 15 0 0 1 7 7.8 1 1 0 0 1-.7 1.5z" fill="#455a64"/><path d="M357.7 224.8a1 1 0 0 1-1-.6 17 17 0 0 0-6.6-6.2 1.1 1.1 0 1 1 1-2 19 19 0 0 1 7.5 7.2 1 1 0 0 1-.5 1.5zm-19.1 3.8a1 1 0 0 1-1.1-1 12 12 0 0 1 2.1-7.7 1.1 1.1 0 0 1 1.8 1.3 10 10 0 0 0-1.7 6.2 1 1 0 0 1-1 1.2Z" fill="#455a64"/><path d="M230.7 130.7a7 7 0 0 0-5.8 5.3l-1.4 5.6a5 5 0 0 1-4 3.8l-6.7 1a5 5 0 0 1-5.4-3c-5.3-13.6-2.8-26.6 9.5-28.1 12-1.5 15.4 8.2 15.4 13.5a2 2 0 0 1-1.6 1.8" fill="#19b5b5"/><path d="M230.7 130.7a7 7 0 0 0-5.8 5.3l-1.4 5.6a5 5 0 0 1-4 3.8l-6.7 1a5 5 0 0 1-5.4-3c-5.3-13.6-2.8-26.6 9.5-28.1 12-1.5 15.4 8.2 15.4 13.5a2 2 0 0 1-1.6 1.8" fill="#fff" opacity=".6"/><path d="M226 119.8a11 11 0 0 1 4.5 1.8l-.9-1.4a12 12 0 0 0-4.4-1.2 14 14 0 0 0-4.8-3l-2.5-.7.5-.1-1.5.1-3.4.8 1.2-.1a15 15 0 0 0-3.4 2.8 18 18 0 0 0-3.9 7.5l-2-1-.1.7 2 1-.3 1.2a33 33 0 0 0 .2 10.4 21 21 0 0 0 1.4 5.2l1.4 2.4 1.3.3a10 10 0 0 1-2-3 21 21 0 0 1-1.4-5 32 32 0 0 1-.1-10.1l.2-1a14 14 0 0 0 3.8.6 3 3 0 0 0 3-2 11 11 0 0 1 6.4-5.7 10 10 0 0 1 3.7-.4l1.8 2.2a14 14 0 0 1 1.8 9.5l.8-.4a15 15 0 0 0-2-9.5zm-5-.3a12 12 0 0 0-6.8 6.1 3 3 0 0 1-2.4 1.5 13 13 0 0 1-3.6-.6 17 17 0 0 1 3.7-7.3 13 13 0 0 1 4.5-3.3 13 13 0 0 1 3.8.7 13 13 0 0 1 4 2.4 10 10 0 0 0-3.2.5" fill="#455a64"/><path d="M217.7 137a6 6 0 0 0 4.9-4.3l.5-2a1.2 1.2 0 0 0-1.3-1.5 64 64 0 0 1-9 .2 21 21 0 0 1-4.6-.6 10 10 0 0 1-3.2-1.6 27 27 0 0 0 .2 8.7 11 11 0 0 0 5.4 1.5 30 30 0 0 0 7.1-.4" fill="#37474f"/><path d="M228.2 218.6c-1.6 25 0 56.4 0 56.4l9 2.3a213 213 0 0 0 7.6-40.5Z" fill="#455a64"/><path d="m242.3 314.9-4-37a5 5 0 0 0-1.5-2.9l-2-1.8-6.5.5-3.9 40.1 1.1-1.4a2 2 0 0 1 2.3-.8l.6.1a5 5 0 0 1 3.4 2.6l1.8 3a3 3 0 0 0 3.6 1.3 11 11 0 0 0 4.5-3Z" fill="#19b5b5"/><path d="m242.3 314.9-4-37a5 5 0 0 0-1.5-2.9l-2-1.8-6.5.5-3.9 40.1 1.1-1.4a2 2 0 0 1 2.3-.8l.6.1a5 5 0 0 1 3.4 2.6l1.8 3a3 3 0 0 0 3.6 1.3 11 11 0 0 0 4.5-3Z" fill="#fff" opacity=".6"/><path d="M241.2 319.7a11 11 0 0 1-5 1.9l-1.4.1a11 11 0 0 0-4.4 1.5l-2.5 1.4a15 15 0 0 1-14.2.8l-.8-.4a2 2 0 0 1-1-1.6v1.4a2 2 0 0 0 1 1.6l.8.4a15 15 0 0 0 14.2-.8l2.5-1.4a11 11 0 0 1 4.4-1.5l1.4-.1a11 11 0 0 0 5-2 2 2 0 0 0 .8-1.7v-.8a2 2 0 0 1-.8 1.2" fill="#37474f"/><path d="m212.8 325 .9.4a15 15 0 0 0 14.2-.7l2.5-1.5a11 11 0 0 1 4.3-1.5l1.4-.1a11 11 0 0 0 5-2 2 2 0 0 0 .8-1l-.3-3a11 11 0 0 1-4.4 3h-.1a3 3 0 0 1-3.6-1.2l-1.8-3a5 5 0 0 0-3.4-2.6l-.6-.2a2 2 0 0 0-2.3.8l-1 1.5-2.8 1.7a45 45 0 0 1-8 3.9 3 3 0 0 0-1.9 2.8v1.1a2 2 0 0 0 1.1 1.6m25-14.4a2 2 0 0 1-1.4-.3 2 2 0 0 1-.8-1.2l-2-21.9a2 2 0 0 1 1.4-2 10 10 0 0 0 3.9-2.2l-.1-.7a9 9 0 0 1-4 2.4 2.5 2.5 0 0 0-1.7 2.6l2 21.8a2 2 0 0 0 1 1.7 2 2 0 0 0 1.9.3 12 12 0 0 0 3.7-1.6v-.7a11 11 0 0 1-3.9 1.8" fill="#455a64"/><path d="M235.8 275.3c-.3 3.3-2.5 5.9-4.9 5.7s-4.2-3-4-6.4 2.5-6 5-5.7 4.2 3 3.9 6.4M218 324.9l-.2-1.1a1 1 0 0 0-1-1 8 8 0 0 1-4.5-2.2 3 3 0 0 0-.5 1.7v1.1a2 2 0 0 0 1 1.6l.8.4a15 15 0 0 0 8.6 1.3l-3.2-.6a2 2 0 0 1-1-1.2" fill="#19b5b5"/><path d="m218 324.9-.2-1.1a1 1 0 0 0-1-1 8 8 0 0 1-4.5-2.2 3 3 0 0 0-.5 1.7v1.1a2 2 0 0 0 1 1.6l.8.4a15 15 0 0 0 8.6 1.3l-3.2-.6a2 2 0 0 1-1-1.2m17.8-49.6c-.3 3.3-2.5 5.9-4.9 5.7s-4.2-3-4-6.4 2.5-6 5-5.7 4.2 3 3.9 6.4" opacity=".2"/><path d="M228.1 214.6c0 8.3 1.6 24.8 17 25.1 10 .2 14.7-5.3 16.8-9a11 11 0 0 0 1.2-6.3 39 39 0 0 0-2.7-12Z" fill="#19b5b5"/><path d="M228.1 214.6c0 8.3 1.6 24.8 17 25.1 10 .2 14.7-5.3 16.8-9a11 11 0 0 0 1.2-6.3 39 39 0 0 0-2.7-12Z" fill="#fff" opacity=".4"/><path d="M256 208c6.4 3.6 6.4 9.6 0 13.3s-16.6 3.7-23 0-6.5-9.7-.1-13.4 16.7-3.7 23.1 0" fill="#19b5b5"/><path d="M256 208c6.4 3.6 6.4 9.6 0 13.3s-16.6 3.7-23 0-6.5-9.7-.1-13.4 16.7-3.7 23.1 0" fill="#fff" opacity=".2"/><path d="M234.4 218.7a23 23 0 0 0 20.1 0 8 8 0 0 0 2.9-2.6 8 8 0 0 0-3-2.6 23 23 0 0 0-20 0 8 8 0 0 0-2.9 2.6 8 8 0 0 0 3 2.6" opacity=".2"/><path d="M234.4 213.5a23 23 0 0 1 20 0 8 8 0 0 1 3 2.7 3 3 0 0 0 .4-1.5q0-2.2-3.3-4.2a21 21 0 0 0-10.1-2.4 21 21 0 0 0-10 2.4q-3.2 1.9-3.3 4.1a3 3 0 0 0 .4 1.5 8 8 0 0 1 2.8-2.6" opacity=".2"/><path d="M234.4 218.7a23 23 0 0 0 20.1 0 8 8 0 0 0 2.9-2.6 8 8 0 0 0-3-2.6 23 23 0 0 0-20 0 8 8 0 0 0-2.9 2.6 8 8 0 0 0 3 2.6" opacity=".2"/><path d="M262.7 275.1a250 250 0 0 0-.8-46.5c-2.7-10-18.3-1.6-17.4 5.6s3.7 27 9.1 42Z" fill="#455a64"/><path d="m256.6 275-1.8 1a5 5 0 0 0-2.2 3.9c0 6.5.1 25 1 46.7l1.3-1.8.7-1.5.8-2.1a3 3 0 0 1 2.3-1.6h1.6a3 3 0 0 1 2.4 1.7l1 3.3 1 2 .4.6a2.4 2.4 0 0 0 3.8.1l2.3-3a2 2 0 0 0 .4-1.2l-6.9-44.8a5 5 0 0 0-1.4-2.6l-.6-.6Z" fill="#19b5b5"/><path d="m256.6 275-1.8 1a5 5 0 0 0-2.2 3.9c0 6.5.1 25 1 46.7l1.3-1.8.7-1.5.8-2.1a3 3 0 0 1 2.3-1.6h1.6a3 3 0 0 1 2.4 1.7l1 3.3 1 2 .4.6a2.4 2.4 0 0 0 3.8.1l2.3-3a2 2 0 0 0 .4-1.2l-6.9-44.8a5 5 0 0 0-1.4-2.6l-.6-.6Z" fill="#fff" opacity=".6"/><path d="m249.6 339.6 1.7.5a19 19 0 0 0 7.4.5l3-.3a7.5 7.5 0 0 0 6.6-7.5v-.8a5 5 0 0 1 1.4-3.2l.8-.8a2 2 0 0 0 .6-1.2l-.2-2-2 2.6a2.4 2.4 0 0 1-3.7-.1l-.5-.7-1-1.9-1-3.3a3 3 0 0 0-2.3-1.8h-1.6a3 3 0 0 0-2.3 1.7l-.8 2.1-.7 1.5-6.6 9.6a4 4 0 0 0-.7 2.3v.2a3 3 0 0 0 2 2.6" fill="#455a64"/><path d="m270.5 328-.9.8a5 5 0 0 0-1.3 3.2v.8a7.5 7.5 0 0 1-6.7 7.5l-3 .4a19 19 0 0 1-7.4-.6l-1.6-.5a3 3 0 0 1-2-2.6v1.7a3 3 0 0 0 2 2.5l1.7.5a19 19 0 0 0 7.3.6l3-.4a8 8 0 0 0 6-4.4 8 8 0 0 0 .7-3v-.9a5 5 0 0 1 1.3-3.2l.8-.7a2 2 0 0 0 .8-2l-.1-.9a2 2 0 0 1-.7 1.2" fill="#37474f"/><path d="M258.5 338.2q0-.8-.3-1.4a2 2 0 0 0-1.4-1.4 24 24 0 0 0-6.9-.6 2 2 0 0 0-1.7 1.4l-.1 2.2a3 3 0 0 0 1.5 1.2l1.7.5a19 19 0 0 0 7.4.5l3-.3-1.3-.2a3 3 0 0 1-1.9-1.9" fill="#19b5b5"/><path d="M258.5 338.2q0-.8-.3-1.4a2 2 0 0 0-1.4-1.4 24 24 0 0 0-6.9-.6 2 2 0 0 0-1.7 1.4l-.1 2.2a3 3 0 0 0 1.5 1.2l1.7.5a19 19 0 0 0 7.4.5l3-.3-1.3-.2a3 3 0 0 1-1.9-1.9" opacity=".2"/><path d="M262 291.3a241 241 0 0 0 3.9 25.8 3 3 0 0 0 2.7 2.1h.3l2-.4v-.5l-2 .4a2 2 0 0 1-2.5-1.7 236 236 0 0 1-4-25.7 4 4 0 0 1 1.5-3.3l2-1.5v-.6l-2.4 1.7a4 4 0 0 0-1.6 3.7m-5.9 26.2a238 238 0 0 0-.8-26.1 4 4 0 0 0-2.2-3.4l-.3-.2v.6a4 4 0 0 1 2 3 242 242 0 0 1 .7 26 2 2 0 0 1-2 2.1v.6a3 3 0 0 0 2.5-2.7" fill="#455a64"/><path d="M263.2 276.8c.4 3.3-1.5 6.2-4.2 6.5s-5.1-2.2-5.5-5.5 1.5-6.3 4.2-6.6 5.2 2.2 5.5 5.6" fill="#19b5b5"/><path d="M263.2 276.8c.4 3.3-1.5 6.2-4.2 6.5s-5.1-2.2-5.5-5.5 1.5-6.3 4.2-6.6 5.2 2.2 5.5 5.6" opacity=".2"/><g opacity=".2"><path fill="#19b5b5" d="m249.6 252 2.2 1.3.2-55.9-2.3-1.3zm-.1 9.8 2.3 1.3v-5l-2.3-1.3zm-3-6.5 2.3 1.3v-5l-2.3-1.3zm8.9 9.9 2.3 1.3v-5l-2.3-1.3zm.2-60.3-.1 5 2.3 1.3v-5zm-3.1 42.1 2.3 1.3.1-31.6-2.3-1.3zm-6-3.4 2.3 1.3.1-31.6-2.3-1.3zm9-16.2 2.3 1.3v-10.3l-2.3-1.3zm-.1 21.3 2.3 1.3v-15.8l-2.2-1.3zm-32.1 20.4v5l2.2 1.3.1-5zm-8.9-.2 2.3 1.3v-5l-2.3-1.3zm0-10.2 2.3 1.3v-11.6l-2.2-1.3zm8.9 25.6 2.2 1.3v-5l-2.2-1.3zm-6 19.1 2.3 1.3.1-49.4-2.2-1.3zm-.1 39.9 2.3 1.3.1-33.1-2.3-1.3zm3.1-38.2 2.2 1.3.1-22.5-2.3-1.3zm-.1 20.2 2.3 1.3v-14.8l-2.3-1.3zm-6-6.7 2.3 1.3.1-37.8-2.2-1.3zm8.9 16.2 2.3 1.3v-16.9l-2.2-1.3zm.1-28.5 2.3 1.3v-9.7l-2.3-1.3zm59.2-17.5v5l2.2 1.3.1-5zm-9.2 82 2.3 1.3v-5l-2.2-1.3zm9.1-66.2 2.3 1.3v-5l-2.2-1.3zm-6 57.2 2.3 1.3.2-83.2-2.3-1.3zm3-10.3 2.2 1.3.2-53.6-2.3-1.3zm-5.9-41.2 2.3 1.3v-10.1l-2.3-1.3zm0 22.6 2.2 1.3.1-16.9-2.3-1.3zm-.1 21.1 2.3 1.3v-16.9l-2.3-1.3zm8.9-5 2.3 1.3v-16.9l-2.2-1.3zm.1-27.8 2.3 1.3v-10.1l-2.3-1.4zM173.8 209.3v5l2.2 1.3.1-5zm-9 46.8 2.2 1.3v-5l-2.2-1.4zm-.1 10.9 2.3 1.3v-5l-2.3-1.3zm3.1-14.2 2.3 1.3.1-46.1-2.3-1.3zm3-15.3 2.2 1.3.1-21.7-2.3-1.3zm-.1 22.9 2.3 1.3v-17.3l-2.2-1.3zm-5.8-43.1 2.2 1.4.1-10.1-2.3-1.3zm-.1 21.7 2.3 1.3v-10l-2.3-1.3zm8.8 38.7 2.3 1.3v-26.8l-2.2-1.3zm.1-32.9 2.3 1.3v-21.6l-2.3-1.3z"/><path d="m249.6 252 2.2 1.3.2-55.9-2.3-1.3zm-.1 9.8 2.3 1.3v-5l-2.3-1.3zm-3-6.5 2.3 1.3v-5l-2.3-1.3zm8.9 9.9 2.3 1.3v-5l-2.3-1.3zm.2-60.3-.1 5 2.3 1.3v-5zm-3.1 42.1 2.3 1.3.1-31.6-2.3-1.3zm-6-3.4 2.3 1.3.1-31.6-2.3-1.3zm9-16.2 2.3 1.3v-10.3l-2.3-1.3zm-.1 21.3 2.3 1.3v-15.8l-2.2-1.3zm-32.1 20.4v5l2.2 1.3.1-5zm-8.9-.2 2.3 1.3v-5l-2.3-1.3zm0-10.2 2.3 1.3v-11.6l-2.2-1.3zm8.9 25.6 2.2 1.3v-5l-2.2-1.3zm-6 19.1 2.3 1.3.1-49.4-2.2-1.3zm-.1 39.9 2.3 1.3.1-33.1-2.3-1.3zm3.1-38.2 2.2 1.3.1-22.5-2.3-1.3zm-.1 20.2 2.3 1.3v-14.8l-2.3-1.3zm-6-6.7 2.3 1.3.1-37.8-2.2-1.3zm8.9 16.2 2.3 1.3v-16.9l-2.2-1.3zm.1-28.5 2.3 1.3v-9.7l-2.3-1.3zm59.2-17.5v5l2.2 1.3.1-5zm-9.2 82 2.3 1.3v-5l-2.2-1.3zm9.1-66.2 2.3 1.3v-5l-2.2-1.3zm-6 57.2 2.3 1.3.2-83.2-2.3-1.3zm3-10.3 2.2 1.3.2-53.6-2.3-1.3zm-5.9-41.2 2.3 1.3v-10.1l-2.3-1.3zm0 22.6 2.2 1.3.1-16.9-2.3-1.3zm-.1 21.1 2.3 1.3v-16.9l-2.3-1.3zm8.9-5 2.3 1.3v-16.9l-2.2-1.3zm.1-27.8 2.3 1.3v-10.1l-2.3-1.4zM173.8 209.3v5l2.2 1.3.1-5zm-9 46.8 2.2 1.3v-5l-2.2-1.4zm-.1 10.9 2.3 1.3v-5l-2.3-1.3zm3.1-14.2 2.3 1.3.1-46.1-2.3-1.3zm3-15.3 2.2 1.3.1-21.7-2.3-1.3zm-.1 22.9 2.3 1.3v-17.3l-2.2-1.3zm-5.8-43.1 2.2 1.4.1-10.1-2.3-1.3zm-.1 21.7 2.3 1.3v-10l-2.3-1.3zm8.8 38.7 2.3 1.3v-26.8l-2.2-1.3zm.1-32.9 2.3 1.3v-21.6l-2.3-1.3z" opacity=".8" fill="#fff"/></g><path fill="#19b5b5" opacity=".1" d="m125.5 181.8 124.9 72.1v-25.5l-124.9-72.1zm0 51 124.9 72.1v-25.5l-124.9-72.1z"/><path fill="#19b5b5" opacity=".1" d="m125.5 207.3 124.9 72.1v-25.5l-124.9-72.1z"/><path fill="#19b5b5" opacity=".2" d="m125.5 258.2 124.9 72.1v-25.4l-124.9-72.1z"/><path fill="#19b5b5" opacity=".3" d="m125.5 283.7 124.9 72.1v-25.5l-124.9-72.1z"/><path fill="#19b5b5" opacity=".3" d="m125.5 309.2 124.9 72.1v-25.5l-124.9-72.1z"/><path fill="#19b5b5" opacity=".1" d="m125.5 156.3 124.9 72.1v-25.5l-124.9-72.1z"/><g opacity=".8" fill="#19b5b5"><path opacity=".1" d="m375.3 181.8-124.9 72.1v-25.5l124.9-72.1zm0 51-124.9 72.1v-25.5l124.9-72.1z"/><path opacity=".1" d="m375.3 207.3-124.9 72.1v-25.5l124.9-72.1z"/><path opacity=".2" d="m375.3 258.2-124.9 72.1v-25.4l124.9-72.1z"/><path opacity=".3" d="m375.3 283.7-124.9 72.1v-25.5l124.9-72.1z"/><path opacity=".3" d="m375.3 309.2-124.9 72.1v-25.5l124.9-72.1z"/><path opacity=".1" d="m375.3 156.3-124.9 72.1v-25.5l124.9-72.1z"/></g><path d="m392.6 317.4-4.2-8.7c-4.7-9.7-8.8-20.8-17-18.2l8.7 23.6 1.8 3.8-4.2 4.6.3 11.2 13.7-11.9a4 4 0 0 0 .9-4.4" fill="#fff"/><path d="M384.4 321.2a9 9 0 0 1-2.5-3.3l-1 1.1a6 6 0 0 0 3.5 2.2m-3.9-1.8-2.9 3.1.4 11.2 2.5-2.3a78 78 0 0 1 0-12m-.1-20.5a16 16 0 0 0-6.3-1l6 16.2 1.2 2.6a29 29 0 0 0-1-17.8" opacity=".1"/><path d="M353.7 281.4a4 4 0 0 0-2.7 2.1l-3 5.4-9.6 11a26 26 0 0 0-5.8 11.5 5 5 0 0 0 1.3 4.9 5.4 5.4 0 0 0 7.6 0l3.2-3-.7-5 8.4-16.3 4.6-2.7a4 4 0 0 0 1.8-2.6l.4-2.2Z" fill="#f28f8f"/><path d="M358.6 432.1a4 4 0 0 1-4 2.7 20 20 0 0 1-5-.6c-3.8-.7-7.4 0-11.1-.1a16 16 0 0 1-3.6-.4 6 6 0 0 1-3.2-1.8 4 4 0 0 1-.8-2 4 4 0 0 0 .8 3 6 6 0 0 0 3.2 1.8 15 15 0 0 0 3.6.4c3.7 0 7.3-.6 11 0a20 20 0 0 0 5 .7 4 4 0 0 0 4-2.7l.2-1.7z" fill="#455a64"/><path d="m358.5 429-.7-3.4-.6-1.7a2 2 0 0 0-1.5-.9c-2-.3-5-1-6.6.2a15 15 0 0 1-9.2 2.6l-5-.2a5 5 0 0 0-4 2.8v1.5a4 4 0 0 0 .8 2 6 6 0 0 0 3.2 1.8 16 16 0 0 0 3.6.4c3.7 0 7.3-.6 11 0a20 20 0 0 0 5 .7 4 4 0 0 0 4-2.7l.2-.6z" fill="#455a64"/><g opacity=".5"><path d="M358.6 432.1a4 4 0 0 1-4 2.7 20 20 0 0 1-5-.6c-3.8-.7-7.4 0-11.1-.1a16 16 0 0 1-3.6-.4 6 6 0 0 1-3.2-1.8 4 4 0 0 1-.8-2 4 4 0 0 0 .8 3 6 6 0 0 0 3.2 1.8 15 15 0 0 0 3.6.4c3.7 0 7.3-.6 11 0a20 20 0 0 0 5 .7 4 4 0 0 0 4-2.7l.2-1.7z" fill="#fff" opacity=".6"/><path d="m358.5 429-.7-3.4-.6-1.7a2 2 0 0 0-1.5-.9c-2-.3-5-1-6.6.2a15 15 0 0 1-9.2 2.6l-5-.2a5 5 0 0 0-4 2.8v1.5a4 4 0 0 0 .8 2 6 6 0 0 0 3.2 1.8 16 16 0 0 0 3.6.4c3.7 0 7.3-.6 11 0a20 20 0 0 0 5 .7 4 4 0 0 0 4-2.7l.2-.6z" fill="#37474f"/></g><path d="m348.6 419.7-.2 4.4a2 2 0 0 0 1.7 1.8h4.4a2.5 2.5 0 0 0 2.3-2.4l.2-3.2Z" fill="#ffa8a7"/><path d="M377.5 417.3a3 3 0 0 1-.6 1.8 3 3 0 0 1-2.1 1.2 5 5 0 0 1-5.2-2.1l-1.4-2.6a12 12 0 0 0-3-2.8 12 12 0 0 1-2.8-2.8 4 4 0 0 1-.6-3.8l-.3.5a4 4 0 0 0 .6 4 13 13 0 0 0 3 2.9 12 12 0 0 1 3 2.9l1.4 2.7a5 5 0 0 0 5.3 2.2 3 3 0 0 0 2-1.2 4 4 0 0 0 .7-2.6z" fill="#455a64"/><path d="M376.1 411.8c-1.3-2.4-4.1-4.1-6.3-5.8a8 8 0 0 0-4-1.9 4 4 0 0 0-4 2s0 .1 0 .2a4 4 0 0 0 .6 3.7 12 12 0 0 0 2.9 2.8 12 12 0 0 1 2.9 2.8l1.4 2.6a5 5 0 0 0 5.2 2.1 3 3 0 0 0 2-1.1 3 3 0 0 0 .6-1.9v-.6a10 10 0 0 0-1.3-5" fill="#455a64"/><g opacity=".5"><path d="M377.5 417.3a3 3 0 0 1-.6 1.8 3 3 0 0 1-2.1 1.2 5 5 0 0 1-5.2-2.1l-1.4-2.6a12 12 0 0 0-3-2.8 12 12 0 0 1-2.8-2.8 4 4 0 0 1-.6-3.8l-.3.5a4 4 0 0 0 .6 4 13 13 0 0 0 3 2.9 12 12 0 0 1 3 2.9l1.4 2.7a5 5 0 0 0 5.3 2.2 3 3 0 0 0 2-1.2 4 4 0 0 0 .7-2.6z" fill="#fff" opacity=".6"/><path d="M376.1 411.8c-1.3-2.4-4.1-4.1-6.3-5.8a8 8 0 0 0-4-1.9 4 4 0 0 0-4 2s0 .1 0 .2a4 4 0 0 0 .6 3.7 12 12 0 0 0 2.9 2.8 12 12 0 0 1 2.9 2.8l1.4 2.6a5 5 0 0 0 5.2 2.1 3 3 0 0 0 2-1.1 3 3 0 0 0 .6-1.9v-.6a10 10 0 0 0-1.3-5" fill="#37474f"/></g><path d="M370.3 409.7v4a7 7 0 0 0 6.2-.3l.4-3.6Z" fill="#ffa8a7"/><path d="M378 336.8c1.2 3.6-.3 20.8-1 37.3 2.6 6.2 2 23.9.4 36.4 0 0-2.6 1.7-7.3 0l-6-34.6-.8-19.6s-1.5 17.4-3.2 28.5c1.6 8.6 1.2 10.2-2.7 36.4a10 10 0 0 1-9 0c-2.2-36.9-1.3-70.5-1-82.6Z" fill="#455a64"/><path d="m378 336.8-30.5 1.8-.4 19a32 32 0 0 0 15.8 3.5l.4-4.8.2 4.7a32 32 0 0 0 14.4-4.6c.5-9.6.8-17.3.1-19.6" opacity=".3"/><path d="m363.8 368.2-.7-16c4.2 0 8-3 11-6a19 19 0 0 1-8.3 7.2Z" opacity=".3"/><path d="M380.8 350.4c-.2-4.2-2.1-22.4-1.8-26.6.6-8.8 1.9-16.8 1.7-21-.2-6.4-1-13.5-10.8-12l-10.4 1-5.3 1.2-7.4 15.3v19l-1 27.3a38 38 0 0 0 21.4 2.7 80 80 0 0 0 2.3-14c1 4.5 1 8.9 1.1 13.2 5.7-1.6 9.5-4.4 10.2-6.1" fill="#fff"/><path d="m346.8 312.3 7.6-8.3a36 36 0 0 1-7.6 15.5Z" opacity=".1"/><path d="M354.5 270.2a2 2 0 0 1-.2-1.6 2 2 0 0 1-1.6-.2 2 2 0 0 1-.7-1.4 1 1 0 0 1 1-1 2 2 0 0 1-1.6-2.3 3 3 0 0 1 1.8-1.9 6 6 0 0 1 2.7-.1 2 2 0 0 1 1.1-2.6 3 3 0 0 1 2.5.4 8 8 0 0 1 1.8 2 8 8 0 0 1 6.5-.5 8 8 0 0 1 4.6 4.8 5 5 0 0 1 3.4 3.6 9 9 0 0 1-.3 5 23 23 0 0 1-2.3 4.6l-1.3 2c-.5 1-2 3-2.5 4a8 8 0 0 1-7.7-.5 13 13 0 0 1-5-6.2 43 43 0 0 1-2.2-8" fill="#263238"/><path d="M366 285.9a9 9 0 0 1-4.4-1.3 13 13 0 0 1-5-6.2 42 42 0 0 1-2.2-8.1 2 2 0 0 1-.3-1.5 2 2 0 0 1-1.5-.3 2 2 0 0 1-.7-1.5 1 1 0 0 1 .7-1l-.9-.7a2 2 0 0 1-.4-1.5 3 3 0 0 1 1.9-2 6 6 0 0 1 2.6-.2 2.3 2.3 0 0 1 1.2-2.6 3 3 0 0 1 2.6.4 8 8 0 0 1 1.8 2 8 8 0 0 1 6.5-.5 8 8 0 0 1 4.6 4.8 5 5 0 0 1 3.5 3.7 9 9 0 0 1-.3 5.1 23 23 0 0 1-2.4 4.6l-1.3 2-1.3 2-1.2 1.9a8 8 0 0 1-3.4.9m-11.5-17.5-.1.2a1.4 1.4 0 0 0 .2 1.5 42 42 0 0 0 2.2 8.1 13 13 0 0 0 5 6.1 8 8 0 0 0 7.5.5l1.2-1.9 1.2-2 1.3-2a23 23 0 0 0 2.4-4.6 8 8 0 0 0 .3-5 5 5 0 0 0-3.4-3.5 8 8 0 0 0-4.5-4.7 8 8 0 0 0-6.4.4h-.1a8 8 0 0 0-1.8-2 3 3 0 0 0-2.4-.3 2 2 0 0 0-1 2.4v.2h-.2a6 6 0 0 0-2.7.1 2 2 0 0 0-1.6 1.9l.3 1.2a2 2 0 0 0 1.1.8l1 .1-1 .2a1 1 0 0 0-.9.9 1 1 0 0 0 .7 1.2 2 2 0 0 0 1.4.2Z" fill="#272525"/><path d="m353.3 275.6-1.7 2.8 1.7.7z" fill="#f28f8f"/><path d="M354.5 270.2a23 23 0 0 0-1.2 5.4v3.5l.6 4.8a5 5 0 0 0 .9 2.4 4 4 0 0 0 2.6 1.2l3-.2v4.7c3.6.8 6.6 1.2 9.4-1l-.3-6a9 9 0 0 1-5-.7c-2.5-1.4-3.2-3.5-2.9-4.7a2 2 0 0 0 2 .7 3 3 0 0 0 1.6-1.3 5 5 0 0 0 .6-2 4 4 0 0 0-.4-2.4 3 3 0 0 0-2.8-1 4 4 0 0 0-2.3 2l-.4 1a.6.6 0 0 1-1.1-.2 7 7 0 0 1 .7-4l-1.3.4a2 2 0 0 1-1.3-.6 1 1 0 0 1 0-1.4 2 2 0 0 1-2.4-.6" fill="#ffa8a7"/><path d="M351.9 294.5a8 8 0 0 0-8-2.8c-3.4 4.2-8.7 8.9-11.1 14.4a16 16 0 0 0-1.4 4.7 8 8 0 0 0 .8 4.7 6 6 0 0 0 5.3 3.2c2.2 0 4.6-2.2 6.3-3.6-.3-6.7-2.2-9-2.2-9Z" fill="#fff"/><path d="M351.9 294.5a7 7 0 0 0-1.9-1.7 13 13 0 0 0-4.4 2.5 36 36 0 0 0-4.4 4.9q-2.6 3.1-5 6.4l7.3 5.3c-.6-4.3-2-5.8-2-5.8Z" opacity=".1"/><path d="m336.2 306.6 9.9-9.7a14 14 0 0 1 8.1-4h.2c4.2 9.3-1.4 13.7-1.4 13.7l-9.2 8.5a17 17 0 0 1-7.6-8.5" fill="#fff"/><path d="M142.3 418.6a24 24 0 0 0 11 6.2c1.1.3 2.5.7 3 1.8a3 3 0 0 1-1.3 3 8 8 0 0 1-5.3 1.2 24 24 0 0 1-5.3-1.5 19 19 0 0 0-5.3-1.4l-2.6-.1a3 3 0 0 1-2.2-1.3c0-5.3 1.4-7.2 1.4-7.2Z" fill="#37474f"/><path d="M142.4 416.2v3.6c-2.4 2.6-6.2.9-6.7-.5l-.1-3Z" fill="#bd7070"/><path d="M124.4 403.4c4.3-4 6.6-3.8 7.7-3s2.9 3.2-1.9 7.4-4.4 6.8-7.7 6.8-2.7-3.3-2.7-3.3l.5-3.4Z" fill="#37474f"/><path d="M126 405.8v2.6c-2 1.7-5.5.7-5.7-.5l.2-2.5Z" fill="#bd7070"/><path d="m145.6 335.3 1.9 44.1-5 36.8c-2.7 1.8-6.9 0-6.9 0-.5-11.3-3-27.3-1-36l-3.8-23.7-1.2 19c-.2 11.2-3.1 23.2-3.6 30.3a6 6 0 0 1-5.5-.4c-1.6-14.9-5-22.9-1.8-33.5-2.2-20-4-32.5-1.3-37.6Z" fill="#263238"/><path d="m145.6 335.3 1.9 44.1-5 36.8c-2.7 1.8-6.9 0-6.9 0-.5-11.3-3-27.3-1-36l-3.8-23.7-1.2 19c-.2 11.2-3.1 23.2-3.6 30.3a6 6 0 0 1-5.5-.4c-1.6-14.9-5-22.9-1.8-33.5-2.2-20-4-32.5-1.3-37.6Z" fill="#fff" opacity=".1"/><path d="m130 352 .8 4.5-.4 6-1.4-9.4a9 9 0 0 1-6.2-4 16 16 0 0 0 7.3 2.9" opacity=".2"/><path d="m143.3 360.6 3.3-.9-1-24.4-28.2-1c-2 3.7-1.6 11.2-.4 22.4a24 24 0 0 0 7.3 3 42 42 0 0 0 6.2 1l.3-4.2.7 4.2 3.7.2a42 42 0 0 0 8.1-.3" opacity=".3"/><path d="m146.4 327.6-.2-2-1.3-16.5L137 294l-13-1.7c-5.4-.6-7.8 5.4-7.7 11 0 3.2 1.7 11.5 2.8 20-5 10.4-4.7 23.7-4.6 28.8a32 32 0 0 0 7.3 3.8 52 52 0 0 1 1-11 67 67 0 0 0 1.3 11.8c10.1 3 20.9 1.6 24.5-1.6 0 0-1.5-16.5-2.2-27.5" fill="#fff"/><path d="M141.3 277.6a10 10 0 0 0 1.1-5.4 6 6 0 0 0-2.8-4.5 4 4 0 0 0-5 .9 9.3 9.3 0 0 0-13.7 8.9c.1 1.9.8 3.8.6 5.7-.1 1.1-.6 2.2-.3 3.3a3 3 0 0 0 1.9 2c.8.5 2.7.4 3.7.6 2.8 2.6 6.3 1.6 8.6-.7s5.9-10.8 5.9-10.8" fill="#37474f"/><path fill="#a85353" d="m141.9 280.1 1.7 3.1-1.9.7z"/><path d="M142 278.7c-.2-2.7-1-5.2-2.8-6.5a14 14 0 0 1-2 9.6 4 4 0 0 0-1.3-2.3 2 2 0 0 0-2.5-.5 2 2 0 0 0-1.2 1.4 3.3 3.3 0 0 0 4 4.3 6 6 0 0 1-4.7 4.8 8 8 0 0 1-4.7-.4l-.7 3.6c2.9 3.2 8 1 8 1l.6-3.5c5.8.3 6.4.2 7-3a31 31 0 0 0 .4-8.5" fill="#bd7070"/><path d="M129.2 274.8a10 10 0 0 0-4.6-5.5 10 10 0 0 0-3.7 8.2c.1 1.9.8 3.8.6 5.7-.1 1.1-.5 2.2-.2 3.3a3 3 0 0 0 1.8 2c.8.5 2.8.4 3.7.6q.3 0 .5.2a28 28 0 0 0 2.1-5.8 15 15 0 0 0-.2-8.7" fill="#263238"/><path d="M127.6 272.8a7.4 7.4 0 0 0-14-.2c-1.8 5.3 2.7 11 1.7 16.4-.3 2-1.4 3.8-1.7 5.8a8.5 8.5 0 0 0 7.3 10 5 5 0 0 1-.6-5.3 23 23 0 0 1 3.1-4.6 26 26 0 0 0 4.2-22" fill="#37474f"/><path d="M141 315.4a43 43 0 0 0 5 6l-1.1-12.3-5.8-11a16 16 0 0 0-2.3 4.6c-1.3 4.3 1.5 9 4.1 12.7" opacity=".1"/><path fill="#455a64" d="m180.2 283.6-9.1 26.5-18.9-10.5 9.1-26.2z"/><path opacity=".3" d="m180.2 283.6-9.1 26.5-18.9-10.5 9.1-26.2z"/><path fill="#fff" opacity=".4" d="m180.2 283.6-9.1 26.5-18.9-10.5 9.1-26.2z"/><path fill="#fff" d="m155 298.5 7.5-21.8 14.9 8-7.6 22z"/><path fill="#455a64" d="m165.2 278.3 8.2 4.3.4-1.1-1.6-1.4-4.5-2.3-2.1-.3z"/><path fill="#37474f" d="m167.7 277.8.3-.8 4.4 2.4-.2.7z"/><path fill="#455a64" d="m165.5 275.6 10 5.4.4-1-10.1-5.3z"/><path d="M168.2 275.9c.8-2.8 6-.2 5 2.7Z" fill="#37474f"/><path d="m150.9 305 7 9 12.1-12a4 4 0 0 0 1.2-2.4c.6-4.5 1.9-7.8 3.5-7.2 1 .4-.3 4.8-.3 4.8l1.5-.9 1.8-5.1h.8a2 2 0 0 1 1.9 1.3l.7 2.2a6.4 6.4 0 0 1-2.2 7.3l-2.7 2-1 1a133 133 0 0 1-14.2 18.2 3.6 3.6 0 0 1-4.6.5c-7.4-5-13.6-13.2-13.6-13.2Z" fill="#bd7070"/><path d="m165.3 305-7.5 7.3-9.7-12.5a15 15 0 0 0-9.9-5.7l-1.2-.1s-2.4 10 2.7 15.5l9.8 10.4c3.5 3.8 6.4 6 9.2 5.7s4.3-2 7.2-5.7l8-10.2c-1.4-4.8-5.9-5.4-8.6-4.6" fill="#fff"/><path d="m160 310.2-2.2 2 3.5 4c.4-2.2-.6-4.6-1.4-6" opacity=".1"/></svg>