<svg xmlns="http://www.w3.org/2000/svg" viewBox="0 0 500 500"><ellipse cx="249.5" cy="325.2" rx="235.1" ry="135.7" fill="#455a64"/><path d="M56.2 348.9 90.5 329l-.5-.9L56 348H40.9l-19.1 11 .4.9 19-11Zm10.2 19.5-.5-.8-23 13.2H35l.8 1h7.4Zm24.1-26.6-.5-.8-59.2 34 .6 1Zm170.1-115.1 55-31.8-1.5-.3-54 31.2Zm37.4-34.3-1.6-.2-12.2 7 .5.9Zm-110.5 15-16.9 9.8a5 5 0 0 0-3.1 0L144 203.9l-1.3.4 23.7 13.7a1.2 1.2 0 0 0 0 1.7l-13.6 7.8 21.7 12.5.5-.8-20.2-11.7 12.5-7.2a5 5 0 0 0 3.4.1l18.9 11 .5-1-18.4-10.5a1.2 1.2 0 0 0 0-2.1l17.7-10.3-18-10.3-1.4.3Z" fill="#19b5b5"/><path d="M212.6 206v-14.9l-1 .1v14.2l-24.2 14a5 5 0 0 0-3.8.2 1.3 1.3 0 0 0 0 2.6 5 5 0 0 0 4.4 0c1-.6 1.2-1.6.4-2.2l24-13.8Z" fill="#19b5b5"/><path d="m450.3 395.8.8-.7-12.4-7.1v-15.4l-107.1-61.9-.5-.7-.4.2-.5-.2v-.1h-24.5l25-14.4 137.6 79.4.6-.8-136.5-78.8c4.2-.1 15.2 0 22.4.2h.2l1.7-1L475.4 363l.4-.9L357.6 294l8.7-5 1.6 1 82.1 47q-1.1 1.3.5 2.3a5 5 0 0 0 4.3 0 1.3 1.3 0 0 0 0-2.6 5 5 0 0 0-3.8-.2L370 290h36.8l68 39.2v22.2l4.5 2.6.3-1-3.8-2.2v-22.2l-25-14.4 4.1-2.4v-11.2l21-12-.4-1L454 300l-.2.2v11.1l-4.1 2.4-18.4-10.6v-8.5l17.6-10.1.3-.2V268l9-5.2-.7-.8-48.5 28-1.6-1h-12.1l56.9-32.8-.8-.7-58 33.5h-25l-1-.6 30.7-17.7-.5-.9-31.2 18L351 279h1.3l42-24.3H414l.7.8a5 5 0 0 0 4.4 0q1.5-1 .5-2.3l17.3-10-.9-.6-17.4 10a5 5 0 0 0-3.9.3l-.7.8h-20L351.9 278h-2.8l-17.4-10 48.4-28h28.7l12.6-7.3-1-.6-12 6.9h-28.7l-49.1 28.4-14.6-8.5 61-35.2a5 5 0 0 0 3.4 0l16 9.3 12.7-7.4-1-.5-11.6 6.7-15.2-8.7a1.2 1.2 0 0 0 0-1.8l8.5-5-1.2-.4-8.3 4.8a5 5 0 0 0-3.2 0l-17-9.9 6-3.4-1.3-.4-5.7 3.3-7.3-4.3q1-1-.5-2.1a5 5 0 0 0-4.4 0q-1.6 1-.4 2.2l-61 35.2-3.8-2.2h-20.2l33.1-19.2h15.1l33.2-19.2-1.4-.3-32 18.5h-15.1L260 238.6l.2.3h-7.4l-18-10.4 33.4-19.3.2-.1v-19.2h-1v18.6L234 227.9l-3.1-1.8-.5 1 2.6 1.4-15.9 9.1-3.1-1.8-.5.9 2.6 1.5-17 9.9-.3.1v.6l-3.7-2-.5.8 4.2 2.4v9l-8.6-5-.5.8 9 5.2v1.3l-14 8.1-12.8-7.3-.5.8 12.2 7.1-14 8.1-12.7-7.3-.5.8 12.2 7-60.2 34.8H85.7L45 337v-15l201.8-116.5.3-.1v-16h-1v15.4l-157.8 91H57l-42.4 24.6-.1 1.2 42.8-24.7h29.3l-42.3 24.4-.3.1v16.2L19 352l.3 1L86 314.5h22.6l60.9-35.2 7 4-16.9 9.7a5 5 0 0 0-4 .2 1.3 1.3 0 0 0 0 2.6 5 5 0 0 0 3.9.2l4.2 2.4-12.4 7.2-.3.1v13.1l-68.7 39.7-.2.1v19.3l-15.5 9a5 5 0 0 0-3.8.2l-.8.7H41l.8 1H62l.3.5-12.7 7.4.8.7 13-7.5a5 5 0 0 0 3.8-.3q1.6-1 .4-2.2l15.2-8.8.3-.1v-19.3l68.6-39.6.3-.2v-13l12.6-7.4 24.2 14-85 49.1-.2.1v21.2l-41.3 23.9.8.6 41.2-23.7.2-.2v-21.2l85.3-49.2 10.9 6.3-15 8.6-.2.1v22.2L83.2 410l17.7 10.3a1.2 1.2 0 0 0 0 2l-7.6 4.4 1 .5 7.6-4.3a5 5 0 0 0 3.4-.2l12.4 7.3-7.8 4.5 1.1.5 8.7-5-13.5-7.9a1.2 1.2 0 0 0 0-1.7l27.3-15.8.2-.1v-11.1l97-56 12.8 7.3-87 50.3-.3.1v15l-17.6 10.2-.2.1v16.4l-9.1 5.2 1.2.5 92.8-53.6.3-.2v-15.4l34.7-20 1 .5V376l13.7 8-17 9.7h-11.8l-94.4 54.6 1.3.3 93.4-53.9h11.9l17.7-10.1 12.7 7.3L257 409c-1 .2-10.3.2-15.1.2h-.2l-74.7 43 1.4.4 73.6-42.4c2 0 14.9 0 15.4-.3l30.5-17.6 12.8 7.4-44.8 25.9h-18.6L207 443.2h-8.1L179 454.7l1.5.3 18.7-10.8h8l30.3-17.6h18.6l45.5-26.3 24.6 14.2h-31.9l-42.7 24.7a5 5 0 0 0-3.8.2 1.3 1.3 0 0 0 0 2.5 5 5 0 0 0 4.4 0q1.5-1 .4-2.2l42-24.2h60.6l-29.8 17.2H294l-44.4 25.6.5.9 44.2-25.5h29.3l-42.4 24.5.5.8 75.4-43.5h9.6l5.4 3.1-16 9.3a5 5 0 0 0-4 .3 1.3 1.3 0 0 0 0 2.5 5 5 0 0 0 4.5 0q1.6-1 .4-2.2l16-9.3 21.9 12.6 1.1-.5-29-16.7-71.1-41q1-1.2-.4-2.2a5 5 0 0 0-4.4 0 1.3 1.3 0 0 0 0 2.6 5 5 0 0 0 3.8.2l70 40.3h-36.8l-68-39.2V353l-1-.5 9-5.1 137 79v.1h.6l1.9-1h-2.2L269.2 347l12.8-7.4L404 410c1 .6 17.3.3 24.4.1l2.6 1.5 1-.6-3.3-1.9h-.1c-8.8.2-23.1.4-24.1 0L283 339l11.2-6.5.5.4a5 5 0 0 0 3.8.2L405 394.5l.1.1h25.8l12.7 7.4.8-.7-13.2-7.6h-25.9L310 338.6h28.6l56 32.3q-1.1 1.2.5 2.3a5 5 0 0 0 4.3 0 1.3 1.3 0 0 0 0-2.6 5 5 0 0 0-3.8-.2L339 337.6h-31l-8.6-5q1.1-1.3-.5-2.3l-.6-.3 32.3-18.6 107 61.8v15.4Zm-19.9-93.4-6.3-3.7 6.3-3.6Zm17.8-34v15.3l-25.1 14.5-13.2-7.6ZM304 309.8l-12.8-7.4 13.5-7.8 1.6 1h.2a570 570 0 0 1 22.5-.2ZM225.4 292l-18 10.4V300L185 287l27-15.5v12.6Zm-10-22.2 24.1 14-13.1 7.6-13.3-7.6V271Zm-2.3.1v-1.3l1.2.6Zm19.4 38-1.6-.5v-3.7l7.4-4.3 28 16.2-12 7L233 310q1.2-1.2-.4-2.2ZM266 289h-11.9l-1.8 1-10.8-6.3 7.7-4.4Zm-15.8-10.3 12-6.9h3l28.8 16.6-1 .6h-25Zm1.1 11.9-13.1 7.6-10.9-6.3 13.2-7.6Zm-14.1 8.2-6.3 3.6v-7.3Zm2 0 13.1-7.6 28.1 16.2-13.1 7.6Zm14.1-8.2 1-.6h13.4l21.4 12.3-7.7 4.5Zm16.4-.6h23.5l1.8-1 8.6 5-13.5 7.8Zm26.3-1.6 16.4-9.5h17.2l-25 14.5Zm-1-.6-27.8-16h26.2l1.7-1 14 8v.1h1.3Zm.1-18.1-14.6-8.5 18.8-10.8 14.6 8.4Zm-1 .5-1 .6h-27.7l-.8-.5 14.8-8.5Zm-45 8-24.1-14 16.4-9.6.8.8a5 5 0 0 0 4.4 0l.7-.8H267l11.5 6.6Zm-1 .5-7.6 4.5-24.3-14 7.8-4.5Zm-40.7 24.7 19-11 3.5 2v8.6l-18.4 10.6-4.1-2.3Zm22.5.8v3.1a5 5 0 0 0-2 .5 1.3 1.3 0 0 0 0 2.6 5 5 0 0 0 4 .2l21.4 12.4-12.8 7.4-28-16.2Zm24.4 19.4 12.8 7.4-12.8 7.4-12.8-7.4Zm1-.6 12-6.9 5.7 3.3.5-.8-5.2-3 13.2-7.6 12.7 7.3-26 15.1Zm27.1-15.6 7.7-4.5 12.8 7.4-7.7 4.5Zm72.2-12.9c-6.6-.1-21.2-.4-24 0-2.8-.4-17.4-.1-24 0l-1-.5 25-14.4 25 14.4Zm10.6-6-8.7 5-25-14.5h17.2Zm-34.6-20 16.4 9.4h-15.6l-.8.5-.8-.4v-.1h-15.6Zm-1-.7L312.3 278h-2.8l-13.3-7.7 18.8-10.8Zm-23.1-21.6V230l40.8-23.6a5 5 0 0 0 3.4 0L376 221a1.2 1.2 0 0 0-.1 1.9l-61 35.2-14.6-8.4 5.9-3.5Zm-1-15.6v15l-6.2 3.6-13-7.4Zm-20.2 11.7 13 7.5-18.8 10.8-12-7h-1.8ZM233.8 229l18.8 10.8h28.7l3.1 1.8-19.8 11.5H247l-.4-.4a5 5 0 0 0-3.9-.2L218 238.2Zm-34.2 19.7 17.4-10 24.8 14.4-.2.2-17.5 10.2-24.5-14.2Zm0 1.8 23.5 13.5-7.8 4.5-15.7-9.1Zm-.2 11.4.2-.1v-1.3l12.6 7.3v2.5l-28 16.2-5.7-3.3 15-8.7-8-4.6Zm-29 16.7 14-8.1 7 4-14 8Zm-10 16.7a1.2 1.2 0 0 0 .1-1.8l17-9.7 5.6 3.3-18.5 10.6Zm5.2 3 18.5-10.7 22.3 13v2.1l-16.6 9.6Zm25.2 14.6 15.6-9v7.8l4.1 2.4-8.8 5.1ZM133 392.5l-.2.2v11.1l-27.6 16a5 5 0 0 0-3.1-.2L85 410l101.2-58.4.2-.1v-22.2l15.2-8.7 28 16.1Zm69.7-72.6 8.9-5.1 28 16.2-8.8 5.1Zm29 16.8 9-5.2 12.7 7.4-8.8 5.1Zm-8.8 35.8-.3.1V388l-83.1 48v-15.2l60.3-34.8-.5-.9-42 24.3v-13.8l87.2-50.4 12.8 7.4Zm35.4-20.5-12.8-7.4 8.9-5 12.8 7.3Zm9.9-5.7-12.8-7.4 12.8-7.3 12.8 7.3Zm28.1-16.5-1.7.5a2 2 0 0 0-.9 1.3l-11.7 6.7-12.8-7.3 26.1-15 1 .5Zm1-.3v-13.6l-1-.6 7.7-4.4h25.5Z" fill="#19b5b5"/><path d="m64 262.7-39.2 22.6-.9 1.6 41.2-23.7h28.4l13.9 8-9.5 5.4a5 5 0 0 0-3.9.3l-.7.8h-36L18.5 300l-.5 1.4 39.5-22.8h35.8l.7.7a5 5 0 0 0 4.4 0q1.5-1 .5-2.2l9.5-5.5 7.3 4.2.5-.8-6.8-4 15.8-9.1 7.3 4.2.5-.8-6.8-4 18-10.3 7.2 4.2.5-.9-6.8-3.9 7.8-4.4 3.4 2 .5-1-3-1.6 11-6.4-.5-.8-11.4 6.6-13.3-7.7q1.2-1.2-.4-2.2a5 5 0 0 0-4-.3l-1-.6v-16.3l-11.8-6.8-1.2.5 12 7v15.1l-27.4-15.9-1.1.6 29.6 17q-1 1.2.5 2.2a5 5 0 0 0 3.7.3l13.4 7.7-7.8 4.4-47.9-27.6-1 .5 48 27.7-18 10.3-23-13.3H82l-.7-.7a5 5 0 0 0-3.7-.3L66.4 240l-.9.6 11 6.4q-1.2 1.2.4 2.3a5 5 0 0 0 4.4 0l.8-.9h19.7l22.4 13-15.8 9.2-14.6-8.5H65.1l-15.2-8.7-.7.7Z" fill="#19b5b5"/><path d="M80 233a5 5 0 0 0 4.5 0 1.3 1.3 0 0 0 0-2.5 5 5 0 0 0-2.4-.5l-3 1.7a2 2 0 0 0 1 1.3" fill="#19b5b5"/><g opacity=".5"><path d="M56.2 348.9 90.5 329l-.5-.9L56 348H40.9l-19.1 11 .4.9 19-11Zm10.2 19.5-.5-.8-23 13.2H35l.8 1h7.4Zm24.1-26.6-.5-.8-59.2 34 .6 1Zm170.1-115.1 55-31.8-1.5-.3-54 31.2Zm37.4-34.3-1.6-.2-12.2 7 .5.9Zm-110.5 15-16.9 9.8a5 5 0 0 0-3.1 0L144 203.9l-1.3.4 23.7 13.7a1.2 1.2 0 0 0 0 1.7l-13.6 7.8 21.7 12.5.5-.8-20.2-11.7 12.5-7.2a5 5 0 0 0 3.4.1l18.9 11 .5-1-18.4-10.5a1.2 1.2 0 0 0 0-2.1l17.7-10.3-18-10.3-1.4.3Z"/><path d="M212.6 206v-14.9l-1 .1v14.2l-24.2 14a5 5 0 0 0-3.8.2 1.3 1.3 0 0 0 0 2.6 5 5 0 0 0 4.4 0c1-.6 1.2-1.6.4-2.2l24-13.8Z"/><path d="m450.3 395.8.8-.7-12.4-7.1v-15.4l-107.1-61.9-.5-.7-.4.2-.5-.2v-.1h-24.5l25-14.4 137.6 79.4.6-.8-136.5-78.8c4.2-.1 15.2 0 22.4.2h.2l1.7-1L475.4 363l.4-.9L357.6 294l8.7-5 1.6 1 82.1 47q-1.1 1.3.5 2.3a5 5 0 0 0 4.3 0 1.3 1.3 0 0 0 0-2.6 5 5 0 0 0-3.8-.2L370 290h36.8l68 39.2v22.2l4.5 2.6.3-1-3.8-2.2v-22.2l-25-14.4 4.1-2.4v-11.2l21-12-.4-1L454 300l-.2.2v11.1l-4.1 2.4-18.4-10.6v-8.5l17.6-10.1.3-.2V268l9-5.2-.7-.8-48.5 28-1.6-1h-12.1l56.9-32.8-.8-.7-58 33.5h-25l-1-.6 30.7-17.7-.5-.9-31.2 18L351 279h1.3l42-24.3H414l.7.8a5 5 0 0 0 4.4 0q1.5-1 .5-2.3l17.3-10-.9-.6-17.4 10a5 5 0 0 0-3.9.3l-.7.8h-20L351.9 278h-2.8l-17.4-10 48.4-28h28.7l12.6-7.3-1-.6-12 6.9h-28.7l-49.1 28.4-14.6-8.5 61-35.2a5 5 0 0 0 3.4 0l16 9.3 12.7-7.4-1-.5-11.6 6.7-15.2-8.7a1.2 1.2 0 0 0 0-1.8l8.5-5-1.2-.4-8.3 4.8a5 5 0 0 0-3.2 0l-17-9.9 6-3.4-1.3-.4-5.7 3.3-7.3-4.3q1-1-.5-2.1a5 5 0 0 0-4.4 0q-1.6 1-.4 2.2l-61 35.2-3.8-2.2h-20.2l33.1-19.2h15.1l33.2-19.2-1.4-.3-32 18.5h-15.1L260 238.6l.2.3h-7.4l-18-10.4 33.4-19.3.2-.1v-19.2h-1v18.6L234 227.9l-3.1-1.8-.5 1 2.6 1.4-15.9 9.1-3.1-1.8-.5.9 2.6 1.5-17 9.9-.3.1v.6l-3.7-2-.5.8 4.2 2.4v9l-8.6-5-.5.8 9 5.2v1.3l-14 8.1-12.8-7.3-.5.8 12.2 7.1-14 8.1-12.7-7.3-.5.8 12.2 7-60.2 34.8H85.7L45 337v-15l201.8-116.5.3-.1v-16h-1v15.4l-157.8 91H57l-42.4 24.6-.1 1.2 42.8-24.7h29.3l-42.3 24.4-.3.1v16.2L19 352l.3 1L86 314.5h22.6l60.9-35.2 7 4-16.9 9.7a5 5 0 0 0-4 .2 1.3 1.3 0 0 0 0 2.6 5 5 0 0 0 3.9.2l4.2 2.4-12.4 7.2-.3.1v13.1l-68.7 39.7-.2.1v19.3l-15.5 9a5 5 0 0 0-3.8.2l-.8.7H41l.8 1H62l.3.5-12.7 7.4.8.7 13-7.5a5 5 0 0 0 3.8-.3q1.6-1 .4-2.2l15.2-8.8.3-.1v-19.3l68.6-39.6.3-.2v-13l12.6-7.4 24.2 14-85 49.1-.2.1v21.2l-41.3 23.9.8.6 41.2-23.7.2-.2v-21.2l85.3-49.2 10.9 6.3-15 8.6-.2.1v22.2L83.2 410l17.7 10.3a1.2 1.2 0 0 0 0 2l-7.6 4.4 1 .5 7.6-4.3a5 5 0 0 0 3.4-.2l12.4 7.3-7.8 4.5 1.1.5 8.7-5-13.5-7.9a1.2 1.2 0 0 0 0-1.7l27.3-15.8.2-.1v-11.1l97-56 12.8 7.3-87 50.3-.3.1v15l-17.6 10.2-.2.1v16.4l-9.1 5.2 1.2.5 92.8-53.6.3-.2v-15.4l34.7-20 1 .5V376l13.7 8-17 9.7h-11.8l-94.4 54.6 1.3.3 93.4-53.9h11.9l17.7-10.1 12.7 7.3L257 409c-1 .2-10.3.2-15.1.2h-.2l-74.7 43 1.4.4 73.6-42.4c2 0 14.9 0 15.4-.3l30.5-17.6 12.8 7.4-44.8 25.9h-18.6L207 443.2h-8.1L179 454.7l1.5.3 18.7-10.8h8l30.3-17.6h18.6l45.5-26.3 24.6 14.2h-31.9l-42.7 24.7a5 5 0 0 0-3.8.2 1.3 1.3 0 0 0 0 2.5 5 5 0 0 0 4.4 0q1.5-1 .4-2.2l42-24.2h60.6l-29.8 17.2H294l-44.4 25.6.5.9 44.2-25.5h29.3l-42.4 24.5.5.8 75.4-43.5h9.6l5.4 3.1-16 9.3a5 5 0 0 0-4 .3 1.3 1.3 0 0 0 0 2.5 5 5 0 0 0 4.5 0q1.6-1 .4-2.2l16-9.3 21.9 12.6 1.1-.5-29-16.7-71.1-41q1-1.2-.4-2.2a5 5 0 0 0-4.4 0 1.3 1.3 0 0 0 0 2.6 5 5 0 0 0 3.8.2l70 40.3h-36.8l-68-39.2V353l-1-.5 9-5.1 137 79v.1h.6l1.9-1h-2.2L269.2 347l12.8-7.4L404 410c1 .6 17.3.3 24.4.1l2.6 1.5 1-.6-3.3-1.9h-.1c-8.8.2-23.1.4-24.1 0L283 339l11.2-6.5.5.4a5 5 0 0 0 3.8.2L405 394.5l.1.1h25.8l12.7 7.4.8-.7-13.2-7.6h-25.9L310 338.6h28.6l56 32.3q-1.1 1.2.5 2.3a5 5 0 0 0 4.3 0 1.3 1.3 0 0 0 0-2.6 5 5 0 0 0-3.8-.2L339 337.6h-31l-8.6-5q1.1-1.3-.5-2.3l-.6-.3 32.3-18.6 107 61.8v15.4Zm-19.9-93.4-6.3-3.7 6.3-3.6Zm17.8-34v15.3l-25.1 14.5-13.2-7.6ZM304 309.8l-12.8-7.4 13.5-7.8 1.6 1h.2a570 570 0 0 1 22.5-.2ZM225.4 292l-18 10.4V300L185 287l27-15.5v12.6Zm-10-22.2 24.1 14-13.1 7.6-13.3-7.6V271Zm-2.3.1v-1.3l1.2.6Zm19.4 38-1.6-.5v-3.7l7.4-4.3 28 16.2-12 7L233 310q1.2-1.2-.4-2.2ZM266 289h-11.9l-1.8 1-10.8-6.3 7.7-4.4Zm-15.8-10.3 12-6.9h3l28.8 16.6-1 .6h-25Zm1.1 11.9-13.1 7.6-10.9-6.3 13.2-7.6Zm-14.1 8.2-6.3 3.6v-7.3Zm2 0 13.1-7.6 28.1 16.2-13.1 7.6Zm14.1-8.2 1-.6h13.4l21.4 12.3-7.7 4.5Zm16.4-.6h23.5l1.8-1 8.6 5-13.5 7.8Zm26.3-1.6 16.4-9.5h17.2l-25 14.5Zm-1-.6-27.8-16h26.2l1.7-1 14 8v.1h1.3Zm.1-18.1-14.6-8.5 18.8-10.8 14.6 8.4Zm-1 .5-1 .6h-27.7l-.8-.5 14.8-8.5Zm-45 8-24.1-14 16.4-9.6.8.8a5 5 0 0 0 4.4 0l.7-.8H267l11.5 6.6Zm-1 .5-7.6 4.5-24.3-14 7.8-4.5Zm-40.7 24.7 19-11 3.5 2v8.6l-18.4 10.6-4.1-2.3Zm22.5.8v3.1a5 5 0 0 0-2 .5 1.3 1.3 0 0 0 0 2.6 5 5 0 0 0 4 .2l21.4 12.4-12.8 7.4-28-16.2Zm24.4 19.4 12.8 7.4-12.8 7.4-12.8-7.4Zm1-.6 12-6.9 5.7 3.3.5-.8-5.2-3 13.2-7.6 12.7 7.3-26 15.1Zm27.1-15.6 7.7-4.5 12.8 7.4-7.7 4.5Zm72.2-12.9c-6.6-.1-21.2-.4-24 0-2.8-.4-17.4-.1-24 0l-1-.5 25-14.4 25 14.4Zm10.6-6-8.7 5-25-14.5h17.2Zm-34.6-20 16.4 9.4h-15.6l-.8.5-.8-.4v-.1h-15.6Zm-1-.7L312.3 278h-2.8l-13.3-7.7 18.8-10.8Zm-23.1-21.6V230l40.8-23.6a5 5 0 0 0 3.4 0L376 221a1.2 1.2 0 0 0-.1 1.9l-61 35.2-14.6-8.4 5.9-3.5Zm-1-15.6v15l-6.2 3.6-13-7.4Zm-20.2 11.7 13 7.5-18.8 10.8-12-7h-1.8ZM233.8 229l18.8 10.8h28.7l3.1 1.8-19.8 11.5H247l-.4-.4a5 5 0 0 0-3.9-.2L218 238.2Zm-34.2 19.7 17.4-10 24.8 14.4-.2.2-17.5 10.2-24.5-14.2Zm0 1.8 23.5 13.5-7.8 4.5-15.7-9.1Zm-.2 11.4.2-.1v-1.3l12.6 7.3v2.5l-28 16.2-5.7-3.3 15-8.7-8-4.6Zm-29 16.7 14-8.1 7 4-14 8Zm-10 16.7a1.2 1.2 0 0 0 .1-1.8l17-9.7 5.6 3.3-18.5 10.6Zm5.2 3 18.5-10.7 22.3 13v2.1l-16.6 9.6Zm25.2 14.6 15.6-9v7.8l4.1 2.4-8.8 5.1ZM133 392.5l-.2.2v11.1l-27.6 16a5 5 0 0 0-3.1-.2L85 410l101.2-58.4.2-.1v-22.2l15.2-8.7 28 16.1Zm69.7-72.6 8.9-5.1 28 16.2-8.8 5.1Zm29 16.8 9-5.2 12.7 7.4-8.8 5.1Zm-8.8 35.8-.3.1V388l-83.1 48v-15.2l60.3-34.8-.5-.9-42 24.3v-13.8l87.2-50.4 12.8 7.4Zm35.4-20.5-12.8-7.4 8.9-5 12.8 7.3Zm9.9-5.7-12.8-7.4 12.8-7.3 12.8 7.3Zm28.1-16.5-1.7.5a2 2 0 0 0-.9 1.3l-11.7 6.7-12.8-7.3 26.1-15 1 .5Zm1-.3v-13.6l-1-.6 7.7-4.4h25.5Z"/><path d="m64 262.7-39.2 22.6-.9 1.6 41.2-23.7h28.4l13.9 8-9.5 5.4a5 5 0 0 0-3.9.3l-.7.8h-36L18.5 300l-.5 1.4 39.5-22.8h35.8l.7.7a5 5 0 0 0 4.4 0q1.5-1 .5-2.2l9.5-5.5 7.3 4.2.5-.8-6.8-4 15.8-9.1 7.3 4.2.5-.8-6.8-4 18-10.3 7.2 4.2.5-.9-6.8-3.9 7.8-4.4 3.4 2 .5-1-3-1.6 11-6.4-.5-.8-11.4 6.6-13.3-7.7q1.2-1.2-.4-2.2a5 5 0 0 0-4-.3l-1-.6v-16.3l-11.8-6.8-1.2.5 12 7v15.1l-27.4-15.9-1.1.6 29.6 17q-1 1.2.5 2.2a5 5 0 0 0 3.7.3l13.4 7.7-7.8 4.4-47.9-27.6-1 .5 48 27.7-18 10.3-23-13.3H82l-.7-.7a5 5 0 0 0-3.7-.3L66.4 240l-.9.6 11 6.4q-1.2 1.2.4 2.3a5 5 0 0 0 4.4 0l.8-.9h19.7l22.4 13-15.8 9.2-14.6-8.5H65.1l-15.2-8.7-.7.7Z"/><path d="M80 233a5 5 0 0 0 4.5 0 1.3 1.3 0 0 0 0-2.5 5 5 0 0 0-2.4-.5l-3 1.7a2 2 0 0 0 1 1.3"/></g><ellipse cx="356.8" cy="405.2" rx="26.1" ry="15.1" opacity=".2"/><ellipse cx="139" cy="398.1" rx="26.1" ry="15.1" opacity=".2"/><path d="m32.3 134.6 123.5-70.8c1.7-1 3.1-.2 3.1 1.8v91.3a7 7 0 0 1-3.1 5.4l-123.5 71c-1.8 1-3.2.2-3.2-1.8V140a7 7 0 0 1 3.2-5.5" fill="#19b5b5"/><path d="m32.3 134.6 123.5-70.8c1.7-1 3.1-.2 3.1 1.8v91.3a7 7 0 0 1-3.1 5.4l-123.5 71c-1.8 1-3.2.2-3.2-1.8V140a7 7 0 0 1 3.2-5.5" fill="#fff" opacity=".9"/><path d="M157.2 64.3c.6 0 .7.8.7 1.3v91.3a6 6 0 0 1-2.6 4.6L31.8 232.3l-1 .3c-.6 0-.7-.7-.7-1.2V140a6 6 0 0 1 2.7-4.6l123.5-70.9zm0-1-1.4.5-123.5 70.8a7 7 0 0 0-3.2 5.5v91.3q.1 2.2 1.7 2.2a3 3 0 0 0 1.5-.4l123.5-70.8a7 7 0 0 0 3.1-5.5V65.6q-.1-2.3-1.7-2.3" fill="#19b5b5" opacity=".3"/><g opacity=".3" fill="#19b5b5"><path d="M44 214.2a203 203 0 0 1 1.4-21.5c1-7.8 2.8-21 10.4-25.3S66 171 67 174.8c1.5 5 8.8 1.8 9.8-6.4s1.7-34.5 10.5-39.6S99 136 100 139.4c2 6.7 7.7 4.8 9.6.4s7-5.5 9 .7 3.1 13.4 9.4 9.7c5.5-3.2 3-9 8.4-11.9 4.2-2.2 6.2 8.3 6.2 19Zm.8-52.1q.2 1.8 2.3.8l12.5-7.2a5 5 0 0 0 2.3-3.4q-.2-1.8-2.3-.8L47 158.7a5 5 0 0 0-2.3 3.4m35-36.8q.2 1.8 2.3.8l12.4-7.2a5 5 0 0 0 2.3-3.4q-.2-1.8-2.3-.8L82 122a5 5 0 0 0-2.3 3.4"/><path d="M104.2 130.1q.2 1.8 2.3.8l12.4-7.2a5 5 0 0 0 2.3-3.4q-.2-1.8-2.3-.8l-12.5 7.2a5 5 0 0 0-2.2 3.4m22.8 5.3q.2 1.7 2.3.7l12.5-7.2a5 5 0 0 0 2.3-3.4q-.2-1.7-2.3-.7l-12.5 7.2a5 5 0 0 0-2.3 3.4"/></g><path d="M55.8 169a.5.5 0 0 1-.5-.6v-1l.5-.5.5.5v1zm0 34.4-.5-.5v-2l.5-.5.5.5v2zm0-5.8-.5-.5v-1.9l.5-.5.5.5v1.9zm0-5.7-.5-.5v-1.9l.5-.5.5.5v2zm0-5.7-.5-.5v-2l.5-.4.5.5v1.9zm0-5.7-.5-.5v-2l.5-.5.5.5v2zm0-5.8-.5-.4v-2l.5-.5.5.5v2zm0 33.3-.5-.4v-1l.5-.5.5.5v1zm57.9-70.1-.5-.5v-1l.5-.5.5.5v1zm0 31.3-.5-.5v-2a.5.5 0 0 1 .5-.6l.5.5v2.1zm0-6.2-.5-.5v-2.1l.5-.5.5.5v2a.5.5 0 0 1-.5.6m0-6.3-.5-.5v-2a.5.5 0 0 1 .5-.6l.5.5v2.1zm0-6.3-.5-.5v-2a.5.5 0 0 1 .5-.6l.5.5v2.1zm0-6.2-.5-.5v-2.1l.5-.5.5.5v2a.5.5 0 0 1-.5.6m0 30.2-.5-.5v-1l.5-.5.5.5v1zm22.7-34.7-.5-.5v-1l.5-.5.5.5v1zm0 16.9-.5-.5v-1.9l.5-.5.5.5v1.9zm0-5.6-.5-.5v-2l.5-.4.5.5v1.9zm0-5.7-.5-.5V143l.5-.5.5.5v1.8zm0 16-.5-.5v-1l.5-.5.5.5v1zm-47-32-.5-.5v-1l.5-.5.5.5v1zm0 54.2-.5-.5v-2l.5-.5.5.5v2zm0-6-.5-.5v-2l.5-.5.5.5v2zm0-6-.5-.5v-2l.5-.5.5.5v2zm0-6-.5-.5v-2l.5-.5.5.5v2zm0-6-.5-.5v-2l.5-.5.5.5v2zm0-6-.5-.5v-2l.5-.5.5.5v2zm0-6-.5-.5v-2l.5-.5.5.5v2zm0-6-.5-.5v-2l.5-.5.5.5v2zm0-6-.5-.5v-2l.5-.5.5.5v2l-.5.3Zm0 53-.5-.5v-1l.5-.5.5.5v1z" fill="#fff"/><path d="M467.5 134.6 344 63.8c-1.7-1-3.1-.2-3.1 1.8v91.3a7 7 0 0 0 3.1 5.4l123.5 70.9c1.7 1 3.1.2 3.1-1.8V140a7 7 0 0 0-3.1-5.5" fill="#19b5b5"/><path d="M467.5 134.6 344 63.8c-1.7-1-3.1-.2-3.1 1.8v91.3a7 7 0 0 0 3.1 5.4l123.5 70.9c1.7 1 3.1.2 3.1-1.8V140a7 7 0 0 0-3.1-5.5" fill="#fff" opacity=".9"/><path d="m342.6 64.3.9.3L467 135.5a6 6 0 0 1 2.6 4.5v91.4c0 .5 0 1.2-.7 1.2l-1-.3-123.4-70.8a6 6 0 0 1-2.7-4.6V65.6c0-.5.1-1.3.8-1.3m0-1q-1.6 0-1.8 2.3v91.3a7 7 0 0 0 3.2 5.4l123.5 70.9 1.4.4q1.6 0 1.7-2.2V140a7 7 0 0 0-3.1-5.5L344 63.8z" fill="#19b5b5" opacity=".3"/><path fill="#19b5b5" opacity=".3" d="M349.3 155.3v-4.1l12.2-11.7 9.2 19.3 9.1-10.5 7.4 13.4 21.6-27.8 8.8 19.9 13.7-20.8 18.4 53 13.4 16.8v18.1z"/><path d="m431.3 203-.5-.5v-2l.5-.5.5.5v2zm0-6-.5-.5v-2l.5-.5.5.5v2zm0-6-.5-.5v-2l.5-.5.5.5v2zm0-6-.5-.5v-2l.5-.5.5.5v2zm0-6-.5-.5v-2l.5-.5.5.5v2zm0-6-.5-.5v-2l.5-.5.5.5v2zm0-6-.5-.5v-2l.5-.5.5.5v2zm0-6-.5-.5v-2l.5-.5.5.5v2zm0-6-.5-.5v-2l.5-.5.5.5v2zm0-6-.5-.5v-2l.5-.5.5.5v2zm0-6-.5-.5v-2l.5-.5.5.5v2zm0-6-.5-.5v-2l.5-.5.5.5v2zm-22.4 49-.5-.4v-2a.5.5 0 0 1 1 0v2zm0-6-.5-.4v-2a.5.5 0 0 1 1 0v2zm0-6-.5-.4v-2a.5.5 0 0 1 1 0v2zm0-6-.5-.4v-2a.5.5 0 0 1 1 0v2zm0-6-.5-.4v-2a.5.5 0 0 1 1 0v2zm0-6-.5-.4v-2a.5.5 0 0 1 1 0v2zm0-6-.5-.4v-2a.5.5 0 0 1 1 0v2zm0-6-.5-.4v-2a.5.5 0 0 1 1 0v2zm0-6-.5-.4v-2a.5.5 0 0 1 1 0v2zm-47.4 24-.5-.5v-2l.5-.5.5.5v2zm0-6-.5-.5v-2l.5-.5.5.5v2zm0-6-.5-.5v-2l.5-.5.5.5v2zm0-6-.5-.5v-2l.5-.5.5.5v2zm18.1 26.4-.5-.5v-2l.5-.5.5.5v2zm0-6-.5-.5v-2l.5-.5.5.5v2zm0-6-.5-.5v-2l.5-.5.5.5v2zm0-6-.5-.5v-2l.5-.5.5.5v2z" fill="#fff"/><path d="M368 133.5q-.2 1.8-2.3.8l-7.3-4.3a5 5 0 0 1-2.2-3.4c0-1.1 1-1.5 2.2-.7l7.3 4.2a5 5 0 0 1 2.3 3.4m17.9 13.3q-.2 1.8-2.3.7l-7.3-4.2a5 5 0 0 1-2.3-3.4q.2-1.8 2.3-.7l7.3 4.2a5 5 0 0 1 2.3 3.4m28.9-16.3q-.2 1.8-2.3.8l-7.2-4.3a5 5 0 0 1-2.3-3.4q.2-1.8 2.2-.7l7.3 4.2a5 5 0 0 1 2.3 3.4m23.6-.5q-.2 1.8-2.3.7l-7.3-4.2a5 5 0 0 1-2.3-3.4q.2-1.7 2.3-.7l7.3 4.2a5 5 0 0 1 2.3 3.4" fill="#19b5b5" opacity=".3"/><path d="m394.3 293.4-137.9 79.5a14 14 0 0 1-12.8 0l-138-79.5q-2.6-1.6-2.6-3.7a4 4 0 0 1 1.4-2.8l1.3-1 137.9-79.5a14 14 0 0 1 12.8 0l138 79.5c3.5 2.1 3.5 5.4 0 7.5" opacity=".2"/><path d="M250 336.3V363a13 13 0 0 1-6.4-1.5l-138-79.6q-2.6-1.6-2.6-3.7V255a4 4 0 0 1 1.4-2.8l20 11.5Z" fill="#19b5b5"/><path d="M250 336.3V363a13 13 0 0 1-6.4-1.5l-138-79.6q-2.6-1.6-2.6-3.7V255a4 4 0 0 1 1.4-2.8l20 11.5Z" fill="#fff" opacity=".5"/><path d="M250 336.3V363a13 13 0 0 0 6.4-1.5l138-79.6q2.6-1.6 2.6-3.7V255a4 4 0 0 0-1.4-2.8l-20 11.5Z" fill="#19b5b5"/><path d="M250 336.3V363a13 13 0 0 0 6.4-1.5l138-79.6q2.6-1.6 2.6-3.7V255a4 4 0 0 0-1.4-2.8l-20 11.5Z" fill="#fff" opacity=".7"/><path d="m394.3 258.8-137.9 79.6a14 14 0 0 1-12.8 0l-138-79.6q-2.6-1.6-2.6-3.7a4 4 0 0 1 1.4-2.8l1.3-.9 137.9-79.5a14 14 0 0 1 12.8 0l138 79.5c3.5 2 3.5 5.4 0 7.4" fill="#19b5b5"/><path d="m394.3 258.8-137.9 79.6a14 14 0 0 1-12.8 0l-138-79.6q-2.6-1.6-2.6-3.7a4 4 0 0 1 1.4-2.8l1.3-.9 137.9-79.5a14 14 0 0 1 12.8 0l138 79.5c3.5 2 3.5 5.4 0 7.4" fill="#fff" opacity=".8"/><path d="M250 172a12 12 0 0 1 5.6 1.2l137.9 79.6q1.8 1 1.9 2.3c0 1.3-.7 1.6-1.9 2.3L255.6 337a13 13 0 0 1-11.2 0l-138-79.6q-1.7-1-1.8-2.3a2 2 0 0 1 1-1.6l1-.7 137.8-79.5a12 12 0 0 1 5.6-1.4m0-1.6a13 13 0 0 0-6.4 1.6l-138 79.5-1.2 1a4 4 0 0 0-1.4 2.7q0 2.1 2.7 3.7l137.9 79.6a14 14 0 0 0 12.8 0l138-79.6c3.5-2 3.5-5.4 0-7.4l-138-79.5a13 13 0 0 0-6.4-1.6" fill="#fff"/><path d="m245.7 188-112 64.6c-2.3 1.4-2.3 3.6 0 5l112 64.6a9 9 0 0 0 8.6 0l112-64.6c2.4-1.4 2.4-3.6 0-5l-112-64.6a9 9 0 0 0-8.6 0" fill="#455a64"/><path d="m366.3 252.6-112-64.6a9 9 0 0 0-4.3-1v4.4L365.6 258l.7-.4c2.4-1.4 2.4-3.6 0-5" fill="#37474f"/><path d="M250 187a9 9 0 0 0-4.3 1l-112 64.6c-2.3 1.4-2.3 3.6 0 5l.8.4L250 191.4Z" fill="#263238"/><g fill="#19b5b5"><g opacity=".5"><path d="M257.7 305.8a14 14 0 0 1-7.8 1.9v15.5a10 10 0 0 0 5.2-1.5L365 258.3q3-1.7 3-3.5v-12.6Z" opacity=".3"/><path d="M257.7 292a14 14 0 0 1-7.8 1.8v15.5a10 10 0 0 0 5.2-1.5L365 244.4q3-1.7 3-3.5v-12.6Z" opacity=".3"/><path d="M257.7 278a14 14 0 0 1-7.8 1.9v15.5a10 10 0 0 0 5.2-1.6L365 230.5q3-1.7 3-3.5v-12.6Z" opacity=".3"/><path d="M257.7 264.1a14 14 0 0 1-7.8 1.9v15.5a10 10 0 0 0 5.2-1.5L365 216.6q3-1.7 3-3.5v-12.6Z" opacity=".2"/><path d="M257.7 250.2a14 14 0 0 1-7.8 1.9v15.5a10 10 0 0 0 5.2-1.6L365 202.8q3-1.7 3-3.5v-12.6Z" opacity=".2"/><path d="M257.7 236.3a14 14 0 0 1-7.8 1.9v15.5a10 10 0 0 0 5.2-1.5L365 188.7q3-1.4 3-3.4v-12.6Z" opacity=".2"/><path d="M257.7 222.4a14 14 0 0 1-7.8 1.9v15.5a10 10 0 0 0 5.2-1.6L365 174.8q3-1.4 3-3.5v-12.5Z" opacity=".2"/><path d="M257.7 208.5a14 14 0 0 1-7.8 1.8V226a10 10 0 0 0 5.2-1.6L365 161q3-1.4 3-3.5V145Z" opacity=".1"/><path d="M257.7 194.6a14 14 0 0 1-7.8 1.9V212a10 10 0 0 0 5.2-1.6L365 147q3-1.5 3-3.5V131Z" opacity=".1"/><path d="M257.7 180.7a14 14 0 0 1-7.8 1.8v15.6a10 10 0 0 0 5.2-1.6L365 133.1q3-1.5 3-3.5v-12.5Z" opacity=".1"/><path d="M257.7 166.8a14 14 0 0 1-7.8 1.8v15.6a10 10 0 0 0 5.2-1.6L365 119.2q3-1.5 3-3.5v-12.5Z" opacity=".1"/></g><g opacity=".7"><path d="M242 305.8a14 14 0 0 0 7.9 1.9v15.5a10 10 0 0 1-5.3-1.5l-109.8-63.4q-3-1.7-3-3.5v-12.6Z" opacity=".5"/><path d="M242 292a14 14 0 0 0 7.9 1.8v15.5a10 10 0 0 1-5.3-1.5l-109.8-63.4q-3-1.7-3-3.5v-12.6Z" opacity=".5"/><path d="M242 278a14 14 0 0 0 7.9 1.9v15.5a10 10 0 0 1-5.3-1.6l-109.8-63.4q-3-1.5-3-3.5v-12.5Z" opacity=".4"/><path d="M242 264.1a14 14 0 0 0 7.9 1.9v15.5a10 10 0 0 1-5.3-1.5l-109.8-63.4q-3-1.7-3-3.5v-12.6Z" opacity=".4"/><path d="M242 250.2a14 14 0 0 0 7.9 1.9v15.5a10 10 0 0 1-5.3-1.6l-109.8-63.3q-3-1.7-3-3.5v-12.6Z" opacity=".3"/><path d="M242 236.3a14 14 0 0 0 7.9 1.9v15.5a10 10 0 0 1-5.3-1.5l-109.8-63.5q-3-1.4-3-3.4v-12.6Z" opacity=".3"/><path d="M242 222.4a14 14 0 0 0 7.9 1.9v15.5a10 10 0 0 1-5.3-1.6l-109.8-63.4q-3-1.4-3-3.5v-12.5Z" opacity=".3"/><path d="M242 208.5a14 14 0 0 0 7.9 1.8V226a10 10 0 0 1-5.3-1.6L134.8 161q-3-1.4-3-3.5V145Z" opacity=".2"/><path d="M242 194.6a14 14 0 0 0 7.9 1.9V212a10 10 0 0 1-5.3-1.6L134.8 147q-3-1.5-3-3.5V131Z" opacity=".2"/><path d="M242 180.7a14 14 0 0 0 7.9 1.8v15.6a10 10 0 0 1-5.3-1.6l-109.8-63.4q-3-1.5-3-3.5v-12.5Z" opacity=".2"/><path d="M242 166.8a14 14 0 0 0 7.9 1.8v15.6a10 10 0 0 1-5.3-1.6l-109.8-63.4q-3-1.5-3-3.5v-12.5Z" opacity=".1"/><path d="M242 152.9a14 14 0 0 0 7.9 1.8v15.6a10 10 0 0 1-5.3-1.6l-109.8-63.4q-3-1.5-3-3.5V89.3Z" opacity=".1"/></g></g><path d="M329.8 196.2s3.3 3.4 1 9.5-9.5 7-9.5 7 1 9.8-15 11v-2s7.4-.3 7.5-11.7-8.4-13-8.4-13a10 10 0 0 0 1.3-9.2c-2-6.2-6.5-5.6-6.5-5.6s3.2-2.3 1.8-8.1c-1.3-5.4-5.3-6-5.3-6s3-5.5-2.5-12.7-11.1-6.1-11.1-6.1a16 16 0 0 0-3.9-9.7c-3.9-4.5-10-3.9-10-3.9a16 16 0 0 0-5.2-12.2c-5.8-5.5-11.7-5.2-11.7-5.2a9 9 0 0 0-3.9-8.1 11 11 0 0 0-10.5-1.6s-1-7-7.2-8.4c-8-1.8-12 3-12 3s-2.7-3.6-8.8-4.6a31 31 0 0 1 8.1-7.4c7.3-4.5 18.2-1.6 18.2-1.6a14 14 0 0 1 9.6-2.7 11 11 0 0 1 8.2 4.8s3.4-2.5 11.5-2 10 7 10 7a20 20 0 0 1 11.4 3.1c6 3.7 6 11.7 6 11.7s7.3-2 13.7 4.6S310 129 310 129a14.4 14.4 0 0 1 11.4 21.2 6 6 0 0 1 4 4c1.3 3.1 0 5 0 5s6.2 2.7 7.8 9.3-1.6 10.4-1.6 10.4a10 10 0 0 1 5.2 9.2c0 6.8-7 8.2-7 8.2" fill="#19b5b5"/><path d="M329.8 196.2s3.3 3.4 1 9.5-9.5 7-9.5 7 1 9.8-15 11v-2s7.4-.3 7.5-11.7-8.4-13-8.4-13a10 10 0 0 0 1.3-9.2c-2-6.2-6.5-5.6-6.5-5.6s3.2-2.3 1.8-8.1c-1.3-5.4-5.3-6-5.3-6s3-5.5-2.5-12.7-11.1-6.1-11.1-6.1a16 16 0 0 0-3.9-9.7c-3.9-4.5-10-3.9-10-3.9a16 16 0 0 0-5.2-12.2c-5.8-5.5-11.7-5.2-11.7-5.2a9 9 0 0 0-3.9-8.1 11 11 0 0 0-10.5-1.6s-1-7-7.2-8.4c-8-1.8-12 3-12 3a11 11 0 0 0-2.7-2.3l-.5-.3a16 16 0 0 0-5.6-2 31 31 0 0 1 8.1-7.4c7.3-4.5 18.2-1.6 18.2-1.6a14 14 0 0 1 9.6-2.7 11 11 0 0 1 8.2 4.8s3.4-2.5 11.5-2 10 7 10 7a20 20 0 0 1 11.4 3.1c6 3.7 6 11.7 6 11.7s7.3-2 13.7 4.6S310 129 310 129a14.4 14.4 0 0 1 11.4 21.2 6 6 0 0 1 4 4c1.3 3.1 0 5 0 5s6.2 2.7 7.8 9.3-1.6 10.4-1.6 10.4a10 10 0 0 1 5.2 9.2c0 6.8-7 8.2-7 8.2" opacity=".1"/><path d="M308 196a12 12 0 0 0 .5-8.8c-1.2-3.5-3.2-5.4-5-6.2a11 11 0 0 0 .3-7.3 10 10 0 0 0-4.8-6.8c.6-2.5.8-7.1-3.3-12.6s-8.5-6.7-11-7a19 19 0 0 0-4-9 14 14 0 0 0-9.7-4.5 18 18 0 0 0-5.7-11.6 21 21 0 0 0-11-5.7 11 11 0 0 0-4.7-7.8 13 13 0 0 0-10.4-2.4c-.8-2.6-3-6.8-8-8a15 15 0 0 0-12.4 2.3 17 17 0 0 0-7.5-3.6l-2.7 3.4c5.9.6 8.4 3.7 8.6 4a2 2 0 0 0 1.4.7 2 2 0 0 0 1.5-.7c.2-.1 3.5-3.8 10.2-2.3 4.8 1 5.7 6.6 5.7 6.9a2 2 0 0 0 2.7 1.4 9 9 0 0 1 8.6 1.3 8 8 0 0 1 3.2 6.4 2 2 0 0 0 .5 1.5 2 2 0 0 0 1.4.6c.2 0 5.2 0 10.3 4.7a14 14 0 0 1 4.6 10.7 2 2 0 0 0 .5 1.5 2 2 0 0 0 1.6.6s5.2-.5 8.4 3.2a15 15 0 0 1 3.4 8.4 2 2 0 0 0 .7 1.5 2 2 0 0 0 1.5.4c.2 0 4.6-.7 9.3 5.4s2.4 10.4 2.3 10.6a2 2 0 0 0 0 1.7 2 2 0 0 0 1.3 1c.1 0 2.9.7 3.9 4.7 1 4.4-1 6.1-1.1 6.2a2 2 0 0 0-.6 2.2 2 2 0 0 0 2 1.2c.3 0 3-.2 4.4 4.2a9 9 0 0 1-1 7.4 2 2 0 0 0-.3 1.8 2 2 0 0 0 1.4 1.2c.3.1 7 1.7 7 11.3-.2 9.2-5.5 9.7-5.7 9.7a2 2 0 0 0-1.8 2.2v1.5l1.9.3 1.9-.2v-.4c2.7-1 7.2-3.9 7.3-13 .1-8.3-4-12.6-7.5-14.3" opacity=".2"/><path d="M306.3 221.7s7.3-.3 7.5-11.7-8.4-13-8.4-13a11 11 0 0 0 1.3-9.2c-2-6.2-6.5-5.6-6.5-5.6s3.2-2.3 1.8-8c-1.3-5.5-5.4-6.2-5.4-6.2s3-5.4-2.4-12.6-11.1-6.1-11.1-6.1a16 16 0 0 0-3.9-9.7c-3.9-4.5-10-3.9-10-3.9a16 16 0 0 0-5.2-12.2c-5.8-5.5-11.6-5.2-11.6-5.2a9 9 0 0 0-4-8.1 11 11 0 0 0-10.5-1.6s-1-7-7.2-8.4c-8-1.8-12 3-12 3s-5.4-7.2-18.5-4c-11 2.6-11.8 10.9-11.8 10.9s-11.3-2.2-16.4 5.6-3.6 17.8-3.6 17.8-6.4 4.5-6.1 11.3a21 21 0 0 0 3.2 10.6s-6.5 11-2 20a21 21 0 0 0 12.7 11s0 9.7 4.5 14.6 12.6 4.5 12.6 4.5a17 17 0 0 0 8.7 10c6.8 3.2 14 .6 14 .6a18 18 0 0 0 8 5.5c5.2 1.7 11.6 0 11.6 0a8 8 0 0 0 6.8 6.8c6.2 1.3 9.4-2.6 9.4-2.6s2 4.2 6.4 4.6a9 9 0 0 0 7.2-2.6s2.5 8 13.2 8.4 13.3-4.3 13.3-4.3 5.1 3.6 10.3-.2a11 11 0 0 0 4.1-10" fill="#19b5b5"/><path d="M306.3 221.7s7.3-.3 7.5-11.7-8.4-13-8.4-13a11 11 0 0 0 1.3-9.2c-2-6.2-6.5-5.6-6.5-5.6s3.2-2.3 1.8-8c-1.3-5.5-5.4-6.2-5.4-6.2s3-5.4-2.4-12.6-11.1-6.1-11.1-6.1a16 16 0 0 0-3.9-9.7c-3.9-4.5-10-3.9-10-3.9a16 16 0 0 0-5.2-12.2c-5.8-5.5-11.6-5.2-11.6-5.2a9 9 0 0 0-4-8.1 11 11 0 0 0-10.5-1.6s-1-7-7.2-8.4c-8-1.8-12 3-12 3s-5.4-7.2-18.5-4c-11 2.6-11.8 10.9-11.8 10.9s-11.3-2.2-16.4 5.6-3.6 17.8-3.6 17.8-6.4 4.5-6.1 11.3a21 21 0 0 0 3.2 10.6s-6.5 11-2 20a21 21 0 0 0 12.7 11s0 9.7 4.5 14.6 12.6 4.5 12.6 4.5a17 17 0 0 0 8.7 10c6.8 3.2 14 .6 14 .6a18 18 0 0 0 8 5.5c5.2 1.7 11.6 0 11.6 0a8 8 0 0 0 6.8 6.8c6.2 1.3 9.4-2.6 9.4-2.6s2 4.2 6.4 4.6a9 9 0 0 0 7.2-2.6s2.5 8 13.2 8.4 13.3-4.3 13.3-4.3 5.1 3.6 10.3-.2a11 11 0 0 0 4.1-10" fill="#fff" opacity=".2"/><g opacity=".1"><path d="M221.2 129.4a32 32 0 0 0-4-6c-1.2-1.3-3-3.2-5-3-.5 0-.1 1 .3 1 1.7.3 3 1.8 4 3.2l2.7 4.7a32 32 0 0 1 3.8 13.6c.2 4-.8 8.1-4.6 10-4.5 2.4-10.3 1-14.6-1.2a12 12 0 0 1-6.7-9c0-.5-.8-1-.8-.2a12 12 0 0 0 1.5 6.1 13 13 0 0 0 4.6 4.2c4.4 2.6 9.6 4 14.6 2.7 11.7-3 8.3-18.3 4.2-26"/><path d="M208.5 135.6a11 11 0 0 0-1.6-4.5 15 15 0 0 0-3.2-3.8 12 12 0 0 0-4.3-2.5c-.7-.1-.7.8-.3 1.1l3.7 2.5a14 14 0 0 1 2.7 3.4 10 10 0 0 1 1.2 3.9v2.2l-.4 2c0 .4.3 1 .7.7a6 6 0 0 0 1.5-5"/><path d="M214.2 112.1a32 32 0 0 0-11-1 20 20 0 0 0-9.6 3.4c-5 3.4-8.9 8.4-9.9 14.5-.5 3.4-.8 7.6 2.2 10 .4.3 1 .1.8-.4a14 14 0 0 1-1.1-6 27 27 0 0 1 .8-5.2 19 19 0 0 1 5.6-9 20 20 0 0 1 10.2-5.4 27 27 0 0 1 6-.1 34 34 0 0 0 6.2.2c.5 0 .1-.9-.2-1m-22.7 37.7a18 18 0 0 0-14.8-8.7c-4.6 0-11.7 2.6-11 8.4a10 10 0 0 0 4.4 7.1 4 4 0 0 0 3.7.2c1.4-.8 1.6-2.5 2-3.9 0-.2-.3-.7-.5-.4-1.1 1.2-2.3 4.2-4.4 2.7a9 9 0 0 1-3.3-5.2c-.8-4.5 4.3-6.6 7.9-7.1 5-.7 9.4 1.9 12.7 5.4 2 2.4 4.8 7.2 1.4 9.6a5 5 0 0 1-3.8.9c-1.6-.3-1.8-1.5-2-2.9-.2-.7-1.4-1-1.6-.2a3.6 3.6 0 0 0 1.9 4.2 7 7 0 0 0 5 .3 6 6 0 0 0 3.8-3.3c.9-2.3-.2-5.1-1.4-7.1"/><path d="M237 205.7c-2.7-5-7.5-8.4-12.5-10.7l-2.4-1a14 14 0 0 0 2.5-3 26 26 0 0 0 3.3-7.2 9 9 0 0 0-1-7.3 8 8 0 0 0-2.8-2.6c-1.1-.6-3-1.2-4.3-.7-.5.3 0 1 .4 1 1.3.4 2.4.4 3.6 1.2a6 6 0 0 1 2 2.8 9 9 0 0 1-.2 5.8 25 25 0 0 1-2.9 5.8l-2 2.4-1.2.8-13-4c-6.2-2-12-5-16.3-10a22 22 0 0 1-5.5-10.3 22 22 0 0 1-.3-4.9c0-1.3.2-3.1 1.2-4.1.4-.5-.5-1.5-1-1.1-2.1 1.3-2 4.6-2 6.8a20 20 0 0 0 2.4 10 33 33 0 0 0 14.7 13.3c10.3 5 23.5 5.1 32 13.8a16 16 0 0 1 4.4 8.1 13 13 0 0 1 0 5.1c-.3 1.6-1.3 2.8-1.8 4.3-.2.3.4 1 .8.8 2.4-1.1 3.3-4.5 3.5-7a16 16 0 0 0-1.7-8.1"/><path d="M223.9 206.3c-2.9-2-6.4-2.6-9.7-3.3s-6.7-1.5-10-2.5l-4.7-1.7c-2.3-1-4.2-2.5-6.4-3.4a.5.5 0 0 0-.7.6c.7 1.4 2.4 2.4 3.7 3.2l4 2a63 63 0 0 0 9.2 2.7c3.7.9 7.8 1.3 11.4 2.6a12 12 0 0 1 3 1.7c1.2.9 2.9 2.2 3 3.7 0 .5.9 1 1 .3.3-2.6-2-4.5-3.8-6m-45.4-27.6a20 20 0 0 0-3.9-5c-2-2.2-3.4-4.5-3.4-7.6a27 27 0 0 1 .6-4.8c.3-1.7.8-3.6.2-5.2q-.3-.6-.7-.2l-.6 2.4-.4 2.3-.7 4.5a11 11 0 0 0 2.2 7.5l4.1 4.8a7 7 0 0 1 1.3 2.5c.4 1.6-.2 3-.5 4.5 0 .3.2 1 .5.7a5.5 5.5 0 0 0 1.3-6.4m116.2-9.3a20 20 0 0 0-4.3 2 14 14 0 0 1-5 1.4c-3.1.2-6.2-.8-9.2-.8a10 10 0 0 0-7.2 3.2l-1.8 2.5-2-2a26 26 0 0 0-8.8-5.4 55 55 0 0 0-11.3-2.4c-3.5-.5-6.8-.9-10-2.5-2.6-1.3-5.7-3.2-6.5-6.2-.1-.5-1-.7-.9 0 .3 2.6 2.2 4.6 4.2 6.1a19 19 0 0 0 7.4 3.6c7 1.6 14.4 1.5 20.6 5.5a23 23 0 0 1 10.4 15.2c.9 5.3 1.3 11.9-2.8 16a45 45 0 0 1-9.9 6.9l-2.6 1.5a24 24 0 0 0 1-4.8 25 25 0 0 0-.9-10 23 23 0 0 0-4.7-8.2c-2.5-2.8-5.7-4.6-8.7-6.9a21 21 0 0 1-4.7-4.5q-2.2-3.1-4.1-6.5c-.3-.4-.6.1-.4.4 1.5 3.4 3 6.8 5.5 9.6s5.8 4.5 8.6 7a22 22 0 0 1 7.4 16.6 21 21 0 0 1-.7 6l-1.3 4a6 6 0 0 0-1.4 2.8c0 .5.8 1.3 1.2.8a23 23 0 0 1 3.5-3.7 27 27 0 0 1 4-2.5 46 46 0 0 0 9-6.2 14 14 0 0 0 4.6-7.1 25 25 0 0 0 .3-8.7 28 28 0 0 0-2-8.4 23 23 0 0 0-2.2-3.8l.6-1.6a10 10 0 0 1 2.3-2.6c2-1.8 4.8-1.6 7.4-1.3 2.9.4 5.8.8 8.7 0a18 18 0 0 0 4-1.6 11 11 0 0 0 3.4-2.4c.2-.4-.3-1-.7-1"/><path d="M285.5 158.4c-1.7-4-6.2-5.8-10-7.2a56 56 0 0 1-12.4-5.6 21 21 0 0 1-4.8-4.3 18 18 0 0 1-3.5-9.2c0-.6-1.3-1.1-1.4-.4-1.6 8.4 5.3 14.3 12 17.8 3.6 1.8 7.4 3 11.1 4.4 3 1.1 7.8 3.5 7.1 7.5-.3 2-2 2.6-3.8 3a28 28 0 0 1-7 .6 67 67 0 0 1-14.4-2.3 34 34 0 0 1-20.8-15.5 33 33 0 0 1-4.4-14.6 35 35 0 0 1 .4-7.7c.4-3 1-6.3 2.7-8.8.1-.2 0-.7-.2-.5a12 12 0 0 0-3 5.8 53 53 0 0 0-1.2 6.9 32 32 0 0 0 1.8 15.2 36 36 0 0 0 18.7 19.3 59 59 0 0 0 13.8 3.5 36 36 0 0 0 15.2-.2 6 6 0 0 0 4.2-3 6 6 0 0 0 0-4.7"/><path d="M269 157.8q-2.7-.9-5.5-1.4a39 39 0 0 1-5.4-2.1 24 24 0 0 1-8-6.6 24 24 0 0 1-5.1-10.2c-.7-4 .4-7.9.6-11.8 0-.4-.6-1.2-.8-.6a24 24 0 0 0-1.7 13.7 25 25 0 0 0 5.4 10.5 23 23 0 0 0 9 6.8 36 36 0 0 0 6 1.8c1.7.4 4 1 5.7.6.3 0 .1-.7-.2-.7m30 32.8c-3.7-3.6-10.6-4.6-11.8-10.5-.1-.4-.8-.8-.8-.2-.5 5 5.4 8 8.9 10.2a11 11 0 0 1 4.8 5.4c1.2 2.8.8 5.5-.2 8.3q0 .8.6.7c4.8-3.3 2-10.8-1.4-13.9m8.7 21.4c-2 1.8-4 3.2-6.9 3.4a14 14 0 0 1-6.9-1.7 7 7 0 0 1-4.3-5.7 12 12 0 0 1 .3-4.5l.9-4.3.2.1a12 12 0 0 1 2.8 4c.1.2.6.5.8.1.8-1.6-.4-3.3-1.5-4.4a21 21 0 0 0-4.1-3l-4.9-3.2-2.1-2-2.7-3.3q-.3-.2-.3.2c0 2 1.7 3.8 3 5a27 27 0 0 0 5 3.8l2.3 1.5-.3.5-1.3 4.3a14 14 0 0 0-.4 4.3 9 9 0 0 0 2.5 6.1 16 16 0 0 0 12.7 3.8 10 10 0 0 0 3.4-1.2 5 5 0 0 0 2.6-3.2c0-.4-.4-1-.8-.6m-15.1 15.8-.6-2a19 19 0 0 0-2.3-3.8 11 11 0 0 0-3.5-2.8l-2.1-1h-.5l.5-2a20 20 0 0 0-.8-6.5c-.6-2-1.5-4.1-3.6-5-.8-.4-.8.7-.2 1 .8.6 1.3 2.3 1.6 3.3l.8 3.6c.2 1.8.4 3.8-.5 5.5l-.1.2-.3.5c-1.7 2.1-4.4 3-6.7 4.2s-4.9 2.5-5.2 5.2c0 .5.6 1.1 1 .7a16 16 0 0 1 5.8-4.5 24 24 0 0 0 5.8-3.4l1.2-1.4h.2l.8.3 1.7.7a9 9 0 0 1 2.7 2.1l1.5 2.3 1 1.7.6 1.6.4 1q0 .2.4.2.6-.6.4-1.7M276 207.7c0-.3-.5-.7-.6-.2a9 9 0 0 1-2.3 4.8 24 24 0 0 1-4 3.2 22 22 0 0 0-3.9 3.2 8 8 0 0 0-1.4 2.1 4 4 0 0 0-.2 2.7c0 .2.3.7.6.4l1.8-2.8 1.6-2 3.7-2.8a14 14 0 0 0 3.7-3.5 8 8 0 0 0 1-5m-51.3-41a14 14 0 0 0-4.4-1.3 37 37 0 0 0-13.2.7 46 46 0 0 0-10.1 3.2 25 25 0 0 0-4.8 2.9c-1 .8-3 2.2-2.4 3.6q.2.6.6.5c1.5-.4 2.6-2 3.8-2.8a23 23 0 0 1 4.1-2.4 44 44 0 0 1 8.9-2.9 42 42 0 0 1 11.4-1.2l4 .4a9 9 0 0 1 3.4 1.7h.4c.5-1.2-1-2-1.7-2.4m-21-9.1-1.6 1.2-1.7 1.5a19 19 0 0 1-4 2.5 17 17 0 0 1-4.1 1.3l-2 .3-2 .1c-.6.2-.3.9 0 1 1.3.9 3.4.5 4.8.3a17 17 0 0 0 4.6-1.5 19 19 0 0 0 4-2.7l1.7-1.7a3 3 0 0 0 .9-1.8q0-.6-.6-.5"/></g><g opacity=".1"><path d="M277.3 99.5q-.4-.2-.4.2l-.1 3a12 12 0 0 1-1.2 3.8c-1.2 2.3-3.2 4.7-5.8 5.5-6.3 2-11.8-2.2-16.2-6.2l-.9-2.4a21 21 0 0 0-3.6-5.5 35 35 0 0 0-4.4-4.3l-2.7-1.8a4 4 0 0 0-2.6-.6c-.5.1-.3.9.1 1a10 10 0 0 1 4.3 2.7l3.7 4a19 19 0 0 1 3.3 5l1 3.5q0 .8.3 1.6l.7 1.9q.3.6.7.2a5 5 0 0 0 .5-2.4 17 17 0 0 0 5.5 4.1 16 16 0 0 0 10.7 1.2 11 11 0 0 0 6.6-5.3c1.6-2.7 2.7-6.6.5-9.2m13.9 21.3a13 13 0 0 0-8-3.2c-.6 0-.2 1.1.2 1.1a13 13 0 0 1 5.9 2.7c1.3 1 3.4 2.7 3.4 4.6 0 2.6-4.6 3-6.4 3a18 18 0 0 1-9.8-3.7 20 20 0 0 1-4-3.6c-1.4-1.6-2-3.6-2.9-5.4-.1-.3-.7-.6-.7 0a10 10 0 0 0 2 6.3 18 18 0 0 0 4.2 4.3 20 20 0 0 0 11.2 4.2c2.8 0 7.9-1 8.5-4.3.4-2.5-1.9-4.7-3.7-6m28.3 27.8c-1.2-.3-2.6.2-3.8.3l-4.4.6a26 26 0 0 1-8.5-.3 21 21 0 0 1-6.5-2.7 28 28 0 0 1-6-5.6q-.6-.4-.7.3a7 7 0 0 0 1.6 3.5 13 13 0 0 0 2.7 2.7 21 21 0 0 0 7.3 3.5 26 26 0 0 0 9.1.7l5.1-.7 2.6-.6q1.1 0 1.9-.7a1 1 0 0 0-.4-1"/><path d="M310.5 134.1c-.6 0 0 1 .3 1 1.5.5 2 3.9 1.3 5.2-1 2-4.3 2.1-6.2 2.1a18 18 0 0 1-9-2.3c-2.5-1.5-4.5-3.6-7-5.2-.4-.2-.5.4-.3.6 2.3 2.8 4.7 5.6 8 7.1a19 19 0 0 0 11 1.6c2.4-.4 5.4-1.4 5.7-4.3.3-2.3-1-5.9-3.8-5.8m12.1 24.1-.4-.2-.6-.2-1.1-.1-2.5.1a22 22 0 0 0-5.4 1.7 10 10 0 0 0-3.8 2.7 10 10 0 0 0-1.7 5.4 7 7 0 0 0 .8 3.8 6 6 0 0 0 5 3l.5-.2v-.7l-.5-.6a11 11 0 0 1-2.4-2.3 6.3 6.3 0 0 1 2-8.7 20 20 0 0 1 5-2 9 9 0 0 1 5.7 0 .4.4 0 0 0 .4-.4c.1-.3-.7-1.2-1-1.3"/><path d="M327.3 181c-2-4.2-6.9-6.9-11.4-7.6-2.5-.5-6.8-.6-8.4 1.7l-.2.4.5.5h.7c2-.3 3.7-1 5.8-.8a14 14 0 0 1 10 5.5c1.7 2.5 2.2 6.6.3 9.1-1.7 2.2-4.6 2.2-7 1.5a7 7 0 0 1-3.7-1.9c-.8-1-.2-2 .5-3 .4-.5-.3-1.5-.9-1.1-1.6 1-3 2.8-1.9 4.7a7 7 0 0 0 3.8 2.8c3.2 1.2 7.2 1.5 10.1-.8 3.1-2.5 3.3-7.6 1.8-11m-4.6 21a12 12 0 0 0-3-4 6 6 0 0 0-4.6-1.5c-.6 0-.2 1 .2 1 2.8.2 4.7 3 5.7 5.3a12 12 0 0 1 .8 3.8v1.8l-.1.7-.1 1.3q0 .6.7.6c.7-.3 1.2-1.3 1.4-2a7 7 0 0 0 .3-2.4 12 12 0 0 0-1.3-4.6"/></g><g opacity=".2" fill="#fff"><path d="M227.2 125.3q-1-.2-1.7 1.6c-1 2.8 0 7.6.3 10.5a79 79 0 0 0 2 12.4c.9 3.4 2 6.7 4.2 9.3a20 20 0 0 0 8 5.3c8 3.2 17.2 3.7 25 7.8 1 .5 2.1 1 3 .3a2 2 0 0 0 .1-2.2 4 4 0 0 0-1.8-1.5c-3.1-1.5-6.6-2-9.9-3a40 40 0 0 1-15.4-7.6 28 28 0 0 1-9.4-14.2c-.9-3.5-1-7.2-1.5-10.9-.3-1.9-.1-4-.9-5.8a3 3 0 0 0-2-2m-16.9 14.3a7 7 0 0 1-6.4 6.2 3 3 0 0 0-1.7.5c-.7.8.3 2.1 1.2 2.8 3.1 2 6.9 4 10.5 3 3.8-1 6.2-5 6.3-9 .2-3.3-2-20.7-8.7-15.4-3.2 2.5-.8 8.5-1.2 11.9m-7.2-.3c2.6-8.9-14-18.8-14.6-7.3a8 8 0 0 0 .8 4.4c2.5 4.5 6.7-2.5 10.3 1.9l1.3 1.6a1.4 1.4 0 0 0 1.9.1zm39.4 39.2a8 8 0 0 0 2 1.8c6.9 5 12.8 12.3 13.5 20.8.1 1.9.3 4.1 2 4.8a4 4 0 0 0 3-.4 11 11 0 0 0 5.3-9.2 22 22 0 0 0-2.5-10.7 17 17 0 0 0-10.8-10c-2.1-.5-16-2.2-12.5 3m-43.2-1.8c2 .3 4.1 1.7 6.3 2 2.7.3 5.8 0 8.1-1.6l2.3-1.9a4.5 4.5 0 0 1 5.2 1.1 7 7 0 0 1 1.8 5.4 8 8 0 0 1-3 6.2c-2.6 1.7-6.1 1-9.1.2a36 36 0 0 1-13.3-6.6 5 5 0 0 1-1.6-2 2 2 0 0 1 .4-2.2 3 3 0 0 1 1.8-.6z"/><path d="M242.5 151c4.2 4.6 9.9 7.5 15.6 9.7 5.5 2.2 14.2 5.2 20 2.8 1.8-.8 3.3-2.6 3-4.6s-1.8-3.1-3.5-4c-5.8-3.1-12.5-4.3-18.4-7.3-1.1-.6-2.6-1-3.5-.2s-.3 2.4.6 3.1a21 21 0 0 0 4.7 3.2c2.2 1 6.6 1.4 8.3 3s.2 2.8-1.8 2.5a41 41 0 0 1-16.6-5.7 23 23 0 0 1-9-11 32 32 0 0 1-1.5-5.1c-.2-1 .2-3.8-.7-4.5-2.9-2.3-2.6 6.6-2.4 7.7a21 21 0 0 0 5.2 10.4m-10.1-44.4a8 8 0 0 0-7.3-3.3 14 14 0 0 0-7.7 3.2 18 18 0 0 0-14.2-4 15 15 0 0 0-10 5.5c-.4.6-.8 1.5-.2 2l.9.2c3.9.2 7.8-1.6 11.9-1.5a24 24 0 0 1 12 3.2c2.4 1.5 4.5 3.5 7 4.4a6.4 6.4 0 0 0 7.6-9.7m-56.8 10.7a19 19 0 0 0-4.1 11.3c-.1 4.5 1.8 8.2 6.8 8.2l1.4-.3c1.4-.7 1.3-2.6 1.1-4.1a22 22 0 0 1 3-13.1c.7-1.2 1.5-2.4 1.1-3.6a3 3 0 0 0-2.4-1.9c-2.8-.4-5.2 1.4-6.9 3.5m74.2 95.5a30 30 0 0 0-.6-10.4 22 22 0 0 0-8.3-12.5c-2.1-1.5-6.3-4-8.9-2.2s-1.8 5.3-.3 7.4 3.9 3.5 5.6 5.5a17 17 0 0 1 3.6 9.2c.3 2.9-.7 5.4-.6 8.2a3 3 0 0 0 1.2 2.5 3 3 0 0 0 1.8.4 6 6 0 0 0 5-3.3 13 13 0 0 0 1.5-4.8M201.6 197l14.1 4.8a36 36 0 0 1 7.7 3.2 12 12 0 0 1 5.4 6.3c.4 1.3.7 2.9 2 3.3a2.4 2.4 0 0 0 2.8-1.7 5 5 0 0 0-.5-3.6c-2.4-5.8-8.1-9.8-14-12.3s-12.2-3.7-18-6.2a50 50 0 0 1-15.8-10.5c-2.1-2.1-4.5-2.5-4.2 1.1.6 9.6 13 13.2 20.5 15.7m82.6-15.1c-1.5-1.9-3.5-.4-3.6 2.3s2 5.2 4.2 6.8 5 2.7 7 4.6a17 17 0 0 1 2.9 3c1 1.4 1.6 6.2 4.3 3.5 2-1.9 1-6.3-.4-8.1a19 19 0 0 0-6.6-5.1c-2.6-1.5-6-3.4-7.4-6.1zm8.8 34.8a12 12 0 0 1-6.6-6.2q-.3-.9-1-1c-.7 0-.5.8-.4 1.2.3 1.7.3 3.5 1.1 5a16 16 0 0 0 3.6 4 10 10 0 0 1 2.8 3.3c.6 1.3.5 2.9 1.3 4.1a4 4 0 0 0 2 1.5 5.5 5.5 0 0 0 7-3c2.3-6.5-5.2-7.2-9.8-9m-116-72.1a8 8 0 0 0-3 .4 3 3 0 0 0-2 2.2 4 4 0 0 0 2 3.6 18 18 0 0 0 4.3 1.2 16 16 0 0 1 6.2 3.3c.8.7 1.8 1.5 2.8 1a2 2 0 0 0 1-2 8 8 0 0 0-1-4.4c-2.1-3.8-6.1-5.4-10.2-5.3"/></g><path d="M251.2 98.1c2.2 3 4 6.3 6.9 8.8s7 3.8 10.3 2.2a8 8 0 0 0 4-5.6c.6-3.2-1-7.6-3.6-9.5a10.5 10.5 0 0 0-11.9.4l-.8.5-1-.4c-1.8-1-5.8-4.8-8-4-3.1 1 3.3 6.5 4.1 7.6m27.6 14.5v.8l.7.5 5.8 1.2a21 21 0 0 1 9.5 5.6 10 10 0 0 1 3.3 6.4c.2 2.4-1.4 5-3.8 5.5-.4 1.2.8 2.3 1.9 3a32 32 0 0 0 5.4 2.8c2.1.8 5 1.2 6.2-.6 1-1.4.5-3.4-.6-4.6a11 11 0 0 0-4.3-2.5c2.9-3.1 2.8-8.4.2-11.8s-7-5.1-11.3-4.9a4 4 0 0 1-2.5-.3c-1.5-1-.8-3.4-.9-5-.1-2.7-2.2-6.8-5.5-4.7-2.6 1.8-3 6-4 8.6" fill="#19b5b5"/><path d="M277 119.4a2 2 0 0 0-2.1.7c-.5.9.2 2 1 2.6a15 15 0 0 0 3.3 2.2 15 15 0 0 0 7.8 1.7l1-.3c2.5-1.3-.4-5.3-2-6-2.6-1-6.3-.9-9-1m22.3 33.5a2 2 0 0 0-1.6.3 1.3 1.3 0 0 0 0 1.5l2.3 3.2a9 9 0 0 1 1.3 4.5c0 1.3-.3 2.7.3 3.8l1.3 1.7.5 1.1a1 1 0 0 0 .9.8c.7 0 1-.8 1.2-1.4.6-2.4.5-5 1.6-7.2 1.2-2.4 3.3-3.1 5.6-4 2.7-1 5.6-1.2 8.3-1.9l1.1-.4a1 1 0 0 0 .5-1c-.1-1.4-2.8-1-3.6-1a68 68 0 0 1-19.7 0m13.5 16.8c0-3.8 5.2-6.4 8.5-6.4a13 13 0 0 1 7 2.2c2.6 1.8 3.6 6 2.9 9a5 5 0 0 1-1.3 2.3 2 2 0 0 1-2.5.5L326 176a14 14 0 0 0-10-5c-1.3-.1-3-.2-3.3-1.4m6.3 8.9a12 12 0 0 0-6-.9 4 4 0 0 0-2.3.8 2 2 0 0 0-.4 2.2l1 .7a39 39 0 0 1 4.8 3 4 4 0 0 1 1.3 1.6l.6 2a3 3 0 0 0 2.3 1 3 3 0 0 0 1.8 0 3 3 0 0 0 1.3-2 7.2 7.2 0 0 0-7-8.9m-41.8-47.4a1 1 0 0 0-1 .1 1 1 0 0 0 0 1l.8.5a35 35 0 0 1 6.7 3.6 10 10 0 0 1 4 6.2q-.1 1.1.6 1.8a1.3 1.3 0 0 0 1.6-.5 4 4 0 0 0 .5-1.9c.3-2.9 1-7.3-2.4-8.7l-4-.6zm-55-36.8c-.8.5-1.7 1.2-1.7 2.2a2 2 0 0 0 1.7 1.7 7 7 0 0 0 2.5-.3c5.6-1.1 12.1-.6 16 3.5l2.4 2.3c2.4 1.6 5.7 1.3 8.4 2a3 3 0 0 0-.4-1.6c-5-9.8-19.1-16-29-9.8m102.5 102q-1 0-1.5 1c-.5 1 .4 1 .8 1.5l1.8 1.8 1.2 1.4c.8 1.4.8 3 1.1 4.5q.2.9.8 1l.7-.3c1.5-1.3 1.7-3.5 1.7-5.5q-.1-6.5-6.6-5.4" fill="#19b5b5"/><path d="M229.5 160a2 2 0 1 1-2-2.1 2 2 0 0 1 2 2m-14.3-39.5a2 2 0 1 1-2-2 2 2 0 0 1 2 2m-16.9 22.1a2 2 0 1 1-2-2 2 2 0 0 1 2 2m-20.1 11.2a2 2 0 1 1-2-2.1 2 2 0 0 1 2 2m43.2 19.4a2 2 0 1 1-2-2 2 2 0 0 1 2 2m-31.2 4.6a2 2 0 1 1-2.1-2 2 2 0 0 1 2 2m78.7 1.4a2 2 0 1 1-2-2 2 2 0 0 1 2 2M254 219.4a2 2 0 1 1-2.2-2 2 2 0 0 1 2.1 2m17.9-61.4a2 2 0 1 1-2-2 2 2 0 0 1 2 2" fill="#fafafa"/><path d="M271.7 116.3a2 2 0 1 1-2-2 2 2 0 0 1 2 2m37.7 27.7a2 2 0 1 1-2-2.2 2 2 0 0 1 2 2.1m5.6 30.4a2 2 0 1 1-2-2 2 2 0 0 1 2 2m-68.2-80a2 2 0 1 1-2-2 2 2 0 0 1 2 2" fill="#f0f0f0"/><path d="M248.3 125.5a2 2 0 1 1-2-2 2 2 0 0 1 2 2" fill="#fafafa"/><circle cx="249" cy="190.4" r="2.1" fill="#fafafa"/><path d="M293.2 199.3a2 2 0 1 1-2-2 2 2 0 0 1 2 2m-97.9-2.3a2 2 0 1 1-2.1-2 2 2 0 0 1 2 2m34.3 15a2 2 0 1 1-2-2 2 2 0 0 1 2 2m55.8 6.9a2 2 0 1 1-2-2.1 2 2 0 0 1 2 2" fill="#fafafa"/><path fill="#19b5b5" d="m345 324.2-11.6.8-.4.5 9.9 19.6 11.1-1.8z"/><path opacity=".3" d="m345 324.2-11.6.8-.4.5 9.9 19.6 11.1-1.8z"/><path fill="#19b5b5" d="m345.4 323.7-12 1.3 9.9 19.6 11.1-1.9z"/><path fill="#f0f0f0" d="m345.3 325.5-10.1 1.1 8.3 16.1 9.3-1.6z"/><path d="m343.3 326.3-.4-.8c-.2-.4-1.2-.7-2-.6l-1.8.2q-1.6.1-1.3 1l.4.7Z" opacity=".1"/><path d="M342.4 323.4a1 1 0 0 0-1-.4l-.7.1a3 3 0 0 0-2.5-1.7c-1.6.1-.7 2-.7 2l-.8.2q-.6.1-.5.5l.3.5 6.1-.6Z" fill="#37474f"/><path d="M341.8 324q-.9-.2-.4.8l.7 1.3-2.7.3-.7-1.3q-.3-.6-1-.6l-.2-.4 4.4-.4Z" fill="#263238"/><path d="m343.5 326.4-.4-.8a2 2 0 0 0-2.1-.6l-1.8.2q-1.5.1-1.2 1l.4.8Z" fill="#37474f"/><path d="M349.4 333s.3-1.7-.3-2.3-2.7-.6-3.8-1-1 .8-.4 1.2c1.2 1 3.7 1.3 4.5 2.2" fill="#f28f8f"/><path d="M367.7 309.7c1.8 0 3.4 1.4 5.2 5.9s5.5 14.3 5 16c-.5 1.1-13.8 4.6-13.8 4.6l-2-4 9-4-5-11.6Z" fill="#e0e0e0"/><path d="m356.1 406.8.6 2.3a6 6 0 0 1 .2 2.9q-.5 1-3.3 1a11 11 0 0 0-4.2 1.5 11 11 0 0 1-5.4.8c-1.6-.2-3.2-1.1-3.5-1.8s-.5-1.5 3.9-3c0 0 5.2-1.7 7-3.7Z" fill="#19b5b5"/><path d="m356.1 406.8.6 2.3a6 6 0 0 1 .2 2.9q-.5 1-3.3 1a11 11 0 0 0-4.2 1.5 11 11 0 0 1-5.4.8c-1.6-.2-3.2-1.1-3.5-1.8s-.5-1.5 3.9-3c0 0 5.2-1.7 7-3.7Z" opacity=".4"/><path d="m356.1 406.9-.8-.1h-3.8a22 22 0 0 1-7.1 3.8l-.7.2c-.8.6-.1 1.7 1.7 1.8s7.3-1.7 8.6-2.3a4 4 0 0 0 2.1-3.4" fill="#ffa8a7"/><path d="M356.1 405.3v1.6c0 .6-.7 1.5-2.5 1.4q-2.1 0-2.1-1.4v-1.6Z" fill="#ffa8a7"/><path d="M368.4 399.9q.4.2.4 2c0 1 .2 2.6-1 3a4 4 0 0 1-3.4-1c-.9-1-1.4-2-2.7-3.5-1-1.2-2.2-2.3-2.6-4q-.6-2 1-2.5c1.6-.5 2-.1 3.4 1.1l1.3.7c1 .3 3.3 4 3.6 4.2" fill="#19b5b5"/><path d="M368.4 399.9q.4.2.4 2c0 1 .2 2.6-1 3a4 4 0 0 1-3.4-1c-.9-1-1.4-2-2.7-3.5-1-1.2-2.2-2.3-2.6-4q-.6-2 1-2.5c1.6-.5 2-.1 3.4 1.1l1.3.7c1 .3 3.3 4 3.6 4.2" opacity=".4"/><path d="M368.4 398.7v1.6s-1 2-3.9 0l-.3-3.2Z" fill="#ffa8a7"/><path d="m364.8 395.7-1.3-.7c-1.1-.4-3.6 0-2.5 1.7a13 13 0 0 0 3.5 3.6c1.3.6 1.7-.2 1.7-.2l-.4-3.6z" fill="#ffa8a7"/><path d="M370.5 377.3a37 37 0 0 0-1.7-8s1-6.8 1.8-13.3c1.8-15.4.6-15.7-1.6-21 0 0-19.7-2.6-20.5 5.6-1 10.2-.6 30-.4 33.6s.5 5.3 1.5 12.9a267 267 0 0 1 1.6 18.4 5 5 0 0 0 5.1-.3s2.5-15.5 2.4-19.7a36 36 0 0 0-1.3-9.1s1.7-16.6 2-19.3c0 0 .6 5.3.7 9s1.2 7 2 13.8c.8 5.8 2 18 2 18 2.6 1.5 4.4.8 4.4.8s2.6-16.3 2-21.4" fill="#19b5b5"/><path d="m359.5 357.1 1-6.8a15 15 0 0 0 6.1-2.1 8 8 0 0 1-4.8 2.8l-1.1 8-.5 8.3Z" opacity=".1"/><path fill="#ffa8a7" d="m356.5 305.8.7 7.7 6.7-.4-.5-8.5z"/><path d="M370 312.4c-.7-2-2-3.2-5.2-3.2h-1c-.3 1-3.6 2-6.9.9l-2.4.4-1.6.2c-2.4.8-3.4 5-3.7 11.5l-1.2 20.6s5.1 2.8 13.2 1.7a16 16 0 0 0 9.9-4.7 50 50 0 0 0-3.8-10.5c3.8-9.3 3.7-13.9 2.7-16.9" fill="#455a64"/><path d="m357.2 344.8 4-.3a16 16 0 0 0 9.8-4.7 51 51 0 0 0-3.7-10.5 43 43 0 0 0 3.1-10.9c-.3 2-3.2 9.6-7 11.8a7 7 0 0 1 4 2.9c1.9 2.5.3 11.1-10.2 11.7" fill="#37474f"/><path d="M353 296.3s-2.5-3-.5-6q3.6-5.3 11.5-3.1c2.6.7 6.3 4.2 6.5 9.2.1 3.7-10.5 6.2-10.3 8.8Z" fill="#263238"/><path d="M351.5 297.4s-1.5 2.3-1.3 2.5l1.1.5Z" fill="#f28f8f"/><path d="M356 290.3c-1.4.8-4 2.1-4.5 7.5s.5 7.4 1.3 8c.5.6 3 .7 4.4.3 1.7-.5 5.4-2.3 7.1-5.2 2-3.3 2.5-7.7.1-9.5a9 9 0 0 0-8.3-1.1" fill="#ffa8a7"/><path d="M355.6 290.5s-1.2 5 .3 8.2c0 0 .9-2 2.5-1.4s1.6 2.8.2 4a3 3 0 0 1-2.6.5 5 5 0 0 0 2.4 4s5 2.3 9.4-2.5c4-4.3 3.6-12-2.4-14a10 10 0 0 0-9.8 1.2" fill="#263238"/><path d="M373.8 290.8a5.3 5.3 0 1 1-5.3-5.3 5.3 5.3 0 0 1 5.3 5.3m-22-2.5c-2.3 2.2-2.4 8.8 4 10.4l4.3-11.6c-2.5-1.6-6.3-.8-8.3 1.2" fill="#263238"/><path d="M355.2 300.5a1.3 1.3 0 1 1 .9-2.4Z" fill="#263238"/><path d="M353.4 310.7s-1-.2-5 .9-13.3 3.2-13.3 3.2-11-5.3-11.4-5.8-.2-1.8 0-2.4l.4-2.5c.3-.7-.8-.5-1.4.2s-.8 1.9-1.1 2.1-2.7-2.4-3.8-3.7-1.6-2.2-2.4-1.6q-.6.4.7 2.2l1 1.4q-.1.3-.4.5-.5.3-.6.8v.5c-.1.4-.6.5-.7.9v.8l-.1.5a1 1 0 0 0 .3 1 9 9 0 0 0 2.9 1.8l2.7 1.1c1.4.5 12.4 8.6 14.5 8.4 2.3-.2 16.4-2.7 16.4-2.7 3.7-2.6 1.3-7.6 1.3-7.6" fill="#ffa8a7"/><path d="M364.8 309.2a8 8 0 0 1 3.4.6c1.5.7 2.5 2.4 2.6 6.3s-3 13.4-3 13.4 3.2 7.8 3.9 11.2-.3 13.5-.3 13.5-6.4 5.3-19.2 3c-.3 0-.5-12-.8-12s-.5 11.8-.7 11.7l-3.8-1 .3-14.3c0-4.3.4-20.8 1.8-25a17 17 0 0 1 3.5-6.2h2.7Z" fill="#f5f5f5"/><path d="M354.4 310.4c-5.6-.4-12.8 2.7-19.3 4.4l-9-4.5s-2.8 3-1.2 5.2c0 0 8.4 6 10.4 6.4s16.7-2.6 16.7-2.6a5 5 0 0 0 3.2-4.5c.5-3.6-.8-4.4-.8-4.4m2.3-2.4-.6.5-.9 2s1.6 2 5.2 1.5 4.4-2.8 4.4-2.8-.4-2.1-1.2-2v.4s-.4.8-2.5 1c-3.1.4-4.4-.5-4.4-.5" fill="#e0e0e0"/><path d="M356.5 330.2s6.3 1.5 10.2-.8q.8.8 0 2.2s-3.8 2.2-10.2.6a2 2 0 0 1 0-2" fill="#f0f0f0"/><path d="M357.7 331.3a.6.6 0 1 1-.6-.6l.5.6m9.1-.6-.5.6-.6-.6.6-.5z" fill="#e0e0e0"/><path d="M125.6 391q-.4.2-.4 2c0 1-.2 2.6 1 2.9a4 4 0 0 0 3.3-.8l2.7-3.5a10 10 0 0 0 2.6-4q.5-2-1-2.5c-1.4-.6-3.5 1.4-4.6 1.7s-3.2 4-3.6 4.2" fill="#19b5b5"/><path d="M125.6 391q-.4.2-.4 2c0 1-.2 2.6.9 2.9a4 4 0 0 0 3.4-.8l2.7-3.5a10 10 0 0 0 2.6-4q.6-2-1-2.5c-1.4-.6-3.6 1.4-4.6 1.7s-3.3 4.1-3.6 4.2" opacity=".4"/><path d="M125.6 389.9v1.5a4 4 0 0 0 3.9 0l.3-2.2Z" fill="#ffa8a7"/><path d="m138.2 399.5-.6 2.5a7 7 0 0 0-.1 3.2q.5 1.1 3.6 1a12 12 0 0 1 4.6 1.5 12 12 0 0 0 5.8.8c1.7-.2 3.5-1.3 3.7-2s0-1.4-4.2-3c0 0-5.7-1.8-7.8-4Z" fill="#19b5b5"/><path d="m138.2 399.5-.6 2.5a7 7 0 0 0-.1 3.2q.5 1.1 3.6 1a12 12 0 0 1 4.6 1.5 12 12 0 0 0 5.8.8c1.7-.2 3.5-1.3 3.7-2s0-1.4-4.2-3c0 0-5.7-1.8-7.8-4Z" opacity=".4"/><path d="M138.1 397.9v1.8c0 .7.8 1.6 2.8 1.4q2.3.1 2.3-1.6V398Z" fill="#ffa8a7"/><path d="m124.2 369.6.8-8s-.7-6-1-12.6c-.5-7-.4-15.3.2-18.3 0 0 22.5-5 23 3s-.2 28.8-.3 32.4-.8 6.7-1.4 12.5l-2.3 19.3a5 5 0 0 1-5 0s-2-16.2-2-20.4a36 36 0 0 1 1.5-9s-.6-6.6-1.1-12.5-1-8.6-1.2-11.1l-.4-.2-.5 13.6c-.2 3.6-.7 7-1.6 13.7-.7 5.7-3.1 18-3.1 18-2.6 1.4-4.2-.1-4.2-.1s-2-15.3-1.4-20.3" fill="#19b5b5"/><path d="M135.4 345s-5.6-2.6-8.4-5a18 18 0 0 0 6 5s1.5 12.4 1.5 12.2l.4-12.3Z" opacity=".1"/><path fill="#ffa8a7" d="m139.3 298.7-1.2 7.4-6.7-.4.8-8.6z"/><path d="M130 301.5s-4.6-1.2-6.6 2.1-.2 10.5-.2 10.5Z" fill="#e0e0e0"/><path d="M123.5 306c.6-2 4-5 6.5-4.5l1.8.3c.3 1.3 3.5 2.2 6.7 1.4l2.7.8c2.4.8 4.6 2.8 5 10.5 0 0 2 22.7 2 34.1a22 22 0 0 1-4.1 1.3c-.2 0-.8-14-1-14s0 14-.2 14.2a38 38 0 0 1-11 0 22 22 0 0 1-9-3.5s0-14.6 1-21.8l-.8-10c-.6-4.9 0-7.3.4-8.7" fill="#f5f5f5"/><path d="M135.2 326.9s-6.5.6-10-2.3q-1 .5-.3 2.1s3.4 2.8 10 2.2a2 2 0 0 0 .3-2" fill="#f0f0f0"/><path d="M133.8 327.9a.6.6 0 1 0 .7-.5zm-8.8-2 .5.6.6-.4a.6.6 0 1 0-1.1-.2m13.9-24.9s.3-.2.6.3l.6 2.4s-1.4 1.6-5 1.2-4.5-3.1-4.5-3.1.5-2.2 1.4-2v.7s.3.8 2.4 1c3 .4 4.5-.6 4.5-.6" fill="#e0e0e0"/><path fill="#19b5b5" d="m160.4 293.2 13.9 7.2-6.9 18.9-13-7.3z"/><path opacity=".3" d="m160.4 293.2 13.9 7.2-6.9 18.9-13-7.3z"/><path fill="#19b5b5" d="m159.8 292.9 13.9 7.2-6.9 18.9-13-7.3z"/><path fill="#f5f5f5" d="m160.6 294.8 11.7 6-6.2 16.3-10.8-6.1z"/><path d="m163.5 296.8.2-.6q.3-.5 2.2.4l2 1q1.8 1 1.8 1.6l-.3.6Z" opacity=".1"/><path d="M163.7 294.4q.1-.2 1 .1l.8.4s.5-1.2 2.3-.3 1.4 2.3 1.4 2.3l.9.4q.8.5.7.9v.4l-7.2-3.8z" fill="#37474f"/><path d="M164.5 295.3q1 .4.7 1l-.4 1 3.2 1.6.3-1q.2-.5.9-.1l.2-.2-5-2.5Z" fill="#263238"/><path d="m163.4 296.8.2-.6q.3-.4 2.1.4l2.1 1q1.7 1 1.7 1.7l-.2.5Z" fill="#37474f"/><path d="M141.6 304.2c2.7.8 4.3 1 7.3 5.5s9.5 13 10.2 14a6 6 0 0 1 .3 5.2q-1.1 1.9-5.4-2c-4.3-3.9-8.8-9.3-8.8-9.3a48 48 0 0 1-3.6-13.4" fill="#ffa8a7"/><path d="M158.5 329.5c2.4-.3 7.7-7.7 9.4-10.3a18 18 0 0 1 5-5.2c2.6-2 2.2-4.9 1-7.6-.3-1-1.7-.3-1.7-.3l-.4 1.3-.9 2.2q-.8.8-.8.5c0-.3.4-1.5.4-2.7 0-1.5-1.1-.5-1.4 0l-1.1 2.5c-.6 1.3-.3 2.7-1 3.6s-9.2 9.1-9.2 9.1Z" fill="#ffa8a7"/><path d="M141.2 304a14 14 0 0 1 4 1.3c2.2 1 2.9 2.9 6 6.8s7 9.4 7 9.4l7-6.2a4 4 0 0 0 3.3 3 44 44 0 0 1-6.2 9.1c-3.5 3.8-3.5 3.6-6.7 1.7s-10.7-11-10.7-11-7.3-5.7-3.7-14.1" fill="#e0e0e0"/><path d="M144.2 289.6s1.7 2.6 1.5 2.9-1.4.5-1.4.5Z" fill="#f28f8f"/><path d="M141.3 289.2a2 2 0 1 1 2 2 2 2 0 0 1-2-2m.4 0a1.6 1.6 0 1 0 1.7-1.6 1.6 1.6 0 0 0-1.7 1.6" fill="#263238"/><path d="M139.3 282.2c3.6.8 4.6 2.3 5 8 .3 5.8-.3 7.7-1 8.5-.6.5-3.5.6-5 .2-1.8-.5-6-2-7.9-5-2.2-3.4-2.8-8.1-.4-10 3.4-2.8 7.9-2 9.3-1.7" fill="#ffa8a7"/><path fill="#263238" d="m145.3 288.8-6.3.8.2.4 6.1-.8z"/><path d="M144.6 284v.2l-2.3 1.6a5 5 0 0 0-1.7 2.6c-.2.8-.3 1.8-1.2 2.2 0 0-.5-2.2-2.4-2s-2 2.7-.9 4.1 2.2.9 2.2.9 0 3.1-1.4 4.9a10 10 0 0 1-4.4-.1c-1.8-.4-4.3-2.6-5.4-5-2.2-5-2.3-9.4.8-10.7.4-2.3 2.2-3.4 4.2-3.8 3-.7 6 1 9 .4l2-.4h.1q.3.1.1.4a4 4 0 0 1-.9 1.7 10 10 0 0 0 3.5-.5 4 4 0 0 1-1.3 3.6" fill="#263238"/><path d="m127.9 283.4-2.2-1.2a1.2 1.2 0 1 1 2.2 1.2m11.6 8.4-.1-2.5a1.2 1.2 0 0 1 0 2.5" fill="#263238"/></svg>