<svg xmlns="http://www.w3.org/2000/svg" viewBox="0 0 500 500"><ellipse cx="249.1" cy="349.9" rx="229.3" ry="124.3" fill="#f5f5f5"/><path d="M209 387.1 140 427a7 7 0 0 1-6 0l-68.8-39.8c-1.6-1-1.6-2.5 0-3.4l69-39.8a7 7 0 0 1 6 0l68.8 39.8c1.6 1 1.6 2.5 0 3.4m131.2-10.6a10 10 0 0 1-5-1.2L265 334.8a6.3 6.3 0 0 1 0-11.4l96-55.4a10 10 0 0 1 9.9 0l70.3 40.6a6.3 6.3 0 0 1 0 11.3L345 375.5a10 10 0 0 1-5 1.2" fill="#e6e6e6"/><path d="M417.1 293.2c0-7.7-1.3-21.8 5.3-35 4.7-9.6 13.2-18.8 21-17.8 7.3.9 7.9 12.1.9 19.7s-13.6 20.7-15.7 37.7l-7.5 10Z" fill="#19b5b5"/><path d="M417.1 293.2c0-7.7-1.3-21.8 5.3-35 4.7-9.6 13.2-18.8 21-17.8 7.3.9 7.9 12.1.9 19.7s-13.6 20.7-15.7 37.7l-7.5 10Z" opacity=".1"/><path d="m423.2 299.2.4-.6a63 63 0 0 1 17.8-53.3.5.5 0 0 0-.8-.8 64 64 0 0 0-18 54.2l.5.5Z" fill="#fff"/><path d="M428.3 304.3a27 27 0 0 0 13.6 3.4c8.2 0 11.1-4.4 11.1-4.4s-4.3-7-9.2-8.3a45 45 0 0 1 14.8 3.4s4.9-.7 5.7-8.4c0 0-3.7-4-13.8-5 0 0 5.7-2.4 14.6-1.6.7.2 1.9-9.9 2-14.5s-1.7-4.2-5.3-4.6-15.5 1-17.4 3.2-2 9-2 9-2.6-3.4-2.6-6.8a11 11 0 0 0-7 2c-2.1 1.7-3.3 3-3.5 6a54 54 0 0 0 .8 9.6 19 19 0 0 1-2-11.6s-6.6 4.6-6.9 9-1 13.3 7.1 19.6" fill="#19b5b5"/><path d="m428.5 304.8.4-.3c4.3-14.5 25.8-33.9 34-36.9a.5.5 0 0 0 .4-.7.5.5 0 0 0-.7-.3c-8.5 3.1-30.4 22.9-34.8 37.6l.4.6z" fill="#fff"/><g fill="#19b5b5"><path d="M263 377.5a5 5 0 0 1-2.4-.6l-32.2-18.7a4 4 0 0 0-3.9 0l-30.3 17.5a.5.5 0 1 1-.5-.8l30.3-17.5a5 5 0 0 1 4.8 0l32.3 18.6a4 4 0 0 0 3.8 0l42.5-24.5a.5.5 0 1 1 .5.8L265.4 377a5 5 0 0 1-2.4.6"/><path d="m185.8 371.2-.4-.3.2-.7L224 348a5 5 0 0 1 4.8 0l32.3 18.6a4 4 0 0 0 3.8 0l34.4-19.8a.5.5 0 1 1 .5.8l-34.4 19.9a5 5 0 0 1-4.8 0l-32.2-18.6a4 4 0 0 0-3.9 0l-38.4 22.2z"/><path d="m177.7 366.5-.4-.3.1-.6 46.6-27a5 5 0 0 1 4.8 0l32.3 18.7a4 4 0 0 0 3.8 0l26.6-15.4.7.2-.2.7-26.6 15.2a5 5 0 0 1-4.8 0l-32.3-18.6a4 4 0 0 0-3.8 0l-46.5 27z"/><path d="M169.6 361.8a.5.5 0 0 1-.2-1l54.6-31.5a5 5 0 0 1 4.8 0l32.3 18.6a4 4 0 0 0 3.8 0l18.1-10.5a.5.5 0 0 1 .5.9l-18.1 10.4a5 5 0 0 1-4.8 0l-32.3-18.6a4 4 0 0 0-3.8 0l-54.7 31.6z"/></g><path d="M262.2 325a6 6 0 0 0 2.6 4.3l72.4 41.8a6 6 0 0 0 5.2 0l99-57.2a4.9 4.9 0 0 0 0-8.6L369 263.5a6 6 0 0 0-5.2 0l-99 57.2a6 6 0 0 0-2.6 4.3" fill="#37474f"/><path d="M339.8 366.2v5.5a5 5 0 0 1-2.6-.6l-72.4-41.8a5 5 0 0 1-.3-8.4c-1.2.8-1 2 .3 2.8l72.4 41.8a5 5 0 0 0 2.6.6" fill="#263238"/><path d="M259.7 320.8a6 6 0 0 1-2.4-4.4V230a6 6 0 0 1 2.6-4.5l99.1-57.2a5 5 0 0 1 7.4 4.3V259a6 6 0 0 1-2.5 4.5l-99.2 57.2a6 6 0 0 1-5 .1" fill="#455a64"/><path d="M264.5 320.9a4.8 4.8 0 0 1-7.2-4.5V230a5 5 0 0 1 .8-2.5l4.8 2.8a5 5 0 0 0-.7 2.5v86.4q.2 2.4 2.3 1.7" fill="#263238"/><path d="M262.2 232.8v86.4q.2 2.6 2.6 1.5l99-57.2a6 6 0 0 0 2.7-4.5v-86.4c0-1.7-1.2-2.3-2.6-1.5l-99.1 57.2a6 6 0 0 0-2.6 4.5" fill="#37474f"/><path d="m264.8 323.7 72.4 41.8a6 6 0 0 0 5.2 0l99-57.2c1.5-.8 1.5-2.2 0-3L369 263.5a6 6 0 0 0-5.2 0l-99 57.2c-1.5.8-1.5 2.2 0 3" fill="#455a64"/><path d="m266.1 233.1 95.6-55.1q1.5-.7 1.6.9v74.8a3 3 0 0 1-1.6 2.7l-95.6 55.2q-1.4.6-1.5-1v-74.8a4 4 0 0 1 1.5-2.7" fill="#fafafa"/><path d="m273.2 321.5 92-53.1a3 3 0 0 1 2.5 0l4.8 2.7a.8.8 0 0 1 0 1.5l-92 53a3 3 0 0 1-2.6 0l-4.7-2.6a.8.8 0 0 1 0-1.5" fill="#19b5b5"/><path d="m273.2 321.5 92-53.1a3 3 0 0 1 2.5 0l4.8 2.7a.8.8 0 0 1 0 1.5l-92 53a3 3 0 0 1-2.6 0l-4.7-2.6a.8.8 0 0 1 0-1.5m12.1 7 92-53.1a3 3 0 0 1 2.6 0l29 16.7a.8.8 0 0 1 0 1.4l-92 53.1a3 3 0 0 1-2.6 0l-29-16.6a.8.8 0 0 1 0-1.5" fill="#263238"/><path d="m367.8 299.3 2.8-1.7q.2 0 0-.3l-3.3-1.9h-.5l-2.8 1.7q-.2 0 0 .2l3.3 2zm-5.7-6.7-3 1.7v.3l3.4 1.9h.5l2.9-1.7v-.2l-3.4-2zm-9.3 5.4-5 2.8v.3l3.4 2h.5l4.8-3q.3 0 0-.2l-3.3-1.9zm5-3-2.8 1.7v.3l3.3 2h.5l2.9-1.7v-.3l-3.4-2zm-11.2 6.6-3 1.6v.3l3.4 2h.5l2.8-1.7q.3-.1 0-.3l-3.3-1.9zm-4.2 2.4-3 1.7v.2l3.4 2h.5l2.8-1.7q.2 0 0-.3l-3.3-1.9zm13 7.8 3-1.7v-.2L355 308h-.4l-3 1.7v.2l3.4 2zm-4.2 2.4 3-1.6v-.3l-3.4-1.9h-.5l-2.9 1.7v.2l3.4 2zm-4.2 2.5 2.9-1.7q.2-.1 0-.2l-3.4-2h-.4l-2.9 1.7v.3l3.3 2zm-4.2 2.4 2.9-1.6v-.3l-3.4-2h-.4L339 317v.3l3.3 2zm20.7-17.4 2.9-1.7v-.3l-3.3-1.9h-.5l-2.9 1.7v.3l3.4 1.9zm-3.9 7.7 6.5-3.7v-.3l-8.1-4.6h-.5l-3.3 1.9v.3l4.3 2.4q.2.2 0 .3l-2.6 1.5q-.3.1 0 .3l3.3 2zm-21.5-3-2.9 1.7v.2l3.4 2h.4l2.9-1.7v-.3l-3.3-1.9zM334 309l-2.9 1.6v.3l3.4 1.9h.4l2.9-1.7q.2 0 0-.2l-3.3-2zm-21 27.2h.5l2.8-1.7q.3 0 0-.2l-3.3-2h-.4l-3 1.8v.3Zm-12.6-7.8-3 1.7v.3l3.4 1.9h.5l2.8-1.7q.2-.1 0-.2l-3.3-2zm6.7 5.7h.5l2.8-1.7q.2-.1 0-.2l-3.3-2h-.5l-2.8 1.8q-.3.1 0 .2Zm13.3 3.6 2.9-1.7v-.2l-3.3-2h-.5l-2.9 1.7v.3l3.3 1.9zm-4.6 2.4h.4l2.9-1.7q.2-.1 0-.2l-3.3-2h-.5l-2.9 1.7v.3ZM304.6 326l-3 1.6v.3l3.4 2h.5l2.9-1.7v-.3l-3.4-2zm21-12.2-2.9 1.7v.2l3.4 2h.5l2.8-1.7q.2 0 0-.2l-3.3-2zm-16.8 9.7-3 1.7v.3l3.4 1.9h.5l2.9-1.7v-.2l-3.4-2zm21-12.1-2.9 1.7v.3l3.4 1.9h.4l3-1.7v-.2l-3.4-2zm-8.4 4.8-2.9 1.7v.3l3.4 1.9h.4l2.9-1.7q.2-.1 0-.2l-3.3-2zm-4.2 2.5-2.9 1.6v.3l3.3 2h.5l2.9-1.7v-.3l-3.3-2zm-4.2 2.4-2.9 1.7v.3l3.3 1.9h.5l2.9-1.7v-.2l-3.4-2zm21.5 3 2.9-1.7q.2-.1 0-.2l-3.4-2h-.4l-2.9 1.7v.3l3.3 1.9zm37-36.7-2.9 1.6v.3l3.3 2h.5l2.9-1.7v-.3l-3.3-2zm-5.1 3-2.9 1.6q-.2.1 0 .2l3.3 2h.5l2.9-1.7v-.3l-3.3-1.9zm9.3-5.5-2.9 1.7v.3l3.4 1.9h.4l2.9-1.7q.2-.1 0-.2l-3.3-2zm-21.8 22.5 2.9-1.7v-.2l-3.3-2h-.5l-2.9 1.7v.3l3.3 1.9zm26.5-24.9h-.5l-2.9 1.7q-.2.1 0 .2l3.4 2h.4l2.9-1.7v-.3Zm-41.7 39.2 2.9-1.7v-.3l-3.3-1.9h-.5l-2.9 1.7v.3l3.4 1.9zm51.6-29.8 3-1.7v-.3l-3.4-1.9h-.5l-2.8 1.7q-.3.1 0 .2l3.3 2zm-9-.4 3-1.6v-.3l-3.4-2h-.5l-2.8 1.8q-.3 0 0 .2l3.3 2zm3.8-6.2h-.5l-2.9 1.6v.3l3.4 1.9h.5l2.8-1.7q.3-.1 0-.2Zm.9-.6 8 4.7h.5l2.9-1.6v-.3l-8-4.7h-.6l-2.8 1.7zm-10 5.3-2.9 1.7v.2l3.4 2h.4l3-1.7v-.3l-3.4-1.9zm-31.7 18.3-2.8 1.7q-.3 0 0 .3l3.3 1.9h.5l2.8-1.7q.2-.1 0-.2l-3.3-2zm41.2-14.1h.4l3-1.7v-.3l-3.4-1.9h-.5l-2.9 1.7v.3Zm-37 11.7-2.8 1.6v.3l3.3 2h.5l2.8-1.7q.3-.2 0-.3l-3.3-2zM317 333.7h.5l2.8-1.7q.3 0 0-.2l-3.3-2h-.5l-2.8 1.7q-.2 0 0 .3Zm-6.3-6-3 1.7v.2l3.4 2h.5l2.9-1.7v-.3l-3.4-1.9zm11 3.5 2.9-1.6v-.3l-3.4-1.9h-.4l-2.9 1.7v.3l3.3 1.9zm4.2-2.4 2.9-1.6v-.3l-3.4-1.9h-.4l-3 1.7v.2l3.4 2zm4.2-2.4 2.9-1.7v-.2l-3.4-2h-.4l-2.9 1.7v.3l3.3 1.9zm-15.2-1L312 327v.3l3.3 1.9h.5l2.9-1.7v-.3l-3.4-1.9zm4.2-2.5-2.9 1.7v.2l3.4 2h.4l2.9-1.7v-.3l-3.3-2zm16.8-9.7-2.9 1.6v.3l3.4 1.9h.5l2.8-1.7q.2-.1 0-.2l-3.3-2zm-4.2 2.4-2.9 1.7q-.2.1 0 .2l3.3 2h.5l2.9-1.7v-.3l-3.4-1.9zm8.4-4.9-2.9 1.7v.3l3.4 1.9h.4l2.9-1.7q.2-.1 0-.2l-3.3-2zm-16.8 9.8-3 1.6v.3l3.4 2h.5l2.9-1.7v-.3l-3.4-2zm4.2-2.5-2.9 1.7v.3l3.3 1.9h.5l2.9-1.7v-.2l-3.3-2zm-3 17.2 2.8-1.7q.2-.1 0-.2l-3.3-2h-.5l-2.9 1.7v.3l3.4 1.9zm-24.8-2.5-3.3-2h-.5l-2.9 1.7v.3l3.4 2h.4l2.9-1.7q.3-.1 0-.3m6.3 1.9-3.3-2h-.5l-4.4 2.6v.3l3.3 1.9h.5l4.4-2.6q.3-.1 0-.2m-11.4-5.6-3.3-2h-.5l-3.5 2v.3l3.3 2h.5l3.5-2q.3-.2 0-.3m2.7-1.6h.5l2.9-1.6v-.3l-3.3-2h-.5l-2.9 1.7v.3Zm14.6 9.3-3.3-2h-.5l-5.5 3.2q-.2.1 0 .3l3.3 2h.5l5.5-3.3q.2-.1 0-.2m2.8 3.8-3.4-1.9h-.4l-3.6 2v.3l3.4 2h.4l3.6-2zm14-31.2h.4l2.9-1.6v-.3l-3.3-2h-.5l-2.9 1.7v.3Zm-8.5 4.9h.5l2.9-1.7q.2-.1 0-.2l-3.4-2h-.4L317 312v.3ZM301.6 325h.5l2.9-1.7q.2-.1 0-.2l-3.3-2h-.5l-2.9 1.7v.3Zm23-13.2h.4l2.9-1.7v-.2l-3.4-2h-.4l-2.9 1.7v.3Zm-8.5 4.9h.5l2.8-1.7q.3 0 0-.3l-3.3-1.9h-.4l-3 1.7v.2Zm1 24.2h-.5l-4.4 2.5v.3l3.3 2h.5l4.4-2.6q.3-.1 0-.3Zm-7-20.8h.5l2.8-1.6q.3-.1 0-.3l-3.3-2h-.4l-3 1.8v.2Zm-4.2 2.5h.5l2.8-1.7q.2 0 0-.3l-3.3-1.9h-.5l-2.8 1.7q-.2.1 0 .2Zm89.2-26.7h-.4l-7.1 4v.3l3.3 2h.5l7-4.2q.3 0 0-.2Zm-9.3 5.3h-.5l-2.8 1.7v.3l3.3 1.9h.5l2.8-1.7q.2-.1 0-.2Zm-57 31.6 2.9-1.7q.2-.1 0-.2l-3.3-2h-.5l-2.9 1.7v.3l3.4 1.9zm48.6-26.7h-.4l-3 1.6v.3l3.3 2h.5l2.9-1.7v-.3Zm22-12.7h-.5l-2.9 1.7q-.2 0 0 .2l3.3 2h.5l2.9-1.7v-.3Zm7.5-.5-8.1-4.6h-.5l-2.8 1.6q-.3 0 0 .3l8 4.7h.5l2.9-1.7zm-45.2 22.3h-.5l-3.5 2v.3l3.3 2h.5l3.5-2.1v-.3Zm10.6-6.2h-.5l-4.4 2.6q-.2 0 0 .2l3.3 2h.5l4.4-2.6v-.3Zm-20.4 11.8h-.5l-23.7 13.7q-.2 0 0 .2l3.3 2h.5l23.7-13.7v-.3Zm-25 14.4h-.5l-3.5 2v.3l3.3 2h.5l3.5-2.1v-.3Zm29.9-17.2h-.5l-3.6 2v.3l3.4 1.9h.4l3.6-2v-.3ZM322 338h-.5l-3.5 2v.3l3.3 2h.5l3.5-2.1v-.3Zm44.5-25.7h-.4l-3.6 2v.3l3.4 2h.4l3.6-2v-.3Zm15.1-8.7h-.5l-2.8 1.7q-.2 0 0 .3l3.3 1.9h.5l2.8-1.7q.2-.1 0-.2Zm9.2-6.7 3-1.6v-.3l-3.4-2h-.5l-2.9 1.7v.3l3.3 2zm-18.8 0 2.9-1.7v-.3l-3.4-1.9h-.5l-2.8 1.7q-.3.1 0 .2l3.3 2zm-9.5 16.4 8.4-4.9q.2 0 0-.2l-3.3-2h-.5l-8.4 5q-.2 0 0 .2l3.3 1.9zm23.7-14h.4l2.9-1.6v-.3l-3.3-1.9h-.5l-2.9 1.7v.2Zm-4.3-2.7 2.8-1.6v-.3l-3.3-1.9h-.5l-2.9 1.6v.3l3.3 2zm-23.6 19.1 2.8-1.6q.2 0 0-.3l-3.3-2h-.5l-2.8 1.8q-.3 0 0 .2l3.3 2zm18.5-11h.5l2.9-1.6v-.3l-3.3-2h-.5l-2.9 1.7v.3ZM337.2 328l2.9-1.7v-.2l-3.4-2h-.4l-3 1.7v.3l3.4 1.9zm4.2-2.4 2.9-1.7v-.3l-3.4-1.9h-.4l-3 1.7v.2l3.4 2zm-8.4 4.8 2.9-1.6v-.3l-3.3-2h-.5l-2.9 1.7v.3l3.3 2zm16.8-9.7 3-1.7v-.2l-3.4-2h-.5l-2.9 1.7v.3l3.3 1.9zm-4.2 2.4 2.9-1.7v-.2l-3.4-2h-.4l-2.9 1.7v.3l3.3 1.9zm8.4-4.9 2.9-1.6v-.3l-3.3-2h-.5l-2.9 1.8v.3l3.3 1.9zm19.3-36h.4l3-1.6v-.3l-1-.5h-.4l-3 1.7v.3Zm-20.8 13.4h.5l2.9-1.6v-.3l-3.4-1.9h-.4l-2.9 1.7q-.2.1 0 .2Zm8.5-4.8h.4l3-1.7v-.2l-3.4-2h-.5l-2.8 1.7q-.2.2 0 .3Zm-13.6 7.8h.5l2.8-1.7q.3 0 0-.2l-3.3-2h-.4l-3 1.7v.3Zm9.4-5.4h.4l2.9-1.7q.2 0 0-.2l-3.3-2h-.5l-2.9 1.8v.3ZM339 303.4h.5l2.8-1.6q.3-.1 0-.3l-3.3-2h-.5l-2.8 1.7q-.2.1 0 .3Zm4.2-2.4h.5l2.8-1.7q.3-.1 0-.2l-3.3-2h-.5l-2.8 1.7v.3Zm21.7-14h.4l2.9-1.6q.2-.1 0-.2l-.9-.6h-.5l-2.8 1.7q-.3 0 0 .3Zm12.6-7.2h.4l3-1.7v-.2l-1-.5h-.4l-3 1.6v.3Zm7 4h.4l3-1.7v-.2l-3.4-1.9h-.5l-2.9 1.7v.2Zm10.5 10.7 2.9-1.7v-.2l-3.3-2h-.5l-2.9 1.7v.3l3.3 2zm-26-9.9h.5l2.9-1.6v-.3l-.9-.5h-.5l-2.8 1.7v.3Zm-34.2 21.2h.4l3-1.6v-.3l-3.4-1.9h-.5l-2.9 1.7v.2Z" fill="#19b5b5"/><path d="m367.8 299.3 2.8-1.7q.2 0 0-.3l-3.3-1.9h-.5l-2.8 1.7q-.2 0 0 .2l3.3 2zm-5.7-6.7-3 1.7v.3l3.4 1.9h.5l2.9-1.7v-.2l-3.4-2zm-9.3 5.4-5 2.8v.3l3.4 2h.5l4.8-3q.3 0 0-.2l-3.3-1.9zm5-3-2.8 1.7v.3l3.3 2h.5l2.9-1.7v-.3l-3.4-2zm-11.2 6.6-3 1.6v.3l3.4 2h.5l2.8-1.7q.3-.1 0-.3l-3.3-1.9zm-4.2 2.4-3 1.7v.2l3.4 2h.5l2.8-1.7q.2 0 0-.3l-3.3-1.9zm13 7.8 3-1.7v-.2L355 308h-.4l-3 1.7v.2l3.4 2zm-4.2 2.4 3-1.6v-.3l-3.4-1.9h-.5l-2.9 1.7v.2l3.4 2zm-4.2 2.5 2.9-1.7q.2-.1 0-.2l-3.4-2h-.4l-2.9 1.7v.3l3.3 2zm-4.2 2.4 2.9-1.6v-.3l-3.4-2h-.4L339 317v.3l3.3 2zm20.7-17.4 2.9-1.7v-.3l-3.3-1.9h-.5l-2.9 1.7v.3l3.4 1.9zm-3.9 7.7 6.5-3.7v-.3l-8.1-4.6h-.5l-3.3 1.9v.3l4.3 2.4q.2.2 0 .3l-2.6 1.5q-.3.1 0 .3l3.3 2zm-21.5-3-2.9 1.7v.2l3.4 2h.4l2.9-1.7v-.3l-3.3-1.9zM334 309l-2.9 1.6v.3l3.4 1.9h.4l2.9-1.7q.2 0 0-.2l-3.3-2zm-21 27.2h.5l2.8-1.7q.3 0 0-.2l-3.3-2h-.4l-3 1.8v.3Zm-12.6-7.8-3 1.7v.3l3.4 1.9h.5l2.8-1.7q.2-.1 0-.2l-3.3-2zm6.7 5.7h.5l2.8-1.7q.2-.1 0-.2l-3.3-2h-.5l-2.8 1.8q-.3.1 0 .2Zm13.3 3.6 2.9-1.7v-.2l-3.3-2h-.5l-2.9 1.7v.3l3.3 1.9zm-4.6 2.4h.4l2.9-1.7q.2-.1 0-.2l-3.3-2h-.5l-2.9 1.7v.3ZM304.6 326l-3 1.6v.3l3.4 2h.5l2.9-1.7v-.3l-3.4-2zm21-12.2-2.9 1.7v.2l3.4 2h.5l2.8-1.7q.2 0 0-.2l-3.3-2zm-16.8 9.7-3 1.7v.3l3.4 1.9h.5l2.9-1.7v-.2l-3.4-2zm21-12.1-2.9 1.7v.3l3.4 1.9h.4l3-1.7v-.2l-3.4-2zm-8.4 4.8-2.9 1.7v.3l3.4 1.9h.4l2.9-1.7q.2-.1 0-.2l-3.3-2zm-4.2 2.5-2.9 1.6v.3l3.3 2h.5l2.9-1.7v-.3l-3.3-2zm-4.2 2.4-2.9 1.7v.3l3.3 1.9h.5l2.9-1.7v-.2l-3.4-2zm21.5 3 2.9-1.7q.2-.1 0-.2l-3.4-2h-.4l-2.9 1.7v.3l3.3 1.9zm37-36.7-2.9 1.6v.3l3.3 2h.5l2.9-1.7v-.3l-3.3-2zm-5.1 3-2.9 1.6q-.2.1 0 .2l3.3 2h.5l2.9-1.7v-.3l-3.3-1.9zm9.3-5.5-2.9 1.7v.3l3.4 1.9h.4l2.9-1.7q.2-.1 0-.2l-3.3-2zm-21.8 22.5 2.9-1.7v-.2l-3.3-2h-.5l-2.9 1.7v.3l3.3 1.9zm26.5-24.9h-.5l-2.9 1.7q-.2.1 0 .2l3.4 2h.4l2.9-1.7v-.3Zm-41.7 39.2 2.9-1.7v-.3l-3.3-1.9h-.5l-2.9 1.7v.3l3.4 1.9zm51.6-29.8 3-1.7v-.3l-3.4-1.9h-.5l-2.8 1.7q-.3.1 0 .2l3.3 2zm-9-.4 3-1.6v-.3l-3.4-2h-.5l-2.8 1.8q-.3 0 0 .2l3.3 2zm3.8-6.2h-.5l-2.9 1.6v.3l3.4 1.9h.5l2.8-1.7q.3-.1 0-.2Zm.9-.6 8 4.7h.5l2.9-1.6v-.3l-8-4.7h-.6l-2.8 1.7zm-10 5.3-2.9 1.7v.2l3.4 2h.4l3-1.7v-.3l-3.4-1.9zm-31.7 18.3-2.8 1.7q-.3 0 0 .3l3.3 1.9h.5l2.8-1.7q.2-.1 0-.2l-3.3-2zm41.2-14.1h.4l3-1.7v-.3l-3.4-1.9h-.5l-2.9 1.7v.3Zm-37 11.7-2.8 1.6v.3l3.3 2h.5l2.8-1.7q.3-.2 0-.3l-3.3-2zM317 333.7h.5l2.8-1.7q.3 0 0-.2l-3.3-2h-.5l-2.8 1.7q-.2 0 0 .3Zm-6.3-6-3 1.7v.2l3.4 2h.5l2.9-1.7v-.3l-3.4-1.9zm11 3.5 2.9-1.6v-.3l-3.4-1.9h-.4l-2.9 1.7v.3l3.3 1.9zm4.2-2.4 2.9-1.6v-.3l-3.4-1.9h-.4l-3 1.7v.2l3.4 2zm4.2-2.4 2.9-1.7v-.2l-3.4-2h-.4l-2.9 1.7v.3l3.3 1.9zm-15.2-1L312 327v.3l3.3 1.9h.5l2.9-1.7v-.3l-3.4-1.9zm4.2-2.5-2.9 1.7v.2l3.4 2h.4l2.9-1.7v-.3l-3.3-2zm16.8-9.7-2.9 1.6v.3l3.4 1.9h.5l2.8-1.7q.2-.1 0-.2l-3.3-2zm-4.2 2.4-2.9 1.7q-.2.1 0 .2l3.3 2h.5l2.9-1.7v-.3l-3.4-1.9zm8.4-4.9-2.9 1.7v.3l3.4 1.9h.4l2.9-1.7q.2-.1 0-.2l-3.3-2zm-16.8 9.8-3 1.6v.3l3.4 2h.5l2.9-1.7v-.3l-3.4-2zm4.2-2.5-2.9 1.7v.3l3.3 1.9h.5l2.9-1.7v-.2l-3.3-2zm-3 17.2 2.8-1.7q.2-.1 0-.2l-3.3-2h-.5l-2.9 1.7v.3l3.4 1.9zm-24.8-2.5-3.3-2h-.5l-2.9 1.7v.3l3.4 2h.4l2.9-1.7q.3-.1 0-.3m6.3 1.9-3.3-2h-.5l-4.4 2.6v.3l3.3 1.9h.5l4.4-2.6q.3-.1 0-.2m-11.4-5.6-3.3-2h-.5l-3.5 2v.3l3.3 2h.5l3.5-2q.3-.2 0-.3m2.7-1.6h.5l2.9-1.6v-.3l-3.3-2h-.5l-2.9 1.7v.3Zm14.6 9.3-3.3-2h-.5l-5.5 3.2q-.2.1 0 .3l3.3 2h.5l5.5-3.3q.2-.1 0-.2m2.8 3.8-3.4-1.9h-.4l-3.6 2v.3l3.4 2h.4l3.6-2zm14-31.2h.4l2.9-1.6v-.3l-3.3-2h-.5l-2.9 1.7v.3Zm-8.5 4.9h.5l2.9-1.7q.2-.1 0-.2l-3.4-2h-.4L317 312v.3ZM301.6 325h.5l2.9-1.7q.2-.1 0-.2l-3.3-2h-.5l-2.9 1.7v.3Zm23-13.2h.4l2.9-1.7v-.2l-3.4-2h-.4l-2.9 1.7v.3Zm-8.5 4.9h.5l2.8-1.7q.3 0 0-.3l-3.3-1.9h-.4l-3 1.7v.2Zm1 24.2h-.5l-4.4 2.5v.3l3.3 2h.5l4.4-2.6q.3-.1 0-.3Zm-7-20.8h.5l2.8-1.6q.3-.1 0-.3l-3.3-2h-.4l-3 1.8v.2Zm-4.2 2.5h.5l2.8-1.7q.2 0 0-.3l-3.3-1.9h-.5l-2.8 1.7q-.2.1 0 .2Zm89.2-26.7h-.4l-7.1 4v.3l3.3 2h.5l7-4.2q.3 0 0-.2Zm-9.3 5.3h-.5l-2.8 1.7v.3l3.3 1.9h.5l2.8-1.7q.2-.1 0-.2Zm-57 31.6 2.9-1.7q.2-.1 0-.2l-3.3-2h-.5l-2.9 1.7v.3l3.4 1.9zm48.6-26.7h-.4l-3 1.6v.3l3.3 2h.5l2.9-1.7v-.3Zm22-12.7h-.5l-2.9 1.7q-.2 0 0 .2l3.3 2h.5l2.9-1.7v-.3Zm7.5-.5-8.1-4.6h-.5l-2.8 1.6q-.3 0 0 .3l8 4.7h.5l2.9-1.7zm-45.2 22.3h-.5l-3.5 2v.3l3.3 2h.5l3.5-2.1v-.3Zm10.6-6.2h-.5l-4.4 2.6q-.2 0 0 .2l3.3 2h.5l4.4-2.6v-.3Zm-20.4 11.8h-.5l-23.7 13.7q-.2 0 0 .2l3.3 2h.5l23.7-13.7v-.3Zm-25 14.4h-.5l-3.5 2v.3l3.3 2h.5l3.5-2.1v-.3Zm29.9-17.2h-.5l-3.6 2v.3l3.4 1.9h.4l3.6-2v-.3ZM322 338h-.5l-3.5 2v.3l3.3 2h.5l3.5-2.1v-.3Zm44.5-25.7h-.4l-3.6 2v.3l3.4 2h.4l3.6-2v-.3Zm15.1-8.7h-.5l-2.8 1.7q-.2 0 0 .3l3.3 1.9h.5l2.8-1.7q.2-.1 0-.2Zm9.2-6.7 3-1.6v-.3l-3.4-2h-.5l-2.9 1.7v.3l3.3 2zm-18.8 0 2.9-1.7v-.3l-3.4-1.9h-.5l-2.8 1.7q-.3.1 0 .2l3.3 2zm-9.5 16.4 8.4-4.9q.2 0 0-.2l-3.3-2h-.5l-8.4 5q-.2 0 0 .2l3.3 1.9zm23.7-14h.4l2.9-1.6v-.3l-3.3-1.9h-.5l-2.9 1.7v.2Zm-4.3-2.7 2.8-1.6v-.3l-3.3-1.9h-.5l-2.9 1.6v.3l3.3 2zm-23.6 19.1 2.8-1.6q.2 0 0-.3l-3.3-2h-.5l-2.8 1.8q-.3 0 0 .2l3.3 2zm18.5-11h.5l2.9-1.6v-.3l-3.3-2h-.5l-2.9 1.7v.3ZM337.2 328l2.9-1.7v-.2l-3.4-2h-.4l-3 1.7v.3l3.4 1.9zm4.2-2.4 2.9-1.7v-.3l-3.4-1.9h-.4l-3 1.7v.2l3.4 2zm-8.4 4.8 2.9-1.6v-.3l-3.3-2h-.5l-2.9 1.7v.3l3.3 2zm16.8-9.7 3-1.7v-.2l-3.4-2h-.5l-2.9 1.7v.3l3.3 1.9zm-4.2 2.4 2.9-1.7v-.2l-3.4-2h-.4l-2.9 1.7v.3l3.3 1.9zm8.4-4.9 2.9-1.6v-.3l-3.3-2h-.5l-2.9 1.8v.3l3.3 1.9zm19.3-36h.4l3-1.6v-.3l-1-.5h-.4l-3 1.7v.3Zm-20.8 13.4h.5l2.9-1.6v-.3l-3.4-1.9h-.4l-2.9 1.7q-.2.1 0 .2Zm8.5-4.8h.4l3-1.7v-.2l-3.4-2h-.5l-2.8 1.7q-.2.2 0 .3Zm-13.6 7.8h.5l2.8-1.7q.3 0 0-.2l-3.3-2h-.4l-3 1.7v.3Zm9.4-5.4h.4l2.9-1.7q.2 0 0-.2l-3.3-2h-.5l-2.9 1.8v.3ZM339 303.4h.5l2.8-1.6q.3-.1 0-.3l-3.3-2h-.5l-2.8 1.7q-.2.1 0 .3Zm4.2-2.4h.5l2.8-1.7q.3-.1 0-.2l-3.3-2h-.5l-2.8 1.7v.3Zm21.7-14h.4l2.9-1.6q.2-.1 0-.2l-.9-.6h-.5l-2.8 1.7q-.3 0 0 .3Zm12.6-7.2h.4l3-1.7v-.2l-1-.5h-.4l-3 1.6v.3Zm7 4h.4l3-1.7v-.2l-3.4-1.9h-.5l-2.9 1.7v.2Zm10.5 10.7 2.9-1.7v-.2l-3.3-2h-.5l-2.9 1.7v.3l3.3 2zm-26-9.9h.5l2.9-1.6v-.3l-.9-.5h-.5l-2.8 1.7v.3Zm-34.2 21.2h.4l3-1.6v-.3l-3.4-1.9h-.5l-2.9 1.7v.2Z" fill="#455a64"/><path d="m353.5 331.1 28.4-16.4a3 3 0 0 1 3 0l16.4 9.4a1 1 0 0 1 0 1.8l-28.4 16.4a4 4 0 0 1-3.1 0l-16.4-9.4q-1.2-.9 0-1.8" fill="#19b5b5"/><path d="m353.5 331.1 28.4-16.4a3 3 0 0 1 3 0l16.4 9.4a1 1 0 0 1 0 1.8l-28.4 16.4a4 4 0 0 1-3.1 0l-16.4-9.4q-1.2-.9 0-1.8" fill="#263238"/><path d="m259.7 320.8.8.3zl-.2-.2zm8.7-18.9q.1 2 1.9 1l87.7-50.6a4 4 0 0 0 2-3.3v-59l-91.6 52.8Z" fill="#19b5b5"/><path d="M268.4 301.9q.1 2 1.9 1l87.7-50.6a4 4 0 0 0 2-3.3v-59l-91.6 52.8Z" fill="#fff" opacity=".8"/><path d="M268.4 238.8a4 4 0 0 1 1.9-3.3L358 185c1-.6 2-.1 2 1.1v4l-91.6 52.8Z" fill="#19b5b5"/><path d="M349.1 192a2 2 0 0 0-.9 1.6q0 1 1 .5a2 2 0 0 0 .8-1.5q0-1-.9-.5m3.2-1.8a2 2 0 0 0-1 1.5q.1 1 1 .5a2 2 0 0 0 .8-1.5q-.1-1-.8-.5m3.1-1.8a2 2 0 0 0-.9 1.5q0 1 .9.5a2 2 0 0 0 .9-1.5q0-1-.9-.5" fill="#37474f"/><path d="M298 249.4q.3-.1.4 0l.2.3 1.4 5.7 1.4-7.3.2-.5.4-.5 2.3-1.3h.3l.2.4v.2l-3 15-.2.6-.5.5-2.1 1.2h-.4l-.2-.4-1.3-5.3-1.4 6.8-.2.6-.4.5-2 1.2h-.5l-.2-.4-3-11.5v-.2l.1-.6.3-.4 2.3-1.3h.5l.2.3 1.4 5.7 1.3-7.2.2-.6.5-.5Zm17-9.8q.3-.2.4 0l.2.3 1.4 5.7 1.4-7.3.2-.6.4-.4 2.3-1.4h.3l.2.4v.3l-3 15-.2.5-.4.5-2.1 1.2q-.4.2-.4 0l-.2-.3-1.4-5.3-1.3 6.8-.2.6-.4.5-2.1 1.2q-.3.2-.4 0l-.2-.4-3-11.5v-.2l.1-.6.3-.4 2.3-1.3q.3-.1.4 0l.3.3 1.3 5.7 1.4-7.3.2-.5.4-.5Zm17-9.9h.4l.2.4 1.4 5.7 1.4-7.3.2-.6.4-.5 2.3-1.3h.3l.2.4v.2l-3 15-.2.6-.4.5-2.1 1.2q-.3.1-.4 0l-.2-.4-1.3-5.2-1.4 6.8-.2.6-.4.4-2 1.3h-.5l-.2-.4-3-11.6v-.2l.2-.6.3-.3 2.3-1.4h.4l.2.4 1.4 5.7 1.4-7.3.2-.6.4-.5Z" fill="#455a64"/><path fill="#19b5b5" d="m202.1 366-65 37.5-65-37.5 65-37.5z"/><path opacity=".1" d="m202.1 366-65 37.5-65-37.5 65-37.5z"/><path opacity=".1" d="M137.1 403.5v-4.7l-60.9-35.2-4.1 2.4z"/><path d="M137 403.5v17.3a9 9 0 0 0 4.4-1l28.2-16.3 29.9-17.2a6 6 0 0 0 2.6-4.5V366Z" fill="#19b5b5"/><path d="M137 403.5v17.3a9 9 0 0 0 4.4-1l28.2-16.3 29.9-17.2a6 6 0 0 0 2.6-4.5V366Z" fill="#fff" opacity=".7"/><path d="m195.9 374.3-32.3 18.6a5 5 0 0 0-2.1 3.7v4.4c0 1.4 1 2 2.1 1.3l32.3-18.7a5 5 0 0 0 2.1-3.7v-4.4c0-1.4-1-2-2.2-1.2" fill="#19b5b5"/><path d="M195.7 378v2.1a1 1 0 0 1-.4.8l-.5.3q-.3 0-.4-.3v-2.1a1 1 0 0 1 .4-.8l.5-.3q.3-.2.4.3m-2.2 1.2v2.2l-.4.7-.5.3q-.3.2-.4-.3V380l.4-.7.5-.3q.4-.1.4.2m-2.1 1.3v2.1a1 1 0 0 1-.5.8l-.5.3q-.3 0-.4-.3v-2.1a1 1 0 0 1 .4-.8l.5-.2q.4-.2.4.2" fill="#fafafa"/><path d="M189.2 381.8v2a1 1 0 0 1-.5.8l-.5.3q-.3.2-.4-.2v-2.2l.4-.7.5-.3q.5-.1.5.3M187 383v2.1a1 1 0 0 1-.4.8l-.5.3q-.5.2-.5-.3v-2.1l.5-.7.5-.3a.3.3 0 0 1 .4.2" fill="#455a64"/><path d="M184.8 384.3v2.1a1 1 0 0 1-.5.8l-.4.2q-.5.2-.5-.2V385a1 1 0 0 1 .5-.8l.4-.3q.5-.2.5.3m-2.2 1.4v2a1 1 0 0 1-.4.8l-.5.3q-.5.1-.5-.2v-2.2l.5-.7.5-.3q.3-.2.4.3m-2.2 1.2v2.1a1 1 0 0 1-.4.8l-.5.3q-.4.2-.4-.3v-2.1a1 1 0 0 1 .4-.8l.5-.2q.3-.2.4.2m-2.2 1.2v2.2l-.4.7-.5.3q-.3.2-.4-.2v-2.1a1 1 0 0 1 .4-.8l.5-.3q.3-.2.4.3m-2.2 1.2v2.2l-.4.7-.5.3q-.5.2-.5-.3v-2a1 1 0 0 1 .5-.8l.5-.3q.3-.2.4.2m-2.1 1.3v2.1a1 1 0 0 1-.5.8l-.5.2q-.3.2-.4-.2v-2.1a1 1 0 0 1 .4-.8l.5-.3a.3.3 0 0 1 .4.3m-2.1 1.3v2.1a1 1 0 0 1-.5.8l-.5.2q-.4.2-.4-.2v-2.2l.4-.7.5-.3q.5-.1.5.3" fill="#fafafa"/><path d="M169.5 393.1v2.1a1 1 0 0 1-.5.8l-.5.3q-.3.2-.4-.3v-2l.4-.7.5-.3a.3.3 0 0 1 .5.2" fill="#455a64"/><path d="M167.3 394.4v2.1a1 1 0 0 1-.5.8l-.4.2q-.5.2-.5-.2v-2.1a1 1 0 0 1 .5-.8l.4-.3q.5-.2.5.3m-2.3 1.2v2.2l-.3.7-.5.3q-.5.2-.5-.3v-2a1 1 0 0 1 .5-.8l.5-.3q.3-.1.4.2" fill="#fafafa"/><path d="M72 366v15.8a6 6 0 0 0 2.7 4.5l25.8 14.9 32.3 18.6a9 9 0 0 0 4.3 1v-17.3Z" fill="#19b5b5"/><path d="M72 366v15.8a6 6 0 0 0 2.7 4.5l25.8 14.9 32.3 18.6a9 9 0 0 0 4.3 1v-17.3Z" fill="#fff" opacity=".5"/><path d="m82.4 376.6 16 9.3a5 5 0 0 1 2.1 3.7v4.4c0 1.4-1 2-2.1 1.3l-16-9.3a5 5 0 0 1-2.2-3.7v-4.4q.2-2.2 2.2-1.3" fill="#fff" opacity=".8"/><path d="m84.4 381.6 1-.6a1 1 0 0 1 1.4.1 4 4 0 0 1 1.8 3.3 1 1 0 0 1-.5 1.2l-1 .5-.1-.2-.5-.3a4 4 0 0 1-2-3.2l.1-.5Z" fill="#19b5b5"/><path d="m84.4 381.6 1-.6a1 1 0 0 1 1.4.1 4 4 0 0 1 1.8 3.3 1 1 0 0 1-.5 1.2l-1 .5-.1-.2-.5-.3a4 4 0 0 1-2-3.2l.1-.5Z" opacity=".2"/><path d="M85.8 381.7a4 4 0 0 1 1.9 3.2q-.2 1.9-1.9 1.1a4 4 0 0 1-1.9-3.2q.2-1.9 1.9-1.1m6.8 4.6 1-.6a1 1 0 0 1 1.3.1 4 4 0 0 1 2 3.3 1 1 0 0 1-.6 1.2l-1 .5-.1-.2-.6-.2a4 4 0 0 1-1.9-3.3l.1-.5Z" fill="#19b5b5"/><path d="m92.6 386.3 1-.6a1 1 0 0 1 1.3.1 4 4 0 0 1 2 3.3 1 1 0 0 1-.6 1.2l-1 .5-.1-.2-.6-.2a4 4 0 0 1-1.9-3.3l.1-.5Z" opacity=".2"/><path d="M94 386.4a4 4 0 0 1 1.9 3.3c0 1.1-.9 1.6-1.9 1a4 4 0 0 1-1.9-3.2q.1-1.9 1.9-1.1" fill="#19b5b5"/><path d="m82.4 376.6 16 9.3a5 5 0 0 1 2.1 3.7v4.4c0 1.4-1 2-2.1 1.3l-16-9.3a5 5 0 0 1-2.2-3.7v-4.4q.2-2.2 2.2-1.3" fill="#fff" opacity=".8"/><path d="m84.4 381.6 1-.6a1 1 0 0 1 1.4.1 4 4 0 0 1 1.8 3.3 1 1 0 0 1-.5 1.2l-1 .5-.1-.2-.5-.3a4 4 0 0 1-2-3.2l.1-.5Z" fill="#19b5b5"/><path d="m84.4 381.6 1-.6a1 1 0 0 1 1.4.1 4 4 0 0 1 1.8 3.3 1 1 0 0 1-.5 1.2l-1 .5-.1-.2-.5-.3a4 4 0 0 1-2-3.2l.1-.5Z" opacity=".2"/><path d="M85.8 381.7a4 4 0 0 1 1.9 3.2q-.2 1.9-1.9 1.1a4 4 0 0 1-1.9-3.2q.2-1.9 1.9-1.1m6.8 4.6 1-.6a1 1 0 0 1 1.3.1 4 4 0 0 1 2 3.3 1 1 0 0 1-.6 1.2l-1 .5-.1-.2-.6-.2a4 4 0 0 1-1.9-3.3l.1-.5Z" fill="#19b5b5"/><path d="m92.6 386.3 1-.6a1 1 0 0 1 1.3.1 4 4 0 0 1 2 3.3 1 1 0 0 1-.6 1.2l-1 .5-.1-.2-.6-.2a4 4 0 0 1-1.9-3.3l.1-.5Z" opacity=".2"/><path d="M94 386.4a4 4 0 0 1 1.9 3.3c0 1.1-.9 1.6-1.9 1a4 4 0 0 1-1.9-3.2q.1-1.9 1.9-1.1m61.7 14.5-1-.6a1 1 0 0 0-1.3.2 4 4 0 0 0-2 3.2 1 1 0 0 0 .6 1.2l1 .6.1-.3.6-.2a4 4 0 0 0 1.8-3.3v-.5Z" fill="#19b5b5"/><path d="m155.7 400.9-1-.6a1 1 0 0 0-1.3.2 4 4 0 0 0-2 3.2 1 1 0 0 0 .6 1.2l1 .6.1-.3.6-.2a4 4 0 0 0 1.8-3.3v-.5Z" opacity=".4"/><path d="M154.3 401a4 4 0 0 0-1.9 3.3q.2 1.8 2 1a4 4 0 0 0 1.8-3.2q-.1-1.9-1.9-1.1" fill="#19b5b5"/><path d="M154.3 401a4 4 0 0 0-1.9 3.3q.2 1.8 2 1a4 4 0 0 0 1.8-3.2q-.1-1.9-1.9-1.1" opacity=".2"/><path d="m147.5 405.6-1-.6a1 1 0 0 0-1.3.2 4 4 0 0 0-1.9 3.2 1 1 0 0 0 .6 1.2l.9.6.2-.3.5-.2a4 4 0 0 0 1.9-3.3v-.5Z" fill="#19b5b5"/><path d="m147.5 405.6-1-.6a1 1 0 0 0-1.3.2 4 4 0 0 0-1.9 3.2 1 1 0 0 0 .6 1.2l.9.6.2-.3.5-.2a4 4 0 0 0 1.9-3.3v-.5Z" opacity=".4"/><path d="M146.2 405.7a4 4 0 0 0-2 3.3c0 1.2 1 1.7 2 1a4 4 0 0 0 1.8-3.2q-.2-2-1.8-1" fill="#19b5b5"/><path d="M146.2 405.7a4 4 0 0 0-2 3.3c0 1.2 1 1.7 2 1a4 4 0 0 0 1.8-3.2q-.2-2-1.8-1" opacity=".2"/><path fill="#19b5b5" d="m202.1 337.8-65 37.6-65-37.6 65-37.5z"/><path opacity=".1" d="m202.1 337.8-65 37.6-65-37.6 65-37.5z"/><path opacity=".1" d="M137.1 375.4v-4.7l-60.9-35.2-4.1 2.3z"/><path fill="#19b5b5" d="m202.1 356.6-65 37.5v-18.7l65-37.6z"/><path fill="#fff" opacity=".7" d="m202.1 356.6-65 37.5v-18.7l65-37.6z"/><path d="m195.9 346.1-32.3 18.6a5 5 0 0 0-2.1 3.8v4.4c0 1.4 1 2 2.1 1.2l32.3-18.6a5 5 0 0 0 2.1-3.7v-4.4c0-1.4-1-2-2.2-1.3" fill="#19b5b5"/><path d="M195.7 349.8v2.2a1 1 0 0 1-.4.8l-.5.2q-.3.2-.4-.2v-2.1a1 1 0 0 1 .4-.8l.5-.3q.3-.2.4.2" fill="#fafafa"/><path d="M193.5 351.1v2.1a1 1 0 0 1-.4.8l-.5.3q-.3.1-.4-.3v-2a1 1 0 0 1 .4-.8l.5-.3q.4 0 .4.3" fill="#455a64"/><path d="M191.4 352.4v2a1 1 0 0 1-.5.8l-.5.3q-.3.2-.4-.2V353l.4-.7.5-.3q.4-.2.4.3" fill="#fafafa"/><path d="M189.2 353.6v2.1a1 1 0 0 1-.5.8l-.5.3q-.3.1-.4-.3v-2a1 1 0 0 1 .4-.8l.5-.3q.5-.2.5.2m-2.2 1.3v2.1a1 1 0 0 1-.4.8l-.5.2q-.5.2-.5-.2v-2.1a1 1 0 0 1 .5-.8l.5-.3q.3-.2.4.3" fill="#455a64"/><path d="M184.8 356.2v2a1 1 0 0 1-.5.8l-.4.3q-.5.1-.5-.3v-2a1 1 0 0 1 .5-.8l.4-.3q.5-.2.5.3m-2.2 1.2v2.1a1 1 0 0 1-.4.8l-.5.3q-.5.1-.5-.3v-2.1a1 1 0 0 1 .5-.8l.5-.2q.3-.2.4.2m-2.2 1.3v2.1a1 1 0 0 1-.4.8l-.5.2q-.4.2-.4-.2v-2.2l.4-.7.5-.3q.3-.2.4.3" fill="#fafafa"/><path d="M178.2 360v2a1 1 0 0 1-.4.8l-.5.3q-.3.2-.4-.3v-2a1 1 0 0 1 .4-.8l.5-.3q.3-.2.4.2" fill="#455a64"/><path d="M176 361.2v2.1a1 1 0 0 1-.4.8l-.5.2q-.5.2-.5-.2V362l.5-.7.5-.3q.3-.2.4.2" fill="#fafafa"/><path d="M173.9 362.5v2a1 1 0 0 1-.5.8l-.5.3q-.3.1-.4-.2v-2.2l.4-.7.5-.3q.4-.1.4.3" fill="#455a64"/><path d="M171.7 363.7v2.1a1 1 0 0 1-.5.8l-.5.3q-.4.2-.4-.3v-2.1l.4-.7.5-.3q.5-.2.5.2" fill="#fafafa"/><path d="M169.5 365v2.1a1 1 0 0 1-.5.8l-.5.3q-.3 0-.4-.3v-2.1a1 1 0 0 1 .4-.8l.5-.3q.5-.2.5.3" fill="#455a64"/><path d="M167.3 366.2v2.2l-.5.7-.4.3q-.5.1-.5-.2V367l.5-.7.4-.3q.5-.1.5.2m-2.3 1.3v2.1l-.3.8-.5.3q-.5.2-.5-.3v-2.1a1 1 0 0 1 .5-.8l.5-.3q.3 0 .4.3" fill="#fafafa"/><path fill="#19b5b5" d="m137.1 394.1-65-37.5v-18.8l65 37.6z"/><path fill="#fff" opacity=".5" d="m137.1 394.1-65-37.5v-18.8l65 37.6z"/><path d="m82.4 348.5 16 9.2a5 5 0 0 1 2.1 3.7v4.4c0 1.4-1 2-2.1 1.3l-16-9.2a5 5 0 0 1-2.2-3.8v-4.4q.2-2.2 2.2-1.2" fill="#fff" opacity=".8"/><path d="m84.4 353.4 1-.6a1.4 1.4 0 0 1 1.4.2 4 4 0 0 1 1.8 3.2 1 1 0 0 1-.5 1.2l-1 .6-.1-.3-.5-.2a4 4 0 0 1-2-3.3l.1-.5Z" fill="#19b5b5"/><path d="m84.4 353.4 1-.6a1.4 1.4 0 0 1 1.4.2 4 4 0 0 1 1.8 3.2 1 1 0 0 1-.5 1.2l-1 .6-.1-.3-.5-.2a4 4 0 0 1-2-3.3l.1-.5Z" opacity=".2"/><path d="M85.8 353.5a4 4 0 0 1 1.9 3.3q-.2 2-1.9 1a4 4 0 0 1-1.9-3.2q.2-2 1.9-1m6.8 4.5 1-.6a1 1 0 0 1 1.3.2 4 4 0 0 1 2 3.3 1 1 0 0 1-.6 1.2l-1 .5-.1-.3-.6-.2a4 4 0 0 1-1.9-3.2l.1-.5Z" fill="#19b5b5"/><path d="m92.6 358.1 1-.6a1 1 0 0 1 1.3.2 4 4 0 0 1 2 3.3 1 1 0 0 1-.6 1.2l-1 .5-.1-.3-.6-.2a4 4 0 0 1-1.9-3.2l.1-.5Z" opacity=".2"/><path d="M94 358.2a4 4 0 0 1 1.9 3.3c0 1.2-.9 1.7-1.9 1a4 4 0 0 1-1.9-3.2q.1-2 1.9-1" fill="#19b5b5"/><path fill="#455a64" d="M194 366v-4.7l-56.9 32.8v4.7z"/><path fill="#19b5b5" d="M76.2 358.9v4.7l60.9 35.2v-4.7z"/><path fill="#37474f" d="M76.2 358.9v4.7l60.9 35.2v-4.7z"/><path d="m155.7 372.8-1-.6a1 1 0 0 0-1.3.1 4 4 0 0 0-2 3.3 1 1 0 0 0 .6 1.2l1 .5.1-.3.6-.2a4 4 0 0 0 1.8-3.2v-.5Z" fill="#19b5b5"/><path d="m155.7 372.8-1-.6a1 1 0 0 0-1.3.1 4 4 0 0 0-2 3.3 1 1 0 0 0 .6 1.2l1 .5.1-.3.6-.2a4 4 0 0 0 1.8-3.2v-.5Z" opacity=".4"/><path d="M154.3 372.9a4 4 0 0 0-1.9 3.2q.2 1.9 2 1.1a4 4 0 0 0 1.8-3.3q-.1-1.9-1.9-1" fill="#19b5b5"/><path d="M154.3 372.9a4 4 0 0 0-1.9 3.2q.2 1.9 2 1.1a4 4 0 0 0 1.8-3.3q-.1-1.9-1.9-1" opacity=".2"/><path d="m147.5 377.5-1-.6a1 1 0 0 0-1.3.1 4 4 0 0 0-1.9 3.3 1 1 0 0 0 .6 1.2l.9.5.2-.3.5-.2a4 4 0 0 0 1.9-3.2v-.5Z" fill="#19b5b5"/><path d="m147.5 377.5-1-.6a1 1 0 0 0-1.3.1 4 4 0 0 0-1.9 3.3 1 1 0 0 0 .6 1.2l.9.5.2-.3.5-.2a4 4 0 0 0 1.9-3.2v-.5Z" opacity=".4"/><path d="M146.2 377.6a4 4 0 0 0-2 3.2c0 1.2 1 1.7 2 1.1a4 4 0 0 0 1.8-3.2q-.2-1.9-1.8-1.1" fill="#19b5b5"/><path d="M146.2 377.6a4 4 0 0 0-2 3.2c0 1.2 1 1.7 2 1.1a4 4 0 0 0 1.8-3.2q-.2-1.9-1.8-1.1" opacity=".2"/><path fill="#19b5b5" d="m202.1 309.7-65 37.5-65-37.5 65-37.5z"/><path opacity=".1" d="m202.1 309.7-65 37.5-65-37.5 65-37.5z"/><path opacity=".1" d="M137.1 347.2v-4.7l-60.9-35.2-4.1 2.4z"/><path fill="#19b5b5" d="m202.1 328.5-65 37.5v-18.8l65-37.5z"/><path fill="#fff" opacity=".7" d="m202.1 328.5-65 37.5v-18.8l65-37.5z"/><path d="m195.9 318-32.3 18.6a5 5 0 0 0-2.1 3.8v4.3c0 1.4 1 2 2.1 1.3l32.3-18.6a5 5 0 0 0 2.1-3.8v-4.4c0-1.4-1-2-2.2-1.2" fill="#19b5b5"/><path d="M195.7 321.7v2.1a1 1 0 0 1-.4.8l-.5.2q-.3.2-.4-.2v-2.2l.4-.7.5-.3q.3-.2.4.3m-2.2 1.3v2a1 1 0 0 1-.4.8l-.5.3q-.3.2-.4-.3v-2a1 1 0 0 1 .4-.8l.5-.3q.4-.2.4.2m-2.1 1.3v2.1a1 1 0 0 1-.5.8l-.5.2q-.3.2-.4-.2V325l.4-.7.5-.3q.4-.2.4.2m-2.1 1.3v2a1 1 0 0 1-.5.8l-.5.3q-.3.1-.4-.2v-2.2l.4-.7.5-.3q.5-.1.5.3" fill="#fafafa"/><path d="M187 326.7v2.1a1 1 0 0 1-.4.8l-.5.3q-.5.1-.5-.3v-2.1l.5-.7.5-.3q.3-.2.4.2m-2.2 1.3v2.1a1 1 0 0 1-.5.8l-.4.3q-.5 0-.5-.3v-2.1a1 1 0 0 1 .5-.8l.4-.3q.5-.1.5.3" fill="#455a64"/><path d="M182.6 329.2v2.2l-.4.7-.5.3q-.5.1-.5-.2V330l.5-.7.5-.3q.3-.1.4.2m-2.2 1.3v2.1a1 1 0 0 1-.4.8l-.5.3q-.4.1-.4-.3v-2.1a1 1 0 0 1 .4-.8l.5-.3q.3 0 .4.3m-2.2 1.3v2a1 1 0 0 1-.4.8l-.5.3q-.3.2-.4-.2v-2.2l.4-.7.5-.3q.3-.1.4.3" fill="#fafafa"/><path d="M176 333v2.1a1 1 0 0 1-.4.8l-.5.3q-.5.1-.5-.3v-2.1a1 1 0 0 1 .5-.8l.5-.3q.3 0 .4.3" fill="#455a64"/><path d="M173.9 334.3v2.1a1 1 0 0 1-.5.8l-.5.2q-.3.2-.4-.2V335a1 1 0 0 1 .4-.8l.5-.3q.4-.2.4.3m-2.1 1.4v2a1 1 0 0 1-.5.8l-.5.3q-.4.1-.4-.2v-2.2l.4-.7.5-.3q.5-.2.5.3" fill="#fafafa"/><path d="M169.5 336.8v2.1a1 1 0 0 1-.5.8l-.5.3q-.3.1-.4-.3v-2.1a1 1 0 0 1 .4-.8l.5-.2q.5-.2.5.2" fill="#455a64"/><path d="M167.3 338v2.2a1 1 0 0 1-.5.8l-.4.2q-.5.2-.5-.2v-2.2l.5-.7.4-.3q.5-.2.5.3" fill="#fafafa"/><path d="M165 339.3v2.2l-.3.7-.5.3q-.5.2-.5-.3v-2a1 1 0 0 1 .5-.8l.5-.3q.3-.2.4.2" fill="#455a64"/><path fill="#19b5b5" d="m137.1 366-65-37.5v-18.8l65 37.5z"/><path fill="#fff" opacity=".5" d="m137.1 366-65-37.5v-18.8l65 37.5z"/><path d="m82.4 320.3 16 9.2a5 5 0 0 1 2.1 3.8v4.4c0 1.4-1 2-2.1 1.2l-16-9.2a5 5 0 0 1-2.2-3.7v-4.4q.2-2.2 2.2-1.3" fill="#fff" opacity=".8"/><path d="m84.4 325.3 1-.6a1 1 0 0 1 1.4.1 4 4 0 0 1 1.8 3.3 1 1 0 0 1-.5 1.2l-1 .5-.1-.3-.5-.2a4 4 0 0 1-2-3.2l.1-.5Z" fill="#19b5b5"/><path d="m84.4 325.3 1-.6a1 1 0 0 1 1.4.1 4 4 0 0 1 1.8 3.3 1 1 0 0 1-.5 1.2l-1 .5-.1-.3-.5-.2a4 4 0 0 1-2-3.2l.1-.5Z" opacity=".2"/><path d="M85.8 325.4a4 4 0 0 1 1.9 3.2q-.2 1.9-1.9 1.1a4 4 0 0 1-1.9-3.3q.2-1.8 1.9-1m6.8 4.6 1-.6a1 1 0 0 1 1.3.2 4 4 0 0 1 2 3.2 1 1 0 0 1-.6 1.2l-1 .6-.1-.3-.6-.2a4 4 0 0 1-1.9-3.3l.1-.5Z" fill="#19b5b5"/><path d="m92.6 330 1-.6a1 1 0 0 1 1.3.2 4 4 0 0 1 2 3.2 1 1 0 0 1-.6 1.2l-1 .6-.1-.3-.6-.2a4 4 0 0 1-1.9-3.3l.1-.5Z" opacity=".2"/><path d="M94 330a4 4 0 0 1 1.9 3.3c0 1.2-.9 1.7-1.9 1.1a4 4 0 0 1-1.9-3.2q.1-1.9 1.9-1.1" fill="#19b5b5"/><path fill="#455a64" d="M194 337.8v-4.7L137.1 366v4.7z"/><path fill="#37474f" d="M76.2 330.8v4.7l60.9 35.2V366z"/><path d="m155.7 344.6-1-.6a1 1 0 0 0-1.3.2 4 4 0 0 0-2 3.2 1 1 0 0 0 .6 1.2l1 .6.1-.3.6-.2a4 4 0 0 0 1.8-3.3v-.5Z" fill="#19b5b5"/><path d="m155.7 344.6-1-.6a1 1 0 0 0-1.3.2 4 4 0 0 0-2 3.2 1 1 0 0 0 .6 1.2l1 .6.1-.3.6-.2a4 4 0 0 0 1.8-3.3v-.5Z" opacity=".4"/><path d="M154.3 344.7a4 4 0 0 0-1.9 3.3q.2 2 2 1a4 4 0 0 0 1.8-3.2q-.1-2-1.9-1" fill="#19b5b5"/><path d="M154.3 344.7a4 4 0 0 0-1.9 3.3q.2 2 2 1a4 4 0 0 0 1.8-3.2q-.1-2-1.9-1" opacity=".2"/><path d="m147.5 349.3-1-.6a1 1 0 0 0-1.3.2 4 4 0 0 0-1.9 3.3 1 1 0 0 0 .6 1.2l.9.5.2-.3.5-.2a4 4 0 0 0 1.9-3.2v-.5Z" fill="#19b5b5"/><path d="m147.5 349.3-1-.6a1 1 0 0 0-1.3.2 4 4 0 0 0-1.9 3.3 1 1 0 0 0 .6 1.2l.9.5.2-.3.5-.2a4 4 0 0 0 1.9-3.2v-.5Z" opacity=".4"/><path d="M146.2 349.4a4 4 0 0 0-2 3.3c0 1.2 1 1.7 2 1a4 4 0 0 0 1.8-3.2q-.2-2-1.8-1" fill="#19b5b5"/><path d="M146.2 349.4a4 4 0 0 0-2 3.3c0 1.2 1 1.7 2 1a4 4 0 0 0 1.8-3.2q-.2-2-1.8-1" opacity=".2"/><path fill="#19b5b5" d="m202.1 281.6-65 37.5-65-37.5 65-37.6z"/><path fill="#fff" opacity=".1" d="m202.1 281.6-65 37.5-65-37.5 65-37.6z"/><path opacity=".1" d="m202.1 281.6-65 37.5-65-37.5 65-37.6z"/><path opacity=".1" d="M137.1 314.4v4.7l-65-37.5 4.1-2.4z"/><path fill="#19b5b5" d="m202.1 300.3-65 37.5v-18.7l65-37.5z"/><path fill="#fff" opacity=".7" d="m202.1 300.3-65 37.5v-18.7l65-37.5z"/><path d="m195.9 289.8-32.3 18.6a5 5 0 0 0-2.1 3.8v4.4c0 1.4 1 2 2.1 1.2l32.3-18.6a5 5 0 0 0 2.1-3.7V291c0-1.4-1-2-2.2-1.3" fill="#19b5b5"/><path d="M195.7 293.6v2a1 1 0 0 1-.4.8l-.5.3q-.3.1-.4-.2v-2.2l.4-.7.5-.3q.3-.1.4.3" fill="#fafafa"/><path d="M193.5 294.8v2.1a1 1 0 0 1-.4.8l-.5.3q-.3.2-.4-.3v-2.1a1 1 0 0 1 .4-.8l.5-.2q.4-.2.4.2" fill="#455a64"/><path d="M191.4 296v2.2a1 1 0 0 1-.5.8l-.5.2q-.3.2-.4-.2v-2.2l.4-.7.5-.3q.4-.2.4.3m-2.1 1.2v2.2l-.5.7-.5.3q-.3.2-.4-.3v-2a1 1 0 0 1 .4-.8l.5-.3q.5-.1.5.2m-2.2 1.3v2.1a1 1 0 0 1-.4.8l-.5.3q-.5 0-.5-.3v-2.1a1 1 0 0 1 .5-.8l.5-.3q.3 0 .4.3" fill="#fafafa"/><path d="M184.8 299.9v2.1a1 1 0 0 1-.5.8l-.4.2q-.5.2-.5-.2v-2.1a1 1 0 0 1 .5-.8l.4-.3q.5-.1.5.3m-2.2 1.2v2.1a1 1 0 0 1-.4.8l-.5.3q-.5.1-.5-.3v-2l.5-.7.5-.3q.3-.2.4.2" fill="#455a64"/><path d="M180.4 302.4v2.1a1 1 0 0 1-.4.8l-.5.2q-.4.2-.4-.2v-2.1a1 1 0 0 1 .4-.8l.5-.3q.3-.1.4.3" fill="#fafafa"/><path d="M178.2 303.6v2.2l-.4.7-.5.3q-.3.1-.4-.3v-2a1 1 0 0 1 .4-.8l.5-.3q.3-.1.4.2" fill="#455a64"/><path d="M176 304.9v2.1a1 1 0 0 1-.4.8l-.5.2q-.5.2-.5-.2v-2.2l.5-.7.5-.3q.3 0 .4.3m-2.1 1.3v2a1 1 0 0 1-.5.8l-.5.3q-.3.2-.4-.2V307l.4-.7.5-.3q.4-.3.4.2m-2.1 1.2v2.2l-.5.7-.5.3q-.4.2-.4-.3v-2a1 1 0 0 1 .4-.8l.5-.3q.5-.2.5.2" fill="#fafafa"/><path d="M169.5 308.7v2.1a1 1 0 0 1-.5.8l-.5.2q-.3.2-.4-.2v-2.1a1 1 0 0 1 .4-.8l.5-.3q.5-.2.5.3" fill="#455a64"/><path d="M167.3 310v2.1a1 1 0 0 1-.5.8l-.4.3q-.5 0-.5-.3v-2.1a1 1 0 0 1 .5-.8l.4-.2q.5-.3.5.2m-2.3 1.2v2.1l-.3.8-.5.3q-.5.2-.5-.3V312l.5-.7.5-.3q.3-.2.4.2" fill="#fafafa"/><path fill="#19b5b5" d="m137.1 337.8-65-37.5v-18.7l65 37.5z"/><path fill="#fff" opacity=".5" d="m137.1 337.8-65-37.5v-18.7l65 37.5z"/><path d="m82.4 292.2 16 9.2a5 5 0 0 1 2.1 3.8v4.4c0 1.3-1 2-2.1 1.2l-16-9.2a5 5 0 0 1-2.2-3.8v-4.3q.2-2.2 2.2-1.3" fill="#fff" opacity=".8"/><path d="m84.4 297.2 1-.6a1 1 0 0 1 1.4.1 4 4 0 0 1 1.8 3.3 1 1 0 0 1-.5 1.2l-1 .5-.1-.2-.5-.2a4 4 0 0 1-2-3.3l.1-.5Z" fill="#19b5b5"/><path d="m84.4 297.2 1-.6a1 1 0 0 1 1.4.1 4 4 0 0 1 1.8 3.3 1 1 0 0 1-.5 1.2l-1 .5-.1-.2-.5-.2a4 4 0 0 1-2-3.3l.1-.5Z" opacity=".2"/><path d="M85.8 297.3a4 4 0 0 1 1.9 3.2q-.2 1.9-1.9 1.1a4 4 0 0 1-1.9-3.3q.2-1.9 1.9-1m6.8 4.6 1-.6a1 1 0 0 1 1.3.1 4 4 0 0 1 2 3.3 1 1 0 0 1-.6 1.2l-1 .5-.1-.2-.6-.3a4 4 0 0 1-1.9-3.2l.1-.5Z" fill="#19b5b5"/><path d="m92.6 301.9 1-.6a1 1 0 0 1 1.3.1 4 4 0 0 1 2 3.3 1 1 0 0 1-.6 1.2l-1 .5-.1-.2-.6-.3a4 4 0 0 1-1.9-3.2l.1-.5Z" opacity=".2"/><path d="M94 302a4 4 0 0 1 1.9 3.3c0 1.2-.9 1.6-1.9 1a4 4 0 0 1-1.9-3.2q.1-1.9 1.9-1.1" fill="#19b5b5"/><path fill="#455a64" d="M194 309.7V305l-56.9 32.8v4.7z"/><path fill="#37474f" d="M76.2 302.7v4.6l60.9 35.2v-4.7z"/><path d="m155.7 316.5-1-.6a1 1 0 0 0-1.3.1 4 4 0 0 0-2 3.3 1 1 0 0 0 .6 1.2l1 .5.1-.3.6-.2a4 4 0 0 0 1.8-3.2v-.5Z" fill="#19b5b5"/><path d="m155.7 316.5-1-.6a1 1 0 0 0-1.3.1 4 4 0 0 0-2 3.3 1 1 0 0 0 .6 1.2l1 .5.1-.3.6-.2a4 4 0 0 0 1.8-3.2v-.5Z" opacity=".4"/><path d="M154.3 316.6a4 4 0 0 0-1.9 3.2q.2 1.9 2 1.1a4 4 0 0 0 1.8-3.2q-.1-1.9-1.9-1.1" fill="#19b5b5"/><path d="M154.3 316.6a4 4 0 0 0-1.9 3.2q.2 1.9 2 1.1a4 4 0 0 0 1.8-3.2q-.1-1.9-1.9-1.1" opacity=".2"/><path d="m147.5 321.2-1-.6a1 1 0 0 0-1.3.1 4 4 0 0 0-1.9 3.3 1 1 0 0 0 .6 1.2l.9.5.2-.2.5-.3a4 4 0 0 0 1.9-3.2v-.5Z" fill="#19b5b5"/><path d="m147.5 321.2-1-.6a1 1 0 0 0-1.3.1 4 4 0 0 0-1.9 3.3 1 1 0 0 0 .6 1.2l.9.5.2-.2.5-.3a4 4 0 0 0 1.9-3.2v-.5Z" opacity=".4"/><path d="M146.2 321.3a4 4 0 0 0-2 3.2c0 1.2 1 1.7 2 1.1a4 4 0 0 0 1.8-3.2q-.2-1.9-1.8-1.1" fill="#19b5b5"/><path d="M146.2 321.3a4 4 0 0 0-2 3.2c0 1.2 1 1.7 2 1.1a4 4 0 0 0 1.8-3.2q-.2-1.9-1.8-1.1" opacity=".2"/><path d="m74.7 252 59.8-34.6a6 6 0 0 1 5.2 0l59.8 34.5a6 6 0 0 1 2.6 4.5v15.8L137 309.7l-65-37.5v-15.8a6 6 0 0 1 2.7-4.5" fill="#19b5b5"/><path d="m74.7 252 59.8-34.6a6 6 0 0 1 5.2 0l59.8 34.5a6 6 0 0 1 2.6 4.5v15.8L137 309.7l-65-37.5v-15.8a6 6 0 0 1 2.7-4.5" fill="#fff" opacity=".5"/><path d="m82.4 264 16 9.2a5 5 0 0 1 2.1 3.8v4.4c0 1.3-1 1.9-2.1 1.2l-16-9.2a5 5 0 0 1-2.2-3.8v-4.4q.2-2 2.2-1.2" fill="#fff" opacity=".8"/><path d="m84.4 269 1-.6a1 1 0 0 1 1.4.2 4 4 0 0 1 1.8 3.2 1 1 0 0 1-.5 1.2l-1 .6-.1-.3-.5-.2a4 4 0 0 1-2-3.3l.1-.4Z" fill="#19b5b5"/><path d="m84.4 269 1-.6a1 1 0 0 1 1.4.2 4 4 0 0 1 1.8 3.2 1 1 0 0 1-.5 1.2l-1 .6-.1-.3-.5-.2a4 4 0 0 1-2-3.3l.1-.4Z" opacity=".2"/><path d="M85.8 269a4 4 0 0 1 1.9 3.3q-.2 1.9-1.9 1.1a4 4 0 0 1-1.9-3.2q.2-1.9 1.9-1.1m6.8 4.6 1-.6a1 1 0 0 1 1.3.1 4 4 0 0 1 2 3.3 1 1 0 0 1-.6 1.2l-1 .6-.1-.3-.6-.2a4 4 0 0 1-1.9-3.3l.1-.5Z" fill="#19b5b5"/><path d="m92.6 273.7 1-.6a1 1 0 0 1 1.3.1 4 4 0 0 1 2 3.3 1 1 0 0 1-.6 1.2l-1 .6-.1-.3-.6-.2a4 4 0 0 1-1.9-3.3l.1-.5Z" opacity=".2"/><path d="M94 273.8a4 4 0 0 1 1.9 3.3c0 1.2-.9 1.6-1.9 1a4 4 0 0 1-1.9-3.2q.1-1.9 1.9-1.1m43 16.2v19.7l65-37.5v-15.8a6 6 0 0 0-2-4.2q1.3 1.5-.5 2.7l-59.9 34.5a5 5 0 0 1-2.5.7" fill="#19b5b5"/><path d="M137 290v19.7l65-37.5v-15.8a6 6 0 0 0-2-4.2q1.3 1.5-.5 2.7l-59.9 34.5a5 5 0 0 1-2.5.7" fill="#fff" opacity=".7"/><path d="m195.9 261.7-32.3 18.6a5 5 0 0 0-2.1 3.8v4.3c0 1.4 1 2 2.1 1.3L196 271a5 5 0 0 0 2.1-3.8V263q-.2-2.1-2.2-1.2" fill="#19b5b5"/><path d="M195.7 265.4v2.1a1 1 0 0 1-.4.8l-.5.3q-.3.1-.4-.3v-2.1a1 1 0 0 1 .4-.8l.5-.3a.3.3 0 0 1 .4.3" fill="#455a64"/><path d="M193.5 266.7v2a1 1 0 0 1-.4.8l-.5.3q-.3.2-.4-.2v-2.2l.4-.7.5-.3q.4-.2.4.3" fill="#fafafa"/><path d="M191.4 268v2a1 1 0 0 1-.5.8l-.5.3q-.3.2-.4-.3v-2a1 1 0 0 1 .4-.8l.5-.3q.4-.2.4.2m-2.1 1.3v2.1a1 1 0 0 1-.5.8l-.5.2q-.3.2-.4-.2V270l.4-.7.5-.3q.5-.2.5.2m-2.2 1.3v2a1 1 0 0 1-.4.8l-.5.3a.3.3 0 0 1-.5-.2v-2.2l.5-.7.5-.3q.3-.2.4.3" fill="#455a64"/><path d="M184.8 271.7v2.1a1 1 0 0 1-.5.8l-.4.3a.3.3 0 0 1-.5-.3v-2.1a1 1 0 0 1 .5-.8l.4-.2a.3.3 0 0 1 .5.2m-2.2 1.3v2.1a1 1 0 0 1-.4.8l-.5.3q-.5.1-.5-.3v-2.1a1 1 0 0 1 .5-.8l.5-.3a.3.3 0 0 1 .4.3" fill="#fafafa"/><path d="M180.4 274.2v2.2l-.4.7-.5.3q-.4.1-.4-.3V275l.4-.7.5-.3q.3-.1.4.2" fill="#455a64"/><path d="M178.2 275.5v2.1a1 1 0 0 1-.4.8l-.5.3q-.3 0-.4-.3v-2.1a1 1 0 0 1 .4-.8l.5-.3q.3 0 .4.3" fill="#fafafa"/><path d="M176 276.8v2a1 1 0 0 1-.4.8l-.5.3q-.5.1-.5-.2v-2.2l.5-.7.5-.3q.3-.1.4.3m-2.1 1.2v2.1a1 1 0 0 1-.5.8l-.5.3a.3.3 0 0 1-.4-.3v-2.1l.4-.7.5-.3q.4-.2.4.2m-2.1 1.3v2.1a1 1 0 0 1-.5.8l-.5.2a.3.3 0 0 1-.4-.2V280a1 1 0 0 1 .4-.8l.5-.3a.3.3 0 0 1 .5.3" fill="#455a64"/><path d="M169.5 280.5v2.2l-.5.7-.5.3q-.3.1-.4-.2v-2.2l.4-.7.5-.3q.5-.2.5.2" fill="#fafafa"/><path d="M167.3 281.8v2.1a1 1 0 0 1-.5.8l-.4.3q-.5.2-.5-.3v-2.1a1 1 0 0 1 .5-.8l.4-.3q.5 0 .5.3M165 283v2.2l-.3.7-.5.3q-.5.2-.5-.2v-2.2l.5-.7.5-.3q.3-.2.4.3" fill="#455a64"/><path d="m199.5 255-59.9 34.4a6 6 0 0 1-5.2 0L74.7 255c-1.5-.8-1.5-2.2 0-3l59.8-34.5a6 6 0 0 1 5.2 0l59.8 34.5c1.4.8 1.4 2.2 0 3" fill="#19b5b5"/><path d="m199.5 255-59.9 34.4a6 6 0 0 1-5.2 0L74.7 255c-1.5-.8-1.5-2.2 0-3l59.8-34.5a6 6 0 0 1 5.2 0l59.8 34.5c1.4.8 1.4 2.2 0 3" fill="#fff" opacity=".8"/><path fill="#455a64" d="M194 281.6v-4.7l-56.9 32.8v4.7z"/><path fill="#37474f" d="M76.2 274.5v4.7l60.9 35.2v-4.7z"/><path d="m155.7 288.3-1-.5a1 1 0 0 0-1.3.1 4 4 0 0 0-2 3.3 1 1 0 0 0 .6 1.2l1 .5.1-.3.6-.2a4 4 0 0 0 1.8-3.2v-.5Z" fill="#19b5b5"/><path d="m155.7 288.3-1-.5a1 1 0 0 0-1.3.1 4 4 0 0 0-2 3.3 1 1 0 0 0 .6 1.2l1 .5.1-.3.6-.2a4 4 0 0 0 1.8-3.2v-.5Z" opacity=".4"/><path d="M154.3 288.4a4 4 0 0 0-1.9 3.3q.2 2 2 1a4 4 0 0 0 1.8-3.2q-.1-2-1.9-1" fill="#19b5b5"/><path d="M154.3 288.4a4 4 0 0 0-1.9 3.3q.2 2 2 1a4 4 0 0 0 1.8-3.2q-.1-2-1.9-1" opacity=".2"/><path d="m147.5 293-1-.6a1 1 0 0 0-1.3.2 4 4 0 0 0-1.9 3.2 1 1 0 0 0 .6 1.2l.9.6.2-.3.5-.2a4 4 0 0 0 1.9-3.3v-.5Z" fill="#19b5b5"/><path d="m147.5 293-1-.6a1 1 0 0 0-1.3.2 4 4 0 0 0-1.9 3.2 1 1 0 0 0 .6 1.2l.9.6.2-.3.5-.2a4 4 0 0 0 1.9-3.3v-.5Z" opacity=".4"/><path d="M146.2 293.2a4 4 0 0 0-2 3.2c0 1.2 1 1.7 2 1.1a4 4 0 0 0 1.8-3.3q-.2-1.9-1.8-1" fill="#19b5b5"/><path d="M146.2 293.2a4 4 0 0 0-2 3.2c0 1.2 1 1.7 2 1.1a4 4 0 0 0 1.8-3.3q-.2-1.9-1.8-1" opacity=".2"/><path d="m312 163.8-4.6-8.7 3.7-10.8v-6.6l-11.4 6.6v6.6l4.9 8.5.3.3Z" fill="#19b5b5"/><path d="m312 163.8-4.6-8.7 3.7-10.8v-6.6l-11.4 6.6v6.6l4.9 8.5.3.3Z" opacity=".2"/><path d="M339.3 85.3a8 8 0 0 0-3.5-6l-2.7-1.6a8 8 0 0 0-6.9 0l-42.8 24.8a8 8 0 0 0-3.4 5.9v47a8 8 0 0 0 3.4 6l2.8 1.6a8 8 0 0 0 6.9 0l13.7-8 5 8.5a.7.7 0 0 0 1.3-.1l5.1-15 17.6-10.2a8 8 0 0 0 3.5-6Z" fill="#19b5b5"/><path d="M280 155.4a8 8 0 0 0 3.4 6l2.8 1.6a8 8 0 0 0 6.3.3c-1.6.6-2.9-.3-2.9-2.3v-47a7 7 0 0 1 1-3.4L281 105a7 7 0 0 0-1 3.4Z" opacity=".2"/><path d="M339.2 84.3c-.4-1.5-1.8-2-3.3-1L293 108a7 7 0 0 0-2.4 2.6L281 105a7 7 0 0 1 2.4-2.5l42.8-24.8a8 8 0 0 1 6.9 0l2.7 1.7a8 8 0 0 1 3.4 4.9" fill="#fff" opacity=".5"/><path fill="#fff" d="m329.5 116.6-15-13-15 30.3 7.8-4.5v15.9l14.5-8.4v-15.8z"/><path d="m137.6 184.6-.1-.2h-.8l-.2.2v6.7l.2.3h.8l.1-.3zm0 8.8-.1-.2h-.8l-.2.2v3.2l.2.3h.8l.1-.3zm0 5.3-.1-.2h-.8l-.2.2v3.2l.2.2h.8l.1-.2zm0 5.3-.1-.2h-.8l-.2.2v3.2l.2.2h.8l.1-.2zm0 5.3-.1-.2h-.8l-.2.2v3.2l.2.2h.8l.1-.2zm0 5.3-.1-.2h-.8l-.2.2v3.2l.2.2h.8l.1-.2zm0 5.4-.1-.3h-.8l-.2.2v3.2l.2.2h.8l.1-.2zm0 5.2-.1-.2h-.8l-.2.2v3.2l.2.2h.8l.1-.2zm0 5.3-.1-.2h-.8l-.2.2v3.2l.2.2h.8l.1-.2zm0 5.3-.1-.2h-.8l-.2.2v3.2l.2.2h.8l.1-.2zm0 5.3-.1-.2h-.8l-.2.2v3.2l.2.2h.8l.1-.2zm0 5.3-.1-.2h-.8l-.2.2v3.2l.2.2h.8l.1-.2zm0 5.3-.1-.2h-.8l-.2.2v3.2l.2.2h.8l.1-.2z" fill="#19b5b5"/><path d="M140.7 177.4a2 2 0 0 0-1.1-1.4 6 6 0 0 0-5 0 2 2 0 0 0-1 1.5v9.3a2 2 0 0 0 1 1.5 6 6 0 0 0 5 0 2 2 0 0 0 1-1.5z" fill="#455a64"/><path d="M142.8 168a3 3 0 0 0-1.7-2.3 9 9 0 0 0-8 0 3 3 0 0 0-1.8 2.3v9.2a3 3 0 0 0 1.7 2.5 9 9 0 0 0 8.1 0 3 3 0 0 0 1.7-2.5z" fill="#37474f"/><path d="m158 172.8-.2-.2h-.8l-.1.2v6.7l.1.2h.8l.2-.2zm0 8.8-.2-.2h-.8l-.1.2v3.2l.1.2h.8l.2-.2zm0 5.4-.2-.3h-.8l-.1.2v3.2l.1.2h.8l.2-.2zm0 5.2-.2-.2h-.8l-.1.2v3.2l.1.2h.8l.2-.2zm0 5.3-.2-.2h-.8l-.1.2v3.2l.1.2h.8l.2-.2zm0 5.3-.2-.2h-.8l-.1.2v3.2l.1.2h.8l.2-.2zm0 5.3-.2-.2h-.8l-.1.2v3.2l.1.2h.8l.2-.2zm0 5.3-.2-.2h-.8l-.1.2v3.2l.1.2h.8l.2-.2zm0 5.3-.2-.2h-.8l-.1.2v3.2l.1.2h.8l.2-.2zm0 5.3-.2-.2h-.8l-.1.2v3.2l.1.2h.8l.2-.2zm0 5.3-.2-.2h-.8l-.1.2v3.2l.1.2h.8l.2-.2zm0 5.3-.2-.2h-.8l-.1.2v3.2l.1.2h.8l.2-.2zm0 5.3-.2-.2h-.8l-.1.2v3.2l.1.2h.8l.2-.2z" fill="#19b5b5"/><path d="M161 165.6a2 2 0 0 0-1-1.4 6 6 0 0 0-5 0 2 2 0 0 0-1 1.4v9.4a2 2 0 0 0 1 1.5 6 6 0 0 0 5 0 2 2 0 0 0 1-1.5z" fill="#455a64"/><path d="M163.1 156.2a3 3 0 0 0-1.6-2.3 9 9 0 0 0-8.2 0 3 3 0 0 0-1.7 2.3v9.2a3 3 0 0 0 1.7 2.5 9 9 0 0 0 8.1 0 3 3 0 0 0 1.7-2.5z" fill="#37474f"/><path d="m117.3 196.2-.1-.3h-.8l-.2.3v6.7l.2.2h.8l.1-.2zm-1.1 12 .2.2h.8l.1-.2V205l-.1-.2h-.8l-.2.2m1.1 5.3-.1-.3h-.8l-.2.3v3.2l.2.2h.8l.1-.2zm0 5.3-.1-.3h-.8l-.2.3v3.2l.2.2h.8l.1-.2m0 2.1-.1-.3h-.8l-.2.3v3.2l.2.2h.8l.1-.2zm0 5.3-.1-.3h-.8l-.2.3v3.2l.2.2h.8l.1-.3m0 2.2-.1-.3h-.8l-.2.3v3.2l.2.2h.8l.1-.3zm0 5.3-.1-.3h-.8l-.2.3v3.2l.2.2h.8l.1-.2m0 2-.1-.2h-.8l-.2.3v3.2l.2.2h.8l.1-.3zm0 5.4-.1-.3h-.8l-.2.3v3.1l.2.3h.8l.1-.3m0 2.2-.1-.3h-.8l-.2.3v3.1l.2.3h.8l.1-.3zm0 5.3-.1-.2h-.8l-.2.2v3.2l.2.2h.8l.1-.2m0 2-.1-.2h-.8l-.2.2v3.2l.2.3h.8l.1-.3z" fill="#19b5b5"/><path d="M120.3 189a2 2 0 0 0-1-1.5 6 6 0 0 0-5 0 2 2 0 0 0-1 1.5v9.4a2 2 0 0 0 1 1.4 6 6 0 0 0 5 0 2 2 0 0 0 1-1.4z" fill="#455a64"/><path d="M122.5 179.6a3 3 0 0 0-1.7-2.4 9 9 0 0 0-8.1 0 3 3 0 0 0-1.7 2.4v9.2a3 3 0 0 0 1.7 2.5 9 9 0 0 0 8.1 0 3 3 0 0 0 1.7-2.5z" fill="#37474f"/><path d="m215.4 92.3-.5-.3-.3-.1-10-5.9v-.7c0-12.4-4.2-21-10.7-24.7l-19.4-11.1c-5.3-3-12.2-2.8-19.8 1.6a46 46 0 0 0-9.6 7.6 20 20 0 0 0-4.2-3.3l-18.7-10.8c-6.8-4.5-16-4.4-26 1.4C75 58.2 57.7 91 57.7 119.3a60 60 0 0 0 .7 9.4l-2.7 1.5c-13.4 7.8-24.4 28.7-24.4 46.6 0 10 3.4 17 8.6 20l19.6 11.4q6.6 3.8 15.8-1.3l35.5-20.5 94.5-54.5c8.1-4.7 14.7-17.2 14.7-28q-.2-8.7-4.7-11.6" fill="#19b5b5" opacity=".8"/><path d="m215.4 92.3-.5-.3-.3-.1-10-5.9v-.7c0-12.4-4.2-21-10.7-24.7l-19.4-11.1c-5.3-3-12.2-2.8-19.8 1.6a46 46 0 0 0-9.6 7.6 20 20 0 0 0-4.2-3.3l-18.7-10.8c-6.8-4.5-16-4.4-26 1.4C75 58.2 57.7 91 57.7 119.3a60 60 0 0 0 .7 9.4l-2.7 1.5c-13.4 7.8-24.4 28.7-24.4 46.6 0 10 3.4 17 8.6 20l19.6 11.4q6.6 3.8 15.8-1.3l35.5-20.5 94.5-54.5c8.1-4.7 14.7-17.2 14.7-28q-.2-8.7-4.7-11.6" fill="#fff" opacity=".2"/><path d="M193.9 60.7c-5.3-3-12.2-2.7-19.6 1.7a46 46 0 0 0-10 8l-17.9-10.3-1.7-1 .4-.4a46 46 0 0 1 9.6-7.6q11.6-6.4 19.9-1.6Z" fill="#fff" opacity=".4"/><path d="m145.1 58.7 1.3 1.4-1.7-1Z" fill="#fff" opacity=".8"/><path d="M140.5 55.1c-6.7-3.7-15.4-3.3-24.8 2.2s-18.4 15.3-25.2 27L71 73a73 73 0 0 1 25.1-27c10.1-5.8 19.3-6 26.1-1.4ZM78 140l-2.6 1.5A54 54 0 0 0 54 170.4L34.6 159c3.3-9.8 9-19 15.9-25l8-5.5Z" fill="#fff" opacity=".4"/><path d="m205.4 92.8-1.4.8a62 62 0 0 0 .6-8.3c0-22.3-13.6-32.6-30.4-23a59 59 0 0 0-20.2 22c-.8-26.9-17.6-39-38.3-27-21.2 12.2-38.4 45-38.4 73.2a60 60 0 0 0 .7 9.4l-2.6 1.5C61.9 149.2 51 170.1 51 188.1s11 26.6 24.4 18.8l35.5-20.5 94.6-54.5c8-4.7 14.6-17.2 14.6-28s-6.6-15.8-14.7-11" fill="#19b5b5"/><path d="m205.4 92.8-1.4.8a62 62 0 0 0 .6-8.3c0-22.3-13.6-32.6-30.4-23a59 59 0 0 0-20.2 22c-.8-26.9-17.6-39-38.3-27-21.2 12.2-38.4 45-38.4 73.2a60 60 0 0 0 .7 9.4l-2.6 1.5C61.9 149.2 51 170.1 51 188.1s11 26.6 24.4 18.8l35.5-20.5 94.6-54.5c8-4.7 14.6-17.2 14.6-28s-6.6-15.8-14.7-11" fill="#fff" opacity=".7"/><path d="M65.9 204.8c-6 0-10-6.6-10-16.7 0-16 10-35.4 22-42.3l2.6-1.5a5 5 0 0 0 2.5-5.1 55 55 0 0 1-.6-8.6c0-26.6 16-57.6 35.8-69q6.8-4 12.7-4c10.7 0 17.7 10.3 18.1 26.9a5 5 0 0 0 9.4 2.3 54 54 0 0 1 18.4-20.1 20 20 0 0 1 9.5-3c8.1 0 13.3 8.4 13.3 21.6a56 56 0 0 1-.5 7.6 5 5 0 0 0 7.5 5l1.4-.8a7 7 0 0 1 3.3-1.1c2.6 0 3.8 3.9 3.8 7.8 0 9-5.6 19.8-12.1 23.6L73 202.5a14 14 0 0 1-7 2.2Z" fill="#fff" opacity=".7"/></svg>