<svg xmlns="http://www.w3.org/2000/svg" viewBox="0 0 500 500"><path d="M88.5 442.2c90.2 53.2 236.4 53.2 326.6 0s90.2-139.5 0-192.8-236.4-53.2-326.7 0-90.2 139.6 0 192.8" fill="#f5f5f5"/><ellipse cx="391.1" cy="405.5" rx="44.2" ry="25.5" fill="#e0e0e0"/><path d="m363.4 77.1 7.7 4.5v-3.3c0-4 2.7-5.5 6.1-3.5a12 12 0 0 1 3.7 3.5c.6-5 4.5-6.8 9.2-4 5.1 3 9.3 10 9.3 16v3.3a9 9 0 0 1-.8 3.9l6.4 3.6a8 8 0 0 1 3.4 6c0 2.2-1.5 3.1-3.4 2l-41.6-24a8 8 0 0 1-3.4-6c0-2.2 1.5-3.1 3.4-2m-32.8 22.4 5.8 3.3v-2.4c0-3 2-4.2 4.6-2.7a9 9 0 0 1 2.8 2.7c.4-3.8 3.4-5.2 7-3.1a16 16 0 0 1 7 12.1v2.5a7 7 0 0 1-.6 3l4.8 2.7a6 6 0 0 1 2.6 4.5c0 1.6-1.2 2.3-2.6 1.5l-31.4-18.1a6 6 0 0 1-2.6-4.5c0-1.7 1.2-2.3 2.6-1.5" fill="#ebebeb"/><path d="M73.9 288.6c-.6.3-11 3.3-15-1.8s2.6-13.1-1-16-13.8 0-16.3-6.2 4.8-8.8.8-15c-2.6-4-9-6.2-9.5-9.8-.9-6 9.1-8.9 17.7-3.1s13.8 3 16.6 2.7 8.6.4 8.4 10-1.7 39.2-1.7 39.2" fill="#19b5b5"/><path d="m74.6 275-.6-.5c-3-18.1-24.1-33-35-36.1a.6.6 0 0 1 .2-1.1c11.3 3.2 32.9 18.4 36 37l-.5.6Z" fill="#fff"/><path d="M49.7 259.8a.6.6 0 0 1-.3-1c.3-.3 8.4-5 16.5-2.8l.3.7-.7.4C58 255 50 259.7 50 259.7z" fill="#fff"/><path d="M78 295.6a9 9 0 0 0 4.3 7.2l121.3 70a10 10 0 0 0 8.7 0l166-95.9a8.1 8.1 0 0 0 0-14.3l-121.4-70a10 10 0 0 0-8.6 0l-166 95.8a9 9 0 0 0-4.4 7.2" fill="#37474f"/><path d="M208 364.5v9.4a9 9 0 0 1-4.4-1l-121.3-70a8.1 8.1 0 0 1-.5-14.1c-2 1.4-1.8 3.4.5 4.7l121.3 70a9 9 0 0 0 4.3 1" fill="#263238"/><path d="M73.9 288.6a9 9 0 0 1-4-7.4V136.4A10 10 0 0 1 74 129l166-95.8a9 9 0 0 1 8.4-.2 9 9 0 0 1 4.1 7.4V185a10 10 0 0 1-4.3 7.5l-166 95.8a9 9 0 0 1-8.4.2" fill="#455a64"/><path d="M81.8 288.7a9 9 0 0 1-8-.1 9 9 0 0 1-4-7.4V136.4a9 9 0 0 1 1.3-4.2l8.1 4.7a9 9 0 0 0-1.3 4.2V286c0 2.6 1.7 3.7 3.8 2.8" fill="#263238"/><path d="M78 141.1V286c0 2.8 1.9 3.9 4.3 2.5l166-95.8a10 10 0 0 0 4.3-7.5V40.3c0-2.8-2-3.9-4.3-2.5l-166 95.8a10 10 0 0 0-4.4 7.5" fill="#37474f"/><path d="m82.3 293.4 121.3 70a10 10 0 0 0 8.7 0l166-95.8c2.3-1.4 2.3-3.7 0-5l-121.4-70a10 10 0 0 0-8.6 0l-166 95.8c-2.4 1.4-2.4 3.6 0 5" fill="#455a64"/><path d="m84.6 141.7 160-92.4c1.4-.8 2.6-.2 2.6 1.5V176a6 6 0 0 1-2.6 4.5L84.6 273c-1.4.8-2.6.2-2.6-1.5V146.2a6 6 0 0 1 2.6-4.5" fill="#fff"/><path d="m84.6 141.7 160-92.4c1.4-.8 2.6-.2 2.6 1.5V176a6 6 0 0 1-2.6 4.5L84.6 273c-1.4.8-2.6.2-2.6-1.5V146.2a6 6 0 0 1 2.6-4.5" fill="#19b5b5" opacity=".6"/><path d="M164.3 133.7c4.2-2.4 7.7-.4 7.7 4.5a17 17 0 0 1-7.7 13.4c-4.3 2.4-7.7.4-7.7-4.5a17 17 0 0 1 7.7-13.4m15.2 26.3c0-8-5.7-11.6-12.7-7.6l-4.4 2.6a28 28 0 0 0-12.6 22v2.2l29.7-17.2Zm15 4q-.5-1-1.8-.3l-52 30a4 4 0 0 0-1.8 3.3v6q.1 1.6 1.4 1.4h.2l.3-.2 51.9-30a4 4 0 0 0 2-3.3v-6.1z" fill="#f0f0f0"/><path d="M145.5 194.4q1.7-.8 1.8 1a4 4 0 0 1-1.8 3.2q-1.7.8-1.9-1a4 4 0 0 1 1.9-3.2m6-3.4q1.7-1 1.8 1a4 4 0 0 1-1.8 3.1q-1.7.8-1.8-1a4 4 0 0 1 1.8-3.2m6-3.5q1.7-.6 1.9 1a4 4 0 0 1-1.9 3.3q-1.7.7-1.8-1.1a4 4 0 0 1 1.8-3.2m6.1-3.4q1.7-.8 1.8 1a4 4 0 0 1-1.8 3.2q-1.7.6-1.9-1a4 4 0 0 1 1.9-3.2m6-3.5q1.7-.8 1.8 1a4 4 0 0 1-1.8 3.2q-1.7.8-1.8-1a4 4 0 0 1 1.8-3.2m6-3.5c1-.6 1.9-.1 1.9 1a4 4 0 0 1-1.9 3.2q-1.6.6-1.8-1a4 4 0 0 1 1.8-3.2m6.1-3.5q1.7-.8 1.8 1a4 4 0 0 1-1.8 3.2q-1.7.8-1.9-1a4 4 0 0 1 1.9-3.2m6-3.5q1.6-.8 1.8 1a4 4 0 0 1-1.8 3.2q-1.7.8-1.8-1a4 4 0 0 1 1.8-3.2" fill="#19b5b5"/><path d="m96.3 289.7 154.1-89a5 5 0 0 1 4.4 0l7.8 4.5a1.3 1.3 0 0 1 0 2.5l-154 89a5 5 0 0 1-4.4 0l-7.9-4.5a1.3 1.3 0 0 1 0-2.5" fill="#37474f"/><path d="m116.7 301.4 154-89a5 5 0 0 1 4.4 0l48.4 28a1.3 1.3 0 0 1 0 2.5l-153.9 88.9a5 5 0 0 1-4.3 0l-48.6-28a1.3 1.3 0 0 1 0-2.4" fill="#263238"/><path d="m254.8 252.5 4.8-2.8q.3-.3 0-.5L254 246h-.8l-4.8 2.8q-.3.2 0 .4l5.6 3.3zm-9.5-11.1-4.9 2.8q-.3.1 0 .4l5.6 3.2h.8l4.8-2.8q.3-.1 0-.4l-5.6-3.2zm-15.6 9-8.2 4.7q-.3.2 0 .4l5.6 3.3h.7l8.2-4.8q.3-.1 0-.4l-5.6-3.2zm8.5-5-4.8 2.8q-.3.2 0 .5l5.6 3.2h.8l4.8-2.8q.3-.2 0-.4l-5.6-3.2zm-19 11-4.7 2.8q-.4.1 0 .4l5.5 3.2h.8l4.8-2.8q.3-.1 0-.4l-5.5-3.2zm-7 4-4.8 2.8q-.3.2 0 .5l5.6 3.2h.8l4.8-2.8q.3-.2 0-.4l-5.6-3.2h-.8m22 13.2 4.8-2.8q.3-.3 0-.5l-5.6-3.2h-.8l-4.8 2.8q-.3.2 0 .4l5.6 3.2h.8m-7 4 4.8-2.8q.3-.1 0-.4l-5.6-3.2h-.8l-4.8 2.8q-.3.1 0 .4l5.6 3.2zm-7 4 4.7-2.7q.3-.2 0-.4l-5.5-3.3h-.8l-4.9 2.8q-.3.2 0 .4l5.6 3.3zm-7 4.2 4.7-2.8q.3-.2 0-.5l-5.5-3.2h-.8l-4.8 2.8q-.3.2 0 .4l5.5 3.3h.7Zm34.6-29.3 4.8-2.8q.4-.1 0-.4L247 250h-.8l-4.8 2.8q-.3.1 0 .4l5.6 3.2zm-6.5 13 10.7-6.2q.3-.3 0-.5l-13.6-7.8h-.8l-5.5 3.2q-.3.2 0 .5l7.2 4.1q.3.2 0 .4l-4.5 2.6q-.3.2 0 .5l5.6 3.2zm-36-5-4.8 2.8q-.3.2 0 .4l5.5 3.3h.8l4.8-2.8q.3-.2 0-.4l-5.6-3.3zm-7 4-4.9 2.9q-.2.2 0 .4l5.6 3.2h.8l4.8-2.7q.3-.3 0-.5l-5.6-3.2a1 1 0 0 0-.9 0ZM163 314.3h.8l4.8-2.8q.3-.1 0-.4l-5.5-3.2h-.8l-4.8 2.8q-.3.1 0 .4Zm-21.1-13-5 2.8q-.3.2 0 .4l5.6 3.3h.7l4.9-2.8q.3-.2 0-.5l-5.6-3.2h-.8Zm11.3 9.5h.8l4.8-2.8q.3-.2 0-.4l-5.6-3.2h-.7l-4.9 2.7q-.3.3 0 .5Zm22.3 6 4.8-2.8q.3-.2 0-.4l-5.6-3.2h-.7l-5 2.7q-.3.2 0 .4l5.6 3.3h.7Zm-7.8 4h.7l4.9-2.8q.3-.2 0-.4l-5.6-3.2h-.8l-4.8 2.7q-.3.3 0 .5ZM148.9 297l-4.8 2.8q-.3.2 0 .5l5.6 3.2h.7l4.9-2.8q.3-.2 0-.5l-5.6-3.2a1 1 0 0 0-1 0Zm35.1-20.3-4.8 2.8q-.3.2 0 .5l5.5 3.2h.8l4.8-2.8q.3-.2 0-.4l-5.5-3.3zM155.8 293l-4.8 2.8q-.3.2 0 .5l5.6 3.2h.8l4.8-2.8q.3-.2 0-.5l-5.6-3.2zm35.3-20.4-4.9 2.8q-.2.3 0 .5l5.6 3.2h.8l4.8-2.8q.3-.2 0-.4l-5.6-3.3zm-14.1 8.2-4.8 2.8q-.3.2 0 .4l5.6 3.3h.7l4.9-2.8q.2-.2 0-.5l-5.6-3.2zm-7 4-4.9 2.9q-.3.1 0 .4l5.6 3.2h.8l4.8-2.8q.3-.1 0-.4l-5.6-3.2zm-7 4.1-4.9 2.8q-.3.2 0 .5l5.6 3.2h.8l4.8-2.8q.3-.2 0-.4l-5.7-3.2h-.7Zm36 5 4.8-2.8q.3-.2 0-.4l-5.6-3.2h-.8l-4.8 2.7q-.3.2 0 .5l5.6 3.2zm61.9-61.5-4.9 2.8q-.3.1 0 .4l5.6 3.2h.7l4.9-2.8q.3-.1 0-.4l-5.6-3.2zm-8.6 5-4.8 2.7q-.3.2 0 .4l5.6 3.3h.8l4.8-2.8q.3-.2 0-.5l-5.6-3.2zm15.6-9-4.8 2.7q-.3.2 0 .4l5.6 3.3h.8l4.8-2.8q.3-.3 0-.5l-5.6-3.2zM231.4 266l4.8-2.8q.3-.2 0-.4l-5.5-3.3h-.8l-4.9 2.8q-.3.1 0 .4l5.6 3.2zm44.3-41.7h-.7l-5 2.7q-.3.2 0 .5l5.6 3.2h.8l4.8-2.8q.3-.2 0-.5ZM206 289.8l4.8-2.8q.3-.1 0-.4l-5.6-3.2h-.7l-4.9 2.8q-.3.1 0 .4l5.6 3.2zm86.5-49.9 4.8-2.8q.3-.2 0-.4l-5.6-3.2h-.8l-4.8 2.7q-.3.3 0 .5l5.6 3.2zm-15-.5 4.8-2.8q.3-.2 0-.5l-5.6-3.2h-.8l-4.9 2.8q-.3.2 0 .4l5.6 3.3zm6.2-10.6h-.7l-4.9 2.8q-.2.2 0 .5l5.6 3.2h.8l4.8-2.8q.3-.2 0-.4Zm1.5-.8 13.6 7.8h.7l4.9-2.8q.3-.1 0-.4l-13.6-7.8h-.8l-4.8 2.7q-.4.3 0 .5m-16.3 9-4.9 2.8q-.3.1 0 .4l5.6 3.2h.7l4.9-2.8q.3-.1 0-.4l-5.6-3.2h-.8Zm-53.1 30.6-4.8 2.8q-.3.3 0 .5l5.5 3.2h.8l4.8-2.8q.4-.2 0-.4l-5.5-3.3zm68.8-23.6h.8l4.8-2.8q.3-.2 0-.4l-5.6-3.3h-.7l-4.9 2.8q-.3.2 0 .4Zm-61.8 19.6-4.8 2.7q-.3.2 0 .5l5.6 3.2h.8l4.8-2.8q.3-.2 0-.4l-5.6-3.3h-.8m-52.9 46.6h.8l4.8-2.8q.3-.2 0-.5l-5.5-3.2h-.8l-4.8 2.8q-.3.2 0 .4Zm-10.6-10-4.8 2.8q-.3.2 0 .4l5.6 3.3h.8l4.8-2.8q.3-.2 0-.5l-5.6-3.2zm18.5 5.9 4.8-2.8q.3-.2 0-.4l-5.6-3.2h-.8l-4.8 2.7q-.3.3 0 .5l5.6 3.2zm7-4 4.8-2.9q.3-.1 0-.4l-5.6-3.2h-.8l-4.8 2.8q-.3.1 0 .4l5.6 3.2zm7-4.1 4.9-2.8q.3-.2 0-.5l-5.6-3.2h-.8l-4.8 2.8q-.3.2 0 .4l5.6 3.3zm-25.4-1.9-4.8 2.8q-.3.2 0 .4l5.5 3.2h.8l4.8-2.7q.3-.3 0-.5l-5.5-3.2zm7-4-4.8 2.7q-.3.2 0 .5l5.6 3.2h.8l4.8-2.8q.3-.2 0-.4l-5.6-3.3zm28.2-16.4-4.8 2.8q-.3.3 0 .5l5.6 3.2h.8l4.8-2.8q.3-.2 0-.4l-5.6-3.3zm-7 4.1-4.8 2.8q-.3.2 0 .4l5.6 3.3h.8l4.8-2.8q.3-.2 0-.5l-5.6-3.2zm14.2-8.1-4.9 2.8q-.3.1 0 .4l5.6 3.2h.8l4.8-2.8q.3-.1 0-.4l-5.6-3.2h-.8ZM180.5 288l-4.8 2.8q-.3.2 0 .4l5.6 3.2h.7l4.9-2.7q.2-.2 0-.5l-5.6-3.2zm7-4-4.8 2.7q-.3.2 0 .5l5.6 3.2h.7l4.9-2.8q.2-.2 0-.4l-5.6-3.3h-.8Zm-5.2 28.7 4.9-2.8q.3-.2 0-.5l-5.6-3.2h-.8L176 309q-.3.2 0 .5l5.6 3.2zm-41.3-4.2-5.6-3.2h-.7l-4.9 2.7q-.3.2 0 .4l5.6 3.3h.8l4.8-2.8q.4-.2 0-.4m10.6 3-5.6-3.1h-.8l-7.4 4.2q-.3.3 0 .5l5.6 3.2h.8l7.4-4.3q.3-.2 0-.4Zm-19.2-9.3L127 299h-.8l-6 3.4v.5l5.6 3.2h.8l6-3.4q.3-.2 0-.5Zm4.6-2.6h.8l4.8-2.8q.3-.2 0-.4l-5.6-3.2h-.8l-4.8 2.8q-.3.2 0 .4Zm24.4 15.5-5.6-3.2h-.8l-9.2 5.3q-.3.3 0 .5l5.5 3.2h.8l9.3-5.4q.3-.1 0-.4m4.6 6.5-5.5-3.2h-.8l-6 3.4q-.3.3 0 .5l5.6 3.2h.8l6-3.4q.3-.2-.1-.5m23.4-52.3h.8l4.8-2.7q.3-.3 0-.5l-5.6-3.2h-.7l-4.8 2.8q-.4.2 0 .4Zm-14 8.2h.7l4.8-2.8q.3-.2 0-.4l-5.6-3.3h-.7l-4.8 2.8q-.4.3 0 .5Zm-31.3 18h.7l4.8-2.7q.4-.3 0-.5l-5.5-3.2h-.8l-4.8 2.8q-.3.1 0 .4Zm38.3-22h.7l4.9-2.9q.3-.1 0-.4l-5.6-3.2h-.8l-4.8 2.8q-.3.2 0 .4Zm-14.1 8h.7l4.9-2.7q.3-.2 0-.5l-5.6-3.2h-.8l-4.8 2.8q-.3.2 0 .4Zm1.6 40.7h-.8l-7.4 4.2q-.3.2 0 .5l5.6 3.2h.8l7.4-4.3q.3-.2 0-.4Zm-11.7-34.8h.7l4.9-2.8q.3-.2 0-.4L158 281h-.7l-4.8 2.8q-.3.2 0 .4Zm-7 4h.7l4.9-2.7q.2-.2 0-.5L151 285h-.8l-4.8 2.8q-.3.2 0 .4Zm149.4-44.7h-.8l-11.8 6.9q-.3.2 0 .4l5.5 3.3h.8l11.9-6.9q.3-.2 0-.4Zm-15.6 9h-.8l-4.8 2.8q-.3.2 0 .5l5.6 3.2h.8l4.8-2.8q.3-.2 0-.4Zm-95.5 52.9 4.8-2.8q.3-.2 0-.5l-5.6-3.2h-.7l-4.8 2.8q-.4.2 0 .4l5.5 3.3zm81.4-44.7h-.8l-4.8 2.7q-.3.3 0 .5l5.6 3.2h.8l4.8-2.8q.3-.1 0-.4Zm36.8-21.2h-.8l-4.9 2.7q-.3.3 0 .5l5.6 3.2h.7l4.9-2.8q.3-.2 0-.4Zm12.6-.9-13.6-7.8h-.8l-4.8 2.8q-.3.2 0 .4l13.6 7.8h.7l4.9-2.8q.2-.1 0-.4m-75.7 37.3h-.8l-6 3.4q-.2.2 0 .4l5.6 3.3h.8l6-3.5q.1-.1 0-.4Zm17.8-10.3h-.8l-7.4 4.3q-.3.2 0 .4l5.6 3.2h.7l7.5-4.2q.2-.3 0-.5Zm-34.2 19.7h-.7l-39.8 23q-.3 0 0 .4l5.6 3.2h.7l39.7-23q.5-.1 0-.4Zm-42 24.2h-.7l-6 3.4v.5l5.7 3.2h.7l6-3.4q.3-.2 0-.5Zm50.2-28.9h-.8l-6 3.4v.5l5.7 3.2h.7l6-3.4q.3-.2 0-.5ZM178 317.4h-.7l-6 3.5q-.3.1 0 .4l5.6 3.2h.8l5.9-3.4q.3-.2 0-.4Zm74.6-43h-.7l-6 3.4q-.3.2 0 .4l5.6 3.2h.8l5.9-3.4q.3-.1 0-.4Zm25.3-14.6h-.8l-4.8 2.8q-.3.2 0 .4l5.5 3.3h.8l4.8-2.8q.3-.2 0-.5Zm15.4-11.2 4.8-2.8q.3-.2 0-.5l-5.5-3.2h-.8L287 245q-.3.2 0 .4l5.6 3.3h.8Zm-31.5-.2 4.8-2.8q.3-.2 0-.5l-5.6-3.2h-.7l-4.9 2.8q-.3.2 0 .5l5.6 3.2zm-16 27.6 14-8.1q.4-.3 0-.5l-5.5-3.2h-.8l-14 8.1q-.5.3 0 .5l5.5 3.2zm39.7-23.4h.7l4.9-2.8q.2-.1 0-.4l-5.6-3.2h-.8L280 249q-.3.2 0 .4Zm-7.2-4.6 4.8-2.7q.3-.3 0-.5l-5.6-3.2h-.8l-4.8 2.8q-.3.1 0 .4l5.6 3.2zm-39.6 32 4.9-2.7q.2-.3 0-.5l-5.7-3.2h-.8l-4.8 2.8q-.3.2 0 .5l5.6 3.2zm31.2-18.4h.8l4.8-2.8q.3-.1 0-.4l-5.6-3.2h-.8l-4.9 2.8q-.3.2 0 .4Zm-66.4 38.8 4.8-2.7q.3-.3 0-.5l-5.6-3.2h-.8l-4.8 2.8q-.3.2 0 .4l5.5 3.2a1 1 0 0 0 .9 0m7-4 4.8-2.8q.3-.2 0-.5l-5.6-3.2h-.7l-4.9 2.8q-.3.2 0 .4l5.6 3.3zm-14.1 8.1 4.8-2.8q.3-.2 0-.4l-5.6-3.2h-.7l-4.9 2.7q-.2.2 0 .5l5.6 3.2zm28.2-16.3 4.8-2.8q.3-.1 0-.4l-5.5-3.2h-.8l-4.8 2.8q-.4.1 0 .4l5.5 3.2zm-7 4 4.8-2.7q.3-.2 0-.4l-5.6-3.3h-.7l-4.9 2.8q-.3.2 0 .5l5.6 3.2h.8Zm14.1-8 4.8-2.8q.3-.3 0-.5l-5.6-3.2h-.8l-4.8 2.8q-.3.2 0 .4l5.6 3.3zm32.2-60.3h.8l4.8-2.8q.3-.1 0-.4l-1.5-.9h-.8l-4.8 2.8q-.3.2 0 .5Zm-34.7 22.4h.8l4.8-2.8q.3-.1 0-.4l-5.6-3.2h-.7l-4.9 2.7q-.3.3 0 .5Zm14.1-8.1h.8l4.8-2.8q.3-.2 0-.4l-5.6-3.3h-.8l-4.8 2.8q-.3.3 0 .5Zm-22.7 13h.8l4.8-2.7q.3-.2 0-.4l-5.6-3.3h-.7l-4.9 2.8q-.3.2 0 .5Zm15.7-9h.7l4.9-2.7q.2-.2 0-.4l-5.6-3.3h-.8l-4.8 2.8q-.3.3 0 .5Zm-29.8 17.3h.8l4.8-2.8q.3-.2 0-.5l-5.6-3.2h-.8l-4.8 2.8q-.3.1 0 .4Zm7-4.1h.8l4.8-2.8q.3-.2 0-.4l-5.6-3.3h-.8l-4.8 2.8q-.3.3 0 .5Zm36.3-23.3h.7l4.8-2.8q.3-.2 0-.4l-1.4-.9h-.8l-4.8 2.8q-.3.2 0 .4Zm21.1-12.2h.8l4.8-2.8q.3-.2 0-.4l-1.5-.9h-.8l-4.8 2.8q-.3.2 0 .4Zm11.7 6.8h.8l4.8-2.8q.3-.2 0-.5l-5.6-3.2h-.7l-4.8 2.8q-.3.2 0 .5Zm17.7 17.8 4.8-2.7q.3-.3 0-.5l-5.6-3.2h-.8l-4.8 2.7q-.3.3 0 .5l5.6 3.2zM257 228h.8l4.8-2.8q.3-.2 0-.4l-1.5-.9h-.8l-4.8 2.8q-.3.2 0 .4Zm-57.4 35.5h.7l4.9-2.8q.2-.2 0-.4l-5.6-3.3h-.8l-4.8 2.8q-.3.2 0 .5Z" fill="#455a64"/><path d="m230.8 305.8 47.6-27.5a6 6 0 0 1 5.2 0l27.3 15.8c1.5.8 1.5 2.2 0 3l-47.6 27.5a6 6 0 0 1-5.2 0l-27.3-15.8c-1.4-.8-1.4-2.2 0-3" fill="#263238"/><path d="m318.4 173.6-8.2-4.6q-.8-.4-2 .6a29 29 0 0 1-26 5l-1.5-1.7-.2-.1-.8-.7-.2-.1-8.1-4.7q-1.5-.6-2.3 1.4c-7.9 19.5-24.6 39.3-35.8 44.3a6 6 0 0 0-2.2 1.6 5 5 0 0 0-1.2 3.2l1.6 43.9c0 12.6 5.3 26 16.2 32.5l8.4 4.9h.2a30 30 0 0 0 15 3.9l3.5-.2a12 12 0 0 0 6.4-3.2c24.4-25.2 36.2-59.3 36.2-78.2l1.6-46q0-1.4-.6-1.8" fill="#19b5b5"/><path d="m319 175.5-1.6 45.8c0 19-11.9 53-36.3 78.3a12 12 0 0 1-6.4 3.1l-3.5.2a30 30 0 0 1-15-3.8h-.1l-.3-.2c-11-6.5-16.3-20-16.3-32.6l-1.5-43.9a5 5 0 0 1 1.2-3.2 6 6 0 0 1 2.2-1.6c11.2-5 28-24.7 35.8-44.3q.9-2 2.4-1.4l.1.1.8.7.2.2c8.3 9.7 24.7 9.7 35.7 1.3q1.2-.9 2-.6.7.4.6 1.9" fill="#19b5b5"/><path d="M318.3 173.6q-.6-.3-2 .6c-10.3 7.9-25.4 8.4-34.1.3 8.3 2.6 18.4.8 26-5q1.2-.9 2-.6Zm-38.8-1.6q-1.5-.7-2.3 1.3c-7.9 19.6-24.6 39.3-35.8 44.3a6 6 0 0 0-2.2 1.6l-.6.8-8-4.7.5-.7.3-.4.2-.1.1-.2 1.6-1c11.1-5 27.9-24.7 35.7-44.2q.9-2.1 2.4-1.4Z" fill="#fff" opacity=".4"/><path d="m231.6 214-.2.1zm24.7 85.1h-.2l-8.4-5c-11-6.4-16.3-19.8-16.3-32.5l-1.6-43.8a4 4 0 0 1 .7-2.5l8.1 4.7a4 4 0 0 0-.6 2.4l1.6 43.9c0 12.7 5.3 26 16.2 32.6l.3.1Z" opacity=".1"/><path d="m285 258.8-13 7.5 2-23.5q-2.4-1.4-2.5-5.8c0-5.2 3.1-11.2 7-13.4s7 .1 7 5.3a18 18 0 0 1-2.6 8.7Z" fill="#455a64"/><path fill="#37474f" d="m285 258.8-11.8-6.8-1.2 14.3zm-6.5-35.2a15 15 0 0 0-6 8l10.5 6a18 18 0 0 0 2.5-8.7c0-5.2-3.1-7.6-7-5.3"/><path d="M116 395.3v4c0 4.5 3 9.1 9 12.6a49 49 0 0 0 33.8 4l10.4 6 8-2 5.5 3.3.3 6.6 3 1.7 7.4.6 5.4 3v3.8l6.6 3.8h17l6.1-3.5v-4l-54.3-27.4a13 13 0 0 0 3.8-8.5v-4c-.9-3.8-4-5.8-9.1-8.7-12.1-7-31.8-7-43.9 0-5.4 3.2-8.5 4.6-9 8.7m16.6-4.5a14 14 0 0 1 12.4 0c3.4 2 3.4 5.2 0 7.1a14 14 0 0 1-12.4 0c-3.5-1.9-3.5-5.1 0-7.1" fill="#19b5b5"/><path d="M116 395.3v4c0 4.5 3 9.1 9 12.6a49 49 0 0 0 33.8 4l10.4 6 8-2 5.5 3.3.3 6.6 3 1.7 7.4.6 5.4 3v3.8l6.6 3.8h17l6.1-3.5v-4l-54.3-27.4a13 13 0 0 0 3.8-8.5v-4c-.9-3.8-4-5.8-9.1-8.7-12.1-7-31.8-7-43.9 0-5.4 3.2-8.5 4.6-9 8.7m16.6-4.5a14 14 0 0 1 12.4 0c3.4 2 3.4 5.2 0 7.1a14 14 0 0 1-12.4 0c-3.5-1.9-3.5-5.1 0-7.1" opacity=".1"/><path d="M125 408a49 49 0 0 0 33.8 3.9l10.4 6 8-1.8 5.5 3.1.3 6.6 3 1.7 7.4.7 5.8 3.2-.4 3.5 6.6 3.9h17l6.1-3.6-54.3-31.3c6.4-6.8 4.6-15.5-5.3-21.2-12.1-7-31.8-7-43.9 0s-12 18.3 0 25.3m7.6-21.2a14 14 0 0 1 12.4 0c3.4 2 3.4 5.2 0 7.2a14 14 0 0 1-12.4 0c-3.5-2-3.5-5.2 0-7.2" fill="#19b5b5"/><path d="M147 409.8c-7.8 0-15-1.7-20.3-4.8q-7.2-4.2-7.4-9.7c-.2-5.5 2.7-7 7.4-9.6 5.4-3.1 12.5-4.8 20.2-4.8s14.9 1.7 20.2 4.8c4.7 2.7 7.4 6.2 7.4 9.6s-2.7 7-7.4 9.7a41 41 0 0 1-20.2 4.8m0-27.5c-7.5 0-14.5 1.6-19.6 4.5-4.2 2.5-6.7 5.6-6.7 8.5s2.5 6 6.7 8.5c5.1 3 12 4.6 19.5 4.6s14.4-1.6 19.5-4.6q6.6-3.8 6.7-8.5c.1-4.7-2.4-6-6.7-8.5a39 39 0 0 0-19.5-4.6" opacity=".3"/><path d="M135.8 412v4a53 53 0 0 0 23-.2V412a53 53 0 0 1-23 .1m33.5 5.8v3.9l8-1.8v-3.9zm13.4 1.3v4l.3 6.6v-3.9zm3.3 8.4v3.9l7.4.7v-4zm19.4 11.2h17v4h-17zm23.1-3.5v3.9l-6.1 3.5v-3.9l2.7-1.6v1.7l1.4-.8v-1.7z" opacity=".1"/><path fill="#19b5b5" d="m226.5 436.4-1.4.8v1.7l1.4-.8z"/><path opacity=".1" d="M226.5 436.4v1.7l-55.7-32.2 1.5-.9z"/><path opacity=".1" d="M172.3 405v1.8l-1.5-.9z"/><path d="M414.5 288.6c.7-26-1.4-32.3-8.3-37.1l-2.7 15s3.2 17.9 2.8 23.8c-.3 5.2-.8 11.7-2 16a3 3 0 0 1-1.3 1.7 18 18 0 0 0-3.8 3.6c-1 1.1-2 1.4-1.8 1.7a2 2 0 0 0 2.2.8l2.5-1.3a16 16 0 0 1-2.6 4.4c-2.5 3-2.6 4.9 2.4 5 3.2 0 5.7-2 8-8.9a56 56 0 0 0 2.2-7.7c1.2-6.9 2.3-12.9 2.4-17" fill="#b16668"/><path d="M400.4 249.5A10 10 0 0 1 411 255a59 59 0 0 1 4 23s-5.8 4.9-12.7 2.5Z" fill="#19b5b5"/><path d="M400.4 249.5A10 10 0 0 1 411 255a59 59 0 0 1 4 23s-5.8 4.9-12.7 2.5Z" opacity=".7"/><path d="M410.1 392.8q.7.2.7 3.2c.1 1.5.4 4.1-1.3 4.6s-4.4.3-5.5-1.1l-4.4-5.5c-1.7-1.9-3.6-3.7-4.3-6.3-.7-2.4-.1-3.4 1.5-4 2.2-1 5.7 2 7.5 2.6 1.5.4 5.3 6.3 5.8 6.5" fill="#263238"/><path d="M410.1 391v2.4a6 6 0 0 1-6.2.1l-.6-3.4Z" fill="#b16668"/><path d="m390.3 406.9 1.1 4c.3 1.4.7 4 .2 5s-2.5 1.9-5.7 1.8c-2 0-5.1 1.4-7.3 2.6s-6.9 1.7-9.2 1.5c-2.8-.4-5.7-2-6.1-3.1s0-2.4 6.7-5.2c0 0 9-3 12.2-6.4Z" fill="#263238"/><path d="M390.3 404.2v2.9c0 1-1.2 2.6-4.4 2.4-2.2 0-3.7-.6-3.6-2.5v-2.6Z" fill="#b16668"/><path d="M411.7 358.5a67 67 0 0 0-2.9-12.7s.9-11 1.3-21.4c.5-11.3 0-25.4.2-28.2 0 0-36.3-7.3-37 5.7s1.5 46 2 51.8 1.3 10.7 2.5 20 4.4 30.7 4.4 30.7a9 9 0 0 0 8.1-.2s2.6-26 2.3-32.6a56 56 0 0 0-2.5-14.4s.7-10.7 1.3-20 1.3-13.8 1.4-17.8l.8-.4 1.2 21.8c.4 5.8 1.3 11.2 3 21.8 1.4 9.2 5.7 28.7 5.7 28.7 4.2 2.2 6.6-.3 6.6-.3s2.7-24.5 1.6-32.5" fill="#37474f"/><path d="M392.8 319.4s8.8-4.4 13.2-8.3c0 0-4 5.8-9.5 8.3l-1.9 19.6-1-19.7Z" fill="#263238"/><path fill="#b16668" d="m385 245.4 2.1 11.8 10.7-.8-2.2-13.3z"/><path d="M409 255.6c-1-3.2-5-6.7-9.1-6A120 120 0 0 0 382 254c-3.7 1.3-7.1 4.6-7.4 16.8 0 0-1.3 28.7-1.3 34.2a45 45 0 0 0 24.5 2.4c11.2-2.4 12.6-7 12.6-7s.1-20.7-.2-29.6c-.3-7.5-.4-13.1-1.1-15.3" fill="#19b5b5"/><path d="M409 255.6c-1-3.2-5-6.7-9.1-6A120 120 0 0 0 382 254c-3.7 1.3-7.1 4.6-7.4 16.8 0 0-1.3 28.7-1.3 34.2a45 45 0 0 0 24.5 2.4c11.2-2.4 12.6-7 12.6-7s.1-20.7-.2-29.6c-.3-7.5-.4-13.1-1.1-15.3" opacity=".1"/><path d="M376.7 231s-2.7 4.3-2.3 4.7 2.4.8 2.4.8Z" fill="#9a4a4d"/><path d="M384.2 219c-5.6 1.4-7.2 4-7.5 13-.4 9.4.7 12.3 2 13.6.8.8 5.4.9 7.8.2 2.9-1 9.4-3.4 12.4-8.2 3.6-5.7 4.3-13.2.4-16.2-5.6-4.3-12.8-2.8-15-2.3" fill="#b16668"/><path d="M376.8 221.4a12 12 0 0 0 5.2 4.2c1 1.3.5 6 2.4 6.8 0 0 .8-3.5 3.8-3s3.4 4 1.6 6.4-3.6 1.4-3.6 1.4.2 5 2.5 7.8c0 0 2.5.8 7.1-.3 2.8-.7 6.8-4.3 8.4-8.1 3.4-8 3.4-15.2-1.7-17.2-.6-3.7-3.5-5.3-6.8-6-7.1-1.4-11.7 3-17.2 2.6-3.1-.2-3.7 2.1-1.7 5.4" fill="#263238"/><path d="m402.6 220.6 3.4-2a2 2 0 1 0-3.4 2" fill="#263238"/><path d="M336.8 275.4c1.8.8 22.5 16 25.7 14.3s19.8-21.2 19.8-21.2a13 13 0 0 0 0-14.5s-5.3 1-8.1 5.2-14.8 19.2-14.8 19.2l-8.8-4.4-7.3-4-1.8-1c-1.2-1.2-1-4-1-5.5l.1-2.2c.1-.8.3-3-1.3-2.3l-.7.6-.6 1.1-.4 2.9-.2.3-.5.2c-2.3 0-4.5-3.3-5.5-5a5 5 0 0 0-1.7-2c-1.3-.6-2.8.2-3.6 1.3a7 7 0 0 0-1.1 5 10 10 0 0 0 3 6.4 31 31 0 0 0 8.8 5.6" fill="#b16668"/><path d="M384 253.4c-2.3.3-6 .4-9.8 4.7-4.4 4.9-10 12.9-10 12.9a13 13 0 0 0 10 9.4s7.8-8 10-12.4 2.4-11.6-.2-14.6" fill="#19b5b5"/><path d="M384 253.4c-2.3.3-6 .4-9.8 4.7-4.4 4.9-10 12.9-10 12.9a13 13 0 0 0 10 9.4s7.8-8 10-12.4 2.4-11.6-.2-14.6" opacity=".7"/></svg>