<svg xmlns="http://www.w3.org/2000/svg" viewBox="0 0 500 500"><path d="M86.3 249.5c-90.5 52.2-90.5 136.8 0 189s237 52.2 327.4 0 90.5-136.8 0-189-237-52.2-327.4 0" fill="#f5f5f5"/><path d="M104.5 409.1c14.2 8.3 14.2 21.8 0 30s-37.2 8.3-51.4 0-14.2-21.7 0-30 37.2-8.3 51.4 0m351.2-37.8c26.2 15.4 26.2 40.2 0 55.5s-68.8 15.3-95 0-26.3-40.1 0-55.5 68.7-15.3 95 0m-130.6 2.4a10 10 0 0 1 5 1.2l3.8 2.2a4.2 4.2 0 0 1 0 7.8S270 416.7 270 416.7a20 20 0 0 1 5.7 16c-1 7.3-6.2 14-14.9 19-9.4 5.5-21.8 8.5-35.1 8.5s-25.7-3-35.1-8.5c-9.7-5.5-15-13-15-21s5.3-15.6 15-21.2a71 71 0 0 1 35-8.4c12.9 0 25 2.8 34.2 7.8l59.6-33.7a10 10 0 0 1 5.6-1.5" fill="#e0e0e0"/><path d="M313.1 28.7V28l-.2-.5-.3-.8-.2-.2-.2-.2-.4-.4-.4-.3a4 4 0 0 0-3.8.5l-165.8 95.4c-3 1.8-5.5 6.1-5.5 12.3v276.6a4 4 0 0 0 2 3.3l.2.2.3.2.5.1.7.1a4 4 0 0 0 1.8-.5l.2-.1 5.3-3 160.2-92.5a12 12 0 0 0 5.6-9.6z" fill="#fff"/><path d="m310 27 .6.1h.1l.1.2.2.2.1.2.1.2.2.5v280.3a11 11 0 0 1-4.8 8.3l-160 92.3-5.2 3-.2.1h-.1l-1 .4h-.5l-.2-.1-.1-.1h-.3a2 2 0 0 1-1.1-2V133.9c0-6 2.4-9.6 4.7-11l165.8-95.4zm0-1.6a5 5 0 0 0-2.5.8L142 121.6c-3.1 1.8-5.6 6.1-5.6 12.3v276.6a4 4 0 0 0 2 3.3l.2.2.3.1.5.2.7.1a4 4 0 0 0 1.8-.5l.2-.1 5.3-3 160.2-92.5a12 12 0 0 0 5.6-9.6V28l-.2-.5-.3-.8-.2-.2-.2-.2-.3-.4-.5-.3z" fill="#19b5b5"/><path d="M311.3 25.7a4 4 0 0 0-3.7.5l-165.8 95.4a12 12 0 0 0-5.5 9.7V142l-7.2-4.2v-10.7a12 12 0 0 1 5.6-9.6L300.4 22a4 4 0 0 1 4-.3c1 .6 5.7 3.3 7 3.9" fill="#19b5b5"/><path d="M313.1 29.3c0-3.5-2.5-5-5.6-3.1L142 121.6a12 12 0 0 0-5.6 9.7V142L313 40.2Z" fill="#19b5b5"/><path d="m307.6 26.2-165.7 95.4a11 11 0 0 0-4 4.2l-7-4.1a11 11 0 0 1 3.8-4.1L300.4 22a4 4 0 0 1 4-.3l6.9 3.9a4 4 0 0 0-3.7.5" fill="#fff" opacity=".2"/><path d="M129.1 138v-10.8a12 12 0 0 1 1.7-5.6l7.1 4.1a11 11 0 0 0-1.6 5.6V142Z" opacity=".1"/><path d="M289 42.4a6 6 0 0 0-2.5 4.5c0 1.8 1.1 2.6 2.4 1.8a6 6 0 0 0 2.4-4.5q-.1-2.7-2.4-1.8m8.5-4.9a6 6 0 0 0-2.3 4.5q.2 2.8 2.3 1.8a6 6 0 0 0 2.4-4.5q-.1-2.8-2.4-1.8m8.6-4.9a6 6 0 0 0-2.4 4.5c0 1.7 1.1 2.5 2.4 1.8a6 6 0 0 0 2.4-4.5c0-1.8-1.1-2.6-2.4-1.8" fill="#fafafa"/><path d="m138.3 413.9-.3-.2-5.9-3.4a6 6 0 0 1-3-4.3V137.9l7.2 4.2v268.4a4 4 0 0 0 1.7 3.1l.2.2Z" fill="#19b5b5"/><path d="m138.3 413.9-.3-.2-5.9-3.4a6 6 0 0 1-3-4.3V137.9l7.2 4.2v268.4a4 4 0 0 0 1.7 3.1l.2.2Z" fill="#fff" opacity=".5"/><path d="m249.4 280.5 82.5-47.6q1.3-.6 1.4.8v91.2a3 3 0 0 1-1.4 2.5L249.4 375q-1.2.5-1.4-.8v-91.3a3 3 0 0 1 1.4-2.4" opacity=".2"/><path d="m330 239.3-76.7 44.2a3 3 0 0 0-1.5 2.7v88.6a3 3 0 0 0 1.5 2.6l3 1.7a4 4 0 0 0 3 0l76.7-44.3a3 3 0 0 0 1.5-2.7v-88.5a3 3 0 0 0-1.5-2.7l-3-1.6a4 4 0 0 0-3 0" fill="#19b5b5"/><path d="m330 239.3-76.7 44.2a3 3 0 0 0-1.5 2.7v88.6a3 3 0 0 0 1.5 2.6l3 1.7a4 4 0 0 0 3 0l76.7-44.3a3 3 0 0 0 1.5-2.7v-88.5a3 3 0 0 0-1.5-2.7l-3-1.6a4 4 0 0 0-3 0" fill="#fff" opacity=".8"/><path d="M337.5 243.3q-.3-1.2-1.5-.6L259.3 287l-1 1.2-6-3.5 1-1.1 76.7-44.3a4 4 0 0 1 3 0l3 1.7a3 3 0 0 1 1.5 2.3" fill="#19b5b5" opacity=".3"/><path d="M259.3 379a4 4 0 0 1-3 0l-3-1.6a3 3 0 0 1-1.6-2.7v-88.5a3 3 0 0 1 .5-1.6l6 3.5-.4 1.5v88.6q0 1.5 1.5.9" fill="#19b5b5" opacity=".5"/><path d="M336 242.7 259.3 287a3 3 0 0 0-1.5 2.7v88.5q.1 1.6 1.5 1l76.7-44.4a3 3 0 0 0 1.5-2.7v-88.5q-.1-1.6-1.5-.9" fill="#19b5b5"/><path d="M336 242.7 259.3 287a3 3 0 0 0-1.5 2.7v88.5q.1 1.6 1.5 1l76.7-44.4a3 3 0 0 0 1.5-2.7v-88.5q-.1-1.6-1.5-.9" fill="#fff" opacity=".8"/><path d="M336.3 244v88.2a2 2 0 0 1-1 1.6l-76.3 44v-88.2a2 2 0 0 1 1-1.6zm.4-1.5-.7.3-76.7 44.2a3 3 0 0 0-1.5 2.7v88.5q0 1 .8 1.1l.7-.2 76.7-44.3a3 3 0 0 0 1.5-2.7v-88.5q0-1-.8-1.1" fill="#19b5b5" opacity=".3"/><path d="M348.5 299.7h-.5l-1.2.8-.2.7a1 1 0 0 0 .3 1.3l.5.6a1 1 0 0 0 1 .3l2.8-1.8h.5Zm-.9-3-3.2-1.8-.2-.1-2-.5a1 1 0 0 0-1.1.6l-2 3.6-.7.7.6 2a1 1 0 0 0 1 .4l1.2-.4a2 2 0 0 0 1.2-.8l1.9-3.7a1 1 0 0 1 1.1-.5l2 .5zm-6.8 9.8.4 1.3c.6 3.4-1.6 8.3-4.9 10.9a7 7 0 0 1-3.4 1.5c1 2.3 3.8 2.6 6.6.3 3.3-2.6 5.5-7.5 4.9-10.9q-.7-3.3-3.6-3.2Zm-3 20.9a1 1 0 0 0-1-.4l-1.2.4-.4.1.1.3.3.4 3.1 1.8-.2-.3ZM334 305l-.2-2.9a2 2 0 0 1 .6-1.2l3-2.4h.6l-3.2-2h-.2l-.4.2-3 2.4a2 2 0 0 0-.6 1.3l.2 2.9a2 2 0 0 1-.5 1.3l-1.4 2a2 2 0 0 1-1.2.5h-2a1 1 0 0 0-1.1.6l-1.8 4.1a1 1 0 0 0 .3 1l2.1 1.3v.5l-.3 2a2 2 0 0 1-.7 1.4l-2.6 2.4a2 2 0 0 0-.5 1.4l.5 2.9.3.4 3.2 1.8-.3-.4-.5-2.9a2 2 0 0 1 .5-1.3l2.6-2.5.7-1.3.3-2a1 1 0 0 0-.5-1l-1.6-.8a1 1 0 0 1-.4-1l1.8-4a1 1 0 0 1 1.1-.8l2 .1a2 2 0 0 0 1.3-.6l1.4-1.9a2 2 0 0 0 .5-1.5m-4.6 20.2a1 1 0 0 0-1-.2l-1.6 1-1 3 .2.8 3.2 1.9-.3-.8 1.4-3.7a1 1 0 0 0-.3-1.3z" fill="#19b5b5"/><path d="M348.5 299.7h-.5l-1.2.8-.2.7a1 1 0 0 0 .3 1.3l.5.6a1 1 0 0 0 1 .3l2.8-1.8h.5Zm-.9-3-3.2-1.8-.2-.1-2-.5a1 1 0 0 0-1.1.6l-2 3.6-.7.7.6 2a1 1 0 0 0 1 .4l1.2-.4a2 2 0 0 0 1.2-.8l1.9-3.7a1 1 0 0 1 1.1-.5l2 .5zm-6.8 9.8.4 1.3c.6 3.4-1.6 8.3-4.9 10.9a7 7 0 0 1-3.4 1.5c1 2.3 3.8 2.6 6.6.3 3.3-2.6 5.5-7.5 4.9-10.9q-.7-3.3-3.6-3.2Zm-3 20.9a1 1 0 0 0-1-.4l-1.2.4-.4.1.1.3.3.4 3.1 1.8-.2-.3ZM334 305l-.2-2.9a2 2 0 0 1 .6-1.2l3-2.4h.6l-3.2-2h-.2l-.4.2-3 2.4a2 2 0 0 0-.6 1.3l.2 2.9a2 2 0 0 1-.5 1.3l-1.4 2a2 2 0 0 1-1.2.5h-2a1 1 0 0 0-1.1.6l-1.8 4.1a1 1 0 0 0 .3 1l2.1 1.3v.5l-.3 2a2 2 0 0 1-.7 1.4l-2.6 2.4a2 2 0 0 0-.5 1.4l.5 2.9.3.4 3.2 1.8-.3-.4-.5-2.9a2 2 0 0 1 .5-1.3l2.6-2.5.7-1.3.3-2a1 1 0 0 0-.5-1l-1.6-.8a1 1 0 0 1-.4-1l1.8-4a1 1 0 0 1 1.1-.8l2 .1a2 2 0 0 0 1.3-.6l1.4-1.9a2 2 0 0 0 .5-1.5m-4.6 20.2a1 1 0 0 0-1-.2l-1.6 1-1 3 .2.8 3.2 1.9-.3-.8 1.4-3.7a1 1 0 0 0-.3-1.3z" opacity=".2"/><path d="m327.7 307.2-2-.1-.8.3 3.2 1.8.8-.3 2 .1.6-.1-3.2-1.8zm6.6-10.5-3 2.4-.5.8 3.2 1.9.5-.8 3-2.4h.6l-3.2-2zm-12.6 23.7-.4.8 3.1 1.9.5-.8 2.6-2.5-3.2-1.8Zm26.8-20.7h-.5l-1.2.8-.2.7v.9l.2.3.1.2.4.5.8.3h.3l2.7-1.8.3-.2h.2Zm-.9-3-3.2-1.8-.2-.1-2-.5a1 1 0 0 0-1.1.6l-2 3.6-.4.5 3.2 1.8.4-.5 2-3.6a1 1 0 0 1 1-.5l2 .4z" fill="#19b5b5"/><path d="m327.7 307.2-2-.1-.8.3 3.2 1.8.8-.3 2 .1.6-.1-3.2-1.8zm6.6-10.5-3 2.4-.5.8 3.2 1.9.5-.8 3-2.4h.6l-3.2-2zm-12.6 23.7-.4.8 3.1 1.9.5-.8 2.6-2.5-3.2-1.8Zm26.8-20.7h-.5l-1.2.8-.2.7v.9l.2.3.1.2.4.5.8.3h.3l2.7-1.8.3-.2h.2Zm-.9-3-3.2-1.8-.2-.1-2-.5a1 1 0 0 0-1.1.6l-2 3.6-.4.5 3.2 1.8.4-.5 2-3.6a1 1 0 0 1 1-.5l2 .4z" fill="#fff" opacity=".2"/><path d="m352.5 304.9-.6-3a.5.5 0 0 0-.7-.3l-2.7 1.8a1 1 0 0 1-1.1-.3l-.5-.6a1 1 0 0 1-.3-1.3l1.3-3.7a.7.7 0 0 0-.5-1l-2-.4a1 1 0 0 0-1.1.6l-2 3.6a2 2 0 0 1-1 .9l-1.3.4a.7.7 0 0 1-1-.5l-.7-2.2a.5.5 0 0 0-.8-.3l-3 2.4a2 2 0 0 0-.6 1.3l.2 2.8a2 2 0 0 1-.5 1.4l-1.4 1.9a2 2 0 0 1-1.2.6h-2a1 1 0 0 0-1 .6l-2 4.1a1 1 0 0 0 .4 1l1.6.7a1 1 0 0 1 .5 1l-.3 2a2 2 0 0 1-.7 1.4l-2.7 2.5a2 2 0 0 0-.4 1.3l.5 3a.5.5 0 0 0 .8.3l2.7-1.8a1 1 0 0 1 1 .3l.6.6a1 1 0 0 1 .3 1.3l-1.4 3.7a1 1 0 0 0 .5.9l2 .5a1 1 0 0 0 1.2-.6l1.9-3.6a2 2 0 0 1 1.1-.9l1.3-.4a.7.7 0 0 1 1 .5l.7 2.2a.5.5 0 0 0 .8.3l3-2.4a2 2 0 0 0 .6-1.3l-.2-2.9a2 2 0 0 1 .5-1.3l1.4-2a2 2 0 0 1 1.2-.5h2a1 1 0 0 0 1.1-.6l1.8-4.1a1 1 0 0 0-.4-1l-1.6-.7a1 1 0 0 1-.5-1.1l.3-2 .7-1.3 2.7-2.5a2 2 0 0 0 .5-1.3m-13 15.6c-3.3 2.6-6.4 1.9-7-1.6s1.6-8.3 4.9-11 6.4-1.8 7 1.7-1.6 8.3-4.9 10.9m-49.2-27.6a3 3 0 0 0 .7-1.5l.7-7.8a2 2 0 0 1 .9-1.3l7-4h.5l-3.4-2h-.6l-7 4a2 2 0 0 0-.8 1.4l-.7 7.8a3 3 0 0 1-.7 1.4L283 295a1 1 0 0 1-1.4.4l-4.5-1.6a1 1 0 0 0-1.2.5l-5.1 8.9a1 1 0 0 0 .2 1.3l3.6 3.1a1.4 1.4 0 0 1 .3 1.4l-1.6 5.4a3 3 0 0 1-.9 1.4l-6.4 4.4a2 2 0 0 0-.7 1.4v8l.2.6 3.5 2-.3-.5v-8.1a2 2 0 0 1 .7-1.4l6.4-4.5a3 3 0 0 0 .9-1.3l1.6-5.4a1 1 0 0 0-.3-1.4l-3.6-3.1a1 1 0 0 1-.2-1.3l5-9a1 1 0 0 1 1.3-.4l4.5 1.6a1 1 0 0 0 1.4-.4zm-13.5 37a.7.7 0 0 0-1-.5l-1.5.7.5.9a2 2 0 0 1 0 1.5l-4 8.3a1 1 0 0 0 .3 1.2l3.4 2a1 1 0 0 1-.3-1.2l4.1-8.3a2 2 0 0 0 0-1.5 14 14 0 0 1-1.5-3.2Zm15 15.1-.7-6.8a.7.7 0 0 0-1-.6l-2.3.3.5 5.1.3.5 3.4 2zm28-55.4h-.6l-4.7 2.1.9 2.2a.7.7 0 0 0 1 .5l6.2-2.8h.5Zm-11.3-14.1-5.2 7.7a2 2 0 0 1-1.3.7h-1l.1 1.7a.7.7 0 0 0 1 .6l3.3-.3a2 2 0 0 0 1.4-.7l5.1-7.8a1 1 0 0 1 1.3-.2l-3.5-2a1 1 0 0 0-1.3.2Zm-5.6 21.4a11 11 0 0 1 1.6 6.2 26 26 0 0 1-11.8 20.4q-3.9 2.2-6.4 1.6c2 2.4 5.7 2.8 9.8.4a26 26 0 0 0 11.8-20.4c0-4.6-2-7.6-5-8.3Z" fill="#19b5b5"/><path d="M290.3 292.9a3 3 0 0 0 .7-1.5l.7-7.8a2 2 0 0 1 .9-1.3l7-4h.5l-3.4-2h-.6l-7 4a2 2 0 0 0-.8 1.4l-.7 7.8a3 3 0 0 1-.7 1.4L283 295a1 1 0 0 1-1.4.4l-4.5-1.6a1 1 0 0 0-1.2.5l-5.1 8.9a1 1 0 0 0 .2 1.3l3.6 3.1a1.4 1.4 0 0 1 .3 1.4l-1.6 5.4a3 3 0 0 1-.9 1.4l-6.4 4.4a2 2 0 0 0-.7 1.4v8l.2.6 3.5 2-.3-.5v-8.1a2 2 0 0 1 .7-1.4l6.4-4.5a3 3 0 0 0 .9-1.3l1.6-5.4a1 1 0 0 0-.3-1.4l-3.6-3.1a1 1 0 0 1-.2-1.3l5-9a1 1 0 0 1 1.3-.4l4.5 1.6a1 1 0 0 0 1.4-.4zm-13.5 37a.7.7 0 0 0-1-.5l-1.5.7.5.9a2 2 0 0 1 0 1.5l-4 8.3a1 1 0 0 0 .3 1.2l3.4 2a1 1 0 0 1-.3-1.2l4.1-8.3a2 2 0 0 0 0-1.5 14 14 0 0 1-1.5-3.2Zm15 15.1-.7-6.8a.7.7 0 0 0-1-.6l-2.3.3.5 5.1.3.5 3.4 2zm28-55.4h-.6l-4.7 2.1.9 2.2a.7.7 0 0 0 1 .5l6.2-2.8h.5Zm-11.3-14.1-5.2 7.7a2 2 0 0 1-1.3.7h-1l.1 1.7a.7.7 0 0 0 1 .6l3.3-.3a2 2 0 0 0 1.4-.7l5.1-7.8a1 1 0 0 1 1.3-.2l-3.5-2a1 1 0 0 0-1.3.2Zm-5.6 21.4a11 11 0 0 1 1.6 6.2 26 26 0 0 1-11.8 20.4q-3.9 2.2-6.4 1.6c2 2.4 5.7 2.8 9.8.4a26 26 0 0 0 11.8-20.4c0-4.6-2-7.6-5-8.3Z" opacity=".2"/><path d="M323.4 300.1v-8a.5.5 0 0 0-.8-.6l-6.3 2.8a1 1 0 0 1-1-.4l-1.3-3.1a2 2 0 0 1-.1-1.5l4.1-8.4a1 1 0 0 0-.4-1.2l-4.5-2.6a1 1 0 0 0-1.2.3l-5.2 7.8a2 2 0 0 1-1.3.6 14 14 0 0 0-3.4.4.7.7 0 0 1-.9-.7l-.7-6.8a.5.5 0 0 0-.8-.4l-7 4a2 2 0 0 0-.9 1.3l-.7 7.8a3 3 0 0 1-.7 1.4l-3.9 4.1a1 1 0 0 1-1.3.4l-4.5-1.5a1 1 0 0 0-1.3.4l-5.1 9a1 1 0 0 0 .2 1.2l3.6 3.1a1.4 1.4 0 0 1 .4 1.4l-1.6 5.4a3 3 0 0 1-1 1.4l-6.3 4.5a2 2 0 0 0-.7 1.4v8a.5.5 0 0 0 .8.5l6.2-2.8a.7.7 0 0 1 1 .5l1.4 3a2 2 0 0 1 0 1.6l-4 8.3a1 1 0 0 0 .3 1.3l4.5 2.6a1 1 0 0 0 1.2-.3l5.2-7.8a2 2 0 0 1 1.3-.7 14 14 0 0 0 3.4-.3.7.7 0 0 1 1 .7l.6 6.7a.5.5 0 0 0 .8.5l7-4a2 2 0 0 0 .9-1.3l.7-7.8a3 3 0 0 1 .7-1.5l3.9-4a1.4 1.4 0 0 1 1.4-.5l4.4 1.6a1 1 0 0 0 1.3-.5l5.1-8.8a1 1 0 0 0-.2-1.4l-3.6-3a1 1 0 0 1-.3-1.4l1.6-5.5a3 3 0 0 1 .9-1.3l6.3-4.5a2 2 0 0 0 .8-1.4M296 325.5c-6.6 3.7-11.8.7-11.8-6.8s5.2-16.7 11.8-20.5 11.7-.7 11.7 6.8-5.2 16.7-11.7 20.5" fill="#19b5b5"/><path d="m275.9 294.3-5.1 8.9-.2.6 3.5 2v-.6l5.2-9a1 1 0 0 1 .9-.4l-3.4-2a1 1 0 0 0-1 .5m-3.5 21.4-6.4 4.5-.4.5 3.4 2 .4-.5 6.4-4.4.5-.6-3.4-2zm23.7-39.4-7 4-.7.9 3.4 2 .7-.9 7-4h.6l-3.4-2zm12.3-.9-5.1 7.8-.4.3 3.5 2 .3-.3 5.2-7.8a1 1 0 0 1 1.2-.3l-3.4-2a1 1 0 0 0-1.3.3m11.3 14.1h-.6l-4.7 2.1.5 1.2.4 1 .3.4h.7l6.3-2.7h.4z" fill="#19b5b5"/><path d="m275.9 294.3-5.1 8.9-.2.6 3.5 2v-.6l5.2-9a1 1 0 0 1 .9-.4l-3.4-2a1 1 0 0 0-1 .5m-3.5 21.4-6.4 4.5-.4.5 3.4 2 .4-.5 6.4-4.4.5-.6-3.4-2zm23.7-39.4-7 4-.7.9 3.4 2 .7-.9 7-4h.6l-3.4-2zm12.3-.9-5.1 7.8-.4.3 3.5 2 .3-.3 5.2-7.8a1 1 0 0 1 1.2-.3l-3.4-2a1 1 0 0 0-1.3.3m11.3 14.1h-.6l-4.7 2.1.5 1.2.4 1 .3.4h.7l6.3-2.7h.4z" fill="#fff" opacity=".2"/><path d="M374.6 156.8v34.8a2 2 0 0 1-1 1.6l-89.2 51.5v-34.8a2 2 0 0 1 .9-1.6zm.4-1.5-.7.2-89.6 51.7a3 3 0 0 0-1.6 2.7V245q0 1 .9 1.1l.7-.2 89.6-51.7a3 3 0 0 0 1.5-2.6v-35.2q0-1-.8-1" fill="#455a64"/><path d="m249.4 160.8 95.4-55q1.4-.5 1.5.8v72a3 3 0 0 1-1.5 2.5l-95.4 55q-1.2.5-1.4-.9v-72a3 3 0 0 1 1.4-2.4" opacity=".2"/><path d="m342.9 112.2-89.6 51.7a3 3 0 0 0-1.6 2.6v69.3a3 3 0 0 0 1.6 2.7l3 1.6a4 4 0 0 0 3 0l89.6-51.6a3 3 0 0 0 1.5-2.7v-69.3a3 3 0 0 0-1.5-2.6l-2.9-1.7a4 4 0 0 0-3.1 0" fill="#19b5b5"/><path d="M259.3 240.1a4 4 0 0 1-3 0l-3-1.6a3 3 0 0 1-1.6-2.7v-69.3l.5-1.5 6 3.4-.4 1.5v69.3q0 1.6 1.5 1" opacity=".2"/><path d="M350.4 116.2q-.2-1.2-1.5-.6l-89.6 51.7-1 1.1-6-3.5 1-1 89.6-51.7a3 3 0 0 1 3 0l3 1.7a3 3 0 0 1 1.5 2.3" fill="#fff" opacity=".2"/><path d="m348.9 115.6-89.6 51.7a3 3 0 0 0-1.5 2.6v69.3q.1 1.5 1.5 1l89.6-51.7a3 3 0 0 0 1.5-2.7v-69.3q0-1.6-1.5-.9" fill="#fff"/><path d="M349.2 116.9v68.9a2 2 0 0 1-1 1.6L259 238.9v-69a2 2 0 0 1 1-1.6zm.4-1.5-.7.2-89.6 51.7a3 3 0 0 0-1.5 2.6v69.3q0 1 .8 1.1l.7-.2 89.6-51.6a3 3 0 0 0 1.5-2.7v-69.3q0-1-.8-1.1" fill="#19b5b5"/><path d="m263 228.9-.2-.1.1-.3 81.3-47h.3a.2.2 0 0 1 0 .4l-81.4 47z" fill="#455a64"/><path d="m263 229.9-.2-.2v-2l.2-.2.2.2v2zm13.6-7.9a.2.2 0 0 1-.3-.2v-2a.2.2 0 1 1 .5 0v2zm13.5-7.8-.2-.2v-2a.2.2 0 0 1 .2-.3.2.2 0 0 1 .2.3v2zm13.6-7.9-.2-.2v-2l.2-.2.2.2v2zm13.5-7.9-.2-.2v-2l.2-.2.2.2v2zm13.6-7.8-.2-.2v-2a.2.2 0 0 1 .2-.3.2.2 0 0 1 .2.3v2zm13.6-7.9a.2.2 0 0 1-.3-.2v-2a.2.2 0 0 1 .3-.2l.2.2v2z" fill="#455a64"/><path d="M263 209.1c6.8-4 8.5 4.9 13.6 2s1.6-20.5 10.1-25.4 6.8 11.7 15.3 6.8 5-36.2 13.5-41 6.8 19.7 15.3 14.7 3.4-29.5 13.6-35.3v47l-81.4 47Z" fill="#19b5b5" opacity=".7"/><path d="M344.4 139.7v38.1l-81.4 47v-5.9l6-6q.2.5.8.2a2 2 0 0 0 .8-1.5l-.2-.5 5.5-8.7h.7l.6-.8 5.5 1.5-.2.7q0 1 .9.5a2 2 0 0 0 .8-1.4v-.4l5.2-6.1q.2.3.7.1a2 2 0 0 0 .9-1.5l-.2-.5 5.4-7.8h.7a2 2 0 0 0 .9-1.5v-.2l5-4.4q.3.6 1 .2a2 2 0 0 0 .7-1.4v-.4l5.2-6.1q.3.3.8.1l.6-.6 5.6 3.2-.3.8q0 1 .9.5a2 2 0 0 0 .8-1.5v-.2l5.1-4.4q.2.6.9.2a2 2 0 0 0 .8-1.4l-.3-.6 5.7-11.5.6-.1a2 2 0 0 0 .8-1.5l5-3q.1.9 1 .6a2 2 0 0 0 .8-1.5l-.3-.6 5.7-11.5z" fill="#19b5b5" opacity=".7"/><path d="m263 219.1-.1-.3 6-6.1h.2v.3zm7.4-7.9-.2-.2 5.6-8.8h.2l.1.2-5.5 8.8zm12.3-7.9-5.4-1.6a.2.2 0 0 1-.2-.3l.3-.1 5.4 1.6.2.2zm1.3-.7a.2.2 0 0 1 0-.4l5.2-6h.3v.2l-5.3 6.1zm6.8-8h-.1v-.3l5.4-7.8h.2v.3l-5.3 7.8zm6.9-9.5h-.1v-.3l5.1-4.5a.2.2 0 0 1 .3.3l-5.2 4.5m6.6-6.1v-.3l5.3-6h.3v.3l-5.3 6zm12.2-3.3-5.6-3.2v-.3l.2-.1 5.6 3.2v.3zm1.4-.4v-.3l5.1-4.5a.2.2 0 0 1 .3.3l-5.1 4.5zm6.5-6.2-.1-.3 5.7-11.5.2-.1.1.3-5.7 11.5zm7.1-13.1-.1-.1v-.3l5.1-3a.2.2 0 0 1 .3.2v.2l-5.2 3m6.4-4.5a.2.2 0 0 1-.2-.3l5.7-11.5a.2.2 0 1 1 .4.2l-5.7 11.5z" fill="#455a64"/><path d="m269.4 213.4-.3-.1a1 1 0 0 1-.4-.8 2 2 0 0 1 1-1.6.7.7 0 0 1 1.2.6 2 2 0 0 1-1 1.7zm.5-2.2a2 2 0 0 0-.8 1.3q0 .3.2.4h.4a2 2 0 0 0 .7-1.4l-.1-.3zm6.3-8.6-.3-.1-.4-.7a2 2 0 0 1 1-1.7h.8l.4.7a2 2 0 0 1-1 1.6zm.5-2.1a2 2 0 0 0-.8 1.3l.2.3h.4a2 2 0 0 0 .7-1.3l-.1-.4zm6.3 4h-.3a1 1 0 0 1-.4-.8 2 2 0 0 1 1-1.6l.7-.1.4.7a2 2 0 0 1-1 1.7zm.8-2.2-.3.1a2 2 0 0 0-.8 1.3l.2.4h.4a2 2 0 0 0 .7-1.4zm5.9-5.6h-.3l-.3-.8a2 2 0 0 1 1-1.6l.7-.1.4.7a2 2 0 0 1-1 1.7zm.5-2a2 2 0 0 0-.7 1.2l.1.4h.4a2 2 0 0 0 .8-1.4.3.3 0 0 0-.6-.3m6.3-7.6-.3-.2-.4-.7a2 2 0 0 1 1-1.6h.8l.4.6a2 2 0 0 1-1 1.7zm.5-2.2a2 2 0 0 0-.7 1.3.3.3 0 0 0 .5.3 2 2 0 0 0 .7-1.3l-.1-.3zm6.3-3.8h-.3l-.3-.7a2 2 0 0 1 .9-1.7h.8l.4.7a2 2 0 0 1-1 1.6zm.5-2a2 2 0 0 0-.8 1.2q0 .3.2.4h.4a2 2 0 0 0 .7-1.3l-.1-.4zm13.1-1.8-.4-.1-.3-.8a2 2 0 0 1 1-1.6.7.7 0 0 1 1 .7 2 2 0 0 1-1 1.6zm.7-2.2h-.3a2 2 0 0 0-.7 1.3.3.3 0 0 0 .5.3 2 2 0 0 0 .8-1.2zm6-3.7-.3-.1-.3-.7a2 2 0 0 1 1-1.7.7.7 0 0 1 1.1.7 2 2 0 0 1-1 1.6zm.5-2.1a2 2 0 0 0-.7 1.3l.1.3h.4a2 2 0 0 0 .7-1.3v-.4zm13.1-15.5-.3-.1a1 1 0 0 1-.4-.8 2 2 0 0 1 1-1.6h.8l.3.7a2 2 0 0 1-1 1.6zm.5-2.1a2 2 0 0 0-.8 1.3l.2.3h.4a2 2 0 0 0 .7-1.3l-.1-.4zm-7.3 6-.3-.1-.4-.7a2 2 0 0 1 1-1.7h.8l.4.7a2 2 0 0 1-1 1.6zm.5-2.1a2 2 0 0 0-.7 1.3l.1.3h.4a2 2 0 0 0 .7-1.3l-.1-.4zM344 140h-.3a1 1 0 0 1-.4-.8 2 2 0 0 1 1-1.7h.8l.3.7a2 2 0 0 1-1 1.7zm.8-2.2-.3.1a2 2 0 0 0-.8 1.3l.2.4.4-.1a2 2 0 0 0 .7-1.3zM310 173.2h-.3l-.3-.8a2 2 0 0 1 1-1.6.7.7 0 0 1 1.2.6 2 2 0 0 1-1 1.7zm.8-2.2-.2.1a2 2 0 0 0-.8 1.3l.2.4h.3a2 2 0 0 0 .8-1.4l-.2-.3zm-.4 0" fill="#455a64"/><path d="M274.5 211.9a7 7 0 0 1-3.8-1.7c-2-1.5-4-3-7.6-1l-.2-.3c3.8-2.1 6-.5 8 1 1.8 1.2 3.3 2.3 5.6 1s2.7-5.3 3.4-9.9c.9-6 1.9-12.8 6.7-15.6 4.4-2.6 6.2.5 8 3.5a11 11 0 0 0 2.7 3.7q1.9 1.2 4.6-.4c4.1-2.4 5.4-11.5 6.7-20.4s2.5-18.2 6.8-20.7a4 4 0 0 1 3.2-.4c2.3.8 3.5 4.5 4.8 8s2.4 7 4.4 7.7a3 3 0 0 0 2.9-.5c4-2.3 4.9-9 5.9-16.2 1-7.8 2.2-16 7.6-19.1l.3.3c-5.3 3-6.4 11.1-7.5 19-1 7.1-2 14-6.1 16.4a4 4 0 0 1-3.2.5c-2.3-.8-3.5-4.5-4.7-8s-2.4-7-4.5-7.8a3 3 0 0 0-2.9.5c-4.1 2.4-5.4 11.5-6.6 20.4s-2.6 18.2-7 20.7q-2.9 1.6-5 .3a11 11 0 0 1-2.9-3.8c-1.6-3-3.2-5.7-7.3-3.4-4.7 2.7-5.7 9.4-6.6 15.4-.6 4.7-1.2 8.7-3.6 10a4 4 0 0 1-2.1.8" fill="#455a64"/><path d="M316 149.6q1.2-.5 1.3.8a3 3 0 0 1-1.3 2.3q-1.2.5-1.3-.8a3 3 0 0 1 1.3-2.3m-27.6 21.6-.2-.1.1-.3 13.5-7.8 1.7-4.8v-.1l6.8-4 .3.1v.3l-6.8 3.9-1.6 4.8-.1.1z" fill="#455a64"/><path d="M288.8 167.8a2 2 0 0 1 .9-1.5l10-5.8q1-.4 1 .5a2 2 0 0 1-1 1.5l-10 5.8q-.8.4-.9-.5" fill="#19b5b5"/><path d="m297.3 65.4 47.5-27.5q1.3-.5 1.4.8v41.4a3 3 0 0 1-1.4 2.5L297.3 110q-1.3.6-1.4-.8V67.8a3 3 0 0 1 1.4-2.4" opacity=".2"/><path d="M342.9 44.3 301 68.4a3 3 0 0 0-1.6 2.7v38.7a3 3 0 0 0 1.6 2.6l2.9 1.7a4 4 0 0 0 3.1 0L348.9 90a3 3 0 0 0 1.5-2.7V48.6A3 3 0 0 0 349 46l-3-1.7a3 3 0 0 0-3 0" fill="#19b5b5"/><path d="M307.1 114a4 4 0 0 1-3 0l-3-1.6a3 3 0 0 1-1.6-2.6V71a3 3 0 0 1 .5-1.6l6 3.5a3 3 0 0 0-.5 1.5v38.7q.1 1.5 1.6.9" opacity=".2"/><path d="M350.4 48.4q-.2-1.2-1.5-.7L307 71.8a3 3 0 0 0-1 1.2l-6-3.5 1-1 41.8-24.2a4 4 0 0 1 3.1 0l3 1.7a3 3 0 0 1 1.5 2.4" fill="#fff" opacity=".2"/><path d="M348.9 47.7 307 71.8a3 3 0 0 0-1.5 2.7v38.7q.2 1.6 1.5.9L349 90a3 3 0 0 0 1.5-2.7V48.6q-.2-1.6-1.5-.9" fill="#fff"/><path d="M349.2 49v38.3a2 2 0 0 1-1 1.6l-41.4 24V74.4a2 2 0 0 1 1-1.6zm.4-1.4-.7.2-41.8 24a3 3 0 0 0-1.5 2.7v38.7q0 1 .8 1.1l.7-.2L349 90a3 3 0 0 0 1.5-2.7V48.6q0-1-.8-1Z" fill="#19b5b5"/><path fill="#19b5b5" d="M339 89.3V62.4l-2.4-1.4v26.9z"/><path opacity=".2" d="M339 89.3V62.4l-2.4-1.4v26.9z"/><path fill="#19b5b5" d="m339 89.3 7-4.1V58.4l-7 4z"/><path fill="#19b5b5" d="m346 58.4-2.4-1.4-7 4 2.4 1.4z"/><path fill="#fff" opacity=".3" d="m346 58.4-2.4-1.4-7 4 2.4 1.4z"/><path d="m346 58.4-7 4-2.4-1.4 2.3 1.5.1 26.7c.1-.8.2-26 .1-26.7Z" fill="#fff" opacity=".3"/><path fill="#19b5b5" d="M326 96.8V75.2l-2.4-1.4v21.6z"/><path fill="#fff" opacity=".1" d="M326 96.8V75.2l-2.4-1.4v21.6z"/><path fill="#19b5b5" d="m326 96.8 6.9-4V71.2l-6.9 4z"/><path fill="#fff" opacity=".3" d="m326 96.8 6.9-4V71.2l-6.9 4z"/><path fill="#19b5b5" d="m332.9 71.2-2.4-1.4-6.9 4 2.4 1.4z"/><path fill="#fff" opacity=".6" d="m332.9 71.2-2.4-1.4-6.9 4 2.4 1.4z"/><path d="m326 75.3 7-4-7 3.8-2.4-1.3zl.1 21.5z" fill="#fff" opacity=".3"/><path fill="#19b5b5" d="M313 104.3V86.2l-2.4-1.4v18.1z"/><path opacity=".5" d="M313 104.3V86.2l-2.4-1.4v18.1z"/><path fill="#19b5b5" d="m313 104.3 6.9-4V82.2l-6.9 4z"/><path opacity=".3" d="m313 104.3 6.9-4V82.2l-6.9 4z"/><path fill="#19b5b5" d="m319.9 82.2-2.4-1.4-6.9 4 2.4 1.4z"/><path opacity=".1" d="m319.9 82.2-2.4-1.4-6.9 4 2.4 1.4z"/><path d="m319.9 82.2-6.9 3.9-2.4-1.3 2.3 1.5.1 18 .1-18Z" fill="#fff" opacity=".3"/><path d="m149.3 256.4 79.9-46q1.2-.6 1.4.8V338a3 3 0 0 1-1.4 2.4l-79.9 46q-1.2.7-1.4-.8V258.8a3 3 0 0 1 1.4-2.4" opacity=".2"/><path d="m227.2 216.8-74 42.7a3 3 0 0 0-1.6 2.6v124.1a3 3 0 0 0 1.6 2.7l3 1.7a4 4 0 0 0 3 0l74-42.7a3 3 0 0 0 1.6-2.7V221.1a3 3 0 0 0-1.6-2.7l-3-1.6a3 3 0 0 0-3 0" fill="#19b5b5"/><path d="M159.2 390.5a4 4 0 0 1-3 0l-3-1.6a3 3 0 0 1-1.6-2.7v-124a3 3 0 0 1 .5-1.6l6 3.4a3 3 0 0 0-.4 1.5v124.1q0 1.6 1.5 1" opacity=".2"/><path d="M234.7 220.8q-.2-1.2-1.5-.6l-74 42.7-1 1.1-6-3.5 1-1 74-42.7a3 3 0 0 1 3 0l3 1.6a3 3 0 0 1 1.5 2.4" fill="#fff" opacity=".2"/><path d="m233.2 220.2-74 42.7a3 3 0 0 0-1.5 2.6v124.1q.2 1.6 1.5 1l74-42.7a3 3 0 0 0 1.6-2.7V221q-.1-1.6-1.6-.9" fill="#fff"/><path d="M233.5 221.4v123.8a2 2 0 0 1-1 1.6L159 389.3V265.5a2 2 0 0 1 1-1.6zm.4-1.4-.7.2-74 42.7a3 3 0 0 0-1.5 2.6v124.1q0 1 .8 1.1l.7-.2 74-42.6a3 3 0 0 0 1.5-2.7V221q0-1-.8-1.1" fill="#19b5b5"/><path d="M183 268.3v10.6c-4.7 2.7-8.4 9.8-8.4 16l-8 4.5c0-12 7.3-26 16.3-31.1" fill="#19b5b5"/><path d="m177 301.2-5.8 10.7q-4.5-3.7-4.6-12.4l8-4.7q.1 4.6 2.3 6.4" fill="#19b5b5"/><path d="m177 301.2-5.8 10.7q-4.5-3.7-4.6-12.4l8-4.7q.1 4.6 2.3 6.4" opacity=".3"/><path d="M199.2 280.6c0 12-7.3 26-16.3 31.2q-7 4-11.7.1l5.7-10.7q2.4 1.9 6 0c4.6-2.7 8.4-9.9 8.4-16s-3.8-9-8.4-6.3v-10.6c9-5.2 16.3.3 16.3 12.3" fill="#19b5b5"/><path d="M199.2 280.6c0 12-7.3 26-16.3 31.2q-7 4-11.7.1l5.7-10.7q2.4 1.9 6 0c4.6-2.7 8.4-9.9 8.4-16s-3.8-9-8.4-6.3v-10.6c9-5.2 16.3.3 16.3 12.3" fill="#fff" opacity=".4"/><path d="m209.3 261.6-4.8 2.8v5.7l4.8-2.7v-5.7" fill="#19b5b5"/><path d="m209.3 261.6-4.8 2.8v5.7l4.8-2.7v-5.7" fill="#fff" opacity=".4"/><path d="m212.8 261.6-.3-.2.1-.5 13.4-7.6a.4.4 0 1 1 .4.6l-13.4 7.6zm0 3a.4.4 0 0 1-.2-.7l13.4-7.6.5.1a.4.4 0 0 1-.2.5l-13.3 7.7z" fill="#455a64"/><path d="m209.3 272.9-4.8 2.7v5.7l4.8-2.7z" fill="#19b5b5"/><path d="m212.8 272.8-.3-.2.1-.4 13.4-7.7.5.1a.4.4 0 0 1-.2.5l-13.3 7.7zm0 3.1a.4.4 0 0 1-.2-.7l13.4-7.7a.4.4 0 0 1 .5.2.4.4 0 0 1-.2.5l-13.3 7.6z" fill="#455a64"/><path d="m209.3 284.1-4.8 2.8v5.6l4.8-2.7v-5.6" fill="#19b5b5"/><path d="m209.3 284.1-4.8 2.8v5.6l4.8-2.7v-5.6" opacity=".3"/><path d="m212.8 284-.3-.1.1-.5 13.4-7.7a.4.4 0 0 1 .5.2.4.4 0 0 1-.2.5L213 284zm0 3h-.3a.4.4 0 0 1 .1-.6l13.4-7.6.5.1a.4.4 0 0 1-.2.5L213 287zm-46.2 48.1-.3-.2.1-.4L226 300l.5.1a.4.4 0 0 1-.2.5L166.8 335zm0 6.2-.3-.2.1-.5 59.6-34.3a.4.4 0 1 1 .4.6l-59.6 34.3zm0 6.1a.4.4 0 0 1-.2-.6l59.6-34.4a.4.4 0 1 1 .4.6l-59.6 34.4zm0 6.2a.4.4 0 0 1-.2-.7l59.6-34.3.5.1a.4.4 0 0 1-.2.5l-59.5 34.3zm0 6.1a.4.4 0 0 1-.2-.6l59.6-34.4a.4.4 0 0 1 .5.2l-.2.4-59.5 34.4zm0 6.2-.3-.2.1-.5L226 331l.5.1a.4.4 0 0 1-.2.5l-59.5 34.3z" fill="#455a64"/><path d="m242.8 96.8 39.4-22.7q1.2-.6 1.4.8v41.4a3 3 0 0 1-1.4 2.4l-39.4 22.8q-1.3.5-1.4-.9V99.2a3 3 0 0 1 1.4-2.4" opacity=".2"/><path d="m280.2 80.5-33.6 19.3a3 3 0 0 0-1.5 2.7v38.7a3 3 0 0 0 1.6 2.7l2.9 1.6a3 3 0 0 0 3 0l33.6-19.3a3 3 0 0 0 1.6-2.7V84.8a3 3 0 0 0-1.6-2.6l-3-1.7a3 3 0 0 0-3 0" fill="#19b5b5"/><path d="M252.7 145.5a4 4 0 0 1-3.1 0l-3-1.6a3 3 0 0 1-1.5-2.7v-38.7a3 3 0 0 1 .5-1.6l6 3.5a3 3 0 0 0-.5 1.5v38.7q.1 1.6 1.6 1" opacity=".2"/><path d="M287.7 84.5q-.1-1.2-1.5-.6l-33.5 19.4-1.1 1.1-6-3.5 1-1 33.6-19.4a3 3 0 0 1 3 0l3 1.7a3 3 0 0 1 1.5 2.3" fill="#fff" opacity=".2"/><path d="m286.2 84-33.5 19.3a3 3 0 0 0-1.6 2.6v38.7q.1 1.6 1.6 1l33.5-19.4a3 3 0 0 0 1.6-2.7V84.8q-.1-1.6-1.6-.9" fill="#fff"/><path d="M286.5 85.2v38.3a2 2 0 0 1-.9 1.6l-33.2 19.2v-38.4a2 2 0 0 1 .9-1.6zm.4-1.5-.7.2-33.5 19.4a3 3 0 0 0-1.6 2.6v38.7q0 1 .9 1.1l.7-.2 33.5-19.3a3 3 0 0 0 1.6-2.7V84.8q0-1-.9-1.1" fill="#19b5b5"/><path d="m260.2 135.3 21.5-12.4-.4-3a5 5 0 0 0-2.1-4l-3-1.8a4 4 0 0 0-4.1.4l-8.3 4.7c-3.1 1.8-5.8 6.5-6.2 10.9l-.4 3.5Z" fill="#19b5b5"/><path d="M275.6 102.7q1.6 1 1.7 3.8a13 13 0 0 1-5.8 10.1q-2.6 1.4-4.2.4l-3-1.7q-1.6-1-1.6-3.7a13 13 0 0 1 5.8-10.2q2.5-1.3 4.1-.4Z" fill="#19b5b5"/><path d="M281.3 119.9a5 5 0 0 0-2.1-4 4 4 0 0 0-4.1.3l-8.3 4.8c-3.1 1.8-5.8 6.5-6.2 10.9l-.4 3.5 21.5-12.4Zm-14-2.9q1.6 1 4.1-.4a13 13 0 0 0 5.9-10q-.1-3-1.7-3.9c-1.6-.9-2.5-.5-4.2.4a13 13 0 0 0-5.8 10.2q.1 2.7 1.7 3.7" fill="#19b5b5"/><path d="M281.3 119.9a5 5 0 0 0-2.1-4 4 4 0 0 0-4.1.3l-8.3 4.8c-3.1 1.8-5.8 6.5-6.2 10.9l-.4 3.5 21.5-12.4Zm-14-2.9q1.6 1 4.1-.4a13 13 0 0 0 5.9-10q-.1-3-1.7-3.9c-1.6-.9-2.5-.5-4.2.4a13 13 0 0 0-5.8 10.2q.1 2.7 1.7 3.7" fill="#fff" opacity=".5"/><path d="m188.8 128 39.4-22.7q1.2-.6 1.4.8v41.4a3 3 0 0 1-1.4 2.4l-39.4 22.7q-1.3.6-1.4-.8v-41.4a3 3 0 0 1 1.4-2.4" opacity=".2"/><path d="M226.2 111.7 192.6 131a3 3 0 0 0-1.5 2.7v38.7a3 3 0 0 0 1.6 2.7l2.9 1.6a4 4 0 0 0 3 0l33.6-19.3a3 3 0 0 0 1.6-2.7V116a3 3 0 0 0-1.6-2.6l-3-1.7a4 4 0 0 0-3 0" fill="#19b5b5"/><path d="M198.7 176.7a4 4 0 0 1-3.1 0l-3-1.7a3 3 0 0 1-1.5-2.6v-38.7a3 3 0 0 1 .5-1.6l6 3.5a3 3 0 0 0-.5 1.5v38.7q.1 1.6 1.6.9" opacity=".2"/><path d="M233.7 115.7q-.1-1.2-1.5-.6l-33.5 19.3a3 3 0 0 0-1.1 1.2l-6-3.5 1-1 33.6-19.4a3 3 0 0 1 3 0l3 1.6a3 3 0 0 1 1.5 2.4" fill="#fff" opacity=".2"/><path d="m232.2 115-33.5 19.4a3 3 0 0 0-1.6 2.7v38.7q.1 1.6 1.6.9l33.5-19.3a3 3 0 0 0 1.6-2.7V116q-.1-1.6-1.6-1" fill="#fff"/><path d="M232.5 116.3v38.4a2 2 0 0 1-.9 1.6l-33.2 19.2V137a2 2 0 0 1 .9-1.6zm.4-1.4-.7.2-33.5 19.3a3 3 0 0 0-1.6 2.7v38.7q0 1 .9 1.1l.7-.2 33.5-19.3a3 3 0 0 0 1.6-2.7V116q0-1-.9-1.1" fill="#19b5b5"/><path d="m206.2 166.6 21.5-12.4-.4-3.1a5 5 0 0 0-2.1-4l-3-1.8a4 4 0 0 0-4.1.4l-8.3 4.7a15 15 0 0 0-6.2 11l-.4 3.4Z" fill="#263238"/><path d="M227.3 151a5 5 0 0 0-2.1-4 4 4 0 0 0-4.1.4l-8.3 4.8c-3.1 1.8-5.8 6.4-6.3 10.8l-.3 3.5 21.5-12.4Z" fill="#455a64"/><path d="M221.6 134q1.6 1 1.7 3.8a13 13 0 0 1-5.8 10.1q-2.5 1.4-4.2.4l-3-1.7q-1.5-1-1.6-3.8a13 13 0 0 1 5.8-10q2.4-1.4 4.2-.5Z" fill="#263238"/><path d="M217.5 147.9q-2.6 1.3-4.2.4c-1.6-1-1.7-2-1.7-3.8a13 13 0 0 1 5.8-10.1q2.6-1.4 4.2-.5c1.6 1 1.7 2 1.7 3.8a13 13 0 0 1-5.9 10.2" fill="#455a64"/><path d="M166.2 144.3v71.2a6 6 0 0 1-2.6 4.6L64 277.6l-.9.2h-.3l-.2-.1-.3-.1-.7-1-.3-1.3v-70.6a6 6 0 0 1 2.7-4.5l99.6-57.5a2 2 0 0 1 1.8-.2l.2.1.2.2v.1l.1.1.2.4v.5z" opacity=".2"/><path d="M178.4 151.8V223a6 6 0 0 1-2.6 4.6L76.2 285l-.9.2h-.6l-.2-.2-.7-.9-.3-1.3v-70.6a6 6 0 0 1 2.7-4.6l99.6-57.5a2 2 0 0 1 1.7-.2l.3.2.1.1.1.1.1.2.2.3v.5z" fill="#fff"/><path d="m177 150.8.2.1v.1l.1.3V223a5 5 0 0 1-2.2 3.8l-99.5 57.4-.4.2H75l-.3-.6-.2-.9v-70.6a5 5 0 0 1 2.2-3.8l99.6-57.4zm0-1-1.2.4-99.6 57.5a6 6 0 0 0-2.7 4.6v70.6l.3 1.3.7.9.2.1h.6l.8-.2 99.6-57.5a6 6 0 0 0 2.7-4.5v-72l-.2-.4-.1-.1-.1-.1-.2-.2-.2-.1-.6-.2Z" fill="#e0e0e0"/><path d="M177.5 150a2 2 0 0 0-1.7.2l-99.6 57.5a6 6 0 0 0-2.7 4.6v8.6l-6.8-3.9v-8.6a6 6 0 0 1 2.7-4.6l99.6-57.4a2 2 0 0 1 2-.2z" fill="#37474f"/><path d="M178.4 151.8c0-1.7-1.2-2.4-2.6-1.6l-99.6 57.5a6 6 0 0 0-2.7 4.6v8.6l104.9-60.5Z" fill="#455a64"/><path d="M66.7 217v-8.6a6 6 0 0 1 .8-2.6l6.8 3.8a5 5 0 0 0-.8 2.7v8.6Z" fill="#263238"/><path d="M163.4 161a4 4 0 0 0-1.5 3.2q.1 2.1 1.5 1.5a4 4 0 0 0 1.5-3.2q-.1-2.1-1.5-1.4m5.4-3.1a4 4 0 0 0-1.5 3.1q0 2.1 1.5 1.4a4 4 0 0 0 1.5-3.1q-.1-2.1-1.5-1.5m5.4-3.1a4 4 0 0 0-1.5 3.2q0 2 1.5 1.4a4 4 0 0 0 1.5-3.1q-.1-2.1-1.5-1.5" fill="#fafafa"/><path d="m74.5 285-.3-.1-6.4-3.6-.8-1-.3-1.3v-62l6.8 4v61.8l.3 1.4zm98.7-92.3-94.5 54.5v-24l94.5-54.5zm-29.8 46.5-64.7 37.2v-24l64.7-37.2zm29.8-17.5-24.3 14.1v-24.1l24.3-14z" fill="#e0e0e0"/><path d="M86.4 57.8V101a2 2 0 0 1-1 1.8l-45.3 26.1V85.7a2 2 0 0 1 1-1.7zm.3-1.4-.7.2L40.5 83a4 4 0 0 0-1.6 2.8v43.4q0 1.2.9 1.2l.7-.2L86 103.8a4 4 0 0 0 1.7-2.8V57.6q0-1.2-1-1.2" fill="#455a64"/><path d="m173.4 25.4-117 67.5a4 4 0 0 0-1.7 2.9V137a4 4 0 0 0 1.7 2.8l3 1.8a4 4 0 0 0 3.4 0l117-67.6a4 4 0 0 0 1.6-2.8V30a4 4 0 0 0-1.6-2.8l-3.2-1.8a4 4 0 0 0-3.2 0" fill="#19b5b5"/><path d="m173.4 25.4-117 67.5a4 4 0 0 0-1.7 2.9V137a4 4 0 0 0 1.7 2.8l3 1.8a4 4 0 0 0 3.4 0l117-67.6a4 4 0 0 0 1.6-2.8V30a4 4 0 0 0-1.6-2.8l-3.2-1.8a4 4 0 0 0-3.2 0" fill="#fff" opacity=".8"/><path d="M62.8 141.7a4 4 0 0 1-3.3 0l-3.1-1.8a4 4 0 0 1-1.7-2.9V95.8a3 3 0 0 1 .6-1.7l6.4 3.7a3 3 0 0 0-.5 1.6v41.3q0 1.6 1.6 1" fill="#19b5b5" opacity=".5"/><path d="M181.4 29.7q-.3-1.3-1.6-.7l-117 67.6a3 3 0 0 0-1.2 1.2l-6.4-3.7a3 3 0 0 1 1.1-1.2l117-67.5a4 4 0 0 1 3.3 0l3.2 1.7a4 4 0 0 1 1.6 2.6" fill="#19b5b5" opacity=".3"/><path d="m179.8 29-117 67.6a4 4 0 0 0-1.6 2.8v41.3q.1 1.6 1.6 1l117-67.6a4 4 0 0 0 1.7-2.8V30q-.2-1.6-1.7-1" fill="#19b5b5"/><path d="m179.8 29-117 67.6a4 4 0 0 0-1.6 2.8v41.3q.1 1.6 1.6 1l117-67.6a4 4 0 0 0 1.7-2.8V30q-.2-1.6-1.7-1" fill="#fff" opacity=".8"/><path d="M180 30.5v40.8a2 2 0 0 1-1 1.6L62.7 140.2V99.4a2 2 0 0 1 1-1.6zm.5-1.7-.7.2-117 67.6a4 4 0 0 0-1.6 2.8v41.3q0 1.1.9 1.2l.7-.3 117-67.5a4 4 0 0 0 1.6-2.9V30q0-1.1-.9-1.2" fill="#19b5b5" opacity=".3"/><path d="M94.7 87.8a10 10 0 0 1 3.7-1.4 4 4 0 0 1 2.7.6 5 5 0 0 1 1.6 2.4 15 15 0 0 1 .7 4v5.8a25 25 0 0 1-.7 4.8 20 20 0 0 1-1.6 4.3 17 17 0 0 1-2.6 3.7 16 16 0 0 1-3.7 2.9l-7.3 4.2h-.6l-.2-.6v-25l.2-1 .6-.6Zm4.8 8-.4-2.1a3 3 0 0 0-1-1.4 2 2 0 0 0-1.4-.4 5 5 0 0 0-2.2.8L90.6 95v17.5l4-2.4a8 8 0 0 0 2.1-1.6l1.5-2 .9-2.5.4-2.5zm16.8-20.5q.6-.3.7-.1l.5.7 7 20.5v.2l-.2.9-.5.6-2.1 1.2q-.6.3-.8.2l-.3-.5-1.3-3.6-9.2 5.3-1.2 5-.4.9-.8.8-2 1.2h-.6l-.3-.6v-.3L112 79l.4-1.3.7-.7Zm1.6 16-3.2-9.1-3.2 12.9Zm20.9-29h.5l.2.6v2.8l-.2.8-.5.7-5.3 3v21.3l-.2.8-.6.7-2.3 1.3h-.6l-.2-.6V72.5l-5.2 3h-.6l-.2-.6V72l.2-.8.6-.7Zm11.2-6.5q.4-.2.7 0l.4.7 7.1 20.4v.3l-.2.9-.6.6-2 1.2q-.6.3-.9.1l-.3-.4L153 76l-9.2 5.3-1.2 5-.4.8-.8.8-2 1.2h-.6l-.3-.6v-.2l7.2-28.7.4-1.2.7-.8Zm1.6 16.2-3.2-9.2-3.2 12.9Z" fill="#19b5b5"/><path d="M109.3 397.6h-61l6.4 26.2q.6 4.9 7 8.7a38 38 0 0 0 34.2 0q6.8-4.1 7.1-9.4Z" fill="#37474f"/><path d="m101.8 415.5 3.7-2.5 3.4-14a25 25 0 0 1-6.2 4.9 53 53 0 0 1-46.7.6l1.6-6.3-.5-.6h-8.7l6.3 26.2q.6 4.9 7 8.7c6.7 3.9 16.4 5 24.9 3.3-15.2 1.1-25.6-5.5-27.2-11.6l-1.7-7.8c12.7 6.4 32 6.1 44.1-.9" fill="#263238"/><path d="M112.4 389.8a13 13 0 0 1-2 4.7 23 23 0 0 1-7.6 6.8 53 53 0 0 1-47.9 0 23 23 0 0 1-7.6-6.8 13 13 0 0 1-2-4.7c-1.2-5.7 2-11.7 9.6-16.1a53 53 0 0 1 47.9 0c7.6 4.4 10.8 10.4 9.6 16.1" fill="#455a64"/><path d="M110.4 394.5a23 23 0 0 1-7.7 6.8 53 53 0 0 1-47.8 0 23 23 0 0 1-7.7-6.8 13 13 0 0 1-2-4.7l1.5 10.3q1 6.5 9.3 11.4c12.6 7.3 33 7.3 45.6 0q8.3-4.9 9.3-11.2v-.6l1.5-9.9a13 13 0 0 1-2 4.7" fill="#37474f"/><path d="M98.8 376a44 44 0 0 0-40 0c-6.2 3.6-8.9 8.5-8 13.2q1 5.5 8 9.8a44 44 0 0 0 40 0q7-4.2 8-9.8c.9-4.7-1.8-9.6-8-13.2" fill="#263238"/><path d="M52.6 393.5A19 19 0 0 0 59 399a44 44 0 0 0 39.9 0 19 19 0 0 0 6.2-5.5c0-3.8-2.6-7.6-7.7-10.5-10.2-6-26.8-6-37 0q-7.5 4.6-7.7 10.5" fill="#fafafa"/><path d="m101.3 298.3-17.4 14.9 17-8.7a48 48 0 0 1-2.4 16.5s-8.3 5.4-13 10l13-5.7s1.3 8.7-1.9 22.2c-.8 3.6-4.4 10.4-6.7 15.5a57 57 0 0 1-3.6 6.8l-.3.4-9.6-4.7a98 98 0 0 1-7-24.4c-5.1-34.6 20.4-55.6 41.3-63 0 0-7 9.4-9.4 20.2" fill="#19b5b5"/><path d="M86.4 300.3a34 34 0 0 0-7 13.6 71 71 0 0 0-2.6 15.2 65 65 0 0 0 5 30l-.2.7a.5.5 0 0 1-.7-.3 66 66 0 0 1-4.5-30.5 71 71 0 0 1 2.8-15.2c1.5-4.8 3.6-9.7 7.1-13.5" fill="#fff"/><path d="M24.3 315.2c.4.6 7 10.8 16.3 30.2l18.8 5.5-14.4.8 6 13 15 4-11.5 2.8s2.3 14.9 12 22.2c5.5 4 8 4.4 10.2 3.4 2.7-1.2 4.4-5.1 6.2-11.2s1.2-18.7-3-31.5a38 38 0 0 0-5-9.6c-12-17.4-37.5-28.1-50.6-29.6" fill="#19b5b5"/><path d="M24.3 315.2c.4.6 7 10.8 16.3 30.2l18.8 5.5-14.4.8 6 13 15 4-11.5 2.8s2.3 14.9 12 22.2c5.5 4 8 4.4 10.2 3.4 2.7-1.2 4.4-5.1 6.2-11.2s1.2-18.7-3-31.5a38 38 0 0 0-5-9.6c-12-17.4-37.5-28.1-50.6-29.6" opacity=".1"/><path d="M43.6 324c9.4 5.6 18 12.7 24.4 21.8a53 53 0 0 1 7.4 14.6 50 50 0 0 1 2.2 16.3 65 65 0 0 0-3.2-16 59 59 0 0 0-7.1-14.5A80 80 0 0 0 43.5 324z" fill="#fff"/><path d="m144.6 318.4-5.7.2A92 92 0 0 0 117 324a104 104 0 0 0-11.7 5.3A64 64 0 0 0 88.5 342a40 40 0 0 0-5.8 8.2l-.6 1.1q-.8 1.5-1.3 3a55 55 0 0 0-5 27c.3 6.5 2.5 14 3.8 15.2l.5.4c1.9 1.2 4.9.5 10.4-2.6 11.1-6.2 15.5-22 15.5-22L91 369l19.3-3.2 8-12.5-14.7-2.7 20.1-3.1a266 266 0 0 1 21-29Z" fill="#19b5b5"/><path d="M139 318.6a92 92 0 0 0-22 5.4 104 104 0 0 0-11.7 5.3A64 64 0 0 0 88.5 342a40 40 0 0 0-5.8 8.2l-.6 1.1q-.8 1.5-1.3 3a55 55 0 0 0-5 27c.3 6.5 2.5 14 3.8 15.2l.5.4 1.3.5a90 90 0 0 1 11.1-46.5 90 90 0 0 1 52.1-32.4z" fill="#19b5b5"/><path d="M139 318.6a92 92 0 0 0-22 5.4 104 104 0 0 0-11.7 5.3A64 64 0 0 0 88.5 342a40 40 0 0 0-5.8 8.2l-.6 1.1q-.8 1.5-1.3 3a55 55 0 0 0-5 27c.3 6.5 2.5 14 3.8 15.2l.5.4 1.3.5a90 90 0 0 1 11.1-46.5 90 90 0 0 1 52.1-32.4z" opacity=".2"/><path d="M81.3 397.3a87 87 0 0 1 1.4-22.4 72 72 0 0 1 7.4-21.3c3.8-6.6 9.3-12 15.1-16.8a84 84 0 0 1 19.3-11.6h.1a111 111 0 0 0-18.6 12.6 82 82 0 0 0-8.2 7.5 50 50 0 0 0-6.8 8.8 72 72 0 0 0-7.7 20.9 87 87 0 0 0-2 22.3" fill="#fff"/><path d="M275.7 408a3 3 0 0 1-3-.3 9 9 0 0 1-4.2-7.2 3 3 0 0 1 1.3-2.7l52-32.9q1.6-1.1 4.2.3a13 13 0 0 1 5.9 10.1q-.1 3-2 3.9Z" fill="#455a64"/><path d="M268.6 400.5c0-2.7 1.8-3.8 4.1-2.4a9 9 0 0 1 4.2 7.2c0 2.6-1.8 3.7-4.1 2.4a9 9 0 0 1-4.2-7.2" fill="#37474f"/><path d="M262.4 411.8a6 6 0 0 1-2.5-4.4 2 2 0 0 1 .8-1.6l10.3-6a2 2 0 0 1 1.8.2 6 6 0 0 1 2.5 4.3 2 2 0 0 1-.7 1.7l-10.4 6a2 2 0 0 1-1.8-.2" fill="#19b5b5"/><path d="M262.4 411.8a6 6 0 0 1-2.5-4.4 2 2 0 0 1 .8-1.6l10.3-6a2 2 0 0 1 1.8.2 6 6 0 0 1 2.5 4.3 2 2 0 0 1-.7 1.7l-10.4 6a2 2 0 0 1-1.8-.2" opacity=".2"/><path d="m267.3 403.5-1.2-.9-5.4 3.2a31 31 0 0 1 6 4.7l5-2.9-.4-.4a33 33 0 0 0-4-3.7" opacity=".2"/><path d="m274.7 399.8 53.5-32.9-2.2-1.7q-2.6-1.4-4.2-.3l-52 32.9a3 3 0 0 1 3 .2 8 8 0 0 1 2 1.8" opacity=".1"/><path d="M182.3 415.8v11.8c0 6.4 4.2 12.9 12.7 17.8a68 68 0 0 0 61.4 0c8.5-5 12.7-11.4 12.7-17.8v-11.8c0-6.4-4.2-12.8-12.7-17.7a68 68 0 0 0-61.4 0c-8.5 4.9-12.8 11.3-12.8 17.7m82.6 0c0 5.1-3.7 10.1-10.6 14.1-7.6 4.4-17.7 6.8-28.6 6.8s-21-2.4-28.6-6.8c-6.9-4-10.6-9-10.6-14s3.7-10.2 10.6-14.2c7.5-4.4 17.7-6.8 28.6-6.8s21 2.4 28.6 6.8c6.8 4 10.6 9 10.6 14.1" fill="#19b5b5"/><path d="M256.4 398c-17-9.7-44.5-9.7-61.4 0s-17 25.7 0 35.5 44.4 9.8 61.4 0 17-25.6 0-35.4m-2.1 31.9c-7.6 4.4-17.7 6.8-28.6 6.8s-21-2.4-28.6-6.8c-6.9-4-10.6-9-10.6-14s3.7-10.2 10.6-14.2c7.5-4.4 17.7-6.8 28.6-6.8s21 2.4 28.6 6.8c6.9 4 10.6 9 10.6 14.1s-3.7 10.2-10.6 14.1" fill="#fff" opacity=".3"/><path d="M265 415.8a12 12 0 0 1-1.8 6q-2.6-4.6-8.9-8.3c-7.6-4.3-17.7-6.7-28.6-6.7s-21 2.4-28.6 6.7a24 24 0 0 0-9 8.2 12 12 0 0 1-1.6-5.9c0-5.1 3.7-10.1 10.6-14 7.6-4.5 17.7-6.9 28.6-6.9s21 2.4 28.6 6.8c6.8 4 10.6 9 10.6 14.1" fill="#19b5b5"/><path d="M265 415.8a12 12 0 0 1-1.8 6q-2.6-4.6-8.9-8.3c-7.6-4.3-17.7-6.7-28.6-6.7s-21 2.4-28.6 6.7a24 24 0 0 0-9 8.2 12 12 0 0 1-1.6-5.9c0-5.1 3.7-10.1 10.6-14 7.6-4.5 17.7-6.9 28.6-6.9s21 2.4 28.6 6.8c6.8 4 10.6 9 10.6 14.1" opacity=".1"/><path d="M254.3 407c-7.6-4.3-17.7-6.7-28.6-6.7s-21 2.4-28.6 6.8q-8.6 5-10.3 11.4 1.6 6.4 10.3 11.4c7.5 4.4 17.7 6.8 28.6 6.8s21-2.4 28.6-6.8q8.6-5 10.3-11.4-1.7-6.4-10.3-11.4" fill="#fff" opacity=".6"/><path d="M236 440.2V452a57 57 0 0 0 20.4-6.6c8.5-5 12.7-11.4 12.7-17.8v-11.8a15 15 0 0 0-.5-3.9c2 7.7-2 15.8-12.2 21.6a57 57 0 0 1-20.5 6.7" opacity=".1"/><path d="m410.3 399.1.8-12.4s-3.1 1.9-10.4 1.9c-3.8 0-9-3-9-3l.7 12c-.8-.2-1 1.9-2.4 2.7-2.4 1.3-7 1.6-11.4 1.9h-3.7c-3.7.8-6.7 4-2.2 6.2s11 1.7 16.9 1.3c7-.6 21.3-3.2 20.7-10.6" fill="#b16668"/><path d="M360 408.9a8 8 0 0 0 .3 4c.3 1.4 4.5 5.5 11 7.2s13.6.4 17.2.8 7 1.7 11.2 2 9.9 0 12.2-4a5 5 0 0 0 0-3.3c-.9-.7-51.8-6.7-51.8-6.7" fill="#263238"/><path d="M392.3 396c-.7-.3-1.6 2-2.5 2.3-2.8 1-7 1-11.4 1.3-5.6.4-12-.3-15.5 1.7s-4 6.6 2.1 11.4c1.8 1.4 3.7 3.3 5.6 4 6.3 2.5 12.8 1 17 1.2 5.4.3 9.2 3 14 2.7 6.4-.5 9.7-2 10.4-5.8s-1.2-7.5-1.1-11.7c0-3 .7-4.3-.5-4.2a7 7 0 0 1-3.7 2.3c-4.7 1.4-6-.5-10.5 4.7-1.4 1.6-2.5 1-2.7.6q-1.4-1.4-1.2-5v-3.9Z" fill="#37474f"/><path d="M370.6 416.7s-2.4-14.6 5.5-17h1s-.1-1-3.3-1.2q-8.8-.7-12.4 3.2a8 8 0 0 0-1.4 7c.8 2.9 4 6.1 10.6 8" fill="#fafafa"/><path d="M374.6 408s.4-7 5-8.5a5 5 0 0 1 2.3-.1s-5 1.3-5.6 8.5c0 0 0 .5-1 .5-.2 0-.7 0-.7-.5" fill="#fafafa"/><path d="M385.6 399.1h-1l-1.2.2a9 9 0 0 0-4.3 8.6s-.1.6.7.4 1-.5 1-.5-.4-6 4.8-8.7m3.4-.5s-.2-.2-1 0q-1.2.3-1 .4c.2 0-4.4 3.2-3.4 8.3 0 0 0 .6.9.4s.8-.7.8-.7a9 9 0 0 1 3.7-8.4" fill="#fafafa"/><path d="M413.8 373.3c-.2 2.7-.5 5 .5 8 1.4 4 4.4 6 6.1 7.6a31 31 0 0 1 5.1 6.5c1.3 2 1.8 4.5 5.3 6.9a13 13 0 0 0 12.7-.1c2-1.4 3-2 2.8-5.7s-15-4.2-15-4.2Z" fill="#263238"/><path d="M445 385.3c.9.4 1 2.2 1.2 6 .1 2.7 1.3 6.8-2.4 8.5-3 1.4-8.5 3.1-13.7-1.3-3.2-2.7-4.3-6.2-7.8-10.2-3.1-3.4-6.3-4.6-7.7-11.5-.9-4.5-.2-6.3 2.7-7.6 4-1.7 10.1 4 13.2 4.9 2.7.8 13.5 10.9 14.4 11.2" fill="#37474f"/><path d="m430.5 374-.5-.1a10 10 0 0 0-8.6 5.8c-.5 1.3 1.2 2.2 2.1 1.3a11 11 0 0 1 8.6-5.9z" fill="#fafafa"/><path d="M433 376.2a10 10 0 0 0-7.9 5.8c-.5 1.2 1.1 2.1 2.1 1.2a11 11 0 0 1 7.1-5.6zm-16.6 5.7s.3-8.2 11-9.4l.6.4a9 9 0 0 0-5.2-4.3q-5.4-1.4-8.3 2.5c-2.9 3.9 0 9.2 1.9 10.8" fill="#fafafa"/><path d="M445.8 362.9s-.6 21.9-.8 23.2-.6 2.9-6 3.3-9.3-2.7-10-4.3-2.3-22.6-2.3-22.6Z" fill="#b16668"/><path d="M449 333c0-15.6-.9-21.4-.9-21.4s.7-20.7.6-42.6c-.2-30.4 1.8-36.5-3.2-53.1-8.2 7-41.6 9.7-59.9 5.2-.5 36.7.7 87 1.1 96.7a2972 2972 0 0 0 5.1 75.7c10 6 19.5-.3 19.5-.3s2.6-31 3.7-42c1.2-12-.4-29-.4-29s2.5-25.8 3.5-33l1.8 20.6c.8 9.6 1.5 13.7 3.1 32.5 1.7 18.3 4.5 39 4.5 39 10.7 3.4 18.3 0 18.3 0s3.3-37.2 3.3-48.3" fill="#455a64"/><path d="m418 289.3 3.6-29.8a32 32 0 0 0 19.3-7.4s-2.6 7.6-15.2 11.6l-5 25.6-1 19.6Z" fill="#37474f"/><path fill="#b16668" d="m409.6 142.7 2.1 15.5 21-1.1-2.2-16.7z"/><path d="M401.3 113.8c-1.7 2-6.7 8.2-6.9 9.4l4.1 2.5Z" fill="#9a4a4d"/><path d="M413 98.3c-6.6-.7-10.8 3.9-12.7 17.7 0 .5-.8 1.4-1.4 3.4-2.6 8.9-1.2 17.3.3 19.6 3.8 3 8 4.1 14 3.6 4.6-.4 16.4-1.8 22.4-8 7-7.3 10.5-18.4 5.6-24.1-7-8.1-24.7-11.9-28.3-12.2" fill="#b16668"/><path d="M399.2 139c.9 1.2 6.8 4.3 10.5 4.5l-.3-2.9a39 39 0 0 1-10.2-1.6" fill="#9a4a4d"/><path d="M411.7 122.5a1.2 1.2 0 0 0 2.1.3l2.4-2.7a6 6 0 0 1 4-1.4c5.4.4 4.1 7.6 1.4 10.1-4.3 4-6.7.6-6.7.6s-3.1 6.9 1.5 11c0 0 7.9 3.4 14 1.4 4.7-5 7.8-8.1 11-12.4 7.4-10.2 7.4-20.3 2.6-23.2.3-3.6-1.7-9-9.1-12.2-7-3-11.8-2.7-17-2.4s-11.4 2.6-16.2-1.4a10 10 0 0 0 .8 8.9 3.2 3.2 0 0 0-2.8 5.8 2.5 2.5 0 0 0-1.1 3 3 3 0 0 0 2.7 2l3.2-.2c1.5 4.2 6.2 5.6 9 5.5l-.5.6-.5.7-.6 1.6a9 9 0 0 0-.4 3.4z" fill="#263238"/><path d="M435.7 149c7.8-.4 15.5 2 20.3 12.8a428 428 0 0 1 13 32.6c1.2 3.6 3.2 6.9-3.5 13.3a108 108 0 0 1-20.9 14.8l-6.8-14.6 10.7-10.2-4.7-9.8Z" fill="#455a64"/><path d="M448.5 197.6a14 14 0 0 0 6.3 5.4c-3 .7-6.3-2.5-7.3-4.4Z" fill="#263238"/><path d="M441.3 151.3c5.4 3 9.6 13.2 9.2 21.7-.3 5.4-2.2 19.3-3.8 31.5-.5 3.9 1 10.4 1.8 18.3.5 5.8.6 12 .6 12s-7.3 9-27.4 10.2c-25.6 1.5-36.9-4.7-36.9-4.7s-.1-20.8.5-37.3c.9-24.5 1-31.7 4.8-40 1.2-2.5 2.6-8 6.7-9 3.3-.9 11-2.7 14-3.2 4.9 1.3 17.7 1.4 20.9-1.3v-.7c5.4 0 6.2.6 9.6 2.5" fill="#19b5b5"/><path d="M441.3 151.3c5.4 3 9.6 13.2 9.2 21.7-.3 5.4-2.2 19.3-3.8 31.5-.5 3.9 1 10.4 1.8 18.3.5 5.8.6 12 .6 12s-7.3 9-27.4 10.2c-25.6 1.5-36.9-4.7-36.9-4.7s-.1-20.8.5-37.3c.9-24.5 1-31.7 4.8-40 1.2-2.5 2.6-8 6.7-9 3.3-.9 11-2.7 14-3.2 4.9 1.3 17.7 1.4 20.9-1.3v-.7c5.4 0 6.2.6 9.6 2.5" fill="#fff" opacity=".4"/><path d="M315 133.8c-2.8-3.6-4.3-5-5.8-6s-6.6-4.7-8.7-5.8c-1.3-.7-2.4 1.4-1 3.3 1 1.6 4.1 4 5.5 5.3s3.4 5.8 3.4 5.8Z" fill="#9a4a4d"/><path d="M344.9 180.7c3 1.7 5.9 1.2 15.9.7 7.2-.4 17-.7 33.9-2.2 6.3-6.3 7.8-17.3 1.5-24-6.5-1.6-26.3 6.4-47.5 6 0 0-20.9-9.6-23.2-11.3s-6.5-10.7-8.1-13.3c-2.2-3.5-3.7-3.5-5.2-3.7-5-.5-6.2-.4-7.4 0a2 2 0 0 0-1.4 1.7c-1.4-.2-3.3-.8-4 1.3l-.6 1.6-1 .3c-1.4 1-.6 5.7.2 7q1 1.4 3.4 1.5c1.3.2 1-1.3 1-1.3l1.9.6c3.1 3.8 1.9 9.4 6.8 12a36 36 0 0 1 6 2.9 325 325 0 0 0 27.8 20.2" fill="#b16668"/><path d="m303.4 134.5 6 .3-5.7-1zm-4.6 3 6.8.9-6.6-1.7zm.2 3.1.6 1 1 .7.2 1h.2a1 1 0 0 0-1.1 0l-.8.6.8-.5h1l.2.2v-.3l-.3-1.1v-.1l-1-.6z" fill="#9a4a4d"/><path d="m300.5 142 2.3.7a3 3 0 0 0 .5 1.5l1 1.4-1.8-.6s-.3-1-1.8-1.7Z" fill="#9a4a4d"/><path d="M397.4 153.8a53 53 0 0 0-12.8 1.8c-4 1-18.2 3.8-22.3 4.2s-13.6.8-13.6.8l-12.7-5.4s-2.2.8-4.5 5.4-.8 11-.8 11l13.6 9.2c2.4 1.6 3.8 2 7.5 1.6s28.7-1.8 31.5-1.5 3.7 1.4 5.3 2.3 5.8-.7 8.5-4.8 8.4-18.6.3-24.6" fill="#455a64"/><path d="m418.7 85 3-5.8-2.4-7.3v-4.4l7.6 4.4v4.5l-3.3 5.7-.2.2Z" fill="#19b5b5"/><path d="m418.7 85 3-5.8-2.4-7.3v-4.4l7.6 4.4v4.5l-3.3 5.7-.2.2Z" opacity=".2"/><path d="M400.3 32.3a5 5 0 0 1 2.3-4l1.9-1.1a5 5 0 0 1 4.6 0l28.7 16.6a5 5 0 0 1 2.3 4v31.6a5 5 0 0 1-2.3 4l-1.8 1a5 5 0 0 1-4.6 0l-9.2-5.3-3.3 5.7a.5.5 0 0 1-1 0l-3.4-10-11.8-6.9a5 5 0 0 1-2.3-4Z" fill="#19b5b5"/><path d="M440.1 79.4a5 5 0 0 1-2.3 4l-1.8 1a5 5 0 0 1-4.2.3q1.7.5 1.9-1.5V51.5a5 5 0 0 0-.7-2.2l6.5-3.7a5 5 0 0 1 .7 2.2Z" opacity=".2"/><path d="M400.4 31.6q.6-1.6 2.2-.6l28.7 16.6a5 5 0 0 1 1.7 1.7l6.5-3.7a5 5 0 0 0-1.6-1.8L409 27.2a5 5 0 0 0-4.6 0l-1.9 1.1a5 5 0 0 0-2.2 3.3" fill="#fff" opacity=".3"/><path d="M413 68.9h-.3a2 2 0 0 1-1.8-1.4l-3.8-7.9a2.3 2.3 0 0 1 4.3-2l2.2 4.7 10.8-12.6a2.3 2.3 0 0 1 3.5 3l-13 15.4a2 2 0 0 1-1.9.8" fill="#fafafa"/></svg>