<svg xmlns="http://www.w3.org/2000/svg" viewBox="0 0 500 500"><path d="M101.2 426.6c85.2 45.5 223.2 45.5 308.3 0s85.2-119 0-164.5-223.1-45.5-308.3 0-85 119.1 0 164.5" fill="#f0f0f0"/><g fill="#e0e0e0"><path d="m252.7 365.4 62.2 35.8a3 3 0 0 0 2.6 0l110.1-63.6a.8.8 0 0 0 0-1.5l-62.2-35.8a3 3 0 0 0-2.6 0L252.7 364a.8.8 0 0 0 0 1.5"/><path d="M442.8 384c-.2-1.6-2.2-2.4-3.2-3l-42.5-24.6a6 6 0 0 0-6 0l-42.5 24.4c-1.3.7-3.3 2.1-3.3 3.7s1 2 3.1 3.2l42.2 24.4a7 7 0 0 0 7 0l43.5-25a3 3 0 0 0 1.7-3.1"/></g><path d="m297.7 257.9 10-5.8a5 5 0 0 1 4.4 0l62.8 36.3" fill="none" stroke="#19b5b5" stroke-miterlimit="10"/><path d="m293.7 255.6 14-8.2a5 5 0 0 1 4.4 0L379 286" fill="none" stroke="#19b5b5" stroke-miterlimit="10"/><path d="m383 283.7-71-41a5 5 0 0 0-4.3 0l-18.1 10.5" fill="none" stroke="#19b5b5" stroke-miterlimit="10"/><path d="M387 281.4 312 238a5 5 0 0 0-4.2 0l-22.3 13" fill="none" stroke="#19b5b5" stroke-miterlimit="10"/><path d="M234.6 45.8 170 83a5 5 0 0 0-2.2 3.8v177.9a5 5 0 0 0 2.2 3.7l64.7 37.4a5 5 0 0 0 4.4 0l64.7-37.4a5 5 0 0 0 2.1-3.7v-178a5 5 0 0 0-2.1-3.7L239 45.8a5 5 0 0 0-4.4 0" fill="#37474f"/><path d="M305.8 86.9v177.9a5 5 0 0 1-2.1 3.7L239 306a4 4 0 0 1-2.2.5v-183a5 5 0 0 0 2.2-.5l64.7-37.4.6-.5.8-.6a5 5 0 0 1 .7 2.4" fill="#263238"/><path d="m178 104.4 48.5 28a5 5 0 0 1 2.1 3.7v18.5c0 1.4-1 2-2.1 1.2l-48.5-28a5 5 0 0 1-2.2-3.7v-18.5c0-1.3 1-2 2.2-1.2" fill="#455a64"/><path d="M180 112.5a5 5 0 0 0 2 3.6l40.4 23.3q2 1 2.2-1a5 5 0 0 0-2.2-3.7l-40.3-23.3c-1.2-.7-2.2-.2-2.2 1.1" fill="#19b5b5"/><path d="M180 121.9a5 5 0 0 0 2 3.6l40.4 23.3q2 1 2.2-1.1a5 5 0 0 0-2.2-3.6l-40.3-23.3c-1.2-.7-2.2-.2-2.2 1" fill="#263238"/><path d="m182 120.8 22.3 12.8v4.7L182 125.5a5 5 0 0 1-2.2-3.6c0-1.3 1-1.8 2.2-1.1" fill="#19b5b5"/><path d="m178 137.2 48.5 28a5 5 0 0 1 2.1 3.8v18.4c0 1.4-1 2-2.1 1.3l-48.5-28a5 5 0 0 1-2.2-3.8v-18.4c0-1.4 1-2 2.2-1.3" fill="#455a64"/><path d="M180 145.3a5 5 0 0 0 2 3.6l40.4 23.3q2 1 2.2-1a5 5 0 0 0-2.2-3.7l-40.3-23.3c-1.2-.6-2.2-.1-2.2 1.1" fill="#19b5b5"/><path d="M180 154.7a5 5 0 0 0 2 3.6l40.4 23.3q2 1 2.2-1a5 5 0 0 0-2.2-3.7l-40.3-23.3c-1.2-.7-2.2-.2-2.2 1.1" fill="#263238"/><path d="m182 153.6 34.5 19.9v4.7L182 158.3a5 5 0 0 1-2.2-3.6c0-1.3 1-1.8 2.2-1" fill="#19b5b5"/><path d="m178 170 48.5 28a5 5 0 0 1 2.1 3.8v18.4c0 1.4-1 2-2.1 1.3l-48.5-28a5 5 0 0 1-2.2-3.7v-18.5c0-1.4 1-2 2.2-1.3" fill="#455a64"/><path d="M180 178.2a5 5 0 0 0 2 3.6l40.4 23.3q2 1 2.2-1.1a5 5 0 0 0-2.2-3.6L182.1 177q-2-1-2.2 1" fill="#19b5b5"/><path d="M180 187.6a5 5 0 0 0 2 3.6l40.4 23.3q2 .9 2.2-1.1a5 5 0 0 0-2.2-3.6l-40.3-23.3c-1.2-.7-2.2-.2-2.2 1" fill="#263238"/><path d="m182 186.5 14.2 8v4.8L182 191a5 5 0 0 1-2.2-3.5c0-1.3 1-1.8 2.2-1.1" fill="#19b5b5"/><path d="m178 202.9 48.5 28a5 5 0 0 1 2.1 3.7v18.5c0 1.4-1 2-2.1 1.2l-48.5-28a5 5 0 0 1-2.2-3.7V204c0-1.3 1-2 2.2-1.2" fill="#455a64"/><path d="M180 211a5 5 0 0 0 2 3.6l40.4 23.3q2 1 2.2-1.1a5 5 0 0 0-2.2-3.6l-40.3-23.3c-1.2-.7-2.2-.2-2.2 1.1" fill="#19b5b5"/><path d="M180 220.4a5 5 0 0 0 2 3.6l40.4 23.3q2 1 2.2-1.1a5 5 0 0 0-2.2-3.6l-40.3-23.3c-1.2-.7-2.2-.2-2.2 1" fill="#263238"/><path d="m182 219.3 22.3 12.8v4.7L182 224a5 5 0 0 1-2.2-3.6c0-1.3 1-1.8 2.2-1.1" fill="#19b5b5"/><path d="m178 235.7 48.5 28a5 5 0 0 1 2.1 3.8v18.4c0 1.4-1 2-2.1 1.3l-48.5-28a5 5 0 0 1-2.2-3.8V237c0-1.4 1-2 2.2-1.3" fill="#455a64"/><path d="M180 243.8a5 5 0 0 0 2 3.6l40.4 23.3q2 1 2.2-1a5 5 0 0 0-2.2-3.7l-40.3-23.2c-1.2-.7-2.2-.2-2.2 1" fill="#19b5b5"/><path d="M180 253.2a5 5 0 0 0 2 3.6l40.4 23.3q2 1 2.2-1a5 5 0 0 0-2.2-3.7l-40.3-23.3c-1.2-.7-2.2-.2-2.2 1.1" fill="#263238"/><path d="m182 252.1 30.4 17.5v4.7l-30.3-17.5a5 5 0 0 1-2.2-3.6q.2-2 2.2-1" fill="#19b5b5"/><path d="M247 134.8c2.2-1.3 4-.1 4 2.6v107.3a9 9 0 0 1-4 7.4c-2.3 1.3-4.1 0-4.1-2.7V142.2a9 9 0 0 1 4-7.4" fill="#37474f"/><path d="M247 249.7a5 5 0 0 0 2-3.7V138.5c0-1.4-1-2-2-1.4a5 5 0 0 0-2 3.7v107.6c0 1.3.8 2 2 1.3" fill="#263238"/><path d="M247 249.7a5 5 0 0 0 2-3.7v-51.4l-4.1 2.3v51.5c0 1.3 1 2 2 1.3" fill="#19b5b5"/><path d="M259.1 127.8c2.3-1.3 4-.1 4 2.6v107.3a9 9 0 0 1-4 7.3c-2.2 1.3-4 .2-4-2.6V135a9 9 0 0 1 4-7.3" fill="#37474f"/><path d="M259.1 242.7a5 5 0 0 0 2-3.7V131.4q-.2-2.2-2-1.3a5 5 0 0 0-2 3.7v107.5q.2 2.2 2 1.4" fill="#19b5b5"/><path d="M271.3 120.7c2.2-1.3 4 0 4 2.7v107.2a9 9 0 0 1-4 7.4c-2.2 1.3-4 .1-4-2.6V128a9 9 0 0 1 4-7.4" fill="#37474f"/><path d="M271.3 235.6a5 5 0 0 0 2-3.6V124.4q-.2-2.2-2-1.4a5 5 0 0 0-2 3.7v107.6q.2 2.2 2 1.3" fill="#263238"/><path d="M271.3 235.6a5 5 0 0 0 2-3.6v-83.1l-4 2.3v83.1q.2 2.2 2 1.3" fill="#19b5b5"/><path d="M283.5 113.7c2.2-1.3 4-.1 4 2.6v107.3a9 9 0 0 1-4 7.4c-2.2 1.3-4 .1-4-2.6V121a9 9 0 0 1 4-7.4" fill="#37474f"/><path d="M283.5 228.6a5 5 0 0 0 2-3.7V117.3c0-1.3-1-2-2-1.3a5 5 0 0 0-2 3.7v107.6q.2 2.2 2 1.3" fill="#263238"/><path d="M283.5 228.6a5 5 0 0 0 2-3.7v-18.1l-4 2.3v18.2q.2 2.2 2 1.3" fill="#19b5b5"/><path d="M295.7 106.7c2.2-1.3 4-.2 4 2.6v107.3a9 9 0 0 1-4 7.3c-2.3 1.3-4 .1-4-2.6V114a9 9 0 0 1 4-7.3" fill="#37474f"/><path d="M295.7 221.6a5 5 0 0 0 2-3.7V110.3c0-1.4-1-2-2-1.3a5 5 0 0 0-2 3.7v107.5q.2 2.2 2 1.4" fill="#263238"/><path d="M295.7 221.6a5 5 0 0 0 2-3.7v-56.1l-4 2.3v56.1q.2 2.2 2 1.4" fill="#19b5b5"/><path d="m244.6 265.1 53.4-30.8q1.6-.8 1.7 1v19.4a4 4 0 0 1-1.7 3l-53.4 30.9q-1.6.6-1.7-1V268a4 4 0 0 1 1.7-3" fill="#37474f"/><path d="M246.8 270.9c0 1.3 1 1.8 2.2 1l44.7-25.7a5 5 0 0 0 2.1-3.6c0-1.3-1-1.8-2.2-1.1L249 267.3a5 5 0 0 0-2.2 3.6" fill="#263238"/><path d="M246.8 270.9c0 1.3 1 1.8 2.2 1l32.5-18.7v-4.7L249 267.3a5 5 0 0 0-2.2 3.6" fill="#19b5b5"/><path d="M246.8 280.3c0 1.3 1 1.7 2.2 1l44.7-25.7a5 5 0 0 0 2.1-3.6c0-1.3-1-1.8-2.2-1.1L249 276.7a5 5 0 0 0-2.2 3.6" fill="#263238"/><path d="M246.8 280.3c0 1.3 1 1.7 2.2 1l12.2-7v-4.6l-12.2 7a5 5 0 0 0-2.2 3.6" fill="#19b5b5"/><path d="M303.7 83.1 239 45.8a5 5 0 0 0-4.3 0L169.9 83a1.3 1.3 0 0 0 0 2.5l64.7 37.4a5 5 0 0 0 4.4 0l64.7-37.4a1.3 1.3 0 0 0 0-2.5" fill="#455a64"/><path d="m235.5 114.1-50.2-29a3 3 0 0 1-1.3-2.2V81a3 3 0 0 1 1.3-2.2l50.2-29a3 3 0 0 1 2.6 0l50.2 29a3 3 0 0 1 1.3 2.2v1.7a3 3 0 0 1-1.3 2.3L238 114a3 3 0 0 1-2.6 0" fill="#263238"/><path d="m185.3 80.4 50.2 29a3 3 0 0 0 2.6 0l50.2-29q1-.7 0-1.5L238 51a3 3 0 0 0-2.6 0l-50.2 28q-1 .8 0 1.5" fill="#455a64"/><path d="M236.8 109.7v4.7l-1.3-.3-50.2-29a3 3 0 0 1-1.3-2.2v-1.7a3 3 0 0 1 1-2.1q-.7.7.2 1.3l50.3 29z" fill="#37474f"/><path d="m235.5 100-34-19.6a3 3 0 0 1-1.3-2.3v-1.6a3 3 0 0 1 1.3-2.3l21.8-12.5a9 9 0 0 0 2.2-2l10.4-14a2 2 0 0 1 2.2-.4l34 19.6a3 3 0 0 1 1.3 2.2v11a3 3 0 0 1-1.3 2.3L238 100a3 3 0 0 1-2.6 0" fill="#263238"/><path d="m238 95.3 22-12.5a9 9 0 0 0 2.2-2l10.3-14a1.3 1.3 0 0 0-.4-2l-34-19.6a2 2 0 0 0-2.2.4l-10.4 14a8 8 0 0 1-2 2l-22 12.5a.8.8 0 0 0 0 1.5l34 19.6a3 3 0 0 0 2.7.1" fill="#455a64"/><path d="m272 64.9-34-19.7a2 2 0 0 0-2.2.5l-10.4 14-1 1.1L261 82l1-1 10.5-14a1.3 1.3 0 0 0-.5-2" fill="#37474f"/><path d="M209.8 74.6a3 3 0 0 1 3 0 1 1 0 0 1 0 1.7 3 3 0 0 1-3 0 1 1 0 0 1 0-1.7m6.1 3.5a3 3 0 0 1 3 0 1 1 0 0 1 0 1.8 3 3 0 0 1-3 0 1 1 0 0 1 0-1.8" fill="#19b5b5"/><path d="M222 81.6a3 3 0 0 1 3 0 1 1 0 0 1 0 1.8 3 3 0 0 1-3 0 1 1 0 0 1 0-1.8m6 3.5a3 3 0 0 1 3 0 1 1 0 0 1 0 1.8 3 3 0 0 1-3 0 1 1 0 0 1 0-1.8" fill="#263238"/><ellipse cx="215.9" cy="72.8" rx="2.1" ry="1.2" fill="#19b5b5"/><path d="M220.4 75.5a3 3 0 0 1 3 0 1 1 0 0 1 0 1.7 3 3 0 0 1-3 0q-1.2-1 0-1.7" fill="#263238"/><ellipse cx="228" cy="79.9" rx="2.1" ry="1.2" fill="#19b5b5"/><path d="M232.6 82.5a3 3 0 0 1 3 0 1 1 0 0 1 0 1.7 3 3 0 0 1-3 0 1 1 0 0 1 0-1.7m-13.7-13.2a3 3 0 0 1 3 0 1 1 0 0 1 0 1.8 3 3 0 0 1-3 0 1 1 0 0 1 0-1.8" fill="#263238"/><path d="M225 72.8a3 3 0 0 1 3 0 1 1 0 0 1 0 1.8 3 3 0 0 1-3 0 1 1 0 0 1 0-1.8" fill="#19b5b5"/><path d="M231 76.3a3 3 0 0 1 3 0 1 1 0 0 1 0 1.8 3 3 0 0 1-3 0 1 1 0 0 1 0-1.8" fill="#263238"/><path d="M234.2 88.6a3 3 0 0 1 3 0 1 1 0 0 1 0 1.7 3 3 0 0 1-3 0 1 1 0 0 1 0-1.7" fill="#19b5b5"/><ellipse cx="240.3" cy="86.8" rx="2.1" ry="1.2" fill="#263238"/><path d="M237.2 79.9a3 3 0 0 1 3 0 1 1 0 0 1 0 1.7 3 3 0 0 1-3 0 1 1 0 0 1 0-1.7" fill="#263238"/><path d="M223.5 66.7a3 3 0 0 1 3 0 1 1 0 0 1 0 1.7 3 3 0 0 1-3 0 1 1 0 0 1 0-1.7" fill="#19b5b5"/><ellipse cx="231.1" cy="71.1" rx="2.1" ry="1.2" fill="#263238"/><path d="M235.7 73.7a3 3 0 0 1 3 0 1 1 0 0 1 0 1.8 3 3 0 0 1-3 0 1 1 0 0 1 0-1.8" fill="#19b5b5"/><ellipse cx="243.3" cy="78.1" rx="2.1" ry="1.2" fill="#263238"/><path d="M243.3 83.3a3 3 0 0 1 3 0 1 1 0 0 1 0 1.8 3 3 0 0 1-3 0 1 1 0 0 1 0-1.8" fill="#19b5b5"/><path d="M247.9 80.7a3 3 0 0 1 3 0q1.2.8 0 1.7a3 3 0 0 1-3 0 1 1 0 0 1 0-1.7" fill="#263238"/><path d="M236.9 95.7v4.6l-1.4-.3-34-19.6a3 3 0 0 1-1.3-2.2v-1.7a3 3 0 0 1 1-2.1q-.6.7.3 1.3l34 19.6z" fill="#37474f"/><path d="M230 59.1a1 1 0 0 1 1.5-.3l29.5 17a1 1 0 0 1 .3 1.3 1 1 0 0 1-1.5.4l-29.6-17a1 1 0 0 1-.2-1.4" fill="#263238"/><path d="M230 59.1a1 1 0 0 1 1.5-.3l22 12.7-1.3 1.7-22-12.7a1 1 0 0 1-.2-1.4" fill="#19b5b5"/><path d="M232.4 55.8a1 1 0 0 1 1.5-.3l29.5 17.1a1 1 0 0 1 .3 1.3 1 1 0 0 1-1.5.3l-29.5-17a1 1 0 0 1-.3-1.4" fill="#263238"/><path d="M232.4 55.8a1 1 0 0 1 1.5-.3l7.3 4.3-1.2 1.6-7.3-4.2a1 1 0 0 1-.3-1.4" fill="#19b5b5"/><path d="M234.9 52.6a1 1 0 0 1 1.4-.3l29.6 17a1 1 0 0 1 .3 1.3 1 1 0 0 1-1.5.3L235 54a1 1 0 0 1-.2-1.3" fill="#263238"/><path d="M234.9 52.6a1 1 0 0 1 1.4-.3l15.4 8.8-1.2 1.7-15.4-8.9a1 1 0 0 1-.2-1.3" fill="#19b5b5"/><path d="M237.3 49.3a1 1 0 0 1 1.5-.3l29.6 17a1 1 0 0 1 .2 1.3 1 1 0 0 1-1.4.3l-29.6-17a1 1 0 0 1-.3-1.3" fill="#263238"/><path d="M237.3 49.3a1 1 0 0 1 1.5-.3l26.8 15.5-1.2 1.6-26.8-15.5a1 1 0 0 1-.3-1.3" fill="#19b5b5"/><path d="m184 323.6 10-5.8a5 5 0 0 1 4.3 0L258 352a2.2 2.2 0 0 0 3.3-1.9V301" fill="none" stroke="#19b5b5" stroke-miterlimit="10"/><path d="m180 321.2 14-8.1a5 5 0 0 1 4.3 0l63.6 36.7a2.2 2.2 0 0 0 3.3-2V301" fill="none" stroke="#19b5b5" stroke-miterlimit="10"/><path d="m175.9 318.9 18.1-10.5a5 5 0 0 1 4.3 0l67.7 39a2.2 2.2 0 0 0 3.3-1.8v-44.3" fill="none" stroke="#19b5b5" stroke-miterlimit="10"/><path d="m171.8 316.5 22.2-12.8a5 5 0 0 1 4.3 0l71.7 41.4a2.2 2.2 0 0 0 3.3-1.9v-42" fill="none" stroke="#19b5b5" stroke-miterlimit="10"/><path d="M116.8 113.8 52.1 151a5 5 0 0 0-2.2 3.8v177.9a5 5 0 0 0 2.2 3.7l64.7 37.4a5 5 0 0 0 4.4 0l64.7-37.4a5 5 0 0 0 2.1-3.7v-178a5 5 0 0 0-2.1-3.7l-64.7-37.3a5 5 0 0 0-4.4 0" fill="#37474f"/><path d="M188 154.9v177.9a5 5 0 0 1-2.2 3.7L121.1 374a4 4 0 0 1-2.1.5v-183a5 5 0 0 0 2.1-.5l64.7-37.4.6-.5.8-.6a5 5 0 0 1 .8 2.4" fill="#263238"/><path d="m60.2 172.4 48.5 28a5 5 0 0 1 2.2 3.7v18.5q-.2 2.3-2.2 1.2l-48.5-28a5 5 0 0 1-2.2-3.7v-18.5c0-1.3 1-2 2.2-1.2" fill="#455a64"/><path d="M62.1 180.5a5 5 0 0 0 2.2 3.6l40.3 23.3q2 1 2.2-1a5 5 0 0 0-2.2-3.7l-40.3-23.3q-2-1-2.2 1.1" fill="#19b5b5"/><path d="M62.1 189.9a5 5 0 0 0 2.2 3.6l40.3 23.3q2 1 2.2-1.1a5 5 0 0 0-2.2-3.6l-40.3-23.3q-2-1-2.2 1" fill="#263238"/><path d="m64.3 188.8 22.2 12.8v4.7l-22.2-12.8a5 5 0 0 1-2.2-3.6q.2-2 2.2-1.1" fill="#19b5b5"/><path d="m60.2 205.2 48.5 28a5 5 0 0 1 2.2 3.8v18.4q-.2 2.2-2.2 1.3l-48.5-28a5 5 0 0 1-2.2-3.8v-18.4q.2-2.2 2.2-1.3" fill="#455a64"/><path d="M62.1 213.3a5 5 0 0 0 2.2 3.6l40.3 23.3q2 1 2.2-1a5 5 0 0 0-2.2-3.7l-40.3-23.2q-2-1-2.2 1" fill="#19b5b5"/><path d="M62.1 222.7a5 5 0 0 0 2.2 3.6l40.3 23.3q2 1 2.2-1a5 5 0 0 0-2.2-3.7l-40.3-23.3q-2-1-2.2 1.1" fill="#263238"/><path d="m64.3 221.6 34.4 19.9v4.7l-34.4-19.9a5 5 0 0 1-2.2-3.6q.2-2 2.2-1" fill="#19b5b5"/><path d="m60.2 238 48.5 28a5 5 0 0 1 2.2 3.8v18.4q-.2 2.2-2.2 1.3l-48.5-28a5 5 0 0 1-2.2-3.8v-18.4q.2-2.2 2.2-1.3" fill="#455a64"/><path d="M62.1 246.2a5 5 0 0 0 2.2 3.6l40.3 23.3q2 1 2.2-1.1a5 5 0 0 0-2.2-3.6L64.3 245q-2-1-2.2 1" fill="#19b5b5"/><path d="M62.1 255.6a5 5 0 0 0 2.2 3.6l40.3 23.2q2 1 2.2-1a5 5 0 0 0-2.2-3.6l-40.3-23.3q-2-1-2.2 1" fill="#263238"/><path d="m64.3 254.5 14 8v4.8l-14-8.1a5 5 0 0 1-2.2-3.6q.2-2 2.2-1.1" fill="#19b5b5"/><path d="m60.2 270.9 48.5 28a5 5 0 0 1 2.2 3.7v18.5q-.2 2.3-2.2 1.2l-48.5-28a5 5 0 0 1-2.2-3.7V272q.2-2.2 2.2-1.2" fill="#455a64"/><path d="M62.1 279a5 5 0 0 0 2.2 3.6l40.3 23.3q2 1 2.2-1.1a5 5 0 0 0-2.2-3.6l-40.3-23.3q-2-1-2.2 1.1" fill="#19b5b5"/><path d="M62.1 288.4a5 5 0 0 0 2.2 3.6l40.3 23.3q2 1 2.2-1a5 5 0 0 0-2.2-3.7l-40.3-23.3q-2-1-2.2 1" fill="#263238"/><path d="M64.3 287.3 86.5 300v4.7L64.3 292a5 5 0 0 1-2.2-3.6q.2-2 2.2-1.1" fill="#19b5b5"/><path d="m60.2 303.7 48.5 28a5 5 0 0 1 2.2 3.8v18.4q-.2 2.2-2.2 1.3l-48.5-28a5 5 0 0 1-2.2-3.8V305q.2-2.2 2.2-1.3" fill="#455a64"/><path d="M62.1 311.8a5 5 0 0 0 2.2 3.6l40.3 23.3q2 1 2.2-1a5 5 0 0 0-2.2-3.7l-40.3-23.2q-2-1-2.2 1" fill="#19b5b5"/><path d="M62.1 321.2a5 5 0 0 0 2.2 3.6l40.3 23.3q2 1 2.2-1a5 5 0 0 0-2.2-3.7l-40.3-23.3q-2-1-2.2 1.1" fill="#263238"/><path d="m64.3 320.1 30.3 17.5v4.7l-30.3-17.5a5 5 0 0 1-2.2-3.6q.2-2 2.2-1" fill="#19b5b5"/><path d="M129.1 202.8c2.3-1.3 4.1-.1 4.1 2.6v107.3a9 9 0 0 1-4 7.4c-2.3 1.3-4.1 0-4.1-2.7V210.2a9 9 0 0 1 4-7.4" fill="#37474f"/><path d="M129.1 317.7a5 5 0 0 0 2-3.7V206.5q-.2-2.2-2-1.4a5 5 0 0 0-2 3.7v107.6q.2 2.2 2 1.3" fill="#263238"/><path d="M129.1 317.7a5 5 0 0 0 2-3.7v-51.4l-4 2.3v51.5q.2 2.2 2 1.3" fill="#19b5b5"/><path d="M141.3 195.8c2.3-1.3 4-.2 4 2.6v107.3a9 9 0 0 1-4 7.3c-2.2 1.3-4 .2-4-2.6V203a9 9 0 0 1 4-7.3" fill="#37474f"/><path d="M141.3 310.7a5 5 0 0 0 2-3.7V199.4q-.2-2.2-2-1.3a5 5 0 0 0-2 3.7v107.5q.2 2.2 2 1.4" fill="#19b5b5"/><path d="M153.5 188.7c2.2-1.3 4 0 4 2.7v107.2a9 9 0 0 1-4 7.4c-2.2 1.3-4 .1-4-2.6V196a9 9 0 0 1 4-7.4" fill="#37474f"/><path d="M153.5 303.6a5 5 0 0 0 2-3.7V192.5q-.2-2.2-2-1.4a5 5 0 0 0-2 3.7v107.6q.2 2.2 2 1.3" fill="#263238"/><path d="M153.5 303.6a5 5 0 0 0 2-3.7v-83l-4 2.3v83.1q.2 2.2 2 1.3" fill="#19b5b5"/><path d="M165.7 181.7c2.2-1.3 4-.1 4 2.6v107.3a9 9 0 0 1-4 7.4c-2.2 1.3-4 .1-4-2.6V189a9 9 0 0 1 4-7.4" fill="#37474f"/><path d="M165.7 296.6a5 5 0 0 0 2-3.7V185.3c0-1.3-1-2-2-1.3a5 5 0 0 0-2 3.7v107.6q.2 2.2 2 1.3" fill="#263238"/><path d="M165.7 296.6a5 5 0 0 0 2-3.7v-18.1l-4 2.3v18.2q.2 2.2 2 1.3" fill="#19b5b5"/><path d="M177.9 174.7c2.2-1.3 4-.2 4 2.6v107.3a9 9 0 0 1-4 7.3c-2.3 1.3-4 .1-4-2.6V182a9 9 0 0 1 4-7.3" fill="#37474f"/><path d="M177.9 289.6a5 5 0 0 0 2-3.7V178.3c0-1.4-1-2-2-1.3a5 5 0 0 0-2 3.6v107.6q.2 2.2 2 1.4" fill="#263238"/><path d="M177.9 289.6a5 5 0 0 0 2-3.7v-56.1l-4 2.3v56.1q.2 2.2 2 1.4" fill="#19b5b5"/><path d="m126.8 333.1 53.4-30.8q1.7-.8 1.8 1v19.4a4 4 0 0 1-1.8 3l-53.4 30.9q-1.6.6-1.7-1V336a4 4 0 0 1 1.7-3" fill="#37474f"/><path d="M129 338.9c0 1.3 1 1.8 2.2 1l44.7-25.7a5 5 0 0 0 2.1-3.6q-.2-2-2.2-1.1l-44.6 25.8a5 5 0 0 0-2.2 3.6" fill="#263238"/><path d="M129 338.9c0 1.3 1 1.8 2.2 1l32.5-18.7v-4.7l-32.5 18.8a5 5 0 0 0-2.2 3.6" fill="#19b5b5"/><path d="M129 348.3c0 1.3 1 1.8 2.2 1l44.7-25.7a5 5 0 0 0 2.1-3.6q-.2-2-2.2-1l-44.6 25.7a5 5 0 0 0-2.2 3.6" fill="#263238"/><path d="M129 348.3c0 1.3 1 1.8 2.2 1l12.2-7v-4.6l-12.2 7a5 5 0 0 0-2.2 3.6" fill="#19b5b5"/><path d="m185.9 151.1-64.7-37.3a5 5 0 0 0-4.4 0L52.1 151a1.3 1.3 0 0 0 0 2.5l64.7 37.4a5 5 0 0 0 4.3 0l64.8-37.4a1.3 1.3 0 0 0 0-2.5" fill="#455a64"/><path d="m117.7 182.1-50.2-29a3 3 0 0 1-1.3-2.2v-1.7a3 3 0 0 1 1.3-2.3l50.2-29a3 3 0 0 1 2.6 0l50.2 29a3 3 0 0 1 1.3 2.3v1.7a3 3 0 0 1-1.3 2.2l-50.2 29a3 3 0 0 1-2.6 0" fill="#263238"/><path d="m67.5 148.4 50.2 29a3 3 0 0 0 2.6 0l50.2-29q1-.7 0-1.5l-50.2-28a3 3 0 0 0-2.6 0l-50.2 28q-1 .8 0 1.5" fill="#455a64"/><path d="M119 177.7v4.7l-1.3-.3-50.2-29a3 3 0 0 1-1.3-2.2v-1.7a3 3 0 0 1 1-2.1q-.6.7.3 1.3l50.2 29z" fill="#37474f"/><path d="m117.7 168-34-19.6a3 3 0 0 1-1.3-2.2v-1.7a3 3 0 0 1 1.3-2.3l21.8-12.6a9 9 0 0 0 2.2-2l10.4-14a2 2 0 0 1 2.1-.4l34 19.6a3 3 0 0 1 1.3 2.2v11.1a3 3 0 0 1-1.3 2.3l-34 19.6a3 3 0 0 1-2.5 0" fill="#263238"/><path d="m120.3 163.3 21.8-12.5a9 9 0 0 0 2.2-2l10.3-14a1.3 1.3 0 0 0-.4-2l-34-19.6a2 2 0 0 0-2.1.4l-10.4 14a8 8 0 0 1-2 2l-22 12.5a.8.8 0 0 0 0 1.5l34 19.6a3 3 0 0 0 2.6.1" fill="#455a64"/><path d="m154.2 132.9-34-19.7a2 2 0 0 0-2.1.5l-10.4 14-1.1 1.1 36.6 21.1 1-1 10.4-14a1.3 1.3 0 0 0-.4-2" fill="#37474f"/><path d="M92 142.6a3 3 0 0 1 3 0 1 1 0 0 1 0 1.7 3 3 0 0 1-3 0 1 1 0 0 1 0-1.7m6 3.5a3 3 0 0 1 3 0 1 1 0 0 1 0 1.8 3 3 0 0 1-3 0 1 1 0 0 1 0-1.8" fill="#19b5b5"/><path d="M104.2 149.6a3 3 0 0 1 3 0 1 1 0 0 1 0 1.8 3 3 0 0 1-3 0 1 1 0 0 1 0-1.8m6 3.5a3 3 0 0 1 3 0 1 1 0 0 1 0 1.8 3 3 0 0 1-3 0 1 1 0 0 1 0-1.8" fill="#263238"/><path d="M96.5 140a3 3 0 0 1 3 0 1 1 0 0 1 0 1.7 3 3 0 0 1-3 0 1 1 0 0 1 0-1.8" fill="#19b5b5"/><ellipse cx="104.2" cy="144.3" rx="2.1" ry="1.2" fill="#263238"/><path d="M108.7 147a3 3 0 0 1 3 0 1 1 0 0 1 0 1.8 3 3 0 0 1-3 0 1 1 0 0 1 0-1.8" fill="#19b5b5"/><ellipse cx="116.3" cy="151.4" rx="2.1" ry="1.2" fill="#263238"/><path d="M101.1 137.3a3 3 0 0 1 3 0 1 1 0 0 1 0 1.8 3 3 0 0 1-3 0 1 1 0 0 1 0-1.8" fill="#263238"/><path d="M107.2 140.8a3 3 0 0 1 3 0 1 1 0 0 1 0 1.8 3 3 0 0 1-3 0 1 1 0 0 1 0-1.8" fill="#19b5b5"/><path d="M113.3 144.3a3 3 0 0 1 3 0 1 1 0 0 1 0 1.8 3 3 0 0 1-3 0 1 1 0 0 1 0-1.8" fill="#263238"/><path d="M116.4 156.6a3 3 0 0 1 3 0 1 1 0 0 1 0 1.7 3 3 0 0 1-3 0 1 1 0 0 1 0-1.7" fill="#19b5b5"/><path d="M121 154a3 3 0 0 1 3 0 1 1 0 0 1 0 1.7 3 3 0 0 1-3 0 1 1 0 0 1 0-1.8m-1.6-6a3 3 0 0 1 3 0 1 1 0 0 1 0 1.7 3 3 0 0 1-3 0 1 1 0 0 1 0-1.7" fill="#263238"/><ellipse cx="107.2" cy="135.6" rx="2.1" ry="1.2" fill="#19b5b5"/><path d="M111.8 138.2a3 3 0 0 1 3 0 1 1 0 0 1 0 1.7 3 3 0 0 1-3 0q-1.4-.8 0-1.7" fill="#263238"/><ellipse cx="119.4" cy="142.6" rx="2.1" ry="1.2" fill="#19b5b5"/><path d="M124 145.2a3 3 0 0 1 3 0 1 1 0 0 1 0 1.8 3 3 0 0 1-3 0 1 1 0 0 1 0-1.8" fill="#263238"/><path d="M125.5 151.3a3 3 0 0 1 3 0 1 1 0 0 1 0 1.8 3 3 0 0 1-3 0 1 1 0 0 1 0-1.8" fill="#19b5b5"/><ellipse cx="131.6" cy="149.6" rx="2.1" ry="1.2" fill="#263238"/><path d="M119 163.7v4.6l-1.3-.3-34-19.6a3 3 0 0 1-1.3-2.2v-1.7a3 3 0 0 1 1-2.1q-.6.7.3 1.3l34 19.6z" fill="#37474f"/><path d="M112.2 127.1a1 1 0 0 1 1.4-.3l29.6 17a1 1 0 0 1 .3 1.4 1 1 0 0 1-1.5.3l-29.6-17a1 1 0 0 1-.2-1.4" fill="#263238"/><path d="M112.2 127.1a1 1 0 0 1 1.4-.3l22 12.7-1.2 1.7-22-12.7a1 1 0 0 1-.2-1.4" fill="#19b5b5"/><path d="M114.6 123.8a1 1 0 0 1 1.5-.3l29.5 17.1a1 1 0 0 1 .3 1.3 1 1 0 0 1-1.5.3l-29.5-17a1 1 0 0 1-.3-1.4" fill="#263238"/><path d="M114.6 123.8a1 1 0 0 1 1.5-.3l7.3 4.3-1.2 1.6-7.3-4.2a1 1 0 0 1-.3-1.4" fill="#19b5b5"/><path d="M117 120.6a1 1 0 0 1 1.5-.3l29.6 17a1 1 0 0 1 .2 1.3 1 1 0 0 1-1.4.3l-29.6-17a1 1 0 0 1-.2-1.3" fill="#263238"/><path d="M117 120.6a1 1 0 0 1 1.5-.3L134 129l-1.2 1.6-15.4-8.8a1 1 0 0 1-.3-1.3" fill="#19b5b5"/><path d="M119.5 117.3a1 1 0 0 1 1.5-.3l29.6 17a1 1 0 0 1 .2 1.3 1 1 0 0 1-1.4.3l-29.6-17a1 1 0 0 1-.3-1.3" fill="#263238"/><path d="M119.5 117.3a1 1 0 0 1 1.5-.3l26.8 15.5-1.2 1.6-26.8-15.5a1 1 0 0 1-.3-1.3" fill="#19b5b5"/><path d="M256.5 308.8v54.8a1 1 0 0 0 .7 1l52.5 30.4a1 1 0 0 0 1.3 0l1.7-1a2 2 0 0 0 .7-1.1V338a1 1 0 0 0-.8-.8L257.3 308a1 1 0 0 0-.8.8" fill="#fafafa"/><path d="M312.6 337.3h-1.5a1 1 0 0 0-.8.8v56.5q0 .6.7.4l1.7-1a2 2 0 0 0 .7-1.2v-54.7a1 1 0 0 0-.8-.8" fill="#f5f5f5"/><path d="M361 246v54.8a1 1 0 0 0 .7 1.1l54.6 31.5a2 2 0 0 0 1.3 0l1.7-1a1 1 0 0 0 .7-1.1v-54.8a1 1 0 0 0-.8-.7l-57.4-30.5a1 1 0 0 0-.7.8" fill="#e0e0e0"/><path d="M419.2 275.8h-1.5a1 1 0 0 0-.8.7V333q0 .6.7.4l1.7-1a1 1 0 0 0 .7-1.1v-54.8a1 1 0 0 0-.8-.7" fill="#ebebeb"/><path d="M251.4 307v-.4a3 3 0 0 1 1.3-2.3l110.1-63.6a3 3 0 0 1 2.6 0l58.4 33.7a3 3 0 0 1 1.3 2.3v.5a3 3 0 0 1-1.3 2.2L313.6 343a3 3 0 0 1-2.6 0l-58.3-33.7a3 3 0 0 1-1.3-2.2" fill="#f5f5f5"/><path d="M312.3 339.8v3.5l-1.3-.3-58.3-33.7a3 3 0 0 1-1.3-2.2v-.6a3 3 0 0 1 1-2q-.7.7.3 1.3l58.3 33.7z" fill="#ebebeb"/><path d="m252.7 305.8 58.3 33.7a3 3 0 0 0 2.6 0l110.1-63.6a.8.8 0 0 0 0-1.5l-58.3-33.7a3 3 0 0 0-2.6 0l-110.1 63.6a.8.8 0 0 0 0 1.5" fill="#fafafa"/><path d="m346.7 282.3 33-19a2 2 0 0 1 2.2 0l10.4 6q.9.7 0 1.3l-33 19a2 2 0 0 1-2.1 0l-10.5-6a.7.7 0 0 1 0-1.3m5.9-11.8-3.5-2a.5.5 0 0 1 0-1l27.4-15.8a.5.5 0 0 0 0-1l-.3-.2a2 2 0 0 0-1.7 0l-26.7 15.3q-.9.4-1 0v-.4l1.6-7.8a2 2 0 0 0-.7-1.5l-.3-.1a1 1 0 0 0-1 .4l-1.8 9.1v1a2 2 0 0 1-.6 1.5l-16.6 9.6q-.7.5 0 1l.3.2a2 2 0 0 0 1.7 0l15.9-9.2 1-.5 5.4 3.2a2 2 0 0 0 1.7 0l11.3-6.5q.8-.6.4-.8a2 2 0 0 0-1.4.1l-10.2 5z" fill="#ebebeb"/><path d="m381.7 260.7 9.9 5.7a2 2 0 0 1 0 3.6l-32 18.4a2 2 0 0 1-2 0l-10-5.7a2 2 0 0 1 0-3.6l32-18.4a2 2 0 0 1 2 0" fill="#37474f"/><path d="m358.6 288.6-1-.2-10-5.7a2 2 0 0 1 0-3.6l1-.6h10Z" fill="#263238"/><path d="m347.7 279.1 31.8-18.4a2 2 0 0 1 2.2 0l9.9 5.7a.7.7 0 0 1 0 1.2l-32 18.4a2 2 0 0 1-2 0l-10-5.6a.7.7 0 0 1 0-1.3" fill="#455a64"/><path d="m376.8 269.2 1-.6-1.2-.8h-.1l-1 .6v.1l1.1.7zm-2-2.3-1 .6 1.2.7h.1l1-.6-1.1-.7zm-3.2 1.9-1.7 1 1.1.7h.2l1.7-1-1.2-.7zm1.7-1-1 .5v.1l1.2.7h.2l1-.6-1.2-.7zm-3.9 2.2-1 .6 1.2.7h.1l1-.5v-.1l-1.1-.7zm-1.4.9-1 .5v.1l1.1.7h.2l1-.6-1.2-.7zm4.5 2.7 1-.6-1.1-.8h-.2l-1 .6v.1zm-1.5.8 1-.5v-.1l-1.1-.7h-.2l-1 .6zm-1.4.9 1-.6v-.1l-1.2-.7h-.1l-1 .6v.1l1.1.7zm-1.5.8 1-.6-1.1-.7h-.2l-1 .6zm7.2-6 1-.6v-.1l-1.1-.7h-.2l-1 .6 1.2.7h.1Zm-1.3 2.6 2.2-1.3-2.8-1.7h-.2l-1.1.7 1.5 1-1 .6 1.2.7zm-7.5-1-1 .6v.1l1.1.7h.2l1-.6v-.1l-1.2-.7zm-1.5.9-1 .6 1.2.7h.1l1-.6-1.1-.7zm-7.3 9.5h.1l1-.6-1.1-.8h-.2l-1 .6v.1Zm-4.4-2.7-1 .5v.1l1.1.7h.2l1-.6-1.2-.7zm2.3 2h.2l1-.6v-.1l-1.2-.7h-.1l-1 .6v.1Zm4.7 1.2 1-.6-1.2-.7h-.2l-1 .5v.1l1.2.7zm-1.7.9h.2l1-.6v-.1l-1.2-.7h-.1l-1 .6Zm-3.9-5-1 .6 1.2.8h.2l1-.6v-.1l-1.2-.7zm7.4-4.2-1 .6 1.1.7h.2l1-.6-1.2-.7zm-5.9 3.4-1 .6 1.2.7h.1l1-.6-1.1-.7zm7.3-4.3-1 .6v.1l1.2.7h.2l1-.6-1.2-.8zm-2.9 1.7-1 .6v.1l1.2.7h.1l1-.6v-.1l-1.1-.7zm-1.5.9-1 .6 1.2.7h.2l1-.6-1.2-.7zm-1.4.8-1 .6v.1l1.1.7h.2l1-.6v-.1l-1.2-.7zm7.5 1 1-.6-1.2-.7h-.1l-1 .5v.1l1.1.7zM378 265l-1 .6 1.1.7h.2l1-.5v-.1l-1.2-.7zm-1.8 1-1 .6 1.2.7h.1l1-.5v-.1l-1.1-.7zm3.2-1.9-1 .6v.1l1.2.7h.2l1-.6v-.1l-1.2-.7zM372 272l1-.6v-.1l-1.1-.7h-.2l-1 .6 1.2.8zm9.3-8.7h-.2l-1 .6 1.2.7h.1l1-.5v-.1ZM366.6 277l1-.6-1.1-.7h-.2l-1 .5v.1l1.2.7zm18-10.4 1-.6-1.1-.7h-.2l-1 .5v.1l1.2.7zm-3-.1 1-.6-1.2-.7h-.2l-1 .5v.1l1.2.7zm1.2-2.2h-.1l-1 .6 1.1.7h.2l1-.5v-.1Zm.3-.2 2.9 1.6h.1l1-.5v-.1l-2.8-1.6h-.2zm-3.4 1.9-1 .6 1.2.7h.2l1-.5v-.1l-1.2-.7zm-11 6.4-1 .6 1.2.7h.1l1-.6-1.1-.7zm14.3-5h.2l1-.5v-.1l-1.2-.7h-.2l-1 .6Zm-12.9 4.1-1 .6 1.2.7h.2l1-.5v-.1l-1.2-.7zm-11 9.7h.2l1-.6-1.2-.7h-.1l-1 .5v.1Zm-2.2-2-1 .5v.1l1.2.7h.1l1-.6-1.1-.8zm3.9 1.2 1-.6v-.1l-1.2-.7h-.2l-1 .6v.1l1.2.7zm1.4-.9 1-.6-1.1-.7h-.2l-1 .6zm1.5-.8 1-.6v-.1l-1.2-.7h-.1l-1 .6v.1l1.1.7zm-5.3-.4-1 .6 1.2.7h.1l1-.6-1.1-.7zm1.5-.9-1 .6v.1l1.1.7h.2l1-.6v-.1l-1.2-.7zm5.8-3.4-1 .6v.1l1.2.7h.2l1-.6-1.2-.8zm-1.4.9-1 .6 1.1.7h.2l1-.5v-.1l-1.2-.7zm2.9-1.7-1 .6 1.2.7h.1l1-.5v-.1l-1.1-.7zm-5.9 3.4-1 .6 1.2.7h.2l1-.5v-.1l-1.2-.7zm1.5-.9-1 .6v.1l1.2.7h.1l1-.6-1.1-.7zm-1 6 1-.5v-.1l-1.2-.7h-.2l-1 .6 1.2.8zm-8.7-.8-1.2-.7h-.1l-1 .6 1.1.8h.2zm2.2.6-1.2-.7h-.1l-1.6 1 1.2.7h.2l1.5-.9zm-4-2-1.2-.6h-.1l-1.3.7v.1l1.2.7h.2l1.2-.7zm1-.5h.2l1-.5v-.1l-1.2-.7h-.2l-1 .6Zm5 3.3-1-.7h-.2l-2 1.1 1.2.8h.1zm1 1.3-1-.7h-.2l-1.3.8 1.2.7h.1l1.3-.7zm5-10.9h.1l1-.5v-.1l-1.1-.7h-.2l-1 .6Zm-3 1.7h.2l1-.5v-.1l-1.2-.7h-.1l-1 .6Zm-6.5 3.8h.2l1-.6-1.2-.7h-.2l-1 .5v.1Zm8-4.6h.2l1-.6-1.2-.8h-.2l-1 .6v.1Zm-3 1.7h.2l1-.6-1.1-.8h-.2l-1 .6v.1Zm.4 8.4h-.2l-1.5 1 1.2.7h.1l1.6-.9Zm-2.4-7.2h.1l1-.6-1.1-.8h-.2l-1 .6v.1Zm-1.5.8h.2l1-.5v-.1l-1.2-.7h-.2l-1 .6Zm31-9.3-2.5 1.4v.1l1.2.7h.1l2.5-1.4v-.1Zm-3.2 1.9h-.2l-1 .6 1.2.7h.2l1-.6Zm-19.9 11 1-.6v-.1l-1.2-.7h-.1l-1 .6v.1l1.1.7zm17-9.3h-.2l-1 .5v.1l1.2.7h.2l1-.6Zm7.7-4.5h-.2l-1 .6v.1l1.2.7h.1l1-.6Zm2.6-.1-2.8-1.7h-.2l-1 .6v.1l2.8 1.6h.2zm-15.8 7.7-1.3.7v.1l1.2.7h.1l1.3-.7v-.1Zm3.7-2.1-1.6.9 1.2.7h.1l1.6-.9Zm-7 4h-.2l-8.3 4.9 1.1.7h.2l8.3-4.7v-.1Zm-8.8 5h-.2l-1.2.8v.1l1.1.7h.2l1.2-.7v-.1Zm10.4-6-1.3.8v.1l1.2.7h.1l1.3-.7v-.1Zm-12.1 7h-.2l-1.2.8v.1l1.1.7h.2l1.2-.7v-.1Zm15.5-9-1.3.8 1.2.8h.1l1.3-.8Zm5.3-3h-.2l-1 .7 1.2.7h.1l1-.5v-.1Zm3.2-2.3 1-.5v-.1l-1.2-.7h-.1l-1 .6 1.1.8zm-6.6 0 1-.5v-.1l-1.1-.7h-.2l-1 .6 1.2.8Zm-3.3 5.8 3-1.7-1.2-.8h-.2l-3 1.7v.1l1.2.7zm8.3-4.9h.1l1-.5v-.1l-1.1-.7h-.2l-1 .6Zm-1.5-1 1-.5v-.1l-1.2-.7h-.2l-1 .6 1.2.7zm-8.3 6.8 1-.6-1.2-.7h-.1l-1 .5v.1l1.1.7zm6.5-3.8h.1l1-.6v-.1l-1.1-.7h-.2l-1 .6Zm-13.9 8 1-.5v-.1l-1.1-.7h-.2l-1 .6 1.2.7zm1.5-.8 1-.6-1.1-.7h-.2l-1 .5v.1l1.2.7zm-3 1.6 1-.6-1-.7h-.2l-1 .5v.1zm6-3.4 1-.6-1.2-.7h-.2l-1 .6 1.2.7zm-1.5.9 1-.6v-.1l-1.2-.7h-.1l-1 .6v.1l1.1.7zm2.9-1.7 1-.6-1.2-.7h-.1l-1 .5v.1l1.1.7zm6.7-12.5h.2l1-.6v-.1l-.3-.2h-.2l-1 .6Zm-7.2 4.6h.1l1-.6-1.1-.7h-.2l-1 .6Zm3-1.7 1-.6-1-.7h-.2l-1 .6Zm-4.8 2.8h.2l1-.6-1.2-.7h-.1l-1 .5v.1Zm3.3-1.9h.1l1-.6-1.1-.7h-.2l-1 .5v.1Zm-6.2 3.6h.1l1-.6-1.1-.7h-.2l-1 .5v.1Zm1.5-.8h.1l1-.6v-.1l-1.1-.7h-.2l-1 .6Zm7.5-4.9h.2l1-.6-.3-.3h-.2l-1 .6v.1Zm4.4-2.5h.2l1-.6v-.1l-.3-.2h-.2l-1 .6Zm2.4 1.4h.2l1-.6v-.1l-1.2-.7h-.1l-1 .6v.1Zm3.7 3.7 1-.6-1.2-.7h-.1l-1 .5v.1l1.1.7zm-9-3.4 1-.6v-.1l-.3-.2h-.2l-1 .6Zm-12 7.4h.2l1-.6v-.1l-1.2-.7h-.2l-1 .6Z" fill="#19b5b5"/><path d="m364.6 262.4-12 7-4.6-2.7a3 3 0 0 1-1.1-2.4l1.7-8.8 10-8.1 2 1.1-1.7 8.8a3 3 0 0 0 1.1 2.4Z" fill="#455a64"/><path d="M352.6 269.3v2.3l-6.3-3.6a4 4 0 0 1-1.6-3.6l1.9-10.1 2 1.1-1.7 8.8a3 3 0 0 0 1.1 2.5z" fill="#263238"/><path fill="#37474f" d="m364.6 262.4-12 6.9v2.3l12-6.9z"/><path d="M375.6 204a2 2 0 0 1 1 1.8v36.8a2 2 0 0 1-1 1.9l-46 26.5a2 2 0 0 1-3-1.8v-36.8a2 2 0 0 1 1-1.8l46-26.5a2 2 0 0 1 2-.1" fill="#455a64"/><path d="M329.6 271a2 2 0 0 1-3-1.8v-36.8l.3-1 35.7 20.6Z" fill="#263238"/><path d="M376.6 242.7v-36.9q-.1-1-1-.6l-46 26.5a2 2 0 0 0-1 1.9v36.8q0 1.1 1 .6l46-26.5a2 2 0 0 0 1-1.8" fill="#37474f"/><path d="m374 207.3-43.6 25.1a2 2 0 0 0-.8 1.5v32.7q0 .9.8.5L374 242a2 2 0 0 0 .9-1.5v-32.7q0-1-.9-.5" fill="#fff"/><path d="m313 326.6-25.8-15a3 3 0 0 1-1.3-2.2v-15.7a3 3 0 0 1 1.3-2.3l17.7-10.2a3 3 0 0 1 2.6 0l25.9 14.9a3 3 0 0 1 1.3 2.3V314a3 3 0 0 1-1.3 2.3l-17.7 10.2a3 3 0 0 1-2.6 0" fill="#263238"/><path d="m315.7 307.8 17.7-10.2a.8.8 0 0 0 0-1.5l-25.9-15a3 3 0 0 0-2.6 0l-17.7 10.3a.8.8 0 0 0 0 1.5l25.9 15a3 3 0 0 0 2.6 0" fill="#455a64"/><path d="M314.4 308.1V327l-1.3-.3-25.9-15a3 3 0 0 1-1.3-2.2v-15.7a3 3 0 0 1 1-2q-.5.7.4 1.2l25.8 15zm-20.7-15.7a2 2 0 0 1 1.7 0L314 303q.8.5 0 1a2 2 0 0 1-1.7 0l-18.6-10.7q-.7-.6 0-1" fill="#37474f"/><path d="M293.7 292.4a2 2 0 0 1 1.7 0l11.3 6.5-1.7 1-11.3-6.5q-.7-.6 0-1" fill="#19b5b5"/><path d="M297 290.5a2 2 0 0 1 1.6 0l18.6 10.7q.7.6 0 1a2 2 0 0 1-1.7 0L297 291.5q-.7-.5 0-1" fill="#37474f"/><path d="M297 290.5a2 2 0 0 1 1.6 0l1.5.9-1.6 1-1.5-.9q-.7-.5 0-1" fill="#19b5b5"/><path d="M300.2 288.6a2 2 0 0 1 1.6 0l18.6 10.8q.8.4 0 1a2 2 0 0 1-1.7 0l-18.6-10.8q-.6-.4 0-1" fill="#37474f"/><path d="M300.2 288.6a2 2 0 0 1 1.6 0l6.6 3.8-1.7 1-6.5-3.8q-.7-.4 0-1" fill="#19b5b5"/><path d="M303.4 286.8a2 2 0 0 1 1.7 0l18.5 10.7q.8.5 0 1a2 2 0 0 1-1.7 0l-18.5-10.7q-.7-.5 0-1" fill="#37474f"/><path d="M303.4 286.8a2 2 0 0 1 1.7 0l13.3 7.7-1.7 1-13.3-7.7q-.7-.5 0-1" fill="#19b5b5"/><path d="M306.6 285a2 2 0 0 1 1.7 0l18.6 10.6q.7.6 0 1a2 2 0 0 1-1.7 0L306.6 286q-.7-.5 0-1" fill="#37474f"/><path d="M306.6 285a2 2 0 0 1 1.7 0l16.7 9.6-1.7 1-16.7-9.7q-.7-.5 0-1" fill="#19b5b5"/><path d="M316.4 321.5v-3.2a3 3 0 0 1 1-2.1q1-.4 1 .9v3.2a3 3 0 0 1-1 2q-.9.5-1-.8" fill="#37474f"/><path d="M317.5 316.7a2 2 0 0 0-.7 1.1q0 .7.7.4a2 2 0 0 0 .6-1.2q0-.7-.6-.3" fill="#19b5b5"/><path d="M319.6 319.6v-3.2a3 3 0 0 1 1-2q1-.5 1 .9v3.1a3 3 0 0 1-1 2.1q-.9.5-1-.9" fill="#37474f"/><path d="M320.6 318.5a2 2 0 0 0-.7 1.2q.1.7.7.4a2 2 0 0 0 .7-1.2q0-.6-.7-.4" fill="#19b5b5"/><path d="M379.5 359q.4.9.8 3.3a7 7 0 0 1 .3 3.6 7 7 0 0 1-4 3.1q-3.3 1-7.1-1.3c-3.8-2.3-4.4-3.3-7.9-4.3s-5.3-1.8-7-3.2c-2-1.5-3.2-3.9.5-4.9s10.5.6 18 .9Z" fill="#263238"/><path d="M379.5 354.5v5.5s-.8 1.8-4 2a5 5 0 0 1-4.1-2v-5.5Z" fill="#ffa8a7"/><path d="M368.9 318.2c0 6.9 2 38.7 2 38.7s2.8 3.5 8.9 0l2-35.3Z" fill="#37474f"/><path d="M362.8 369.9q.4.8.9 3.3a4.6 4.6 0 0 1-3.8 6.7q-3.2.8-7.1-1.4c-3.9-2.2-4.4-3.3-7.9-4.3s-5.3-1.8-7-3.1c-2-1.6-3.2-4 .5-5s10.6.6 18 1Z" fill="#263238"/><path d="M362.8 365.3v5.5s-.7 1.9-3.9 2a5 5 0 0 1-4.2-2v-5.5Z" fill="#ffa8a7"/><path d="M352.3 329c0 6.9 1.9 38.7 1.9 38.7s2.8 3.6 9 0l2-35.3Z" fill="#37474f"/><path d="M373.7 394.4v.8a2 2 0 0 0 .8 1.1 2 2 0 0 0 2.1-.2 7 7 0 0 0 3-5 2 2 0 0 0-.8-2h-1.4l-.7.2a7 7 0 0 0-3 5.1" fill="#455a64"/><path d="m374.5 388.1 1.3-.4.8.2h.1l2 1.1a2 2 0 0 0-1.3 0l-.8.3a7 7 0 0 0-3 5.1l.2.8.7 1-2-1-.2-.2a2 2 0 0 1-.8-1.8 7 7 0 0 1 3-5.1" fill="#263238"/><path d="m405.6 377.3.1.7a2 2 0 0 0 .7 1.1 2 2 0 0 0 2.1-.2 7 7 0 0 0 3-5 2 2 0 0 0-.8-2h-.1a2 2 0 0 0-1.3 0l-.7.3a7 7 0 0 0-3 5" fill="#455a64"/><path d="m406.4 371 1.4-.5.8.3 2 1a2 2 0 0 0-1.3 0l-.7.4a7 7 0 0 0-3 5l.1.9.7 1-2-1.1-.2-.1a2 2 0 0 1-.7-1.8 7 7 0 0 1 3-5.2" fill="#263238"/><path d="m400 401.2-.1.7a2 2 0 0 1-.7 1.1 2 2 0 0 1-2.2-.2 7 7 0 0 1-3-5 2 2 0 0 1 .8-2h1.4l.8.3a7 7 0 0 1 3 5" fill="#455a64"/><path d="m399.1 394.8-1.3-.4-.8.2-2 1.1a2 2 0 0 1 1.3 0l.7.4a7 7 0 0 1 3 5l-.1.8a2 2 0 0 1-.7 1.1l2-1.1.1-.1a2 2 0 0 0 .8-1.8 7 7 0 0 0-3-5.2" fill="#263238"/><path d="m420.7 391-.1.8-.7 1a2 2 0 0 1-2.2-.1 7 7 0 0 1-3-5.1 2 2 0 0 1 1-1.9 2 2 0 0 1 1.3-.1l.7.3a7 7 0 0 1 3 5.1" fill="#455a64"/><path d="m419.9 384.7-1.4-.5-.8.3-2 1a2 2 0 0 1 1.3 0l.7.4a7 7 0 0 1 3 5v.8a2 2 0 0 1-.8 1.1l2-1.1.2-.1a2 2 0 0 0 .7-1.8 7 7 0 0 0-3-5.2" fill="#263238"/><path d="M380.6 378.5v.8a2 2 0 0 1-.8 1 2 2 0 0 1-2.1 0 7 7 0 0 1-3-5.2 2 2 0 0 1 .9-1.9 2 2 0 0 1 1.3 0l.8.2a7 7 0 0 1 2.9 5.1" fill="#455a64"/><path d="m379.8 372.2-1.3-.4-.9.2-2 1.1a2 2 0 0 1 1.3 0l.7.3a7 7 0 0 1 3 5.1v.8a2 2 0 0 1-.8 1l2-1 .1-.2a2 2 0 0 0 .8-1.8 7 7 0 0 0-3-5.1" fill="#263238"/><path fill="#f5f5f5" d="m398.2 372.3 10.6-3v2.2l-10.6 6.1z"/><path fill="#fafafa" d="m398.2 372.3-1-.6 10.6-2.9 1 .5z"/><path fill="#f5f5f5" d="m393.7 379-15-5.6v-2.3l15 1.4z"/><path fill="#fafafa" d="m378.7 371.1 1.1-.2 14.7.9-.8.7z"/><path d="M393.3 378.3c0 1.7 5.1 1.7 5.1 0v-14.8h-5.1Z" fill="#fafafa"/><path d="M397.2 374.5 400 393h-2l-2.7-18.6a3 3 0 0 0 1.8 0" fill="#fafafa"/><path fill="#f5f5f5" d="M395.4 374.5v5.1l2.7 16.6V393z"/><path fill="#ebebeb" d="M398.1 393h1.9v3.1h-1.9z"/><path fill="#f5f5f5" d="m394.5 379.4-19.3 10.1v-3.1l19.3-11.9z"/><path d="M394.5 374.5a2 2 0 0 1-1.2-.6L374 385.6l1.2.8Z" fill="#fafafa"/><path fill="#ebebeb" d="M375.2 389.5v-3.1l-1.2-.8v3z"/><path fill="#f5f5f5" d="m418.8 385.9-20.6-7v-4.6l20.6 8.5z"/><path d="M398.2 374.3q.2-.1.3-.8l20.9 9-.6.3Z" fill="#fafafa"/><path fill="#ebebeb" d="M419.4 382.6v3l-.6.3v-3.1z"/><path d="M400.3 337.8h-8.9v30.4c0 2.6 8.9 2.6 8.9 0Z" fill="#f0f0f0"/><path d="M362 340.5a4 4 0 0 1 2.2-3.8l30.8-17.8a4 4 0 0 1 4.4 0l30.8 17.8a4 4 0 0 1 2.2 3.8l-35.2 20.3Z" fill="#19b5b5"/><path d="M362 340.5v2.5l33 19.1a4 4 0 0 0 2.2.6 4 4 0 0 0 2.2-.6l33-19v-2.6l-33 19a4 4 0 0 1-2.2.7 4 4 0 0 1-2.2-.6Z" fill="#fafafa"/><path d="M362 340.5v2.5l33 19.1a4 4 0 0 0 2.2.6v-2.5a4 4 0 0 1-2.2-.6Z" fill="#f5f5f5"/><path d="M362 340.5a4 4 0 0 1 .5-2l33.2 19.2a3 3 0 0 0 3 0l33.2-19.2a4 4 0 0 1 .5 2l-35.2 20.3z" opacity=".1"/><path d="M421.7 326.7s-28.6-8.7-33.5-10-14.5-3.7-17.3-2.5-4.2 2.7-4.5 6.7v4.5s13.8 4.3 25.2 4.3 30-3 30-3" fill="#263238"/><path fill="#ffa8a7" d="m397.3 278.1 1.9 10.2 10.5 1.3-1.5-14.2z"/><path d="M387.5 270s-1.4 4.1-1 4.4l2.3.1Z" fill="#f28f8f"/><path d="M390.2 256.4c-1.8 1.9-3.5 5-2.8 13.1.8 8.9 3.5 11.2 4.6 11.8 1.7.7 7.3-.6 9.2-2a21 21 0 0 0 7.7-11.1c1.4-6.1-.3-13.1-4.8-14.5-6.3-2-12.4 1-14 2.7" fill="#ffa8a7"/><path d="M386 260.7c1.1 2 3.2 7 8.9 8.5 0 0 .3-3.4 3.2-3.4s3.8 3.4 2.4 5.9-3.2 1.9-3.2 1.9.3 4.8 3.7 6.5a9 9 0 0 0 8-.5c1.8-1.1 3.7-5.9 4.8-9.7 2.1-8 1.7-14.2-3.4-15.5-1-3.4-2.8-4.4-6-4.7-7-.4-11.4 4.7-17.2 4.7-3 0-2.4 4-1.1 6.3" fill="#263238"/><path d="m410.3 255 3.5-1.5a1.9 1.9 0 1 0-3.5 1.5" fill="#263238"/><path d="M421.6 323.2c0 5.5.5 11.2-1.8 15.2s-12.6 12.3-24.3 10.4c-7.6-1.3-32.2-10.7-32.2-10.7s-11-4-11-7V329c.2-3.8 1.7-8 9.7-7.7 8.7.2 34.6 4.4 34.6 4.4Z" fill="#37474f"/><path d="M419.6 287.7c-1-2.8-4.6-6-8.2-5.3a164 164 0 0 0-16 4s.9 14.8-6.7 19.2l-1 18.8a16 16 0 0 0 4.8 5.6c3.1 2 7.5 5 15.3 4.3a19 19 0 0 0 13.9-7.6s-.1-17.8-.4-25.7q-.5-10.2-1.7-13.3" fill="#455a64"/><path d="M388.6 309.2a25 25 0 0 0 5.3-8.8s0 7-5.4 10.7Z" fill="#37474f"/><path d="M395.4 286.4c-4 1.3-6.6 1.5-11.2 8.5s-14.5 21-15.5 22.6c-1.4 2.3-2 5-.8 7.2s4.4 1.1 8.9-2.8 13-14.7 13-14.7a75 75 0 0 0 5.6-20.8" fill="#ffa8a7"/><path d="M395.4 286.4a31 31 0 0 0-6 1.9 10 10 0 0 0-4.4 3.7l-7.7 12.8s-.8 6.6 7.1 8.9l4.3-4.6a24 24 0 0 0 4.2-6.3c1.8-4 3.8-10.2 2.5-16.4" fill="#455a64"/><path d="M369.3 325.7c-3.8-.5-12.4-12.2-15.2-16s-5.3-5.9-7.8-7.3a10 10 0 0 1-5.5-8c-.7-4.3 3.2-7 6.4-2.7 2 2.6 4 4.3 4.2 3.9s-.6-2.3-.6-4.3c0-2.3 1.6-.8 2.1 0l1.7 3.9c.8 2 .5 4.2 1.5 5.6s14.3 14.2 14.3 14.2Z" fill="#ffa8a7"/><path fill="#19b5b5" d="M434.1 289.7V329l-31.3 18.1v-39.3z"/><path opacity=".1" d="M434.1 289.7V329l-31.3 18.1v-39.3z"/><path d="m400 345.5 2.8 1.6v-36q0-2.5 1.2-3c2.4-1.4 5.6 1.7 5.6 1.7v-2.6l30.1-17.5c-2.8-1.6-4.7-2.7-10.4.5l-25.2 14.6c-2.1 1.3-4.1 2.9-4.1 6.4Z" fill="#19b5b5"/><path d="M404.1 304.8c2.6-1.7 19.5-11.3 25.2-14.6s7.6-2.1 10.4-.5l-30.1 17.5a8 8 0 0 0-5.5-2.4" fill="#fff" opacity=".4"/><path fill="#19b5b5" d="m409.6 309.8 30.1-17.5v-2.6l-30.1 17.5z"/><path opacity=".2" d="m409.6 309.8 30.1-17.5v-2.6l-30.1 17.5z"/><path d="m410 359.6 1.4-.3a3 3 0 0 0 1.3-2.4v-20.6a1.4 1.4 0 0 0-2.8 0v20.5l-2.2-1.3a1.4 1.4 0 0 0-1.9.5 1.4 1.4 0 0 0 .5 2l2.3 1.3zm17-9.9 1.4-.4a3 3 0 0 0 1.4-2.4v-20.6a1.4 1.4 0 0 0-2.8 0v20.5l-2.2-1.2a1.4 1.4 0 0 0-2 .5 1.4 1.4 0 0 0 .6 1.9l2.3 1.3z" fill="#e6e6e6"/></svg>