<svg xmlns="http://www.w3.org/2000/svg" viewBox="0 0 500 500"><ellipse cx="250" cy="319" rx="241.9" ry="148.1" fill="#f5f5f5"/><path d="M450.3 288c-9.3.9-19.2 15.9-22.2 31.7-1.7 9.3-1.4 20.4-1.6 27.8l3.3 2 1.1.7 3.2 1.8 2.5 1.5c.4-8 1.5-13.8 3.3-19a48 48 0 0 1 4.7-10c3.9-6.2 9.3-12.1 11.8-16.4 6.3-10.6 2.6-20.9-6-20.1" fill="#19b5b5"/><path d="M450.3 288c-9.3.9-19.2 15.9-22.2 31.7-1.7 9.3-1.4 20.4-1.6 27.8l3.3 2 1.1.7 3.2 1.8 2.5 1.5c.4-8 1.5-13.8 3.3-19a48 48 0 0 1 4.7-10c3.9-6.2 9.3-12.1 11.8-16.4 6.3-10.6 2.6-20.9-6-20.1" fill="#fff" opacity=".7"/><path d="M452.2 294.6c-10.7 8.3-20.8 31-21.3 55.6l-1-.7c.7-24.6 10.8-47.4 21.6-55.8a.6.6 0 0 1 .6.9" fill="#fff"/><path d="M456.2 318.3a30 30 0 0 0-9.5 6.4 64 64 0 0 0-6.8 9.7 51 51 0 0 0-5.8 17.6l6.7 4a32 32 0 0 1 5-8.6c6.9-9 20.5-14 22.2-19.6 2-6.6-2.1-12.4-11.8-9.5" fill="#19b5b5"/><path d="M456.2 318.3a30 30 0 0 0-9.5 6.4 64 64 0 0 0-6.8 9.7 51 51 0 0 0-5.8 17.6l6.7 4a32 32 0 0 1 5-8.6c6.9-9 20.5-14 22.2-19.6 2-6.6-2.1-12.4-11.8-9.5" fill="#fff" opacity=".3"/><path d="m436.6 353.5 1 .6a43 43 0 0 1 21.7-29.6l.3-.8-.7-.3a43 43 0 0 0-22.3 30" fill="#fff"/><path d="M390 412.2a5.5 5.5 0 0 1-5.3-4.4l-1-4.7-6-1.6-9.2 4.3a6 6 0 0 1-2.6.6 6 6 0 0 1-3.2-.8l-9.5-5.5a4.7 4.7 0 0 1-.4-8l5-3.6-.7-1-11.5-.7a5.3 5.3 0 0 1-5-5.3v-7a5.3 5.3 0 0 1 5-5.2l11.5-.7.7-1-5-3.6a4.7 4.7 0 0 1 .4-8l9.5-5.5a6 6 0 0 1 3.2-.8 6 6 0 0 1 2.6.6l9.2 4.3 6-1.6 1-4.7a5.5 5.5 0 0 1 5.3-4.4h14a5.5 5.5 0 0 1 5.3 4.4l.9 4.8 6 1.4 9.3-4.2a6 6 0 0 1 2.6-.6 6 6 0 0 1 3.1.8l9.5 5.5a4.7 4.7 0 0 1 .4 8l-5 3.6.7 1 11.5.7a5.3 5.3 0 0 1 5 5.2v7a5.3 5.3 0 0 1-5 5.3l-11.5.7-.7 1 5 3.6a4.7 4.7 0 0 1-.4 8l-9.5 5.5a6 6 0 0 1-3.1.8 6 6 0 0 1-2.6-.6l-9.3-4.3-6 1.5-1 4.8a5.5 5.5 0 0 1-5.3 4.4Zm7-43.3a29 29 0 0 0-14 3.3q-4.6 2.7-4.6 5.8c0 3.1 1.7 4 4.6 5.8a31 31 0 0 0 28 0q4.6-2.7 4.6-5.8c0-3.1-1.7-4-4.6-5.8a29 29 0 0 0-14-3.3" fill="#e0e0e0"/><path d="m438.7 351.2-9.5-5.5a3 3 0 0 0-2-.1l-9.6 4.4a4 4 0 0 1-2.2.1 56 56 0 0 0-7.5-1.7 2 2 0 0 1-1.4-1.4l-1.2-6.3a2 2 0 0 0-1.4-1.2H390a2 2 0 0 0-1.4 1.2l-1.2 6.3a2 2 0 0 1-1.4 1.4 56 56 0 0 0-7.4 1.8 4 4 0 0 1-2.2-.2l-9.6-4.4a3 3 0 0 0-2.1 0l-9.5 5.5-.4.7v8.2l.3.6 4.4 3.2-1 .4-12.7.8a1.3 1.3 0 0 0-1.2 1.3v15.2a1.3 1.3 0 0 0 1.2 1.3l12.6.8 1.1.4-4.3 3.1-.4.7v8.2l.4.6 9.5 5.5a3 3 0 0 0 2.1 0l9.6-4.4a3 3 0 0 1 2.2 0 59 59 0 0 0 7.4 1.7 2 2 0 0 1 1.4 1.3l1.2 6.3a2 2 0 0 0 1.4 1.2h14a2 2 0 0 0 1.4-1.2l1.2-6.3a2 2 0 0 1 1.4-1.3 59 59 0 0 0 7.4-1.8 3 3 0 0 1 2.2.1l9.6 4.5a3 3 0 0 0 2.1-.1l9.5-5.5.4-.6v-8.2l-.3-.7-4.4-3.1 1.1-.4 12.6-.8a1.3 1.3 0 0 0 1.2-1.3v-15.2a1.3 1.3 0 0 0-1.2-1.3l-12.6-.8-1.1-.5 4.3-3 .4-.7v-8.2zm-63.9 21.2q1-3.5 6.2-6.5a35 35 0 0 1 32 0q4.8 3 6.3 6-1.2 4-6.3 7a35 35 0 0 1-32 0 13 13 0 0 1-6.2-6.5" fill="#19b5b5"/><path d="m438.7 351.2-9.5-5.5a3 3 0 0 0-2-.1l-9.6 4.4a4 4 0 0 1-2.2.1 56 56 0 0 0-7.5-1.7 2 2 0 0 1-1.4-1.4l-1.2-6.3a2 2 0 0 0-1.4-1.2H390a2 2 0 0 0-1.4 1.2l-1.2 6.3a2 2 0 0 1-1.4 1.4 56 56 0 0 0-7.4 1.8 4 4 0 0 1-2.2-.2l-9.6-4.4a3 3 0 0 0-2.1 0l-9.5 5.5-.4.7v8.2l.3.6 4.4 3.2-1 .4-12.7.8a1.3 1.3 0 0 0-1.2 1.3v15.2a1.3 1.3 0 0 0 1.2 1.3l12.6.8 1.1.4-4.3 3.1-.4.7v8.2l.4.6 9.5 5.5a3 3 0 0 0 2.1 0l9.6-4.4a3 3 0 0 1 2.2 0 59 59 0 0 0 7.4 1.7 2 2 0 0 1 1.4 1.3l1.2 6.3a2 2 0 0 0 1.4 1.2h14a2 2 0 0 0 1.4-1.2l1.2-6.3a2 2 0 0 1 1.4-1.3 59 59 0 0 0 7.4-1.8 3 3 0 0 1 2.2.1l9.6 4.5a3 3 0 0 0 2.1-.1l9.5-5.5.4-.6v-8.2l-.3-.7-4.4-3.1 1.1-.4 12.6-.8a1.3 1.3 0 0 0 1.2-1.3v-15.2a1.3 1.3 0 0 0-1.2-1.3l-12.6-.8-1.1-.5 4.3-3 .4-.7v-8.2zm-63.9 21.2q1-3.5 6.2-6.5a35 35 0 0 1 32 0q4.8 3 6.3 6-1.2 4-6.3 7a35 35 0 0 1-32 0 13 13 0 0 1-6.2-6.5" fill="#fff" opacity=".2"/><path d="M360.1 376.5a2 2 0 0 0-1.7-1.1l-12.6-.8a1.3 1.3 0 0 1-1.2-1.3v-1.7 10a1.3 1.3 0 0 0 1.2 1.2l12.6.8 1.1.4 3.2-2.3a1 1 0 0 0 .1-1.5 19 19 0 0 1-2.7-3.7m-5.4-16.5.4.6 4.4 3.2.6-.7a19 19 0 0 1 2.7-3.7 1 1 0 0 0-.2-1.6l-7.5-5.4-.3-.5Zm58.3.6a35 35 0 0 0-32 0c-5.6 3.2-7.6 7.7-6.2 11.8q1-3.4 6.2-6.5a35 35 0 0 1 32 0q4.9 3 6.3 6c1.1-4-1-8.2-6.3-11.3" opacity=".1"/><path d="M449.3 373.5a1.3 1.3 0 0 1-1.2 1l-12.6.9-.6.1v8.3l.6-.2 12.6-.8a1.3 1.3 0 0 0 1.2-1.3Zm-10.1-21.7v.2l-.2.3-.2.1-7.5 5.4-.1.2-.3.5v.4l.3.5.1.1a19 19 0 0 1 2.6 3.6l.6.7 4.3-3.2.4-.6Zm0 36-.5.6-9.5 5.5-1.4.3v8.1a2 2 0 0 0 1.4-.2l9.5-5.5.4-.6Zm-61.9 1.5-1 .2-9.5 4.5-.9.2v8.2l.9-.2 9.6-4.4 1-.3Zm27.8 10a2 2 0 0 1-1.2.7H390l-.8-.3v8.2l.8.3h13.9a2 2 0 0 0 1.2-.7Z" fill="#19b5b5"/><path d="M449.3 373.5a1.3 1.3 0 0 1-1.2 1l-12.6.9-.6.1v8.3l.6-.2 12.6-.8a1.3 1.3 0 0 0 1.2-1.3Zm-10.1-21.7v.2l-.2.3-.2.1-7.5 5.4-.1.2-.3.5v.4l.3.5.1.1a19 19 0 0 1 2.6 3.6l.6.7 4.3-3.2.4-.6Zm0 36-.5.6-9.5 5.5-1.4.3v8.1a2 2 0 0 0 1.4-.2l9.5-5.5.4-.6Zm-61.9 1.5-1 .2-9.5 4.5-.9.2v8.2l.9-.2 9.6-4.4 1-.3Zm27.8 10a2 2 0 0 1-1.2.7H390l-.8-.3v8.2l.8.3h13.9a2 2 0 0 0 1.2-.7Z" fill="#fff" opacity=".7"/><path d="m427.2 345.6-9.6 4.4a4 4 0 0 1-2.2.1 56 56 0 0 0-7.5-1.7 2 2 0 0 1-1.4-1.4l-1.2-6.3a2 2 0 0 0-1.4-1.2H390a2 2 0 0 0-1.4 1.2l-1.2 6.3a2 2 0 0 1-1.4 1.4 56 56 0 0 0-7.4 1.8 4 4 0 0 1-2.2-.2l-9.6-4.4a3 3 0 0 0-2.1 0l-9.5 5.5a.7.7 0 0 0 0 1.3l7.4 5.4a1 1 0 0 1 .2 1.6 19 19 0 0 0-2.7 3.7 2 2 0 0 1-1.7 1.1l-12.6.8a1.3 1.3 0 0 0-1.2 1.3v7a1.3 1.3 0 0 0 1.2 1.2l12.6.8a2 2 0 0 1 1.7 1.1 19 19 0 0 0 2.7 3.8 1 1 0 0 1-.2 1.5l-7.5 5.4a.7.7 0 0 0 .1 1.3l9.5 5.4a3 3 0 0 0 2 .1l9.7-4.4a4 4 0 0 1 2.2-.1 56 56 0 0 0 7.4 1.7 2 2 0 0 1 1.4 1.4l1.2 6.3a2 2 0 0 0 1.4 1.2h14a2 2 0 0 0 1.3-1.2l1.2-6.3a2 2 0 0 1 1.4-1.3 56 56 0 0 0 7.5-1.8 4 4 0 0 1 2.2.1l9.5 4.5a3 3 0 0 0 2.1-.1l9.5-5.5a.7.7 0 0 0 0-1.3l-7.4-5.4a1 1 0 0 1-.2-1.5 19 19 0 0 0 2.7-3.7 2 2 0 0 1 1.7-1.2l12.6-.8a1.3 1.3 0 0 0 1.2-1.2v-7a1.3 1.3 0 0 0-1.2-1.3l-12.6-.8a2 2 0 0 1-1.7-1 19 19 0 0 0-2.7-3.8 1 1 0 0 1 .2-1.5l7.5-5.4a.7.7 0 0 0 0-1.3l-9.6-5.5a3 3 0 0 0-2-.1m-14.3 15c8.9 5 8.9 13.3 0 18.4s-23.1 5.1-32 0-8.8-13.3 0-18.4 23.2-5.1 32.1 0Z" fill="#19b5b5"/><g opacity=".6" fill="#fff"><path d="m427.2 345.6-9.6 4.4a4 4 0 0 1-2.2.1 56 56 0 0 0-7.5-1.7 2 2 0 0 1-1.4-1.4l-1.2-6.3a2 2 0 0 0-1.4-1.2H390a2 2 0 0 0-1.4 1.2l-1.2 6.3a2 2 0 0 1-1.4 1.4 56 56 0 0 0-7.4 1.8 4 4 0 0 1-2.2-.2l-9.6-4.4a3 3 0 0 0-2.1 0l-9.5 5.5a.7.7 0 0 0 0 1.3l7.4 5.4a1 1 0 0 1 .2 1.6 19 19 0 0 0-2.7 3.7 2 2 0 0 1-1.7 1.1l-12.6.8a1.3 1.3 0 0 0-1.2 1.3v7a1.3 1.3 0 0 0 1.2 1.2l12.6.8a2 2 0 0 1 1.7 1.1 19 19 0 0 0 2.7 3.8 1 1 0 0 1-.2 1.5l-7.5 5.4a.7.7 0 0 0 .1 1.3l9.5 5.4a3 3 0 0 0 2 .1l9.7-4.4a4 4 0 0 1 2.2-.1 56 56 0 0 0 7.4 1.7 2 2 0 0 1 1.4 1.4l1.2 6.3a2 2 0 0 0 1.4 1.2h14a2 2 0 0 0 1.3-1.2l1.2-6.3a2 2 0 0 1 1.4-1.3 56 56 0 0 0 7.5-1.8 4 4 0 0 1 2.2.1l9.5 4.5a3 3 0 0 0 2.1-.1l9.5-5.5a.7.7 0 0 0 0-1.3l-7.4-5.4a1 1 0 0 1-.2-1.5 19 19 0 0 0 2.7-3.7 2 2 0 0 1 1.7-1.2l12.6-.8a1.3 1.3 0 0 0 1.2-1.2v-7a1.3 1.3 0 0 0-1.2-1.3l-12.6-.8a2 2 0 0 1-1.7-1 19 19 0 0 0-2.7-3.8 1 1 0 0 1 .2-1.5l7.5-5.4a.7.7 0 0 0 0-1.3l-9.6-5.5a3 3 0 0 0-2-.1m-14.3 15c8.9 5 8.9 13.3 0 18.4s-23.1 5.1-32 0-8.8-13.3 0-18.4 23.2-5.1 32.1 0Z"/><path d="M404 400.5h-14a2 2 0 0 1-1.8-1.6l-1.3-6.3a1.4 1.4 0 0 0-1-1 56 56 0 0 1-7.5-1.8 3 3 0 0 0-1.8.1l-9.6 4.5a3 3 0 0 1-2.5-.1l-9.5-5.5a1.2 1.2 0 0 1-.1-2l7.5-5.4.2-.4-.1-.5a20 20 0 0 1-2.8-3.8 2 2 0 0 0-1.3-.9l-12.6-.8a2 2 0 0 1-1.6-1.7v-7a2 2 0 0 1 1.6-1.7l12.6-.8a2 2 0 0 0 1.3-.9 19 19 0 0 1 2.8-3.8l.1-.5-.2-.4-7.5-5.4a1 1 0 0 1-.6-1 1 1 0 0 1 .7-1l9.5-5.5a3 3 0 0 1 2.5 0l9.6 4.4a3 3 0 0 0 1.9 0 57 57 0 0 1 7.5-1.7 1.4 1.4 0 0 0 1-1l1.2-6.3a2 2 0 0 1 1.8-1.6h14a2 2 0 0 1 1.8 1.5l1.2 6.4a1.4 1.4 0 0 0 1 1 57 57 0 0 1 7.5 1.8 3 3 0 0 0 1.9-.1l9.6-4.5a3 3 0 0 1 2.5.1l9.5 5.5a1.2 1.2 0 0 1 0 2l-7.4 5.5-.3.3.2.5a19 19 0 0 1 2.7 3.8 2 2 0 0 0 1.4 1l12.6.7a2 2 0 0 1 1.6 1.7v7a2 2 0 0 1-1.6 1.8l-12.6.8a2 2 0 0 0-1.4.8 20 20 0 0 1-2.7 3.8l-.2.5.2.4 7.6 5.4a1.2 1.2 0 0 1-.2 2l-9.4 5.5a3 3 0 0 1-2.5.1l-9.6-4.4a3 3 0 0 0-1.9-.1 57 57 0 0 1-7.5 1.8 1.4 1.4 0 0 0-1 1l-1.2 6.3a2 2 0 0 1-1.9 1.5m-26.3-11.7 1 .2a56 56 0 0 0 7.4 1.7 2 2 0 0 1 1.7 1.7l1.2 6.4a1 1 0 0 0 1 .8h13.9a1 1 0 0 0 1-.8l1.1-6.4a2 2 0 0 1 1.8-1.7 55 55 0 0 0 7.4-1.7 4 4 0 0 1 2.5.1l9.6 4.5a2 2 0 0 0 1.7-.1l9.5-5.5.2-.2-.2-.3-7.5-5.4-.6-1a2 2 0 0 1 .4-1.2 19 19 0 0 0 2.6-3.6 3 3 0 0 1 2-1.4l12.7-.8a1 1 0 0 0 .7-.8v-7a1 1 0 0 0-.7-.8l-12.6-.8a3 3 0 0 1-2.1-1.4 18 18 0 0 0-2.6-3.6 2 2 0 0 1-.4-1.2l.6-1 7.5-5.4.2-.3-.2-.2-9.5-5.5a2 2 0 0 0-1.7 0l-9.6 4.4a4 4 0 0 1-2.5.1 57 57 0 0 0-7.4-1.8 2 2 0 0 1-1.7-1.7l-1.2-6.3a1 1 0 0 0-1-.8H390a1 1 0 0 0-1 .8l-1.1 6.3a2 2 0 0 1-1.8 1.7 57 57 0 0 0-7.4 1.8 4 4 0 0 1-2.5-.1l-9.6-4.5a2 2 0 0 0-1.7 0l-9.4 5.5-.3.3.2.2 7.5 5.4a2 2 0 0 1 .7 1.1 2 2 0 0 1-.5 1.2 18 18 0 0 0-2.6 3.6 3 3 0 0 1-2 1.4l-12.7.8a1 1 0 0 0-.7.8v7a1 1 0 0 0 .7.8l12.6.8a3 3 0 0 1 2.1 1.3 19 19 0 0 0 2.6 3.7l.4 1.1-.6 1-7.5 5.5-.2.2.3.3 9.4 5.5a2 2 0 0 0 1.7 0l9.6-4.4zm19.3-5.5a33 33 0 0 1-16.2-3.9c-4.4-2.5-6.9-6-6.9-9.6s2.5-7 6.9-9.6a36 36 0 0 1 32.4 0c4.4 2.5 6.9 6 6.9 9.6s-2.5 7-6.9 9.6a33 33 0 0 1-16.2 3.9m0-26.1a32 32 0 0 0-15.8 3.8q-6.3 3.7-6.4 8.8c0 5.1 2.3 6.5 6.4 8.9a35 35 0 0 0 31.5 0q6.3-3.8 6.4-8.9c.1-5-2.3-6.4-6.4-8.8a32 32 0 0 0-15.7-3.8"/></g><path d="M312 441.6h-.7l-8.2-.9a5 5 0 0 1-3.7-2 6 6 0 0 1-1.1-4l.2-1.2-2-.8h-.1l-6.3 2-1.9.2a7 7 0 0 1-4.4-1.5l-4.1-3.5a5 5 0 0 1 .9-8.2l1.4-.8-3.8-.6a5.3 5.3 0 0 1-4.2-6.8l1.2-3.6a6 6 0 0 1 5.6-4.2l7 .3-.9-1a5 5 0 0 1 1.8-8l6.6-2.6a7 7 0 0 1 2.4-.5 7 7 0 0 1 3.8 1l4.3 3q1.8-.4 3.8-.6l1.2-2.4a6 6 0 0 1 5.5-3.4h.6l8.2.9a5.4 5.4 0 0 1 4.9 6l-.2 1.3 2 .8h.1l6.2-2 2-.3a7 7 0 0 1 4.3 1.6l4.2 3.4a5 5 0 0 1-1 8.3l-1.4.7 3.9.7a5.2 5.2 0 0 1 4.1 6.7l-1.1 3.7a6 6 0 0 1-5.7 4.1l-7-.3 1 1a5 5 0 0 1-1.8 8.1l-6.6 2.6a7 7 0 0 1-2.4.5 7 7 0 0 1-3.9-1.1l-4.2-2.9-3.8.5-1.2 2.5a6 6 0 0 1-5.6 3.3m2.1-30.1a20 20 0 0 0-7.4 1.3c-3 1.2-4.1 2.6-4.3 3.5s.8 1.8 1.4 2.3a17 17 0 0 0 10.3 3 20 20 0 0 0 7.5-1.3c2.9-1.2 4-2.6 4.2-3.5s-.8-1.9-1.3-2.3c-2.2-1.9-6.2-3-10.4-3" fill="#e0e0e0"/><path d="M326.8 396a2 2 0 0 1-1.2-1.9l.4-3a1.4 1.4 0 0 0-1.3-1.7l-8.2-.8a2 2 0 0 0-2.1 1.1l-1.7 3.2a3 3 0 0 1-2.1 1.4q-2.1.1-4.3.5a4 4 0 0 1-2.6-.5l-4.4-3a3 3 0 0 0-2.6-.2l-6.6 2.6a1 1 0 0 0-.6.8v6.8l.3.8.4.4a4 4 0 0 1-1.9.5l-7.5-.3a2 2 0 0 0-1.9 1.4l-1.1 3.6v7.3a1 1 0 0 0 1 1.2l5.9 1-2.3 1.1a1 1 0 0 0-.6.8v6.8a1 1 0 0 0 .4.8l4.2 3.5a3 3 0 0 0 2.5.5l6.4-2a5 5 0 0 1 2.8.2l3.4 1.2.8.6v4.6a1.4 1.4 0 0 0 1.3 1.4l8.2.8a2 2 0 0 0 2.1-1.1l1.7-3.2a3 3 0 0 1 2.1-1.4q2.1-.1 4.3-.5a4 4 0 0 1 2.6.5l4.4 3a3 3 0 0 0 2.6.2l6.6-2.6a1 1 0 0 0 .7-.9v-6.8l-.4-.7-.4-.4a4 4 0 0 1 1.9-.6l7.5.4a2 2 0 0 0 1.9-1.4l1-3.6.2-.4v-6.8a1 1 0 0 0-1-1.2l-5.9-1 2.3-1.2a1 1 0 0 0 .6-.8v-6.7a1 1 0 0 0-.4-.8l-4.3-3.5a3 3 0 0 0-2.5-.5l-6.4 2a5 5 0 0 1-2.8-.2zm-27.2 17a12 12 0 0 1 5.6-4c7-3 16.9-1.9 21.8 2.2l1.7 1.8a12 12 0 0 1-5.6 4c-7.2 3-17 1.9-21.9-2.2z" fill="#19b5b5"/><path d="M326.8 396a2 2 0 0 1-1.2-1.9l.4-3a1.4 1.4 0 0 0-1.3-1.7l-8.2-.8a2 2 0 0 0-2.1 1.1l-1.7 3.2a3 3 0 0 1-2.1 1.4q-2.1.1-4.3.5a4 4 0 0 1-2.6-.5l-4.4-3a3 3 0 0 0-2.6-.2l-6.6 2.6a1 1 0 0 0-.6.8v6.8l.3.8.4.4a4 4 0 0 1-1.9.5l-7.5-.3a2 2 0 0 0-1.9 1.4l-1.1 3.6v7.3a1 1 0 0 0 1 1.2l5.9 1-2.3 1.1a1 1 0 0 0-.6.8v6.8a1 1 0 0 0 .4.8l4.2 3.5a3 3 0 0 0 2.5.5l6.4-2a5 5 0 0 1 2.8.2l3.4 1.2.8.6v4.6a1.4 1.4 0 0 0 1.3 1.4l8.2.8a2 2 0 0 0 2.1-1.1l1.7-3.2a3 3 0 0 1 2.1-1.4q2.1-.1 4.3-.5a4 4 0 0 1 2.6.5l4.4 3a3 3 0 0 0 2.6.2l6.6-2.6a1 1 0 0 0 .7-.9v-6.8l-.4-.7-.4-.4a4 4 0 0 1 1.9-.6l7.5.4a2 2 0 0 0 1.9-1.4l1-3.6.2-.4v-6.8a1 1 0 0 0-1-1.2l-5.9-1 2.3-1.2a1 1 0 0 0 .6-.8v-6.7a1 1 0 0 0-.4-.8l-4.3-3.5a3 3 0 0 0-2.5-.5l-6.4 2a5 5 0 0 1-2.8-.2zm-27.2 17a12 12 0 0 1 5.6-4c7-3 16.9-1.9 21.8 2.2l1.7 1.8a12 12 0 0 1-5.6 4c-7.2 3-17 1.9-21.9-2.2z" fill="#fff" opacity=".2"/><path d="M287.7 412.3a2 2 0 0 0-1.7-1.7l-7.2-1.2a1 1 0 0 1-1-1.1v6.7a1 1 0 0 0 1 1.2l5.8 1 3-1.5a1.4 1.4 0 0 0 .6-2zm1.7-11 .4.8.3.4.7-.5 1.8-1.6a1.3 1.3 0 0 0 .1-1.9l-3-3.2-.3-.7Zm15.8.9c-6.2 2.5-8.3 7-5.6 10.9a12 12 0 0 1 5.6-4.1c7-2.9 16.9-1.8 21.8 2.3l1.7 1.7c1.9-2.7 1.4-5.9-1.7-8.5-5-4.1-14.7-5.1-21.8-2.3" opacity=".1"/><path d="m316.2 425.6-.7.8-1.6 3.2a2 2 0 0 1-1.2 1v6.8a2 2 0 0 0 1.2-1l1.6-3.2.7-.8Zm22.6-.9a1 1 0 0 1-.7.9l-6.6 2.6a3 3 0 0 1-1.7 0v6.9a3 3 0 0 0 1.8-.1l6.5-2.6a1 1 0 0 0 .7-1Zm-43.6-2.8-6.3 2a3 3 0 0 1-1.6 0v6.7a3 3 0 0 0 1.6 0l6.3-2Zm55.3-10.7v.4l-1.2 3.6a2 2 0 0 1-1.9 1.4l-7.5-.4-1.2.3v6.8l1.2-.3 7.5.3a2 2 0 0 0 1.9-1.3l1.1-3.6v-.5Zm-4-11v.3l-.3.3-.3.3-5.3 2.6-.3.2a1 1 0 0 0-.4 1.1v.6l.6 1.5a3 3 0 0 0 1.8 1.6l1.3.3 2.3-1.2a1 1 0 0 0 .5-.8Z" fill="#19b5b5"/><path d="m316.2 425.6-.7.8-1.6 3.2a2 2 0 0 1-1.2 1v6.8a2 2 0 0 0 1.2-1l1.6-3.2.7-.8Zm22.6-.9a1 1 0 0 1-.7.9l-6.6 2.6a3 3 0 0 1-1.7 0v6.9a3 3 0 0 0 1.8-.1l6.5-2.6a1 1 0 0 0 .7-1Zm-43.6-2.8-6.3 2a3 3 0 0 1-1.6 0v6.7a3 3 0 0 0 1.6 0l6.3-2Zm55.3-10.7v.4l-1.2 3.6a2 2 0 0 1-1.9 1.4l-7.5-.4-1.2.3v6.8l1.2-.3 7.5.3a2 2 0 0 0 1.9-1.3l1.1-3.6v-.5Zm-4-11v.3l-.3.3-.3.3-5.3 2.6-.3.2a1 1 0 0 0-.4 1.1v.6l.6 1.5a3 3 0 0 0 1.8 1.6l1.3.3 2.3-1.2a1 1 0 0 0 .5-.8Z" fill="#fff" opacity=".7"/><path d="m339.4 395.5-6.4 2a5 5 0 0 1-2.8-.2l-3.4-1.3a2 2 0 0 1-1.2-1.8l.4-3.1a1.4 1.4 0 0 0-1.3-1.7l-8.2-.8a2 2 0 0 0-2.1 1.1l-1.7 3.2a3 3 0 0 1-2.1 1.4l-4.3.5a4 4 0 0 1-2.6-.5l-4.4-3a3 3 0 0 0-2.6-.2l-6.6 2.6a1 1 0 0 0-.3 1.6l3 3.2a1.3 1.3 0 0 1-.2 2l-1.8 1.5a4 4 0 0 1-2.4 1l-7.5-.2a2 2 0 0 0-2 1.3l-1 3.6a1.2 1.2 0 0 0 1 1.6l7 1.3a3 3 0 0 1 1.8 1.6l.5 1.5a1.4 1.4 0 0 1-.6 1.9l-5.2 2.7a1 1 0 0 0-.2 1.5l4.2 3.5a3 3 0 0 0 2.5.5l6.4-2a5 5 0 0 1 2.7.2l3.4 1.3a2 2 0 0 1 1.3 1.8l-.4 3.1a1.4 1.4 0 0 0 1.3 1.6l8.2.9a2 2 0 0 0 2-1.1l1.7-3.2a3 3 0 0 1 2.1-1.4l4.3-.5a4 4 0 0 1 2.7.5l4.4 3a3 3 0 0 0 2.6.3l6.5-2.7a1 1 0 0 0 .4-1.6l-3-3.1a1.3 1.3 0 0 1 .2-2l1.8-1.6a4 4 0 0 1 2.4-1l7.5.3a2 2 0 0 0 2-1.3l1-3.6a1.2 1.2 0 0 0-1-1.7l-7-1.2a3 3 0 0 1-1.8-1.7l-.6-1.4a1.4 1.4 0 0 1 .6-2l5.3-2.6a1 1 0 0 0 .2-1.6l-4.2-3.5a3 3 0 0 0-2.5-.5m-12.4 9c5 4 3.2 9.7-4 12.6s-16.8 1.8-21.8-2.3-3.1-9.8 4-12.6 16.9-1.8 21.8 2.3" fill="#19b5b5"/><g opacity=".6" fill="#fff"><path d="m339.4 395.5-6.4 2a5 5 0 0 1-2.8-.2l-3.4-1.3a2 2 0 0 1-1.2-1.8l.4-3.1a1.4 1.4 0 0 0-1.3-1.7l-8.2-.8a2 2 0 0 0-2.1 1.1l-1.7 3.2a3 3 0 0 1-2.1 1.4l-4.3.5a4 4 0 0 1-2.6-.5l-4.4-3a3 3 0 0 0-2.6-.2l-6.6 2.6a1 1 0 0 0-.3 1.6l3 3.2a1.3 1.3 0 0 1-.2 2l-1.8 1.5a4 4 0 0 1-2.4 1l-7.5-.2a2 2 0 0 0-2 1.3l-1 3.6a1.2 1.2 0 0 0 1 1.6l7 1.3a3 3 0 0 1 1.8 1.6l.5 1.5a1.4 1.4 0 0 1-.6 1.9l-5.2 2.7a1 1 0 0 0-.2 1.5l4.2 3.5a3 3 0 0 0 2.5.5l6.4-2a5 5 0 0 1 2.7.2l3.4 1.3a2 2 0 0 1 1.3 1.8l-.4 3.1a1.4 1.4 0 0 0 1.3 1.6l8.2.9a2 2 0 0 0 2-1.1l1.7-3.2a3 3 0 0 1 2.1-1.4l4.3-.5a4 4 0 0 1 2.7.5l4.4 3a3 3 0 0 0 2.6.3l6.5-2.7a1 1 0 0 0 .4-1.6l-3-3.1a1.3 1.3 0 0 1 .2-2l1.8-1.6a4 4 0 0 1 2.4-1l7.5.3a2 2 0 0 0 2-1.3l1-3.6a1.2 1.2 0 0 0-1-1.7l-7-1.2a3 3 0 0 1-1.8-1.7l-.6-1.4a1.4 1.4 0 0 1 .6-2l5.3-2.6a1 1 0 0 0 .2-1.6l-4.2-3.5a3 3 0 0 0-2.5-.5m-12.4 9c5 4 3.2 9.7-4 12.6s-16.8 1.8-21.8-2.3-3.1-9.8 4-12.6 16.9-1.8 21.8 2.3"/><path d="M312 431.3h-.3l-8.2-.8a2 2 0 0 1-1.4-.8 2 2 0 0 1-.4-1.5l.4-3.1a1 1 0 0 0-.9-1.2l-3.4-1.3a4 4 0 0 0-2.4-.2l-6.3 2a4 4 0 0 1-3.1-.6l-4.2-3.5a1.5 1.5 0 0 1 .3-2.5l5.3-2.7a1 1 0 0 0 .3-1.2l-.6-1.5a2 2 0 0 0-1.3-1.2l-7-1.2a1.8 1.8 0 0 1-1.6-2.4l1.2-3.6a3 3 0 0 1 2.5-1.7l7.5.3a3 3 0 0 0 2-1l1.8-1.6.4-.5-.3-.5-3-3.2a1.5 1.5 0 0 1 .6-2.5l6.6-2.7a4 4 0 0 1 3 .4l4.5 2.9a4 4 0 0 0 2.2.4l4.3-.5a2 2 0 0 0 1.7-1l1.6-3.3a3 3 0 0 1 2.7-1.4l8.2.8a2 2 0 0 1 1.4.8 2 2 0 0 1 .4 1.5l-.3 3a1 1 0 0 0 .8 1.3l3.5 1.3a4 4 0 0 0 2.3.2l6.4-2a4 4 0 0 1 3 .6l4.2 3.5a1.5 1.5 0 0 1-.3 2.5l-5.2 2.7a1 1 0 0 0-.4 1.1l.6 1.5a2 2 0 0 0 1.3 1.3l7.1 1.2a2 2 0 0 1 1.3.9 2 2 0 0 1 .2 1.5l-1.2 3.6a3 3 0 0 1-2.4 1.8l-7.5-.3a3 3 0 0 0-2 .8l-1.9 1.7-.3.5.2.6 3 3.1a1.5 1.5 0 0 1-.6 2.6l-6.5 2.6a4 4 0 0 1-3.1-.3l-4.5-3a4 4 0 0 0-2.2-.4l-4.3.5a2 2 0 0 0-1.7 1.1l-1.6 3.2a3 3 0 0 1-2.5 1.4m-15.7-10.2a5 5 0 0 1 2 .4l3.3 1.2a2.4 2.4 0 0 1 1.6 2.5l-.4 3.2a1 1 0 0 0 .8 1l8.2.8a2 2 0 0 0 1.6-.8l1.6-3.2a4 4 0 0 1 2.6-1.7l4.2-.5a5 5 0 0 1 3 .6l4.5 3a3 3 0 0 0 2 .1l6.6-2.6.3-.3-.2-.4-3-3.2a2 2 0 0 1-.5-1.4 2 2 0 0 1 .8-1.3l1.7-1.6a4 4 0 0 1 2.9-1.2l7.5.3a2 2 0 0 0 1.3-1l1.1-3.5a.7.7 0 0 0-.5-1l-7.2-1.2a3 3 0 0 1-2.2-2l-.5-1.4a2 2 0 0 1 .9-2.7l5.3-2.6.2-.3-.2-.4-4.2-3.4a3 3 0 0 0-2-.4l-6.3 2a5 5 0 0 1-3.2-.2l-3.3-1.3a2.4 2.4 0 0 1-1.7-2.4l.4-3.2a1 1 0 0 0-.8-1l-8.2-.8a2 2 0 0 0-1.5.8l-1.6 3.2a3 3 0 0 1-2.6 1.7l-4.2.5a5 5 0 0 1-3.1-.6l-4.3-3a3 3 0 0 0-2-.2l-6.6 2.7-.3.3.2.4 3 3.1a2 2 0 0 1 .5 1.4 2 2 0 0 1-.8 1.4l-1.7 1.6a4 4 0 0 1-2.9 1.2l-7.5-.3a1.4 1.4 0 0 0-1.3.9l-1.1 3.6v.6l.5.3 7.1 1.2a3 3 0 0 1 2.2 2.1l.5 1.4a2 2 0 0 1-.9 2.7l-5.2 2.6q-.3 0-.3.3l.2.3 4.2 3.5a2 2 0 0 0 2 .4l6.4-2zm17.9-1.8c-5.2 0-10.2-1.4-13.3-4q-3.4-3-3-6.5.9-4.6 7-7.1c7.3-3 17.4-1.8 22.4 2.4q3.4 2.9 3 6.5-.9 4.5-7 7a25 25 0 0 1-9.1 1.7m0-18.1a24 24 0 0 0-8.8 1.6c-3.6 1.4-6 3.7-6.3 6.1q-.4 3 2.5 5.5c4.8 4 14.4 5 21.3 2.2 3.6-1.5 6-3.7 6.3-6.2q.5-3-2.5-5.5c-3-2.4-7.7-3.7-12.6-3.7Z"/></g><path d="m147.5 260 131.7-76.1a14 14 0 0 1 9.5-1.1L397 215l-12.2 7-94-28a14 14 0 0 0-9.5 1.1l-116.7 67.4a4.7 4.7 0 0 0-1.6 7l39.6 57.7-12.5 7.3-44.2-67.7a5 5 0 0 1 1.6-6.9" fill="#19b5b5"/><path d="m147.5 260 131.7-76.1a14 14 0 0 1 9.5-1.1L397 215l-12.2 7-94-28a14 14 0 0 0-9.5 1.1l-116.7 67.4a4.7 4.7 0 0 0-1.6 7l39.6 57.7-12.5 7.3-44.2-67.7a5 5 0 0 1 1.6-6.9" fill="#fff" opacity=".8"/><path fill="#19b5b5" d="M117.6 405.7 448 215l16.9 9.8 4.3-36.7-63.6 2.4 17 9.8L92.2 391.1z"/><path fill="#fff" opacity=".5" d="M117.6 405.7 448 215l16.9 9.8 4.3-36.7-63.6 2.4 17 9.8L92.2 391.1z"/><ellipse cx="87.8" cy="378" rx="64.3" ry="37.1" opacity=".1"/><path d="m110.2 395.4 7-14 14.4 8.3-17.6 20.8s-8.7-.8-10.1-5.3 3.9-8.3 6.3-9.8" fill="#c8856a"/><path d="M100.1 400.9a7 7 0 0 0-2 2.1c-.5.9-.4 5-1 7s-1 2.4-1.9 4.8c-1 2.6-2.9 5-.7 12s5.5 10 8.4 11.8a8 8 0 0 0 3.4.8s3.8-1.4 3.2-3.6z" fill="#263238"/><path d="M116.6 408.4a8 8 0 0 1-1.4 2.4 19 19 0 0 0-2.5 6.8c-2.2 10.8 2.1 16.4-3.7 20.4-1.7 1-5.2.8-10.5-6-2.8-3.6-4.3-10.7-3.3-14s2.6-5.4 3.3-7.9.3-7.1 1.7-9.3a10 10 0 0 1 3.3-2.9c1-.6 3.3-1.4 4.4-2s1.6-1.3 2.3-.6L109 397c-1.9 2.6-1.4 3-1.3 4.4a22 22 0 0 1-.7 4.5c1.3-1.7 1.9-3.2 3.4-3s1.6.2 3.7 2.2 2.6 2.8 2.5 3.4" fill="#455a64"/><path d="M98.4 432a20 20 0 0 1-3.2-14l1.3-3-.2.6-.1 1.2a10 10 0 0 0 .5 5c.6 1.3 2 4.7 3.9 4.8 1 0 1.9-1 2.3-2.2l.4-1.8a16 16 0 0 1 4.8 2c2.6 1.7 2.5 2.1 2.5 2.1v2.3a6 6 0 0 0 1 2.3l.6.6a7 7 0 0 1-3.2 6.1c-1.7 1.1-5.2.8-10.6-6" fill="#37474f"/><path d="M112.7 417.6a37 37 0 0 0-.7 8.7c-1 2.8-1.8 2.7-2 1.2s1.8-7.4 3.3-12.3zm-6.6-17.4a6 6 0 0 1 1-4l.8-.3c1.1-.7 1.6-1.3 2.3-.6L109 397c-1.9 2.6-1.4 3-1.3 4.4a22 22 0 0 1-.7 4.5c-1.1 4.7-2.1 6.3-2.7 10.7s.4 7.4-.2 7.7-2-.3-2.2-3.8 1.4-9.6 2.5-12.4 2-5.9 1.7-7.8" fill="#37474f"/><path d="M103 423h.2a11 11 0 0 1 7.1 4.2.5.5 0 1 0 .7-.6 12 12 0 0 0-7.6-4.4.5.5 0 0 0-.4.7m.6-3.7.2.1a12 12 0 0 1 7.5 4.6.4.4 0 0 0 .6 0v-.6a13 13 0 0 0-8-4.9l-.5.4zm-.1-4.1.2.2a14 14 0 0 1 8.4 5 .5.5 0 0 0 .8-.6 15 15 0 0 0-9-5.4.5.5 0 0 0-.4.8m.5-3.5.3.2a13 13 0 0 1 8.2 5h.7v-.7a14 14 0 0 0-8.7-5.3l-.6.4zm1.4-3.4.2.2a13 13 0 0 1 8.2 5 .5.5 0 0 0 .7-.7 14 14 0 0 0-8.7-5.3l-.6.4z" fill="#ebebeb"/><path fill="#c8856a" d="m114 396.5 9.3 7.6 5.2 3.2-5.9 11.3-16.9-8z"/><path d="M95.2 346s33.7-5.6 48-5.5c14.8.1 16.1 11.1 12.4 17.9-7 13-31.5 40.4-31.5 40.4s-8.2-3.8-10.7-11l5.6-12.7-17.6 5.6-9-6-.7-4.6Z" fill="#19b5b5"/><path d="M95.2 346s33.7-5.6 48-5.5c14.8.1 16.1 11.1 12.4 17.9-7 13-31.5 40.4-31.5 40.4s-8.2-3.8-10.7-11l5.6-12.7-17.6 5.6-9-6-.7-4.6Z" opacity=".4"/><path d="m95.2 346-58.3 9.7s-.5 14 5 26.4a29 29 0 0 0 21.8 16.7 163 163 0 0 0 17.6 1.4 44 44 0 0 0 9.2 5.4l24.9 10.4s5.7-4.8 5.1-14.9l-19.1-20.4c-4.4-5.2-5.9-7-8.3-8.1 3.7-7.2 2.5-18.7 2.1-26.6" fill="#19b5b5"/><path d="m95.2 346-58.3 9.7s-.5 14 5 26.4a29 29 0 0 0 21.8 16.7 163 163 0 0 0 17.6 1.4 44 44 0 0 0 9.2 5.4l24.9 10.4s5.7-4.8 5.1-14.9l-19.1-20.4c-4.4-5.2-5.9-7-8.3-8.1 3.7-7.2 2.5-18.7 2.1-26.6" opacity=".3"/><path d="M121.9 364.2a127 127 0 0 0-7.4 12.3l4.5-1.4c5-12 6.1-15.6 14.2-21.2 0 0-5.9 2.2-11.3 10.3M77 393.5s0 3 4.3 6.7a44 44 0 0 0 9.2 5.4l24.9 10.4s1.1-.5 2.7-3.5c-5.3-1.2-22.5-8-28.1-10.4-10-4.2-13-8.6-13-8.6m21.5-16.2 2.9 3.4 2.8-.9s-5-5.4-8.2-8.3l-1.8-1.4c1.6-4.3 1.5-11.3 1.5-11.3a23 23 0 0 1-4.2 10.3 19 19 0 0 0-8.1-.1l-22 3.7s15.6-1.4 23.8-1.7 11.3 4 13.3 6.3" opacity=".3"/><path d="M149.7 413.2c4 1.6 6.4 3.1 8.2 5.5s2.4 4.8.7 7.7-5 6.3-8.7 6.1-6.2-1.2-9.7-3Z" fill="#263238"/><path d="M118 416.6c0 1.1 5 3.5 10.2 6 5.6 2.6 7 4.3 11.5 6.6 5.2 2.5 7.2 2.7 11.2 1.6s9-7 5.5-12.2c-2.8-4.4-6.4-5.5-12-7a103 103 0 0 1-13-4.2c-4-1.6-7.3-4.4-8.1-3.4.6.3 4.8 2.9 4 3.6q-.3.4-1.8-.2a2 2 0 0 0-1.5 0 3 3 0 0 0-1 1.2l-1.2 3.1-.5 1a8 8 0 0 0-.9 2.9q.1.6.8.8c.7.2.8.5 1.2.8l.3.6c0 .2-.9.1-1.2 0l-1.2-.4z" fill="#455a64"/><path d="M138 428.4c.7.3 5.4 2.5 6.9 1.2s-2.2-3.7-2.2-3.7-.6-3.5 3.7-8.8c.7.6 3.8.6 3.8-1.3s-5.2-4-5.3-4c5.3 1.4 8.8 2.6 11.5 6.8 3.5 5.3-1.5 11-5.5 12.2s-6 1-11.2-1.6z" fill="#37474f"/><path d="M143.2 425.6c2 .6.6 2.4-2.3 1.8-4.3-.8-7.9-3.3-12.7-4.8-5.2-2.5-10.5-4.8-10.1-6.1 1 .3 2.9 1.2 2.9 1.2l1.4.5c4 1.7 8.3 4.4 12.5 5.6 3.8 1 6.3 1.1 8.3 1.8m2.9-7.8c-1.8-1-2.1-2-5.6-3.5s-9.5-5.1-13.2-7.3l-4-3c.6-.7 2.9 0 5 1.4s3.7 2.3 6 3.5c4.3 2.6 9.2 4.3 11.7 5.9s2 4 .1 3" fill="#37474f"/><path d="m146.4 417.3-.1.2a16 16 0 0 0-3.4 8.7l-.5.5a.4.4 0 0 1-.4-.5 17 17 0 0 1 3.7-9.4.4.4 0 0 1 .6 0zm-3.5-2.5-.1.1a22 22 0 0 0-4.2 10.3l-.5.5a.4.4 0 0 1-.4-.6 22 22 0 0 1 4.5-10.8.4.4 0 0 1 .6 0zm-7.7 10-.4.3a.4.4 0 0 1-.5-.4c.3-6.3 4.3-12.3 4.5-12.5a.4.4 0 0 1 .6 0v.7c0 .1-4 5.9-4.1 11.7zm-3.2-2-.4.3a.4.4 0 0 1-.4-.5 19 19 0 0 1 4.7-11.8.4.4 0 0 1 .6 0l-.1.7a18 18 0 0 0-4.4 11z" fill="#f0f0f0"/><path d="m127.8 421-.4.3a.4.4 0 0 1-.5-.4c0-6.6 4.7-11.7 4.9-11.9a.4.4 0 0 1 .6 0v.7s-4.5 5-4.6 11z" fill="#ebebeb"/><path d="M92 295c2.8 4 11.4 20.6 11.4 20.6l9.5-12c4-5.2 5.6-6.3 7.5-14.1a24 24 0 0 1 2.6-5.5 17 17 0 0 0 2-5.8c0-1 2.5-.8 3.1 2.4.4 1.7-.1 3.3 0 5 0 .5-.3 1.6.3 1.5 3.8-.7 6.5-5 11-8.3 1.6-1.1 5.8-2.4 6.8 0l-.5 1.5v.2l.1.8.4 1.4a4 4 0 0 1-.2 2.1l-.7 1.6a6 6 0 0 1-.3 3l-1.4 2.4-.7 1.6a9 9 0 0 1-1.8 2.5 38 38 0 0 1-8.1 7.1q-2.2 1.2-4.2 2.6a13 13 0 0 0-2.5 2.5l-2.3 4v.1c-5.8 10.8-6.3 14.7-12.5 23.3-5.2 6.8-11.5 3.8-18.4-5.3-8.7-11.6-12.8-18.4-12.8-18.4l-.8-28.7c6 1.8 9.5 7.8 12.4 11.8" fill="#c8856a"/><path d="M128 289.8a11 11 0 0 1-2.5 9.4c3.4-1 4.7-5.5 2.6-9.4" fill="#af6152"/><path d="M78.9 282.5c5.6.8 9 4.1 14.2 13.1 6 10 10.2 19.5 10.2 19.5l5.5-6.4c-1.7 1.1-1.2 9 1.8 12.5a12 12 0 0 0 7.3 4 77 77 0 0 1-5.3 9.3c-2.8 4-4.6 5-7 5.1s-6.5-.1-11.9-7.2c-5.9-7.8-14.1-20.6-14.1-20.6Z" fill="#19b5b5"/><path d="M78.9 282.5c5.6.8 9 4.1 14.2 13.1 6 10 10.2 19.5 10.2 19.5l5.5-6.4c-1.7 1.1-1.2 9 1.8 12.5a12 12 0 0 0 7.3 4 77 77 0 0 1-5.3 9.3c-2.8 4-4.6 5-7 5.1s-6.5-.1-11.9-7.2c-5.9-7.8-14.1-20.6-14.1-20.6Z" fill="#fff" opacity=".6"/><path d="M103.4 315a20 20 0 0 0-4.6 12.2c-1.4-3.4-.3-9.3 3.4-13.7Zm12.1 14.5-2-.5a12 12 0 0 1-3.8-2.3 13 13 0 0 1-4-7.2q0-.2 0 0a12 12 0 0 0 3.8 7.8 13 13 0 0 0 4 2.3l1.8.5z" fill="#19b5b5" opacity=".4"/><path d="M88 302.9c-.9-15.7-4.4-20-12.4-20.9l-13-1.3c-4 .8-17.3 5-21.8 6.6-2.9 1-4.2 7.1-4.8 16.8-.5 7.8-.6 14.4-.3 25.2.2 9 .4 19.4 3.2 32 10.8 4.1 42.2.2 54.6-14.1-1-3.2-5-9-5.6-15.6.4-13.6.3-23.8 0-28.7" fill="#263238"/><path d="m40.5 287 9.8-3.4 5.5 12c3.7 7.9 4 11.5 4.3 25.2s2.9 38 4.5 43.6c-6 .8-11.3 9.6-26.9 6.9 0 0-3.2-16-3.7-43-.3-14.2-.4-37.2 6.5-41.2" fill="#19b5b5"/><path d="m40.5 287 9.8-3.4 5.5 12c3.7 7.9 4 11.5 4.3 25.2s2.9 38 4.5 43.6c-6 .8-11.3 9.6-26.9 6.9 0 0-3.2-16-3.7-43-.3-14.2-.4-37.2 6.5-41.2" fill="#fff" opacity=".4"/><path d="M59.6 308.5c-1.6-12.3-6.7-13-8-9a25 25 0 0 1-4.5-14.7l2.6-4.7c.5-1.1 1.1-.9 1.1-.9v3.2s.7 3.6 4.4 8c2.8 3.4 3.7 7.7 4.4 18.1" fill="#19b5b5"/><path d="M59.6 308.5c-1.6-12.3-6.7-13-8-9a25 25 0 0 1-4.5-14.7l2.6-4.7c.5-1.1 1.1-.9 1.1-.9v3.2s.7 3.6 4.4 8c2.8 3.4 3.7 7.7 4.4 18.1" fill="#fff" opacity=".6"/><path d="M68.5 282.5c5.6 2.1 9.6 8.3 11 16.9s2.4 30.4 3.3 36.8 5 17.7 5 17.7 6.8-2.8 8.7-8.1c-3.1-4.2-6-9.9-6.6-15.2s0-22.6-.8-29.1-1.5-15.7-9.3-18.7a54 54 0 0 0-11.3-1.8Z" fill="#19b5b5"/><path d="M68.5 282.5c5.6 2.1 9.6 8.3 11 16.9s2.4 30.4 3.3 36.8 5 17.7 5 17.7 6.8-2.8 8.7-8.1c-3.1-4.2-6-9.9-6.6-15.2s0-22.6-.8-29.1-1.5-15.7-9.3-18.7a54 54 0 0 0-11.3-1.8Z" fill="#fff" opacity=".4"/><path d="M80 304.3c-.7-6.3-4.3-17.5-11.1-19.8l-.4-2v-3.3a28 28 0 0 1 5.9 2.8c2.9 1.9 8 8 9.3 12.9-3-2.5-4.1 1.6-3.7 9.4" fill="#19b5b5"/><path d="M80 304.3c-.7-6.3-4.3-17.5-11.1-19.8l-.4-2v-3.3a28 28 0 0 1 5.9 2.8c2.9 1.9 8 8 9.3 12.9-3-2.5-4.1 1.6-3.7 9.4" fill="#fff" opacity=".6"/><path d="M50.9 274.3c-.8-4.4-5.2-9-7.2-12.8s-3-6.6-2.9-10c.1-2 1.4-4.9 3-5.5a9.6 9.6 0 0 1 7-12l4.2-1.2c1.6-.7 2-2 3.3-3.1 2.3-2 6.2-2 7.7.9 1.5-2 3.6-2 6-1.4a4 4 0 0 1 3.2 4.7c3.2-1.9 6.1.4 6.4 2.3.3 1.4 0 2.6.9 3.8 1 1.4 3 1.4 3.5.2.4 2-.4 3.5-2.5 3.4a5 5 0 0 1 .5 3.8 4 4 0 0 1-3.7 2.8 7 7 0 0 1-.9 3 7 7 0 0 1-2.5 2.3c-3.3 1.6-6.8 2.1-10.3 2.9l-4.2.8c-.2 0-1.5.2-1.6.4Z" fill="#263238"/><path d="M45.5 268.6a4 4 0 0 0 5.2-.1l.2 14.4c2.4 6.2 12.2 9.3 17.7 9.1a18 18 0 0 0-.1-9.5v-4l5.3-.3c3.4-.5 6-3.3 7-7a39 39 0 0 0 .3-14.8 13 13 0 0 1-.2-3.6 17 17 0 0 0-1-7.8c-3.9-3-12.7-4-20.9 1 1 4.9-.9 8.8-4.4 10.6.2 1.3.3 4.7-1.8 4.6-1.6 0-1.7-2-3.3-3.7s-5.4-2.1-6.8.4c-2 3.5-.6 8.7 2.8 10.7" fill="#c8856a"/><path d="M68.5 278.5c-5.4-.6-9.6-1.2-12.5-5.2a35 35 0 0 1-3.3-6.4A27 27 0 0 0 55 275c1.4 2.5 4.8 4.6 13.4 5.3Z" fill="#af6152"/><path d="M65.8 257.3a1.6 1.6 0 0 1-1.6 1.6 1.6 1.6 0 1 1 1.6-1.6m-.4-5.1-3.5 1.5a2 2 0 0 1 1-2.6 2 2 0 0 1 2.4 1.1m13.3 1-3.5-1.3a2 2 0 0 1 2.3-1.2 2 2 0 0 1 1.2 2.5m-.8 3.6a1.5 1.5 0 1 1-1.4-1.7 1.6 1.6 0 0 1 1.4 1.7" fill="#263238"/><path d="m75.6 262.5-5.4 2.4-1.7-10.5c2-.7 4.6 4 7 8M65.2 267l6.5 1.4a3.2 3.2 0 0 1-3.9 2.7 3.4 3.4 0 0 1-2.6-4" fill="#af6152"/><path d="M66 268.1h-.8a3.4 3.4 0 0 0 2.6 3h1a3 3 0 0 0-2.8-3" fill="#ffa8a7"/><path d="m132 374-1.6-1.8a221 221 0 0 0-27-19l-43.6 25.2a.4.4 0 0 0 0 .7l31.8 18.3Z" opacity=".1"/><path d="M145.3 361.2v.8a3 3 0 0 1-1.5 2.5L93 393.8a3 3 0 0 1-3 0l-27.6-16a3 3 0 0 1-1.5-2.4v-1l.2.3 30.4 17.6Z" fill="#37474f"/><path d="M91.6 392.3v1.9l1.4-.4 50.8-29.3a3 3 0 0 0 1.5-2.5v-.8Z" fill="#263238"/><path d="M145.3 361.2 115 343.8a2 2 0 0 0-1.7 0L61.1 374a.4.4 0 0 0 0 .7l30.5 17.5Z" fill="#455a64"/><path fill="#37474f" d="M91.3 389.7 75 380.3l47.5-27.4 16.4 9.3z"/><path fill="#263238" d="m138.9 362.2-.6.4-15.8-9-46.9 27.1-.6-.4 47.5-27.4zm-55.6 1.4.3.2 8 4.6 14.1-8.2.3-.1-8.2-4.8z"/><path fill="#37474f" d="m83.6 363.8 8 4.6 14.1-8.2-7.9-4.6z"/><path d="M99.3 367c-2.6-2.4-6.3-6-9.4-7l-2.1-.7 3.2-.6a6 6 0 0 0 2.6-1.8q.6-.6.2-1.2l-.5-.1c-2.3-.1-4.1-.5-6.3-.6a9 9 0 0 0-2.8 0l-2.6.8c-3.8 1.4-7.5 1-12.8-1.4S44.2 340 44.2 340l4 22.5 15.3 5.9h.1A36 36 0 0 0 69 371c3.4 1 7.8-.2 10.8-.4s8 1.2 10.8 2.4 6.2-3.2 7.5-2.7 3.8-.6 1.3-3.1" fill="#c8856a"/><path d="M86.5 357.7a10 10 0 0 0-4.3.7 23 23 0 0 1 5.5 1l3.2-.7a6 6 0 0 0 2.5-1.5c-1.7 1.2-5 .7-7 .5" fill="#af6152"/><path d="M92.4 392.7a3 3 0 0 0 3-.2l50.6-29.3a4 4 0 0 0 1.6-2.4l5.6-33v-.5a3 3 0 0 0-1-2.5l-52.6 30.4a3 3 0 0 0-1.2 1.7Z" fill="#263238"/><path d="m91.6 392.3.3.2.5.2 6-35.8a3 3 0 0 1 1.2-1.7l52.6-30.4-.7-.5-52.7 30.4a3 3 0 0 0-1.2 1.8Z" fill="#455a64"/><path d="m98.8 355.8-.8-.4-.4 1-6 35.9.3.2.5.2 6-35.8z" fill="#37474f"/><path d="M120.9 362.2c.3-2.2 2.6-5.2 5-6.6s4.2-.7 3.8 1.5-2.6 5.1-5 6.5-4.2.8-3.8-1.4" fill="#19b5b5"/><path d="M59 350.6c-8.1-5.9-14.8-10.5-14.8-10.5l2.3-25s1.8-12.2-1-19.2c-2.8-7.2-5.7-8.3-5.7-8.3A28 28 0 0 0 32 292c-3.2 2.8-4.7 9.2-5.4 18.2-.7 7.9-2 27.7-2.1 32.3-.3 5.9 0 10.6 6.2 13.4 6.6 3 26.2 9.7 26.2 9.7Z" fill="#c8856a"/><path d="M40.5 287c-6.4 2-9.6 3.3-12.3 10.7S25.6 319 24.8 330s-1.5 18.2.3 21.6c1 2 2.7 3.7 9 6l12.4 4.6s.6-9.7 7.5-16.3l-9.5-5.8 2.7-28.5c.5-6.1 1.2-19.1-6.7-24.4" fill="#19b5b5"/><path d="M40.5 287c-6.4 2-9.6 3.3-12.3 10.7S25.6 319 24.8 330s-1.5 18.2.3 21.6c1 2 2.7 3.7 9 6l12.4 4.6s.6-9.7 7.5-16.3l-9.5-5.8 2.7-28.5c.5-6.1 1.2-19.1-6.7-24.4" fill="#fff" opacity=".6"/><path d="M44.5 340c-3.7-1.7-11 0-12.6 1.2 1.8-3.2 6.9-4.4 12.9-3.6Zm2.5 6.8a9 9 0 0 0-2.8 3.2 16 16 0 0 0-1.5 3.8 20 20 0 0 0-.7 4.6v2l.7.3a19 19 0 0 1 .6-6.7 17 17 0 0 1 1.5-3.7L47 347z" fill="#19b5b5" opacity=".4"/><path d="M276.2 231.5c25.3-14.6 25.3-38.3 0-53s-66.4-14.6-91.7 0-25.3 38.4 0 53 66.4 14.6 91.7 0" opacity=".1"/><path d="m252 217.1 7.3-13 13.2 8.5-17.6 19s-8.2-1.1-9.3-5.5 4-7.7 6.4-9" fill="#ffa8a7"/><path d="M242.3 221.9a7 7 0 0 0-2 2c-.6.8-.6 4.7-1.2 6.5s-1 2.3-2 4.5c-1.1 2.5-3 4.7-1.3 11.3s4.8 9.9 7.5 11.6a7 7 0 0 0 3.2 1s3.7-1.3 3.2-3.4z" fill="#263238"/><path d="M257.6 229.7a8 8 0 0 1-1.5 2.2 18 18 0 0 0-2.6 6.4c-2.6 10.2 1.3 15.6-4.4 19.2-1.7 1-5 .5-9.8-6.2-2.4-3.4-3.6-10.3-2.4-13.3s2.6-5 3.3-7.4.7-6.7 2-8.7a10 10 0 0 1 3.4-2.6c1-.6 3.2-1.3 4.2-1.8s1.6-1.2 2.2-.4l-1.2 1.4c-2 2.4-1.4 2.8-1.4 4.1a21 21 0 0 1-1 4.2c1.4-1.5 2-3 3.4-2.6s1.6.2 3.5 2.2 2.4 2.7 2.3 3.3" fill="#19b5b5"/><path d="M257.6 229.7a8 8 0 0 1-1.5 2.2 18 18 0 0 0-2.6 6.4c-2.6 10.2 1.3 15.6-4.4 19.2-1.7 1-5 .5-9.8-6.2-2.4-3.4-3.6-10.3-2.4-13.3s2.6-5 3.3-7.4.7-6.7 2-8.7a10 10 0 0 1 3.4-2.6c1-.6 3.2-1.3 4.2-1.8s1.6-1.2 2.2-.4l-1.2 1.4c-2 2.4-1.4 2.8-1.4 4.1a21 21 0 0 1-1 4.2c1.4-1.5 2-3 3.4-2.6s1.6.2 3.5 2.2 2.4 2.7 2.3 3.3" opacity=".4"/><path d="M239.3 251.3C237 248 235.7 241 237 238l1.3-3-.2.6-.2 1.2a9 9 0 0 0 .3 4.7c.6 1.3 1.8 4.6 3.5 4.8q1.5-.2 2.3-2l.5-1.7a15 15 0 0 1 4.4 2c2.4 1.8 2.3 2.2 2.3 2.2l-.2 2.2a6 6 0 0 0 .9 2.2l.6.6a7 7 0 0 1-3.3 5.7c-1.7 1-5 .5-9.8-6.2" opacity=".3"/><path d="M253.5 238.3a35 35 0 0 0-1 8.2c-1 2.6-1.9 2.5-2 1.1s2-7 3.6-11.6zm-5.5-16.8a6 6 0 0 1 1.2-3.7l.6-.3c1.2-.6 1.7-1.1 2.3-.4l-1.3 1.4c-1.9 2.4-1.4 2.8-1.4 4.1a21 21 0 0 1-.9 4.2c-1.2 4.4-2.2 5.9-2.9 10.1s0 7-.6 7.3-1.8-.3-1.8-3.7 1.6-9 2.8-11.7 2-5.5 2-7.3" fill="#37474f"/><path d="M244 243h.2a10 10 0 0 1 6.6 4.3.4.4 0 0 0 .7-.5 11 11 0 0 0-7-4.6.4.4 0 0 0-.6.3zm.7-3.6.2.2a11 11 0 0 1 7 4.6.4.4 0 0 0 .6 0v-.5a12 12 0 0 0-7.3-5 .4.4 0 0 0-.6.3zm.1-3.8.3.1a13 13 0 0 1 7.7 5.2.5.5 0 1 0 .7-.6 14 14 0 0 0-8.2-5.5.5.5 0 0 0-.5.8m.7-3.3.3.1a13 13 0 0 1 7.5 5l.7.2v-.7a13 13 0 0 0-8-5.4.5.5 0 0 0-.4.8Zm1.4-3.2.2.1a13 13 0 0 1 7.6 5.1h.6l.1-.6a14 14 0 0 0-8-5.4l-.6.4z" fill="#ebebeb"/><path fill="#ffa8a7" d="m255.6 218.3 8.5 7.6 4.8 3.3-6.1 10.5-15.6-8.4z"/><path d="M239.9 169.7s32.1-4 45.8-3.2c14 .7 14.2 10.9 11 17.4-8.3 16.8-31.6 37-31.6 37s-7.7-3.9-9.8-10.7l5.9-12L244 203l-1.8-2.5Z" fill="#455a64"/><path d="M264.4 188a121 121 0 0 0-7.5 11.4l4.3-1.2c5.3-11.2 6.4-14.5 14.3-19.5 0 0-5.6 1.8-11 9.3" fill="#37474f"/><path d="m239.9 169.7-49.6 6.8s-5.8 18.2-2 29.3 14.5 15 19.7 15.7c7.5 1 16.4-1 16.4-1a42 42 0 0 0 8.5 5.5l23.2 10.9s5.6-4.4 5.5-14l-19.4-22.5Z" fill="#455a64"/><path d="M256.1 236.9s1-.5 2.7-3.2c-5-1.4-21-8.6-26.2-11-9.3-4.4-12-8.8-12-8.8s-.2 2.8 3.8 6.6a42 42 0 0 0 8.5 5.5z" fill="#37474f"/><path d="M214.4 218.3c-4.7.5-17.3-2.4-21-11.5s-1.8-19.3-.5-28.3l-1.6.3-4.2.4a74 74 0 0 0 1.2 26.6c3.7 11.1 14.5 15 19.8 15.7 7.5 1 16.3-1 16.3-1l-2.3-4a32 32 0 0 1-7.7 1.8m29.9-15.5-2.6-3.3c-1.8-2.3-4.6-6.6-12.4-6.6s-22.6.6-22.6.6l21-2.6c5.4-.6 9 .1 11.8 3s7.5 8.2 7.5 8.2Z" fill="#37474f"/><path d="M234.4 192.5a15 15 0 0 0 4-10.6s1.6 7.2-1.6 12.1Z" fill="#37474f"/><path d="M288.8 235.7c3.7 1.6 6 3.2 7.5 5.6s2.1 4.6.3 7.3-4.9 5.8-8.5 5.4-5.7-1.4-9-3.3Z" fill="#263238"/><path d="M258.6 237.5c0 1.2 4.6 3.6 9.4 6.2 5.2 2.7 6.4 4.4 10.6 6.7 4.8 2.7 6.7 2.9 10.6 2s8.8-6.1 5.7-11.3c-2.5-4.2-5.9-5.5-11.1-7.1a99 99 0 0 1-12.1-4.5c-3.8-1.7-6.8-4.5-7.6-3.6.5.3 4.4 3 3.6 3.6q-.3.4-1.7-.3a2 2 0 0 0-1.4-.1l-1 1.1-1.3 3-.5 1a8 8 0 0 0-1 2.7q.1.6.7.8.8.3 1.1.8.3.2.3.6c0 .4-.8 0-1.1 0s-.8-.3-1.1-.5z" fill="#19b5b5"/><path d="M258.6 237.5c0 1.2 4.6 3.6 9.4 6.2 5.2 2.7 6.4 4.4 10.6 6.7 4.8 2.7 6.7 2.9 10.6 2s8.8-6.1 5.7-11.3c-2.5-4.2-5.9-5.5-11.1-7.1a99 99 0 0 1-12.1-4.5c-3.8-1.7-6.8-4.5-7.6-3.6.5.3 4.4 3 3.6 3.6q-.3.4-1.7-.3a2 2 0 0 0-1.4-.1l-1 1.1-1.3 3-.5 1a8 8 0 0 0-1 2.7q.1.6.7.8.8.3 1.1.8.3.2.3.6c0 .4-.8 0-1.1 0s-.8-.3-1.1-.5z" opacity=".4"/><path d="M277 249.5c.7.4 5 2.7 6.5 1.5s-1.9-3.6-1.9-3.6-.4-3.4 4-8.2c.6.6 3.5.7 3.6-1s-4.8-4-4.9-4.1c5 1.6 8.2 2.9 10.7 7 3 5.2-2 10.4-5.8 11.3s-5.7.7-10.6-2z" opacity=".3"/><path d="M282 247.1c1.9.7.5 2.4-2.2 1.7-4-1-7.3-3.5-11.8-5.1-4.8-2.6-9.8-5-9.4-6.2l2.7 1.2 1.3.6c3.7 1.7 7.7 4.5 11.7 5.8 3.5 1.1 6 1.3 7.8 2m3.1-7.2c-1.7-1-2-2-5.2-3.6s-8.8-5.3-12.2-7.4l-3.7-3c.6-.7 2.7 0 4.8 1.5s3.3 2.3 5.4 3.5c4 2.7 8.6 4.5 10.9 6.1s1.6 4 0 2.9" fill="#37474f"/><path d="M285.4 239.4v.2a15 15 0 0 0-3.6 8.1l-.5.4a.4.4 0 0 1-.4-.4 16 16 0 0 1 3.9-8.8.4.4 0 0 1 .6 0zm-3.2-2.5a20 20 0 0 0-4.4 9.6l-.6.4a.4.4 0 0 1-.3-.5 21 21 0 0 1 4.7-10.1.4.4 0 0 1 .6 0zm-7.7 9.1-.4.4a.4.4 0 0 1-.4-.5c.5-6 4.6-11.4 4.8-11.6a.4.4 0 0 1 .6 0l-.1.7s-4 5.3-4.4 10.9zm-3-2-.4.3a.4.4 0 0 1-.4-.5 18 18 0 0 1 5-11 .4.4 0 0 1 .6 0l-.1.7a17 17 0 0 0-4.6 10.2z" fill="#f0f0f0"/><path d="m267.6 242.2-.4.2a.4.4 0 0 1-.4-.4c.3-6.2 5-10.9 5.1-11a.4.4 0 0 1 .6 0v.6s-4.5 4.6-4.8 10.3z" fill="#ebebeb"/><path d="M200.2 72.3c-4-2.9-9-2.2-13.4 2a8 8 0 0 0-2.4 7c.2 1.4 1 2.9.5 4.3a11 11 0 0 1-2.2 3.6 12 12 0 0 0-3 8.7c.2 2.6 2.2 4 3 6.2a9 9 0 0 1-.8 6.8 11 11 0 0 0-1.7 4.4 8 8 0 0 0 1.7 6.3c1.7 2 4.7 2.7 7.3 3.3h.3a11 11 0 0 0 4.4.2l.9-.2.6-.3 1.7-.6a13 13 0 0 0 5.7-4.4 5 5 0 0 0 1.3-3.1c0-1.8-1.5-3.3-1.6-5s1.2-3.2 1.7-4.8c.8-2.6-.4-5.3-1.9-7.5s-3.2-4.4-3.7-7a9 9 0 0 1 .2-4l.6-1.9 1.2-3a20 20 0 0 0 0-5c0-1.4.3-4-.4-6" fill="#263238"/><path d="M198.5 73c-3-1.8-8.5 4.4-5.2 7.6Z" fill="#19b5b5"/><path d="M221.5 114.7c6.2 0 11 2.8 12.4 9.3 1.4 6.3 3.6 26 3.6 26l11.4 9.1-7.4 9.3s-13.1-6.3-17.6-8.7c-7-3.6-6.2-5-5.8-13.7s3.4-31.3 3.4-31.3" fill="#ffa8a7"/><path d="M188.3 149.4c1.1-17 1-24.4 2.8-30l8.1-2.3a116 116 0 0 1 17-2.3l5.3-.1c3.7 3.5 14.7 11.3 17.8 18.4a15 15 0 0 1-4.2 16.8v12s2 3.5 4.8 7.7c-.8 8.4-10.3 16.9-25.2 20.9a40 40 0 0 1-28.5-3s1-21.2 2-38.1" fill="#37474f"/><path d="M223.4 151.8s-4 5.4-12.5 4.8C202 156 200 149 200 149s0 9.4 10.5 10.2a13 13 0 0 0 12.8-7.3" fill="#263238"/><path d="M215 196.7v1a3 3 0 0 0 1.3 2.2l25.4 14.6a3 3 0 0 0 2.6 0l46.5-26.8a3 3 0 0 0 1.3-2.3v-.7L243 213.1Z" fill="#ebebeb"/><path d="m292.1 184.7-27.5-15.9a2 2 0 0 0-1.6 0l-47.8 27.6a.4.4 0 0 0 0 .6l27.8 16.1Z" fill="#fafafa"/><path fill="#e0e0e0" d="m242.7 210.8-14.8-8.6 43.4-25.1 15 8.5zm-7.3-23.9.3.2 7.3 4.2 13-7.5.2-.2-7.5-4.3z"/><path fill="#e6e6e6" d="m235.7 187.1 7.3 4.2 13-7.5-7.3-4.2z"/><path d="M243 213.1v1.8l1.3-.4 46.5-26.8a3 3 0 0 0 1.3-2.3v-.7Z" fill="#ebebeb"/><path d="M243 213.1v1.8l1.3-.4 46.5-26.8a3 3 0 0 0 1.3-2.3v-.7Z" fill="#e0e0e0" style="mix-blend-mode:multiply" opacity=".5"/><path d="M249 159.1a25 25 0 0 0 8.3 4.8c5.7 2 6.9 2 11.4 5.4a39 39 0 0 1 4.3 4c1.3 2.4 3.2 4.3 4.6 6.5 1.2 1.3-.2 1.7-1.4 1.5-3.1-.6-5-3.7-7.6-5.3a11 11 0 0 1-.2 3.2c-.2.8-.2 1.9-1.1 2.4l-2 .3-.5.7a2 2 0 0 1-1.6 0l-.8-.2a2 2 0 0 1-1.2 1 7 7 0 0 1-3.6-.7l-1.7-1.4c-.3-.3-1-.7-1.2-1.2s.9-1.3 1.6-1.3a7 7 0 0 1 2.3.7l-.3-2.1c-.4-1.2-5.1-1.1-9-2.7-2.9-1.2-4-4-5.4-4.8l-2.4-1.5" fill="#ffa8a7"/><path d="M243.7 213.5a3 3 0 0 0 2.8-.2l46.2-26.7a3 3 0 0 0 1.6-2.2l5-30.2v-.6a3 3 0 0 0-.9-2.2l-48 27.8a2 2 0 0 0-1.2 1.6Z" fill="#19b5b5"/><path d="M243.7 213.5a3 3 0 0 0 2.8-.2l46.2-26.7a3 3 0 0 0 1.6-2.2l5-30.2v-.6a3 3 0 0 0-.9-2.2l-48 27.8a2 2 0 0 0-1.2 1.6Z" fill="#fff" opacity=".7"/><path d="m243 213.1.3.2.4.2 5.5-32.7a2 2 0 0 1 1.2-1.6l48-27.8-.6-.5-48.2 27.8a2 2 0 0 0-1.1 1.7Z" fill="#fafafa"/><path d="M269.8 185.6c.3-2 2.4-4.7 4.7-6s3.8-.7 3.4 1.3-2.4 4.8-4.7 6-3.7.7-3.4-1.3" fill="#19b5b5"/><path d="M175.7 164.7c1.2-12.4 3.5-26.7 5.8-35.7 1.3-4.7 2.5-7 9.6-9.5 7 4.2 5.5 19.7 4.8 23.2l-4.3 22.5A134 134 0 0 0 204 174a30 30 0 0 0 15.8 4.9c6 .2 8.5-.2 11.7.9l7 2.5c1.3.5 3.9 2.7 6.2 4.1s-.3 2.5-2 2.2a20 20 0 0 1-4.8-1.9l-4.2-1.2a24 24 0 0 1 1.2 4.6c.1.9.4 2-.3 2.6l-1.8 1-.3.8a2 2 0 0 1-1.4.5h-1a2 2 0 0 1-.8 1.3 7 7 0 0 1-3.7.4l-2-.9-1.4-.7c-.3-.4.4-1.6 1.1-1.7h2.4l-.9-2c-.7-1-5.2.4-9.4 0-3-.2-5.6-3-7-3.5-9.2-3.3-16.2-5.5-25.6-10.2-8.7-4.3-7.7-6.6-7-13" fill="#ffa8a7"/><path d="M234.5 185.7c-.6-1.1-1.4-2.4-2.3-2.7a10 10 0 0 1 1.5 2.5Zm-1.7 7.9-.1-2.5-.5-2.5-1-2.4a5 5 0 0 0-1.6-2l.8 1 .5 1.2.8 2.3.6 2.5zm-2.6 1.4-.2-2.5-.6-2.4-.9-2.4a5 5 0 0 0-1.4-2l.6 1 .5 1.2a49 49 0 0 1 2 7.1m-6.9-1.6h1l1 .4-.2-.3.2.5.2.4.8.4-.5-.6-.1-.4v-.4l-.2-.1-1-.1z" fill="#f28f8f"/><path d="M224.4 72.7c8.2 0 9 10.4 4.8 17.7-7.6 13-25.2 8.2-25.2 8.2l-3.1 10.5s-2.9-2.9-6.5-7c-6.5-7.3-5.5-18.2-1.1-20.6-1-10 19.8-19.1 31.1-8.8" fill="#37474f"/><path d="M224.4 78.6c2.6 1.4 4.8 7.4 4.4 19.2-.3 8.4-3.3 11.8-6 13a16 16 0 0 1-6.7.8v3.8s10.7 8.6.5 9.9c-10.8 1.3-15.1-8.6-15.1-8.6l-.9-15.5a4 4 0 0 1-6.3-.3c-2.9-3.3-2.5-7.5-.1-9.2s5.3-.3 6.6 2.5c2.6 1 6-2 5.3-12 3.1-1.9 4.8 1 11.4-.1 3-.6 3.8-5 7-3.5" fill="#ffa8a7"/><path d="M195.7 99.5a1.4 1.4 0 1 0 1.5-1.2 1.4 1.4 0 0 0-1.5 1.2" fill="#19b5b5"/><path d="M216 111.6c-9.3-.7-11.8-4.6-12.8-7.8 0 0-.5 5 1.9 6.7 3.3 2.5 11 3.4 11 3.4Z" fill="#f28f8f"/><path d="m219.8 103.2-5.1-2a2.6 2.6 0 0 0 1.4 3.6 3 3 0 0 0 3.7-1.6" fill="#af6152"/><path d="m217.3 105-1.2-.3a3 3 0 0 1-1.6-2.2 3 3 0 0 1 2.8 2.4" fill="#f28f8f"/><path d="M211.5 93.4a1.6 1.6 0 1 0 1.5-1.6 1.6 1.6 0 0 0-1.5 1.6m11.4-.8a1.6 1.6 0 0 0 1.6 1.5 1.5 1.5 0 0 0 1.5-1.6 1.6 1.6 0 0 0-3.1.1m4.1-4.9-3.7-.3a2 2 0 0 1 2-1.8 2 2 0 0 1 1.8 2m-17.3.1 3.8-.5a2 2 0 0 0-2.1-1.6 2 2 0 0 0-1.7 2.1" fill="#263238"/><path fill="#f28f8f" d="m218.2 90.7 1.2 9.5 4.6-2z"/><path d="M372.5 220.7v8q0 6 7.7 10.7c10.4 6 27.2 6 37.5 0q7.7-4.7 7.8-10.7v-8l-3.4.5a20 20 0 0 0-4.4-3.4c-10.3-6-27.1-6-37.5 0a20 20 0 0 0-4.4 3.4Z" fill="#37474f"/><ellipse cx="399" cy="220.6" rx="26.5" ry="15.3" fill="#455a64"/><path d="M387.3 222a8 8 0 0 1-4.1-1 3 3 0 0 1-2-2.9 3 3 0 0 1 1.5-2.2 8 8 0 0 1 7.3.2 3 3 0 0 1 2 2.8 3 3 0 0 1-1.5 2.3 7 7 0 0 1-3.2.7m-1.4-5.5a5 5 0 0 0-2.5.5 1 1 0 0 0-.8 1q0 1 1.3 1.7a7 7 0 0 0 6 .2 1 1 0 0 0 .7-1q0-.8-1.3-1.5a7 7 0 0 0-3.4-1m17.3 14.7a8 8 0 0 1-4.1-1 3 3 0 0 1-2-2.7 3 3 0 0 1 1.5-2.3 8 8 0 0 1 7.3.3 3 3 0 0 1 2 2.8 3 3 0 0 1-1.5 2.3 7 7 0 0 1-3.2.7m-1.4-5.3a5 5 0 0 0-2.5.5 1 1 0 0 0-.8 1q0 1 1.3 1.6a7 7 0 0 0 6 .3 1 1 0 0 0 .7-1q0-.9-1.3-1.6a7 7 0 0 0-3.4-.8" fill="#fafafa"/><path fill="#fafafa" d="m389.9 221 .7-1.2 8.7 5-.7 1.3z"/><path d="M395.6 221.9a26 26 0 0 1-5.6-.7l.3-1.3c6.2 1.3 11.6.4 17.6-3l.7 1.2a26 26 0 0 1-13 3.8" fill="#fafafa"/><path d="M411.1 215.7c2 1.1 2.1 2.7.5 3.7a7 7 0 0 1-6.3-.3c-1.9-1-2-2.7-.5-3.6a7 7 0 0 1 6.3.2" fill="#fafafa"/><path d="M181.8 330.7v8q0 6.1 7.8 10.8c10.3 6 27.1 6 37.5 0 5.1-3 7.7-6.9 7.8-10.8v-8l-3.4.5a20 20 0 0 0-4.4-3.4c-10.4-6-27.2-6-37.5 0a20 20 0 0 0-4.4 3.4Z" fill="#37474f"/><ellipse cx="208.3" cy="330.6" rx="26.5" ry="15.3" fill="#455a64"/><path d="M198 331a8 8 0 0 1-4.1-1 3 3 0 0 1-2-2.7 3 3 0 0 1 1.5-2.3 8 8 0 0 1 7.4.3 3 3 0 0 1 2 2.8 3 3 0 0 1-1.5 2.3 7 7 0 0 1-3.3.7m-1.3-5.4a5 5 0 0 0-2.6.6 1 1 0 0 0-.8 1q0 1 1.3 1.6a7 7 0 0 0 6 .3 1 1 0 0 0 .7-1q0-1-1.2-1.6a7 7 0 0 0-3.5-.9Zm15.2 2.6a8 8 0 0 1-4.1-1 3 3 0 0 1-2-2.8 3 3 0 0 1 1.5-2.3 8 8 0 0 1 7.3.3 3 3 0 0 1 2 2.8 3 3 0 0 1-1.5 2.3 7 7 0 0 1-3.2.7m-1.4-5.4a5 5 0 0 0-2.5.5 1 1 0 0 0-.8 1q0 1 1.3 1.6a7 7 0 0 0 6 .3 1 1 0 0 0 .7-1q0-1-1.3-1.6a7 7 0 0 0-3.4-.8m6.4 12.7c1.8 1 2 2.7.4 3.6a7 7 0 0 1-6.3-.2c-1.9-1-2-2.7-.4-3.6a7 7 0 0 1 6.3.2" fill="#fafafa"/><path d="m214 338-13.5-7.7.7-1.2 12.7 7.3 4-2.3a3 3 0 0 0 1.6-2q-.1-1.6-2.3-3l-2.8-1.6.7-1.2 2.8 1.6q3 1.7 3 4.1a4 4 0 0 1-2.3 3.4Z" fill="#fafafa"/><path d="M154.7 238.4v8c0 3.8 2.6 7.7 7.7 10.7 10.4 6 27.2 6 37.5 0q7.8-4.7 7.8-10.7v-8l-3.3.5a20 20 0 0 0-4.5-3.4c-10.3-6-27.1-6-37.5 0a20 20 0 0 0-4.4 3.4Z" fill="#37474f"/><ellipse cx="181.2" cy="238.3" rx="26.5" ry="15.3" fill="#455a64"/><path d="M166.9 240.2a8 8 0 0 1-4.1-1 3 3 0 0 1-2-2.8 3 3 0 0 1 1.5-2.3 8 8 0 0 1 7.3.3 3 3 0 0 1 2 2.8 3 3 0 0 1-1.5 2.3 7 7 0 0 1-3.2.7m-1.4-5.4a5 5 0 0 0-2.5.5 1 1 0 0 0-.8 1q0 1 1.3 1.6a7 7 0 0 0 6 .3 1 1 0 0 0 .7-1q0-.9-1.2-1.6a7 7 0 0 0-3.5-.8m17.3 14.6a8 8 0 0 1-4.1-1 3 3 0 0 1-2-2.8 3 3 0 0 1 1.5-2.3 8 8 0 0 1 7.3.3 3 3 0 0 1 2 2.8 3 3 0 0 1-1.5 2.3 7 7 0 0 1-3.2.7m-1.4-5.5a5 5 0 0 0-2.5.6 1 1 0 0 0-.8 1q0 1 1.3 1.6a7 7 0 0 0 6 .3 1 1 0 0 0 .8-1q0-1-1.3-1.6a7 7 0 0 0-3.5-.9" fill="#fafafa"/><path fill="#fafafa" d="m169.4 239.5.7-1.3 8.8 5-.7 1.3zm27.4 1.8a8 8 0 0 1-4-1 3 3 0 0 1-2-2.8 3 3 0 0 1 1.4-2.3 8 8 0 0 1 7.4.3 3 3 0 0 1 2 2.8 3 3 0 0 1-1.5 2.3 7 7 0 0 1-3.3.7m-1.3-5.5a5 5 0 0 0-2.6.6 1 1 0 0 0-.8 1q0 1 1.3 1.6a7 7 0 0 0 6 .3 1 1 0 0 0 .8-1q0-1-1.3-1.6a7 7 0 0 0-3.4-.9"/><path d="m192.2 236.4-6.5-3.8c-3-1.7-7.6-1.9-10.1-.4l-1.4.8-.7-1.3 1.3-.7c3-1.8 8.1-1.6 11.6.4l6.5 3.8Z" fill="#fafafa"/><path d="m179.5 233.5-7.3.2q-.6 0-.7-.4l.4-4.2q.2-.5 1-.1l6.8 4q.6.3-.2.5" fill="#fafafa"/><path d="M298.6 292.4V353a4 4 0 0 1-2 3.5l-38.4 22.1-.6.2h-.5l-.1-.2-.6-.6-.2-1v-60a4 4 0 0 1 2-3.5l38.4-22a1 1 0 0 1 1.3-.2h.2l.1.2.1.1.1.3v.4z" fill="#455a64"/><path d="M297.9 291.1a1 1 0 0 0-1.3.2l-38.4 22a4 4 0 0 0-2 3.5v6.5l-5-3V314a4 4 0 0 1 2-3.4l38.3-22.1a1 1 0 0 1 1.4-.1z" fill="#19b5b5"/><path d="M298.5 292.4q-.1-2-2-1.1l-38.3 22a4 4 0 0 0-2 3.5v6.5l42.3-24.4Z" fill="#19b5b5"/><path d="m296.6 291.3-38.4 22a4 4 0 0 0-1.4 1.6l-5-2.9a4 4 0 0 1 1.3-1.5l38.4-22a1.4 1.4 0 0 1 1.4-.2l5 2.8a1 1 0 0 0-1.3.2" fill="#fff" opacity=".3"/><path d="M251.1 320.4v-6.5a4 4 0 0 1 .6-2l5.2 3a4 4 0 0 0-.6 2v6.5Z" opacity=".1"/><path d="M287.3 299.4a3 3 0 0 0-1.2 2.4q0 1.5 1.2 1a3 3 0 0 0 1-2.3q0-1.6-1-1.1m4-2.4a3 3 0 0 0-1.1 2.4q.1 1.5 1.1 1a3 3 0 0 0 1.1-2.3q-.1-1.5-1-1.1m4-2.3a3 3 0 0 0-1.2 2.4q0 1.6 1.2 1a3 3 0 0 0 1-2.3q0-1.5-1-1.1" fill="#fafafa"/><path d="m257 378.5-.2-.1-4.8-2.8-.6-.6-.2-1v-53.6l5 3v53.5l.3 1z" fill="#37474f"/><path d="m280.2 326.1 12.8-7.4q.6-.2.7.4a2 2 0 0 1-.7 1.2l-12.8 7.4q-.6.3-.7-.4a2 2 0 0 1 .7-1.2m0-5.5 12.8-7.4q.6-.4.7.3a2 2 0 0 1-.7 1.2l-12.8 7.4q-.6.3-.7-.4a2 2 0 0 1 .7-1.1m0-5.6 12.8-7.4q.6-.2.7.4a2 2 0 0 1-.7 1.2l-12.8 7.4q-.6.3-.7-.4a2 2 0 0 1 .7-1.2" fill="#19b5b5"/><path d="m272.6 349 20.4-11.7q.6-.3.7.3a2 2 0 0 1-.7 1.2l-20.4 11.8q-.6.4-.7-.3a2 2 0 0 1 .7-1.2m0 12.4 20.4-11.8q.6-.2.7.4a2 2 0 0 1-.7 1.1L272.6 363q-.7.3-.8-.4a2 2 0 0 1 .8-1.1" fill="#fafafa"/><path d="m261.8 343 19.5-11.3q.6-.4.7.3a2 2 0 0 1-.7 1.2l-19.5 11.3q-.6.3-.7-.4a2 2 0 0 1 .7-1.2" fill="#19b5b5"/><path d="m261.8 343 19.5-11.3q.6-.4.7.3a2 2 0 0 1-.7 1.2l-19.5 11.3q-.6.3-.7-.4a2 2 0 0 1 .7-1.2" fill="#fff" opacity=".6"/><path d="m261.8 349 6.6-3.7q.7-.4.8.3a2 2 0 0 1-.8 1.2l-6.6 3.8q-.6.4-.7-.3a2 2 0 0 1 .7-1.2" fill="#19b5b5"/><path d="m261.8 349 6.6-3.7q.7-.4.8.3a2 2 0 0 1-.8 1.2l-6.6 3.8q-.6.4-.7-.3a2 2 0 0 1 .7-1.2" fill="#fff" opacity=".6"/><path d="m261.8 355.3 6.6-3.8q.7-.4.8.3a2 2 0 0 1-.8 1.2l-6.6 3.8q-.6.3-.7-.3a2 2 0 0 1 .7-1.2" fill="#19b5b5"/><path d="m261.8 355.3 6.6-3.8q.7-.4.8.3a2 2 0 0 1-.8 1.2l-6.6 3.8q-.6.3-.7-.3a2 2 0 0 1 .7-1.2" fill="#fff" opacity=".6"/><path d="m261.8 361.5 6.6-3.8q.7-.4.8.3a2 2 0 0 1-.8 1.2l-6.6 3.8q-.6.3-.7-.4a2 2 0 0 1 .7-1.1" fill="#19b5b5"/><path d="m261.8 361.5 6.6-3.8q.7-.4.8.3a2 2 0 0 1-.8 1.2l-6.6 3.8q-.6.3-.7-.4a2 2 0 0 1 .7-1.1" fill="#fff" opacity=".6"/><path d="m272.6 355.3 20.4-11.8q.6-.2.7.4a2 2 0 0 1-.7 1.1l-20.4 11.8q-.6.3-.7-.4a2 2 0 0 1 .7-1.1" fill="#19b5b5" opacity=".6"/><path d="m272.6 355.3 20.4-11.8q.6-.2.7.4a2 2 0 0 1-.7 1.1l-20.4 11.8q-.6.3-.7-.4a2 2 0 0 1 .7-1.1" fill="#fff" opacity=".6"/><path d="m261.8 367.7 6.6-3.9q.7-.2.8.4a2 2 0 0 1-.8 1.2l-6.6 3.8q-.6.3-.7-.4a2 2 0 0 1 .7-1.1" fill="#19b5b5"/><path d="m261.8 367.7 6.6-3.9q.7-.2.8.4a2 2 0 0 1-.8 1.2l-6.6 3.8q-.6.3-.7-.4a2 2 0 0 1 .7-1.1" fill="#fff" opacity=".6"/><path d="m284 330 9-5q.6-.2.7.4a2 2 0 0 1-.7 1.2l-8.9 5q-.6.4-.7-.3a2 2 0 0 1 .7-1.2" fill="#19b5b5"/><path d="m284 330 9-5q.6-.2.7.4a2 2 0 0 1-.7 1.2l-8.9 5q-.6.4-.7-.3a2 2 0 0 1 .7-1.2" fill="#fff" opacity=".6"/><path d="m272.6 342.9 20.4-11.8q.6-.2.7.4a2 2 0 0 1-.7 1.2l-20.4 11.8q-.6.3-.7-.4a2 2 0 0 1 .7-1.2" fill="#19b5b5"/><path d="m272.6 342.9 20.4-11.8q.6-.2.7.4a2 2 0 0 1-.7 1.2l-20.4 11.8q-.6.3-.7-.4a2 2 0 0 1 .7-1.2" fill="#fff" opacity=".6"/><path d="m261.1 331.6.1-.4.2-.4 4-6.4q.1-.1.2 0v3.1l-.3.3-1.7 2.7 1.7.7h.2l.1.4v2.8l-.2.1-4-1.8-.2-.1v-.4Zm8.6-10.8.2-.4.3-.3 1.3-.8h.1l.1.2v.2l-3.3 14.2-.2.3-.3.4-1.3.7h-.1v-.3Zm7.3 2.2v.5l-.3.4-4 6.4a.1.1 0 0 1-.2 0v-3.1l.3-.3 1.7-2.7-1.7-.7h-.2l-.1-.5v-2.7l.2-.1 4 1.8.2.1.1.4Z" fill="#fff"/><path d="M448.5 50.4v60.5a4 4 0 0 1-2 3.4l-38.3 22.2-.7.2h-.4l-.2-.2-.5-.6-.2-1v-60a4 4 0 0 1 2-3.5l38.3-22.1a2 2 0 0 1 1.4-.2l.1.1.2.2v.1l.2.3v.3z" fill="#455a64"/><path d="M447.9 49a2 2 0 0 0-1.4.2l-38.3 22.2a4 4 0 0 0-2 3.4v6.5l-5.1-3V72a4 4 0 0 1 2-3.4l38.3-22.1a1.4 1.4 0 0 1 1.5-.2c.3.3 4.5 2.7 5 2.9" fill="#19b5b5"/><path d="M448.5 50.4q-.2-2-2-1.1l-38.3 22a4 4 0 0 0-2 3.5v6.5L448.5 57Z" fill="#19b5b5"/><path d="m446.5 49.3-38.3 22a4 4 0 0 0-1.4 1.6l-5.1-3a4 4 0 0 1 1.4-1.4l38.3-22.1a1.4 1.4 0 0 1 1.4-.2l5 2.9a1 1 0 0 0-1.3.1" fill="#fff" opacity=".3"/><path d="M401.1 78.4v-6.5a4 4 0 0 1 .6-2l5.1 3a4 4 0 0 0-.6 2v6.4Z" opacity=".1"/><path d="M437.2 57.4a3 3 0 0 0-1.1 2.3q.1 1.6 1.1 1.1a3 3 0 0 0 1.1-2.3q-.1-1.6-1-1.1m4-2.4a3 3 0 0 0-1.2 2.4q0 1.6 1.2 1a3 3 0 0 0 1-2.3q0-1.5-1-1.1m4-2.3a3 3 0 0 0-1.1 2.4q.1 1.6 1.1 1a3 3 0 0 0 1.1-2.3q-.1-1.6-1-1.1" fill="#fafafa"/><path d="m407 136.5-.3-.1-4.8-2.8-.6-.6-.2-1V78.4l5.1 3v53.4l.2 1z" fill="#37474f"/><path d="m430.1 84.1 12.8-7.4q.7-.2.7.4a2 2 0 0 1-.7 1.2l-12.8 7.4q-.6.3-.7-.4a2 2 0 0 1 .7-1.2m0-5.5 12.8-7.4q.7-.4.7.3a2 2 0 0 1-.7 1.2l-12.8 7.4q-.6.3-.7-.4a2 2 0 0 1 .7-1.2m0-5.5 12.8-7.4q.7-.2.7.4a2 2 0 0 1-.7 1.1l-12.8 7.4q-.6.4-.7-.3a2 2 0 0 1 .7-1.2" fill="#19b5b5"/><path d="M422.5 107 443 95.4q.7-.4.7.3a2 2 0 0 1-.7 1.2l-20.4 11.8q-.6.2-.7-.3a2 2 0 0 1 .7-1.2m-.1 12.3 20.4-11.8q.7-.3.7.3a2 2 0 0 1-.7 1.2L422.5 121q-.6.3-.7-.4a2 2 0 0 1 .7-1.1" fill="#fafafa"/><path d="m411.8 100.9 19.5-11.3q.6-.2.7.4a2 2 0 0 1-.7 1.2l-19.5 11.2q-.7.4-.7-.3a2 2 0 0 1 .7-1.2" fill="#19b5b5"/><path d="m411.8 100.9 19.5-11.3q.6-.2.7.4a2 2 0 0 1-.7 1.2l-19.5 11.2q-.7.4-.7-.3a2 2 0 0 1 .7-1.2" fill="#fff" opacity=".6"/><path d="m411.8 107 6.6-3.7q.7-.4.7.3a2 2 0 0 1-.7 1.2l-6.6 3.8q-.7.3-.7-.3a2 2 0 0 1 .7-1.2" fill="#19b5b5"/><path d="m411.8 107 6.6-3.7q.7-.4.7.3a2 2 0 0 1-.7 1.2l-6.6 3.8q-.7.3-.7-.3a2 2 0 0 1 .7-1.2" fill="#fff" opacity=".6"/><path d="m411.8 113.3 6.6-3.9q.7-.2.7.4a2 2 0 0 1-.7 1.2l-6.6 3.8q-.7.2-.7-.3a2 2 0 0 1 .7-1.2" fill="#19b5b5"/><path d="m411.8 113.3 6.6-3.9q.7-.2.7.4a2 2 0 0 1-.7 1.2l-6.6 3.8q-.7.2-.7-.3a2 2 0 0 1 .7-1.2" fill="#fff" opacity=".6"/><path d="m411.8 119.5 6.6-3.9q.7-.2.7.4a2 2 0 0 1-.7 1.2l-6.6 3.8q-.7.3-.7-.4a2 2 0 0 1 .7-1.1" fill="#19b5b5"/><path d="m411.8 119.5 6.6-3.9q.7-.2.7.4a2 2 0 0 1-.7 1.2l-6.6 3.8q-.7.3-.7-.4a2 2 0 0 1 .7-1.1" fill="#fff" opacity=".6"/><path d="m422.5 113.3 20.4-11.8q.7-.2.7.3a2 2 0 0 1-.7 1.2l-20.4 11.8q-.6.2-.7-.3a2 2 0 0 1 .7-1.2" fill="#19b5b5" opacity=".6"/><path d="m422.5 113.3 20.4-11.8q.7-.2.7.3a2 2 0 0 1-.7 1.2l-20.4 11.8q-.6.2-.7-.3a2 2 0 0 1 .7-1.2" fill="#fff" opacity=".6"/><path d="m411.8 125.6 6.6-3.8q.7-.2.7.4a2 2 0 0 1-.7 1.2l-6.6 3.8q-.7.3-.7-.4a2 2 0 0 1 .7-1.2" fill="#19b5b5"/><path d="m411.8 125.6 6.6-3.8q.7-.2.7.4a2 2 0 0 1-.7 1.2l-6.6 3.8q-.7.3-.7-.4a2 2 0 0 1 .7-1.2" fill="#fff" opacity=".6"/><path d="m434 88 9-5.1q.5-.2.6.4a2 2 0 0 1-.7 1.1l-8.8 5.2q-.8.3-.8-.4a2 2 0 0 1 .8-1.2" fill="#19b5b5"/><path d="m434 88 9-5.1q.5-.2.6.4a2 2 0 0 1-.7 1.1l-8.8 5.2q-.8.3-.8-.4a2 2 0 0 1 .8-1.2" fill="#fff" opacity=".6"/><path d="M422.5 100.9 443 89q.7-.2.7.4a2 2 0 0 1-.7 1.1l-20.4 11.8q-.6.4-.7-.3a2 2 0 0 1 .7-1.2" fill="#19b5b5"/><path d="M422.5 100.9 443 89q.7-.2.7.4a2 2 0 0 1-.7 1.1l-20.4 11.8q-.6.4-.7-.3a2 2 0 0 1 .7-1.2" fill="#fff" opacity=".6"/><path d="m411 89.6.1-.4.3-.4 4-6.4h.2v3.1l-.3.4-1.7 2.6 1.7.7h.2l.1.5v2.7l-.2.2-4-1.9-.3-.1v-.3Zm8.7-10.8.1-.4.3-.3 1.3-.8a.1.1 0 0 1 .2 0v.3L418.4 92l-.1.3-.3.4-1.3.7a.1.1 0 0 1-.2 0V93ZM427 81l-.1.5-.3.4-3.9 6.3v.1a.1.1 0 0 1-.2 0v-3.1l.2-.3 1.8-2.7-1.8-.7h-.2v-3.2l.1-.1h.1l4 1.8.1.1.1.4Z" fill="#fff"/><path d="m468.4 99.5-5.1-3q-3.7-1.9-9 1.4a29 29 0 0 0-11.8 23q.4 6.3 4.2 8.2l5.1 3q3.8 1.8 9-1.5c7-4.4 12.2-14.7 11.8-23q-.4-6.2-4.2-8.1" fill="#19b5b5"/><path d="m468.4 99.5-5.1-3q-3.7-1.9-9 1.4a29 29 0 0 0-11.8 23q.4 6.3 4.2 8.2l5.1 3q3.8 1.8 9-1.5c7-4.4 12.2-14.7 11.8-23q-.4-6.2-4.2-8.1" fill="#fff" opacity=".3"/><path d="m451.6 131.9-5-2.9q-3.7-1.9-4.2-8.1a26 26 0 0 1 2.5-11.6l5.1 3a26 26 0 0 0-2.5 11.5q.5 6.1 4 8" fill="#19b5b5"/><path d="m451.6 131.9-5-2.9q-3.7-1.9-4.2-8.1a26 26 0 0 1 2.5-11.6l5.1 3a26 26 0 0 0-2.5 11.5q.5 6.1 4 8" opacity=".1"/><path d="M460.8 130.6c7-4.4 12.2-14.7 11.8-23s-6.4-11.2-13.3-6.8-12.2 14.8-11.8 23 6.4 11.3 13.3 6.8" fill="#19b5b5"/><path d="M467.1 102.6h-.1a2 2 0 0 0-2.7.8l-8.3 17.2-.5-.5-.4-.4-1.5-.8a2 2 0 0 0-2.6 3.1l3.7 4 .5.4 1.5.8.9.3h.4a2 2 0 0 0 1.5-1.1l9.9-20.3a2 2 0 0 0-.8-2.7Z" fill="#ebebeb"/><path d="m456.7 127.3-1.5-.9-.4-.4-3.8-4-.4-.6 1.5.8.4.7 3.7 4z" fill="#e0e0e0"/><path d="m456.7 127.3-1.5-.9-.4-.4-3.8-4-.4-.6 1.5.8.4.7 3.7 4z" opacity=".1"/><path d="m466.2 103.7-.4.6-8.6 17.7-1.2-1.4 8.4-17.2.4-.6Z" fill="#e0e0e0"/><path d="m466.2 103.7-.4.6-8.6 17.7-1.2-1.4 8.4-17.2.4-.6Z" opacity=".1"/><path d="M468.5 103.4a2 2 0 0 0-2.7.9l-8.6 17.7-1.7-1.9a2 2 0 1 0-3 2.8l3.7 4a2 2 0 0 0 1.4.6h.4a2 2 0 0 0 1.5-1l9.9-20.4a2 2 0 0 0-1-2.7" fill="#fafafa"/><path d="M319.9 50.4v60.5a4 4 0 0 1-2 3.4l-38.3 22.2-.7.2h-.4l-.2-.2-.5-.6-.2-1v-60a4 4 0 0 1 2-3.5l38.3-22.1a1 1 0 0 1 1.3-.2l.2.1.1.2.1.1.2.3z" fill="#455a64"/><path d="M319.2 49a1 1 0 0 0-1.3.2l-38.3 22.2a4 4 0 0 0-2 3.4v6.5l-5.1-3V72a4 4 0 0 1 2-3.4l38.3-22.1a1.4 1.4 0 0 1 1.4-.2z" fill="#19b5b5"/><path d="M319.9 50.4c0-1.3-1-1.8-2-1.1l-38.3 22a4 4 0 0 0-2 3.5v6.5L319.9 57Z" fill="#19b5b5"/><path d="m317.9 49.3-38.3 22a4 4 0 0 0-1.4 1.6l-5.1-3a4 4 0 0 1 1.4-1.4l38.3-22.1a1.4 1.4 0 0 1 1.4-.2l5 2.9a1 1 0 0 0-1.3.1" fill="#fff" opacity=".3"/><path d="M272.5 78.4v-6.5a4 4 0 0 1 .6-2l5 3a4 4 0 0 0-.5 2v6.4Z" opacity=".1"/><path d="M308.6 57.4a3 3 0 0 0-1.1 2.3q.1 1.6 1 1.1a3 3 0 0 0 1.2-2.3q-.1-1.6-1.1-1.1m4-2.4a3 3 0 0 0-1 2.4q0 1.6 1 1a3 3 0 0 0 1.2-2.3q0-1.5-1.2-1.1m4.1-2.3a3 3 0 0 0-1.1 2.4q.1 1.6 1 1a3 3 0 0 0 1.2-2.3q-.1-1.6-1.1-1.1" fill="#fafafa"/><path d="m278.3 136.5-.2-.1-4.8-2.8-.6-.6-.2-1V78.4l5 3v53.4l.3 1z" fill="#37474f"/><path d="m301.5 84.1 12.8-7.4q.6-.2.7.4a2 2 0 0 1-.7 1.2l-12.8 7.4q-.6.3-.7-.4a2 2 0 0 1 .7-1.2m0-5.5 12.8-7.4q.6-.4.7.3a2 2 0 0 1-.7 1.2l-12.8 7.4q-.6.3-.7-.4a2 2 0 0 1 .7-1.2m0-5.5 12.8-7.4q.6-.2.7.4a2 2 0 0 1-.7 1.1l-12.8 7.4q-.6.4-.7-.3a2 2 0 0 1 .7-1.2" fill="#19b5b5"/><path d="m293.9 107 20.4-11.7q.6-.4.7.3a2 2 0 0 1-.7 1.2l-20.4 11.8q-.6.2-.7-.3a2 2 0 0 1 .7-1.2m0 12.4 20.4-11.8q.6-.3.7.3a2 2 0 0 1-.7 1.2L293.9 121q-.6.3-.7-.4a2 2 0 0 1 .7-1.1" fill="#fafafa"/><path d="m283.2 100.9 19.5-11.3q.6-.2.7.4a2 2 0 0 1-.7 1.2l-19.5 11.2q-.6.4-.7-.3a2 2 0 0 1 .7-1.2" fill="#19b5b5"/><path d="m283.2 100.9 19.5-11.3q.6-.2.7.4a2 2 0 0 1-.7 1.2l-19.5 11.2q-.6.4-.7-.3a2 2 0 0 1 .7-1.2" fill="#fff" opacity=".6"/><path d="m283.2 107 6.6-3.7q.6-.4.7.3a2 2 0 0 1-.7 1.2l-6.6 3.8q-.6.3-.7-.3a2 2 0 0 1 .7-1.2" fill="#19b5b5"/><path d="m283.2 107 6.6-3.7q.6-.4.7.3a2 2 0 0 1-.7 1.2l-6.6 3.8q-.6.3-.7-.3a2 2 0 0 1 .7-1.2" fill="#fff" opacity=".6"/><path d="m283.2 113.3 6.6-3.9q.6-.2.7.4a2 2 0 0 1-.7 1.2l-6.6 3.8q-.6.2-.7-.3a2 2 0 0 1 .7-1.2" fill="#19b5b5"/><path d="m283.2 113.3 6.6-3.9q.6-.2.7.4a2 2 0 0 1-.7 1.2l-6.6 3.8q-.6.2-.7-.3a2 2 0 0 1 .7-1.2" fill="#fff" opacity=".6"/><path d="m283.2 119.5 6.6-3.9q.6-.2.7.4a2 2 0 0 1-.7 1.2l-6.6 3.8q-.6.3-.7-.4a2 2 0 0 1 .7-1.1" fill="#19b5b5"/><path d="m283.2 119.5 6.6-3.9q.6-.2.7.4a2 2 0 0 1-.7 1.2l-6.6 3.8q-.6.3-.7-.4a2 2 0 0 1 .7-1.1" fill="#fff" opacity=".6"/><path d="m293.9 113.3 20.4-11.8q.6-.2.7.3a2 2 0 0 1-.7 1.2l-20.4 11.8q-.6.2-.7-.3a2 2 0 0 1 .7-1.2" fill="#19b5b5" opacity=".6"/><path d="m293.9 113.3 20.4-11.8q.6-.2.7.3a2 2 0 0 1-.7 1.2l-20.4 11.8q-.6.2-.7-.3a2 2 0 0 1 .7-1.2" fill="#fff" opacity=".6"/><path d="m283.2 125.6 6.6-3.8q.6-.2.7.4a2 2 0 0 1-.7 1.2l-6.6 3.8q-.6.3-.7-.4a2 2 0 0 1 .7-1.2" fill="#19b5b5"/><path d="m283.2 125.6 6.6-3.8q.6-.2.7.4a2 2 0 0 1-.7 1.2l-6.6 3.8q-.6.3-.7-.4a2 2 0 0 1 .7-1.2" fill="#fff" opacity=".6"/><path d="m305.4 88 8.9-5.1q.6-.2.7.4a2 2 0 0 1-.7 1.1l-8.9 5.2q-.6.3-.7-.4a2 2 0 0 1 .7-1.2" fill="#19b5b5"/><path d="m305.4 88 8.9-5.1q.6-.2.7.4a2 2 0 0 1-.7 1.1l-8.9 5.2q-.6.3-.7-.4a2 2 0 0 1 .7-1.2" fill="#fff" opacity=".6"/><path d="M293.9 100.9 314.3 89q.6-.2.7.4a2 2 0 0 1-.7 1.1l-20.4 11.8q-.6.4-.7-.3a2 2 0 0 1 .7-1.2" fill="#19b5b5"/><path d="M293.9 100.9 314.3 89q.6-.2.7.4a2 2 0 0 1-.7 1.1l-20.4 11.8q-.6.4-.7-.3a2 2 0 0 1 .7-1.2" fill="#fff" opacity=".6"/><path d="M282.5 89.6v-.4l.2-.4 4-6.4a.1.1 0 0 1 .2 0v3.1l-.3.4-1.6 2.5 1.7.7.2.1.1.4v2.7l-.2.2-4-1.8-.2-.2-.1-.3Zm8.5-10.8.2-.4.3-.3 1.3-.8a.1.1 0 0 1 .2 0v.3L289.7 92l-.1.3-.3.4-1.3.7a.1.1 0 0 1-.2 0V93Zm7.3 2.2v.5l-.3.4-4 6.3v.1a.1.1 0 0 1-.2 0v-3.1l.3-.3 1.7-2.7-1.7-.7h-.2l-.1-.5v-2.7l.2-.1 4 1.8.2.1v.4Z" fill="#fff"/><path d="M340.4 111 331 95a5 5 0 0 0-1.7-2l-4.6-2.6q-2.4-1.2-3.8 2.5l-11.5 33.3q-1 3 .3 3.6c1.3.6 3.8 2.2 4.6 2.6s1.8.3 3.2-.6l20.3-11.7a6.7 6.7 0 0 0 2.5-9.1" fill="#19b5b5"/><path d="M340.4 111 331 95a5 5 0 0 0-1.7-2l-4.6-2.6q-2.4-1.2-3.8 2.5l-11.5 33.3q-1 3 .3 3.6c1.3.6 3.8 2.2 4.6 2.6s1.8.3 3.2-.6l20.3-11.7a6.7 6.7 0 0 0 2.5-9.1" fill="#fff" opacity=".3"/><path d="m311.4 120.6-2 5.6q-.9 3 .4 3.6c1.3.6 3.8 2.2 4.6 2.7s1.8.2 3.3-.7l1.2-.7 2-5Z" fill="#19b5b5"/><path d="m311.4 120.6-2 5.6q-.9 3 .4 3.6c1.3.6 3.8 2.2 4.6 2.7s1.8.2 3.3-.7l1.2-.7 2-5Z" opacity=".1"/><path d="M325.6 95.6 314 128.9c-1.2 3.4.5 4.8 3.6 3l20.3-11.7a6.7 6.7 0 0 0 2.4-9.1l-9.2-16c-1.8-3.2-4.3-3-5.5.5" fill="#19b5b5"/><path d="M329.6 99.2h-.4l-3.4 2a1 1 0 0 0-.5 1l.7 13.1.2.4 1.3.7h.4l1.7-1a1 1 0 0 0 .6-1l.8-14-.2-.4Z" fill="#e0e0e0"/><path d="m327.4 116.4-1.2-.7-.2-.4-.7-13.1.1-.6 1.3.8-.1.5.7 13.1z" opacity=".1"/><path d="M328.7 116.8a1 1 0 0 0-1.2.1 4 4 0 0 0-1.8 3.4 2 2 0 0 0 .6 1.5l1.3.7a1 1 0 0 0 1.2 0 4 4 0 0 0 1.7-3.5 2 2 0 0 0-.6-1.5Z" fill="#e0e0e0"/><path d="M328.7 116.8a1 1 0 0 0-1.2.1 4 4 0 0 0-1.8 3.4 2 2 0 0 0 .6 1.5l1.3.7a1 1 0 0 0 1.2 0 4 4 0 0 0 1.7-3.5 2 2 0 0 0-.6-1.5Z" opacity=".1"/><path d="m329.6 115.4-1.7 1a.4.4 0 0 1-.6-.4l-.7-13.1a1 1 0 0 1 .5-1l3.3-2q.5-.2.6.4l-.7 14a1 1 0 0 1-.7 1m-.8 7.1c-1.2.7-1.8-.2-1.8-1.3a4 4 0 0 1 1.8-3.5c1-.6 1.7.2 1.7 1.4a4 4 0 0 1-1.7 3.4" fill="#fafafa"/><path d="m126 64-13.8-8c-8.5-5-20.2-4.2-33.2 3.3-26 15-47.2 51.6-47.2 81.7 0 15 5.3 25.6 13.8 30.5l14 8c8.5 5.5 20.7 5 34.1-2.8 26-15 47.2-51.6 47.2-81.7 0-15.6-5.7-26.4-14.8-31" fill="#19b5b5"/><path d="M33.6 125.2a76 76 0 0 0-1.8 15.8c0 15 5.3 25.6 13.8 30.5l14 8 4.2-7 11.7-23.2Z" opacity=".1"/><path d="M72.7 181.6c-15.2 0-24.6-12.3-24.6-32 0-29.6 20.9-65.7 46.4-80.4a41 41 0 0 1 20.3-6.3 22 22 0 0 1 17.6 8.3 38 38 0 0 1 7 23.8c0 29.6-20.9 65.6-46.5 80.4a41 41 0 0 1-20.2 6.2" fill="#fafafa"/><path d="M114.8 64.5a20 20 0 0 1 16.4 7.7 36 36 0 0 1 6.5 22.8 101 101 0 0 1-45.6 79 40 40 0 0 1-19.4 6 20 20 0 0 1-16.4-7.6 36 36 0 0 1-6.5-22.9 101 101 0 0 1 45.6-79 40 40 0 0 1 19.4-6m0-3.2q-9.6-.1-21 6.5a104 104 0 0 0-47.2 81.7c0 21.4 10.6 33.7 26 33.7q9.7.1 21.1-6.4C119.8 161.7 141 125 141 95c0-21.3-10.6-33.7-26-33.7" fill="#e0e0e0"/><path d="M114 119.6v-19c0-8.4-4.5-12.7-10.4-10.8v-5.7c0-1-.9-1-1.4 0l-8 13c-.4.6-.4 1.5 0 1.7l8 3.7c.5.2 1.3-.8 1.3-1.7v-5c3.6-.7 6.1 2.2 6.1 7.3v19a22 22 0 0 0-6.5 15c0 6.4 4 9.3 8.7 6.6s8.7-10.2 8.7-16.6c0-5.4-2.7-8.3-6.5-7.5m-2.2 18.2c-2.4 1.4-4.3 0-4.3-3.2s2-6.9 4.3-8.3 4.3.1 4.3 3.3-1.9 6.9-4.2 8.2Zm-24-36.2c0-6.4-4-9.3-8.8-6.6s-8.6 10.2-8.6 16.6c0 5.4 2.7 8.3 6.5 7.4v22a22 22 0 0 0-6.5 15c0 6.4 3.9 9.3 8.7 6.6s8.7-10.2 8.7-16.6c0-5.4-2.8-8.3-6.5-7.5v-22a22 22 0 0 0 6.5-15Zm-4.4 47c0 3-2 6.8-4.3 8.2s-4.3-.1-4.3-3.3 1.9-6.9 4.3-8.2 4.3 0 4.3 3.2m-4.3-36.2c-2.4 1.3-4.3-.1-4.3-3.3s1.9-6.9 4.3-8.3 4.3.1 4.3 3.3-2 6.9-4.3 8.3m336.4 146.8V284a6 6 0 0 1-2.6 4.5l-88 50.8a6 6 0 0 1-5.2 0l-2.1-1.2a6 6 0 0 1-2.6-4.5v-24.8a6 6 0 0 1 2.6-4.5l88-50.8a6 6 0 0 1 5.2 0l2 1.2a6 6 0 0 1 2.6 4.4" fill="#19b5b5"/><path d="M315 333.7a6 6 0 0 0 2.6 4.4l2 1.2a6 6 0 0 0 4.7.2q-1.9.6-2-1.7V313a5 5 0 0 1 .7-2.5l-7.3-4.2a5 5 0 0 0-.7 2.5Z" opacity=".2"/><path d="M415.4 258.4q-.6-1.6-2.5-.8l-88 51a5 5 0 0 0-1.9 1.8l-7.2-4.1a5 5 0 0 1 1.8-2l88-50.8a6 6 0 0 1 5.2 0l2 1.2a6 6 0 0 1 2.6 3.7" fill="#fff" opacity=".3"/><path d="M329 328.6v-14.4l.1-.7.4-.5 2.5-1.4a2 2 0 0 1 2-.2q.9.6.9 3.3a10 10 0 0 1-.5 3.3 7 7 0 0 1-1.1 2.2l-1.1 1-1.2.7v5.6a1 1 0 0 1-.8 1l-.4.3q-.9.4-.8-.2m3-9.9.7-.9.3-2a3 3 0 0 0-.3-1.6h-.7l-1 .6v4.6Zm4.9 4.8q-1-.7-1-3V310a1 1 0 0 1 .8-1.1l.5-.3q.7-.4.7.2v10.6a2 2 0 0 0 .5 1.4 1 1 0 0 0 1 0 3 3 0 0 0 1.1-1.2 4 4 0 0 0 .4-2V307a1 1 0 0 1 .8-1l.4-.3q.8-.5.8.2v10.7a9 9 0 0 1-1 4 6 6 0 0 1-2.5 2.7q-1.5 1-2.5.2m7.9-3.6-.1-.6v-14.4a1 1 0 0 1 .7-1.1l.5-.3.6-.2q.2 0 .1.4v12.8l2.5-1.5h.3l.1.8v1.3l-.4.4-4 2.3zm6-3.5-.1-.6v-14.4a1 1 0 0 1 .7-1.1l.5-.3q.5-.2.6-.1l.1.4V313l2.5-1.4h.3l.1.7v1.4l-.4.4-4 2.3zm7.9-5V297l.1-.7.4-.4 2.4-1.4q3-1.7 3 2.6a8 8 0 0 1-1.4 4.6v.1q.6.1 1 2l.9 3.8v.2q0 .6-.8 1l-.5.3q-.6.4-.7 0l-.8-4-.4-.8q-.3-.1-.7.1l-.6.3v5.6a1 1 0 0 1-.8 1.1l-.4.3q-.7.4-.7-.3m3-10 .7-1 .2-1.9-.2-1.4q-.3-.4-.8 0l-1 .5v4.4Zm4.7 6-.1-.6V292l.5-.4 4.3-2.5h.3v2.1l-.3.4-2.9 1.7v4l2.6-1.5h.3v2.1l-.3.4-2.6 1.5v4.3l2.9-1.6h.3v2.1l-.3.4-4.3 2.5zm12.3-4.1-3.9-1q-1 0-1.6-1.7a15 15 0 0 1-.5-4.6q0-8 3.8-10.3t3.8 6q0 6-2.1 8.6v.1l2.3.4q.2 0 .2.3l-.2.8-.3 1-.4.6zm-.9-6a18 18 0 0 0 .5-4.5 12 12 0 0 0-.5-4q-.4-1-1.3-.5a3 3 0 0 0-1.4 2 18 18 0 0 0-.4 4.6 12 12 0 0 0 .4 4 1 1 0 0 0 1.4.6 3 3 0 0 0 1.3-2.1m4.8-.3q-.9-.7-.9-3v-10.6a1 1 0 0 1 .8-1.1l.4-.3q.8-.4.8.2V293a2 2 0 0 0 .4 1.4q.4.4 1 0a3 3 0 0 0 1.2-1.2 4 4 0 0 0 .4-2v-10.5a1 1 0 0 1 .7-1l.5-.3q.7-.5.7.2v10.7a9 9 0 0 1-.9 4 6 6 0 0 1-2.5 2.7q-1.7 1-2.6.2m7.9-3.7V278l.4-.4 4.3-2.5h.3v2.1l-.3.4-2.8 1.6v4l2.5-1.5.3.1v2.1l-.3.4-2.5 1.4v4.4l2.8-1.7h.3v2.1l-.3.4-4.3 2.5q-.3.2-.4 0m7.3-4.1a1 1 0 0 1-1-.3l-.1-.2v-.4l.2-1.2.4-.8h.5a2 2 0 0 0 1.4-.1l1-1a3 3 0 0 0 .3-1.6 2 2 0 0 0-.3-1.3l-1.1-.5-1.2-.5-.8-1-.3-2a8 8 0 0 1 .9-3.8 6 6 0 0 1 2.2-2.4l1-.4h.9l.2.5-.2 1.2q0 .8-.4.9h-.3l-1 .2a2 2 0 0 0-1 1l-.4 1.4.3 1 .4.5 1 .3a3 3 0 0 1 1.5 1 4 4 0 0 1 .5 2.4l-.4 2.6-1 2.3a5 5 0 0 1-1.8 1.6zm7.2-4.6V272l-1.8 1h-.3v-2.1l.3-.4 5.6-3.3.3.1v2.1l-.3.4-1.8 1v12.7a1 1 0 0 1-.8 1.1l-.5.3q-.7.4-.7-.2" fill="#fafafa"/></svg>