<svg xmlns="http://www.w3.org/2000/svg" xmlns:xlink="http://www.w3.org/1999/xlink" class="A" id="A" viewBox="0 0 500 500" xmlns:v="https://vecta.io/nano"><style><![CDATA[svg#A.A #B{animation:1.5s Infinite linear floating;animation-delay:0s}@keyframes floating{0%{opacity:1;transform:translateY(0px)}50%{transform:translateY(-10px)}100%{opacity:1;transform:translateY(0px)}}.D{opacity:.15}.E{fill:#10b9b9}.F{opacity:.3}.G{fill:#fff}.H{fill:#455a64}.I{fill:#37474f}.J{fill:#fafafa}.K{fill:#263238}.L{fill:#af6152}.M{fill:#e0e0e0}.N{fill:#f5f5f5}.O{fill:#c8856a}]]></style><path d="M77.66 249.79c-95.18 55-95.17 144 0 199s249.49 55 344.67 0 95.17-144 0-199-249.49-54.95-344.67 0z" class="B N" transform-origin="249.995px 349.299px"/><g class="B"><path class="J" d="M366.83 87.09l-2.58 1.44v113.11l2.58-1.44V87.09z" transform-origin="365.54px 144.365px"/><path class="G" d="M366.83 200.2l.01-110.18 81.81 47.28-.02 110.17-81.8-47.27z" transform-origin="407.74px 168.745px"/><path d="M453.44,258.69V134.54l-94-54.29V204.4Zm-89.19-57.05V88.53l84.4,48.77V250.41Z" fill="#f0f0f0" transform-origin="406.44px 169.47px"/><path class="M" d="M364.25 201.64l2.58-1.44 81.8 47.27.02 2.94-84.4-48.77z" transform-origin="406.45px 225.305px"/><path class="J" d="M411.36 115.73l-2.57-1.49v113.11l2.57-1.44V115.73z" transform-origin="410.075px 170.795px"/><path class="M" d="M453.44 258.69l2.56-1.49V133.05l-2.56 1.49v124.15z" transform-origin="454.72px 195.87px"/><path class="J" d="M456 133.05l-2.56 1.49-93.97-54.29 2.57-1.5 93.96 54.3z" transform-origin="407.735px 106.645px"/><path class="M" d="M448.65 188.86v2.97l-84.4-48.77 2.56-1.5 81.84 47.3z" transform-origin="406.45px 166.695px"/><g fill="#f0f0f0"><path d="M448.64 197.35l.01-5.52-84.4-48.77v5.52l84.39 48.77z" transform-origin="406.45px 170.205px"/><path d="M408.79 232.88l-4.78-2.76V105.96l4.78 2.76v124.16z" transform-origin="406.4px 169.42px"/></g><path class="J" d="M408.79 168.78l2.57-1.49v-51.56l-2.57-1.49v54.54z" transform-origin="410.075px 141.51px"/><path d="M120.45 373.52l5.82-2.32-1.79-4.11-3.88 3.21-.15 3.22z" transform-origin="123.36px 370.305px"/><path d="M114.38 362.13l-.2 5.45c-.11 1.21 5 5.26 6.27 5.94l.15-3.22a22 22 0 0 1 2.81 4.76c.93 1.78 2.07 5.12 4.76 7.5 4 3.52 10.38 5.52 17 6.08s10.44-.84 12.39-2.15 2.62-2.93 2.23-4.6-45.41-19.76-45.41-19.76z" class="K" transform-origin="137.037px 375.448px"/><path d="M132.67 349.83l.19-2.23c1.22 0 1.21 3.27 2.84 6.2a58.54 58.54 0 0 0 8.73 12.11c6.41 6.31 12.2 10.36 15.06 13.2 3.82 3.8-3.47 9.18-14.22 8.06-5.33-.56-14.7-3.66-17.22-6.89s-3.93-8.14-6-10.5-6.51-4.85-7.71-7.65c-.66-1.53-.1-5 .48-8 .53-2.71.82-6.89 2.37-6.48v1.41c.59 1.23 2 3.28 6.26 4.2 2.21.48 8.62.99 9.22-3.43z" class="H" transform-origin="137.28px 367.46px"/><path d="M127 353.56c2.07-.07 4.32-.63 5.27-2.4a.13.13 0 0 1 0-.06 5 5 0 0 0 1.18 4.37c1.82 2.31 13.24 18.49 13.24 18.49L133.94 358c-3-3.74-4-4.21-7-4.45z" class="D" transform-origin="136.815px 362.53px"/><path d="M129.47 357.83a.66.66 0 0 1-1.3-.21.66.66 0 0 1 .76-.53.63.63 0 0 1 .54.74z" class="D" transform-origin="128.824px 357.71px"/><path d="M132.49 361.43a.67.67 0 0 1-.76.54.65.65 0 1 1 .21-1.28.66.66 0 0 1 .55.74z" class="D" transform-origin="131.819px 361.325px"/><path d="M135.5 365a.66.66 0 1 1-.55-.74.65.65 0 0 1 .55.74z" class="D" transform-origin="134.847px 364.912px"/><path d="M138.52 368.64a.66.66 0 0 1-1.31-.21.67.67 0 0 1 .76-.54.66.66 0 0 1 .55.75z" class="D" transform-origin="137.865px 368.54px"/><path d="M141.53,372.24a.66.66,0,0,1-.76.53.63.63,0,0,1-.54-.74.66.66,0,0,1,1.3.21Z" class="D" transform-origin="140.876px 372.15px"/><g class="K"><path d="M128.79 358a.3.3 0 0 1-.17-.08.27.27 0 0 1 0-.37 10.94 10.94 0 0 1 7.58-2.52h0a.26.26 0 1 1-.06.51c-3.91-.41-7.15 2.37-7.18 2.4a.27.27 0 0 1-.17.06z" transform-origin="132.509px 356.507px"/><path d="M131.8 361.57a.21.21 0 0 1-.16-.08.26.26 0 0 1 0-.37 11 11 0 0 1 7.59-2.52h0a.26.26 0 1 1-.06.51c-3.89-.41-7.14 2.37-7.18 2.4a.25.25 0 0 1-.19.06z" transform-origin="135.532px 360.078px"/><path d="M134.82 365.19a.32.32 0 0 1-.17-.09.25.25 0 0 1 0-.36 10.88 10.88 0 0 1 7.59-2.53h0a.27.27 0 0 1 .23.29.28.28 0 0 1-.3.23c-3.89-.42-7.14 2.37-7.17 2.39a.25.25 0 0 1-.18.07z" transform-origin="138.522px 363.692px"/><path d="M137.83 368.79a.3.3 0 0 1-.16-.08.26.26 0 0 1 0-.37 10.92 10.92 0 0 1 7.58-2.53h0a.27.27 0 0 1 .23.29.27.27 0 0 1-.29.23c-3.9-.41-7.15 2.37-7.18 2.4a.27.27 0 0 1-.18.06z" transform-origin="141.537px 367.293px"/><path d="M140.84 372.39a.21.21 0 0 1-.16-.08.26.26 0 0 1 0-.37 11 11 0 0 1 7.59-2.52h0a.26.26 0 1 1-.06.51c-3.89-.41-7.14 2.37-7.18 2.4a.26.26 0 0 1-.19.06z" transform-origin="144.572px 370.898px"/><path d="M71.36,390.4c-.84,5.07-2,8.37-4.16,11.18s-6.11,3.19-9.06,2.64a12.51,12.51,0,0,1-9.93-9.3c-1-3.47-.42-7.47.87-12.12Z" transform-origin="59.5317px 393.617px"/></g><path d="M59.22 351.77c-1.46 0-2.6 6.78-4.16 13.55-1.66 7.26-4.38 11.15-5.65 16-1.75 6.76-1.58 9.9.44 14.31s12.27 9.65 17.18 4.12c4-4.52 4.71-9.89 5.11-16.8a171.11 171.11 0 0 1 1.5-17.53c.82-5.13 1.71-10.09.51-10.79l-.56 2.43c-.13.57-.57 3.34-1.39 3.29a10.74 10.74 0 0 1 .19-1.95 2.22 2.22 0 0 0-.23-1.7 2.75 2.75 0 0 0-1.53-.86 41.55 41.55 0 0 0-4.26-1.09c-.71-.13-1.44-.24-2.16-.3a26 26 0 0 0-3.83-.23 1.32 1.32 0 0 0-.86.63 2 2 0 0 0-.15.77 5.6 5.6 0 0 1-.33 1.4c-.08.2-.25.43-.45.36s-.21-.27-.19-.44c.08-.83.25-1.42.39-2.39.06-.44.2-1 .26-1.49l.17-1.29z" class="H" transform-origin="61.4708px 376.952px"/><path d="M54.56 383.58a.51.51 0 0 0 1 .2.49.49 0 0 0-.39-.59.51.51 0 0 0-.61.39z" class="D" transform-origin="55.062px 383.679px"/><path d="M55.55 378.87a.51.51 0 0 0 .39.6.52.52 0 0 0 .61-.4.51.51 0 0 0-1-.2z" class="D" transform-origin="56.0489px 378.975px"/><path d="M56.47 374.44a.51.51 0 0 0 1 .2.49.49 0 0 0-.39-.59.51.51 0 0 0-.61.39z" class="D" transform-origin="56.972px 374.539px"/><path d="M57.39,370.06a.5.5,0,0,0,.4.59.51.51,0,0,0,.6-.39.51.51,0,0,0-1-.2Z" class="D" transform-origin="57.8892px 370.16px"/><path d="M68.81 371.9a.49.49 0 0 0 .4.59.51.51 0 0 0 .6-.39.5.5 0 0 0-.4-.59.52.52 0 0 0-.6.39z" class="D" transform-origin="69.309px 372.001px"/><path d="M67.89 376.31a.5.5 0 0 0 .4.59.52.52 0 0 0 .6-.39.49.49 0 0 0-.4-.59.51.51 0 0 0-.6.39z" class="D" transform-origin="68.391px 376.409px"/><path d="M67 380.75a.51.51 0 0 0 1 .2.49.49 0 0 0-.4-.59.51.51 0 0 0-.6.39z" class="D" transform-origin="67.5018px 380.85px"/><path d="M66 385.45a.5.5 0 0 0 .4.6.52.52 0 0 0 .6-.4.5.5 0 0 0-.4-.59.51.51 0 0 0-.6.39z" class="D" transform-origin="66.499px 385.554px"/><path class="D" d="M61.47 387.27l7.36-32.77-1.87-.22-5.49 32.99z" transform-origin="65.15px 370.775px"/><g class="K"><path d="M55 383.93h.08c3.44-.4 9.13.51 11.26 1.81a.27.27 0 0 0 .36-.08.26.26 0 0 0-.09-.35c-2.26-1.38-8-2.3-11.59-1.88a.24.24 0 0 0-.22.28.26.26 0 0 0 .2.22z" transform-origin="60.7653px 384.553px"/><path d="M56 379.22a.2.2 0 0 0 .13 0c2.69-.93 8.77.34 11.2 1.82a.26.26 0 0 0 .36-.08.25.25 0 0 0-.08-.35c-2.54-1.55-8.82-2.85-11.65-1.87a.26.26 0 0 0-.16.33.24.24 0 0 0 .2.15z" transform-origin="61.7581px 379.741px"/><path d="M56.93 374.79a.3.3 0 0 0 .13 0c2.69-.93 8.76.34 11.2 1.83a.27.27 0 0 0 .36-.09.26.26 0 0 0-.09-.35c-2.53-1.55-8.81-2.85-11.64-1.86a.24.24 0 0 0-.16.32.27.27 0 0 0 .2.15z" transform-origin="62.6835px 375.315px"/><path d="M57.84 370.41a.29.29 0 0 0 .13 0c2.69-.94 8.77.34 11.2 1.82a.26.26 0 0 0 .36-.08.25.25 0 0 0-.08-.35c-2.54-1.55-8.82-2.86-11.65-1.87a.26.26 0 0 0-.16.32.28.28 0 0 0 .2.16z" transform-origin="63.5996px 370.929px"/><path d="M77 184c-7.26 40.73-12 98.18-12 98.18l-5.37 33c-2.54 16.51-5.52 47.52-5.52 47.52s11.5 6.88 21.26 4.26l20.61-67.91c5.63-18.27 13.15-56.15 13.15-56.15l3.13 35s-1.29 11.93-1.37 20.33c-.1 9.76 3.77 56.92 3.77 56.92s12.48 8.13 22.84 1.19l7.74-73.22c1.52-23.57 1.66-66.94 2.38-96.67z" transform-origin="100.865px 275.778px"/></g><path d="M91.84 233.25q-2.15 15-4.59 30-1.2 7.49-2.48 15l-1.27 7.49-.65 3.73-.79 3.71-8.14 37.66-7.47 29.44q2.79-14.92 6-29.75l7.83-37.72.81-3.71.67-3.73 1.37-7.46q1.35-7.46 2.79-14.91 2.79-14.89 5.92-29.75z" transform-origin="79.145px 296.765px"/><path d="M137.17 232.86c.58 9.45.65 18.92.57 28.38s-.21 18.95-1.07 28.36l-2.68 34.66-2.87 28.23q.52-14.17 1.41-28.33l2.27-34.67.55-7.07.14-1.76.07-1.76.15-3.54.57-14.16.51-14.16c.21-4.73.29-9.45.38-14.18z" transform-origin="134.444px 292.675px"/><path d="M109.07,242.86l5.4-22.78s11.71-1,17.95-6c0,0-4.21,6.73-15.32,8.86l-5.23,20.1.33,34.77Z" transform-origin="120.745px 245.945px"/><path d="M147.68 112.92c10.21 4.18 11.74 12.62 11.56 28.84v27.4l19.67 9.38-6.41 15.65-29-5.54z" class="I" transform-origin="161.205px 153.555px"/><path d="M93.17,111.15s-7.26,3.64-10.36,22.14c-2.11,12.62-3,18-4.93,35s-2.32,28.36-2.32,28.36c11.82,14.65,66.56,15.16,72.95,2.05a208.76,208.76,0,0,1,1.23-31c1.32-12,2.9-19.79,3.69-27.68,1.37-13.57-2.28-23.91-6.11-26.88l-26.73-8.88-16.16,4.11Z" class="N" transform-origin="114.642px 156.184px"/><path d="M149.24 68.88c0-4.8-3.41-16.76-21.59-17.17-16.83-.38-24.2 12.82-21.77 25.85 0 0 7.29 13.63 19.54 7.23s21.32-24.28 23.82-15.91z" class="I" transform-origin="127.334px 69.1008px"/><path d="M149.52 75.53c-.32 3-1.37 4.1-1.12 6.58a36.35 36.35 0 0 1-1.63 15.51c-1.93 5.35-3.78 7.6-9.12 8.27a28.75 28.75 0 0 1-6-.2l-1 5c1.4 10.06-2.12 14.7-2.12 14.7-8-12.83-16.52-10.79-18.73-17.9l.91-8.82c.14-2.15.48-5.55.48-5.55a6 6 0 0 1-4.77-1 9.2 9.2 0 0 1-3.5-6.64c-.19-2.12-.21-6.33 2.93-8a6.64 6.64 0 0 1 7.37 1.29 4.57 4.57 0 0 1 .78 1.33c.26.69.54 1.62 1.29 1.65 1.63.07 1.45-4.31 2.15-5.32 1-1.44 3.24-1.74 3.93-3.35a4.81 4.81 0 0 0 0-2.88 10.24 10.24 0 0 1-.25-3.61 6.54 6.54 0 0 1 4.88-5.34c2.53-.57 5.11.44 7.46 1.51 1.87.86 7.19 3.79 8.86 1.46.49-.69.37-1.65.75-2.4 1-1.94 3.4 1.16 4.15 2.08h0a13.66 13.66 0 0 1 2 4.94 29 29 0 0 1 .3 6.69z" class="O" transform-origin="126.222px 93.2377px"/><g class="K"><path d="M132.63 80.26a1.76 1.76 0 1 1-1.81-1.79 1.8 1.8 0 0 1 1.81 1.79z" transform-origin="130.87px 80.2296px"/><path d="M144.71,79.34a1.85,1.85,0,1,1-1.86,1.74,1.82,1.82,0,0,1,1.86-1.74" transform-origin="144.697px 81.1897px"/><path d="M147.87 77.84L143 75.3a2.6 2.6 0 0 1 3.59-1.24 2.91 2.91 0 0 1 1.28 3.78z" transform-origin="145.567px 75.7993px"/><path d="M127.44 75.8l5.19-1.68a2.61 2.61 0 0 0-3.33-1.84 2.91 2.91 0 0 0-1.86 3.52z" transform-origin="129.983px 73.9771px"/></g><path d="M130.05 91.34l6.76 2.6A3.8 3.8 0 0 1 132 96.1a3.57 3.57 0 0 1-1.95-4.76z" class="L" transform-origin="133.278px 93.8317px"/><path d="M132,96.1a3.47,3.47,0,0,1-2.19-2.77,4.26,4.26,0,0,1,4.48,2.85A3.6,3.6,0,0,1,132,96.1Z" fill="#ffa8a7" transform-origin="132.05px 94.8176px"/><g class="L"><path d="M111.23,93.17a4.12,4.12,0,0,0,2.16-1.9,4.46,4.46,0,0,1-2.31,3.5Z" transform-origin="112.235px 93.02px"/><path d="M137.15 78.71l7.13 10.62-7.06 1.53-.07-12.15z" transform-origin="140.715px 84.785px"/><path d="M131.68,105.69c-6.16-1.24-10.48-2.63-14.08-6.74a19.54,19.54,0,0,1-3.42-6.67s0,5.41,2.57,8.27c2.2,2.48,4.81,5.75,14.5,7.38Z" transform-origin="122.93px 100.105px"/></g><path d="M128.57 125.44a21.51 21.51 0 0 1-3.08-3.26c-1.33-1.81-2-2.64-2.62-2.14-.93.71-3.83 4.93-4.64 6.37s-.7 1.44-2.6-.15a37.15 37.15 0 0 1-8.32-10.05 27.6 27.6 0 0 1-2.88-7.85l3.5-4.18c1.58-2.26 1.28-3.77 2.61-3.41l-.2 1.93c.27 1.57 3.16 4.6 5.79 7.45s7.07 5.76 8.06 7c.73.85 4.38 8.29 4.38 8.29z" fill="#e6e6e6" transform-origin="116.5px 114.094px"/><path d="M105.46 107.18a90.85 90.85 0 0 1 7.43 23c2.63 13.56.5 23.42-.65 49.43l-1.83 33c-9.44.54-29.59-2.32-37.14-9.28 0 0 .26-10.47 2.86-38.22 4.4-48.71 12.6-54.25 12.6-54.25z" class="H" transform-origin="93.7091px 159.927px"/><path d="M100.66 137.36l8.43 5.95.4.28-3.6 7.51c1.57 9 3 18.08 4.09 27.18.31 3.06.66 6.13.68 9.21-.25-3.07-.72-6.1-1.2-9.14-.91-5.79-3.67-21.27-4.73-27.23v-.18l3.32-7-8.2-5.91-.24-.17 5.84-29.71z" class="I" transform-origin="105.135px 147.82px"/><path d="M137.05 124.82c-.42.82-2.39-6.16-3.73-6.17-.64 0-2.19 3.17-3 4.34l-1.77 2.45c1-1.93 1.8-7.1 2.11-8.43a24.11 24.11 0 0 0 0-6.27l1-5 1.18.09a21.67 21.67 0 0 1 1.63 2.5c1.06 2.27 3 6.41 3.18 9a22.53 22.53 0 0 1-.6 7.49z" fill="#e6e6e6" transform-origin="133.143px 115.59px"/><path d="M134 107.35s7.4 22 6.84 37.82l-2.41 66s6.46.5 11.38-6c0 0-1.35-23.6 2.22-44.21 3.82-22.06 4.33-40.43-4.3-48.09z" class="H" transform-origin="144.33px 159.264px"/><path d="M142.51 136.5l-.18-.33.23-.29 5.47-6.69-11.71-20.37c3.66 5.57 9.19 14.44 12.76 20.15l.19.3-.23.29-5.37 6.72 4 7.06c.12.21.12.16.06.4-2.61 12.87-4 27.15-7 39.9 2.06-12.87 3.28-27.08 5.77-39.91z" class="I" transform-origin="142.795px 146.23px"/><path d="M175.24 195.88c-10.78-1.56-15.13-8.22-18.26-11.21 0 0 0-10.23 8.82-13 3.28 2 4.06 3.15 7.57 1.65a24 24 0 0 1 3.44-1.33c2.87-.75 4.95-.9 7.43-1.82a1.61 1.61 0 0 1 1.75.07 1.23 1.23 0 0 1 .42 1.3 2.82 2.82 0 0 1-.5 1 13.11 13.11 0 0 1-3.63 2.92.6.6 0 0 0-.21.21c-.1.23.13.46.35.59 1.68 1 3.81 1.18 5.42 2.32a1.87 1.87 0 0 1 .5.47c.83 1.18.07 3.23-.44 4.4a11.26 11.26 0 0 1-3.41 4.38c-4.8 3.82-9.25 8.05-9.25 8.05z" class="L" transform-origin="172.844px 182.912px"/><path d="M108.21,257.4l.15-.13,68.58-67.44h0c1.32-1.18,1.85-3.22,1.28-5.85-1.14-5.24-6.26-10.83-11.44-12.47-2.59-.82-4.71-.5-6,.68h0l-75,60.45s-.09.1-.14.14a2.65,2.65,0,0,0-.26.21,16.45,16.45,0,0,0-1.21,23.47A17,17,0,0,0,108,257.62Z" class="E" transform-origin="129.134px 216.498px"/><path d="M166.78 171.51c-5.18-1.65-8.46 1.28-7.31 6.52s6.26 10.83 11.44 12.48 8.45-1.28 7.31-6.53-6.22-10.83-11.44-12.47z" opacity=".25" transform-origin="168.843px 181.01px"/><path d="M96.11 237.55l65.43-54.71a15.73 15.73 0 0 1-2.08-4.8c-.56-2.62-.05-4.64 1.26-5.83l-74.94 60.43s-.09.1-.14.14a2.65 2.65 0 0 0-.26.21 16.45 16.45 0 0 0-1.21 23.47c-2.51-4.71 3.38-11.68 11.94-18.91z" opacity=".1" transform-origin="120.681px 214.335px"/><path d="M190.73 168.3a11.31 11.31 0 0 0-6.92-7.54 3.71 3.71 0 0 0-3.65.41h0L164 175.67h0a3.57 3.57 0 0 0-.78 3.54 11.28 11.28 0 0 0 6.92 7.54 3.68 3.68 0 0 0 3.65-.41l16.21-14.5h0a3.56 3.56 0 0 0 .73-3.54z" class="M" transform-origin="176.982px 173.757px"/><path d="M183.26 177.83l6.69-6a3.56 3.56 0 0 0 .78-3.54 11.31 11.31 0 0 0-6.92-7.54 3.71 3.71 0 0 0-3.65.41h0l-5.88 5.26a64.67 64.67 0 0 0 8.98 11.41z" opacity=".25" transform-origin="182.594px 169.139px"/><path d="M267.92 40.4c-38.76 6.47-81.35 41.6-95.12 78.35-4 10.7-5.14 20.36-3.77 28.53a31.65 31.65 0 0 0 6.68 15.16l10.69 13.09c8.19 9.95 22.94 14.48 42.33 11.24 38.76-6.47 81.35-41.55 95.13-78.35 6.87-18.41 5.25-33.75-2.92-43.68l-10.72-13.13c-8.22-9.92-22.94-14.44-42.3-11.21zM216.42 164c-9.2 1.53-17.07 1.1-23.22-1.13a25.78 25.78 0 0 1-3.82-1.72 27.2 27.2 0 0 1-.64-2.83c-1.11-6.66 0-14.77 3.29-23.48 6.06-16.22 18.58-32.7 35.24-46.43s35.24-22.85 52.32-25.7c11.23-1.88 20.47-.82 27 2.84a24.33 24.33 0 0 1 .71 3.32c1 6.56-.17 14.5-3.35 23-6.08 16.21-18.59 32.7-35.25 46.43s-35.2 22.87-52.28 25.7z" class="H" transform-origin="248.322px 113.587px"/><path d="M300.16 145.31l-17-20.71a139.92 139.92 0 0 1-14.45 13.71l-3.1 2.49 16.92 20.65a150.74 150.74 0 0 0 17.63-16.14zm-3.49-38.57a109.86 109.86 0 0 1-6.74 9.81L307 137.37a124.16 124.16 0 0 0 6.93-9.59z" class="G" opacity=".1" transform-origin="289.77px 134.095px"/><path d="M175.78 162.51l10.63 13c8.18 9.94 22.93 14.48 42.32 11.24.74-.12 1.48-.28 2.23-.42l-10.69-13.08-2.24.4c-19.32 3.24-34.03-1.26-42.25-11.14z" class="I" transform-origin="203.37px 175.147px"/><path d="M269.53 50.05c-17.07 2.86-35.67 12-52.32 25.71S188 106 182 122.18c-3.26 8.71-4.39 16.83-3.28 23.49.07.42.15.84.25 1.24a20.67 20.67 0 0 0 10.45 14.26 27.2 27.2 0 0 1-.64-2.83c-1.11-6.66 0-14.77 3.29-23.48 6.06-16.22 18.58-32.7 35.24-46.43s35.24-22.85 52.32-25.7c11.23-1.88 20.47-.82 27 2.84a20.68 20.68 0 0 0-11.17-13.26c-6.46-3.18-15.33-4.03-25.93-2.26z" class="K" transform-origin="242.468px 105.156px"/><path d="M267.92 40.4c-38.76 6.47-81.35 41.55-95.13 78.35s6.48 61.39 45.24 54.92 81.35-41.55 95.13-78.35-6.48-61.39-45.24-54.92zm-50.71 35.36C233.87 62 252.45 52.9 269.53 50.05c21.12-3.52 35.23 3.33 37.74 18.35a3.7 3.7 0 0 1 .07.48c1 6.57-.17 14.51-3.35 23-6.07 16.21-18.59 32.7-35.25 46.42s-35.24 22.86-52.32 25.7c-9.2 1.53-17.07 1.1-23.22-1.13-8-2.87-13.1-8.75-14.52-17.22-1.11-6.66 0-14.78 3.28-23.49 6.04-16.16 18.59-32.68 35.25-46.4z" class="I" transform-origin="242.975px 107.035px"/><path d="M269.9 149.86A142.43 142.43 0 0 1 237.43 168a99.28 99.28 0 0 1-17.87 5.1 68.64 68.64 0 0 1-18.48 1 40.89 40.89 0 0 1-17.56-5.35 29.6 29.6 0 0 1-12-13.7 38.56 38.56 0 0 1-2.75-18.17 66.3 66.3 0 0 1 4-18.14 66.8 66.8 0 0 0-4.35 18.12 39.07 39.07 0 0 0 2.66 18.39 30.15 30.15 0 0 0 12.1 14 41.57 41.57 0 0 0 17.82 5.59 69.07 69.07 0 0 0 18.66-1.17 100 100 0 0 0 17.94-5.25 130.12 130.12 0 0 0 16.81-8.13 153 153 0 0 0 15.49-10.43z" class="H" transform-origin="219.069px 146.882px"/><path d="M274.44,56.26c-17.07,2.85-35.67,12-52.32,25.7s-29.18,30.22-35.25,46.43c-3.26,8.7-4.39,16.82-3.28,23.49a23.37,23.37,0,0,0,2.2,6.81,23.41,23.41,0,0,0,7.41,4.2c6.15,2.23,14,2.66,23.22,1.13,17.08-2.85,35.66-12,52.32-25.7S297.91,108.1,304,91.89c3.18-8.5,4.34-16.44,3.35-23a3.85,3.85,0,0,0-.07-.49,23.43,23.43,0,0,0-2.2-6.82C298.49,56,287.89,54,274.44,56.26Z" class="F G" transform-origin="245.435px 110.137px"/><path d="M177.83 145.91a23.35 23.35 0 0 0 3.13 8.64 20.84 20.84 0 0 0 6.52 6.53 27.88 27.88 0 0 0 8.6 3.48 41.64 41.64 0 0 0 9.24 1.06 71.15 71.15 0 0 0 18.36-2.54 101.41 101.41 0 0 0 17.41-6.39 119.86 119.86 0 0 0 16.14-9.15A142.38 142.38 0 0 0 272 136.26a127.26 127.26 0 0 0 24.24-28 89 89 0 0 0 8.16-16.73 52.17 52.17 0 0 0 3.37-18.37 28.71 28.71 0 0 0-1.67-9.33 21.29 21.29 0 0 0-5.22-8 21 21 0 0 0-3.8-2.91 24.77 24.77 0 0 0-4.27-2.08 34.37 34.37 0 0 0-9.19-2A61.29 61.29 0 0 0 265 50.36a95 95 0 0 0-17.58 5.85A118.51 118.51 0 0 0 231.2 65a136.34 136.34 0 0 0-14.83 11 133.45 133.45 0 0 1 31.47-18.9 95 95 0 0 1 17.46-5.52 60.12 60.12 0 0 1 18.12-1.22 32.9 32.9 0 0 1 8.75 2 22.24 22.24 0 0 1 7.49 4.68 19.53 19.53 0 0 1 4.76 7.36 26.7 26.7 0 0 1 1.52 8.75 50.76 50.76 0 0 1-3.35 17.71 87.88 87.88 0 0 1-8.06 16.33 125.72 125.72 0 0 1-23.75 27.71 137.68 137.68 0 0 1-30.34 20.4 99.52 99.52 0 0 1-17.08 6.56 70.78 70.78 0 0 1-18 2.77 40.08 40.08 0 0 1-9.08-.82 27 27 0 0 1-8.49-3.2 20.58 20.58 0 0 1-6.55-6.25 23.43 23.43 0 0 1-3.41-8.45z" class="H" transform-origin="242.8px 107.152px"/><path d="M190.63,184.28c2.41-1.26,2.41-1.58,2.15-3a7,7,0,0,0-3.75-5.13c-1.76-.83-3.5-1.75-4.62-1.74s-1.32,2.28.69,3.93c3.16,2.59,2.65,3.55,2.65,3.55a50.35,50.35,0,0,0-4.19-3.13c-1.29-.74-4-1.32-5.63-1.84s-2.89,1.26-.68,3.22l-3-.95c-2.08-.67-3.25,0-2.34,2a3.16,3.16,0,0,0,1.42,1.54s-2.06-1-2.44-.38c-1.11,1.9-.1,3.05,3.45,6.34,1,.93,1.74,3.14,2.08,3.92l-1.2,3.27,4.51-.22a3.7,3.7,0,0,0,3.21-3s2.24,1.18,3.08-.15a8,8,0,0,0,1-3.27,2.73,2.73,0,0,0,2.41-1.69,4.5,4.5,0,0,0,.42-2.87Z" class="O" transform-origin="181.677px 185.145px"/><g class="L"><path d="M177.25 180.16a13.59 13.59 0 0 1 2.63 1 9 9 0 0 1 2 2 33.64 33.64 0 0 1 3.19 4.54 33.6 33.6 0 0 1-3.82-4 14.35 14.35 0 0 0-1.76-2c-.65-.53-1.49-.98-2.24-1.54z" transform-origin="181.16px 183.93px"/><path d="M173.35 182.73a6.22 6.22 0 0 1 2.74 1.28 16.06 16.06 0 0 1 2.17 2.11 28.71 28.71 0 0 1 3.44 4.88 59.24 59.24 0 0 1-4.06-4.35 15.6 15.6 0 0 0-4.29-3.92z" transform-origin="177.525px 186.865px"/></g><path d="M120.69 226.55a6.4 6.4 0 0 1 .77 2.82 1.85 1.85 0 0 1-.95 1.52c-1.1.57-2.23-1.26-2.77-2a3.79 3.79 0 0 1 .5 3.08c-.55 2.11-2.89.47-3.64-.59a2.74 2.74 0 0 1-2 .58c-1.49-.2-1.93-1.53-2.92-2.42l-1.9-1.76a20.27 20.27 0 0 1-2.65-3.15 31.35 31.35 0 0 1-2.57-5.53l-.79-2.4c-.9-3.14-1.86-7.09-4.75-9-3.86-2.59-26.33-16.4-34.08-22.94-6.87-5.79-8.84-7.11-6.17-16.45 1.69-5.93 6.74-19.92 12.61-34.87 5.77-14.72 9.2-18.9 19.38-22C100.55 116.16 92.1 145 92.1 145l-10.61 25s17 17.51 26.11 24.94c1.72 1.39 4.41 2.38 7 3.92a50.28 50.28 0 0 1 7 4.89l-4.8 3.88a.65.65 0 0 0-.63.5h0a2.76 2.76 0 0 0-.1 1 34.23 34.23 0 0 0 1 6.19c.35 1.37.69 2.56 1.08 3.77.27.87.57 1.75.91 2.72s1.23 3.82 1.63 4.74z" class="O" transform-origin="88.6119px 172.217px"/><path d="M101.26,188.65l5.57,5.09a16.79,16.79,0,0,1-4.42,8.83A19.88,19.88,0,0,1,95,207.36l-6.53-4.66Z" class="N" transform-origin="97.65px 198.005px"/><g class="L"><path d="M117.78 228.81a72.29 72.29 0 0 1-3.42-8.07l-1-3.05a13.6 13.6 0 0 0-1-2.95.07.07 0 0 0-.13 0 4.42 4.42 0 0 0 .24 1.19l.47 1.66 1.08 3.5c.74 2 2.21 6.12 3.69 7.78.06.07.08-.03.07-.06z" transform-origin="115.006px 221.795px"/><path d="M114.5 231.17a72.29 72.29 0 0 1-3.42-8.07l-1-3a28 28 0 0 0-1.29-4.26c0-.07-.12 0-.12 0a19.57 19.57 0 0 0 .55 2.5l.47 1.66 1.09 3.5c.74 2.05 2.2 6.12 3.68 7.78.03.02.06-.08.04-.11z" transform-origin="111.588px 223.546px"/><path d="M110.63 230.69a74.14 74.14 0 0 1-3.41-8.07l-1-3.05a29.13 29.13 0 0 0-1.29-4.26.07.07 0 0 0-.13 0 19.42 19.42 0 0 0 .55 2.49l.47 1.67 1.09 3.5c.74 2.05 2.21 6.12 3.68 7.77.03.08.06-.02.04-.05z" transform-origin="107.718px 223.018px"/></g><path d="M88.73 110.8c-10.58 2.48-13.64 6.6-18.59 18.73s-11.54 30.61-13.65 37.79-2.49 11.31 1.76 15.19 32.18 22.33 32.18 22.33a19 19 0 0 0 8.34-4.64 18.28 18.28 0 0 0 5.34-9.79l-21.37-21 9.78-24c2.36-5.52 7.56-28.98-3.79-34.61z" class="I" transform-origin="79.5332px 157.82px"/><g class="E"><path d="M467.63 325.29h0l-139.5-237a63.56 63.56 0 0 1-4.28 20.14c-13.78 36.8-56.37 71.88-95.14 78.35-19.38 3.24-34.13-1.3-42.31-11.24l-4.4-5.44-4.82 180.51h0c-.52 22.38 14 44.85 43.57 61.93 58.13 33.56 152.38 33.56 210.51 0 40.87-23.61 53-57.54 36.37-87.25z" opacity=".1" transform-origin="326.005px 263px"/><ellipse cx="325.99" cy="351.77" rx="148.85" ry="85.94" opacity=".2" transform-origin="325.99px 351.77px"/></g></g><g id="B" class="B" transform-origin="397.05px 172.343px"><g transform-origin="397.05px 172.343px"><g transform-origin="397.05px 172.343px"><path d="M386.06 145.11c3.71-2.11 8.83-1.79 14.47 1.47 11.36 6.56 20.57 22.5 20.57 35.62 0 6.55-2.3 11.15-6 13.3l-7 4c-3.72 2.14-8.85 1.83-14.52-1.44-11.41-6.52-20.58-22.47-20.58-35.58 0-6.54 2.29-11.13 6-13.29l7.06-4.08z" class="E" transform-origin="397.05px 172.319px"/><g><path d="M420.34,175.38a33.14,33.14,0,0,1,.76,6.82c0,6.55-2.3,11.15-6,13.3l-7,4c-3.72,2.14-8.85,1.83-14.52-1.44A33,33,0,0,1,388,194Z" class="D" transform-origin="404.55px 188.121px"/></g><path d="M379,182.73c-3.72-6.44-6-13.7-6-20.25,0-13.12,9.21-18.43,20.57-11.87s20.56,22.5,20.56,35.62-9.2,18.43-20.56,11.87a35.55,35.55,0,0,1-8-6.52l-8.39,1.54a1.39,1.39,0,0,1-1.53-1.88Z" class="E" transform-origin="393.565px 174.355px"/><g class="G"><path d="M379,182.73c-3.72-6.44-6-13.7-6-20.25,0-13.12,9.21-18.43,20.57-11.87s20.56,22.5,20.56,35.62-9.2,18.43-20.56,11.87a35.55,35.55,0,0,1-8-6.52l-8.39,1.54a1.39,1.39,0,0,1-1.53-1.88Z" opacity=".35" transform-origin="393.565px 174.355px"/></g></g><g class="J" transform-origin="393.234px 174.355px"><path d="M391.88 180.62l2.7 1.56a.58.58 0 0 0 .94-.51l1.1-20.19a1.84 1.84 0 0 0-.83-1.53l-5.11-2.95c-.49-.28-.86-.05-.83.51l1.1 21.58a2.06 2.06 0 0 0 .93 1.53z" transform-origin="393.234px 169.594px"/><path d="M393.23 191.48c1.72 1 2.75-.29 2.75-2.08a6.53 6.53 0 0 0-2.75-5.26c-1.72-1-2.75.3-2.75 2.08a6.53 6.53 0 0 0 2.75 5.26z" transform-origin="393.23px 187.811px"/></g></g></g><g class="B"><path d="M441.47,350.39c-5.69-5.88-9-20.74-3.48-25.4h28.27c5.56,4.66,2.22,19.51-3.48,25.39l-.15.16-.2.2c-.16.15-.33.31-.51.46l-.14.11-.43.33a8.35,8.35,0,0,1-.74.47c-4.68,2.74-12.28,2.74-17,0h0a6.66,6.66,0,0,1-.74-.48l-.4-.3-.17-.14c-.18-.14-.34-.29-.5-.44l-.22-.23Z" class="I" transform-origin="452.135px 339.577px"/><path d="M463.81 323.11c6.45 3.77 6.45 9.87 0 13.64s-16.91 3.77-23.37 0-6.45-9.87 0-13.64 16.92-3.77 23.37 0z" class="H" transform-origin="452.123px 329.93px"/><path d="M460.71 324.92c4.73 2.77 4.73 7.25 0 10s-12.42 2.76-17.16 0-4.74-7.25 0-10 12.45-2.77 17.16 0z" class="K" transform-origin="452.126px 329.918px"/><path d="M443.55 329.68c4.74-2.77 12.42-2.77 17.16 0a7.81 7.81 0 0 1 2.83 2.63 7.89 7.89 0 0 1-2.83 2.63c-4.74 2.76-12.42 2.76-17.16 0a7.85 7.85 0 0 1-2.84-2.63 7.76 7.76 0 0 1 2.84-2.63z" class="G" transform-origin="452.125px 332.306px"/><use xlink:href="#D" class="E" transform-origin="441.439px 293.411px"/><g class="G" opacity=".5" transform-origin="441.439px 293.411px"><use xlink:href="#D" transform-origin="441.439px 293.411px"/></g><use xlink:href="#E" class="E" transform-origin="443.767px 299.522px"/><use xlink:href="#E" class="F" transform-origin="443.767px 299.522px"/><use xlink:href="#F" class="E" transform-origin="455.47px 288.334px"/><g class="F G" transform-origin="455.47px 288.334px"><use xlink:href="#F" transform-origin="455.47px 288.334px"/></g><use xlink:href="#G" class="E" transform-origin="454.332px 307.503px"/><use xlink:href="#G" class="F" transform-origin="454.332px 307.503px"/><g class="E"><path d="M443 314.72c-.64 3.22-5 5.55-10.15 3.44s-15.16-15.37-10.56-16.83c-.25-2.4 13.64-4.38 20.51 4.09 4.95 6.16.2 9.3.2 9.3z" transform-origin="433.083px 309.114px"/><use xlink:href="#H" transform-origin="439.134px 312.668px"/></g><use xlink:href="#H" class="F" transform-origin="439.134px 312.668px"/><use xlink:href="#I" class="E" transform-origin="462.987px 317.209px"/><use xlink:href="#I" class="F G" transform-origin="462.987px 317.209px"/><use xlink:href="#J" class="E" transform-origin="457.119px 320.309px"/><use xlink:href="#J" class="F" transform-origin="457.119px 320.309px"/><g class="E"><path d="M456.1 326.45c-3.1 3 .32 6.81 5.34 8.67a17.93 17.93 0 0 0 13-.6 10.53 10.53 0 0 0 2.92-1.81 31 31 0 0 0-2.57-6.15 12.84 12.84 0 0 0-12.66-5.81c-6.43.82-6.95 3.49-6.03 5.7z" transform-origin="466.139px 328.34px"/><use xlink:href="#K" transform-origin="460.311px 328.206px"/></g><use xlink:href="#K" class="F" transform-origin="460.311px 328.206px"/><g class="E"><path d="M457 307.29c-.78 2.72 2.69 5.26 7 3.81s8.8-2.81 12.48-2.85 6-2.47 5.26-4.1-1.65-5.51-11-6.62-13.61 2.2-15.57 4.79.21 5.43 1.83 4.97z" transform-origin="468.135px 304.416px"/><use xlink:href="#L" transform-origin="462.964px 308.222px"/></g><use xlink:href="#L" class="F" transform-origin="462.964px 308.222px"/><use xlink:href="#M" class="E" transform-origin="439.492px 325.767px"/><use xlink:href="#M" class="F G" transform-origin="439.492px 325.767px"/><use xlink:href="#N" class="E" transform-origin="440.152px 324.99px"/><use xlink:href="#N" class="F" transform-origin="440.152px 324.99px"/></g><defs ><path id="D" d="M448.26 302.49c-1.91 2.41-7.65 3.48-10.5-2.43l-6.37-12.82a2.16 2.16 0 0 1 1.17-2.89s-.08-3.15 5.4-1.43 9.48 4.66 12.2 9.71 1.6 8.89-1.9 9.86z"/><path id="E" d="M451.17 310.37a27.92 27.92 0 0 0-.7-3.14 46 46 0 0 0-2.23-6 45.36 45.36 0 0 0-7-10.9 39.31 39.31 0 0 0-5.27-5.13c-.05 0-.09.08-.05.12a48.45 48.45 0 0 1 8.39 9.9 49.08 49.08 0 0 1 5.29 11.55l1 3.43.81 3.53c0 .12.22.18.22 0a22.62 22.62 0 0 0-.46-3.36z"/><path id="F" d="M454.47 298.26c-5 1.54-8.67-2.35-7.39-8.44s7.68-12.85 10.09-11c1.51-1.51 4.84-1 6.4 4s.15 17.6-9.1 15.44z"/><path id="G" d="M457.39 282.49a67.09 67.09 0 0 0-3.31 10.95 110.46 110.46 0 0 0-1.92 11.46c-.89 7.44-1 7-1 14.51l.08 6.22c.08 2.07 0 4.29.19 6.41.07.82 1.23.6 1.24-.15.07-3.73-.13-7.47-.17-11.2a25.16 25.16 0 0 1 .07-3.13 154.66 154.66 0 0 1 2-22.43c.35-2.06.74-4.13 1.23-6.16s1.12-4.27 1.69-6.4c.05-.08-.05-.19-.1-.08z"/><path id="H" d="M450.25 319.5a24.77 24.77 0 0 0-2.07-2.27 62.06 62.06 0 0 0-4.69-4.19 62.92 62.92 0 0 0-10.75-6.92 57.39 57.39 0 0 0-6.49-2.95c-.07 0 0 .1 0 .12l5.5 2.73a62.8 62.8 0 0 1 5.4 3.4 80.48 80.48 0 0 1 9.5 7.77l2.48 2.45 2.67 2.46c.12.12.34.07.21-.11l-1.76-2.49z"/><path id="I" d="M471.18 310.84c-.08-1.82-9.23-1.72-13.51 1.72s-4.79 6.83-2.12 8c-.47 3.83 5.58 6.36 11 1.57s6.58-10.91 4.63-11.29z"/><path id="J" d="M462.17 315.63a23.16 23.16 0 0 0-5.71 3.66 22.85 22.85 0 0 0-4.38 5.22c-.14.22.21.65.36.41a26.23 26.23 0 0 1 9.74-9.23s.03-.08-.01-.06z"/><path id="K" d="M469.09 328.74a32.29 32.29 0 0 0-7.87-2.92c-2.69-.52-6-.54-8.19 1.38-.84.74-2 2.35-1.28 3.49.07.12.41.33.49.1a11.08 11.08 0 0 1 .69-2.11 4.32 4.32 0 0 1 1.68-1.58 10 10 0 0 1 5.71-1 31.18 31.18 0 0 1 8.76 2.68s.03-.03.01-.04z"/><path id="L" d="M474.37 301.58a11.41 11.41 0 0 0-3-.28 19.17 19.17 0 0 0-2.92.24 22.31 22.31 0 0 0-5.51 1.72c-3.3 1.46-6.57 3.37-8.71 6.33a21.26 21.26 0 0 0-2.76 5.17c-.12.35.55.55.71.24a39.14 39.14 0 0 1 2.34-4.5 14 14 0 0 1 3.59-3.74 28.58 28.58 0 0 1 9.89-4.56 19 19 0 0 1 3.18-.46 28.35 28.35 0 0 1 3.19.12c.17 0 .1-.26 0-.28z"/><path id="M" d="M449.26 322.62c-.74-2.79-4.28-4.36-8.92-4.71a12.11 12.11 0 0 0-11.52 5.92c-2.43 4.14-3.43 7.44-2 8s7.7 1.41 11.72 1.76 9-.36 12.31-3.42 2.24-6.9-1.59-7.55z"/><path id="N" d="M449.43 322.25a12.43 12.43 0 0 0-5-.23 21.85 21.85 0 0 0-4.72 1.09 30.68 30.68 0 0 0-4.68 2.1l-2.31 1.37a18.56 18.56 0 0 0-2.07 1.43v.1a24.78 24.78 0 0 0 2.2-1.23l2.38-1.28a33.82 33.82 0 0 1 4.64-2 22.27 22.27 0 0 1 4.91-1.05 30.59 30.59 0 0 1 4.69.12c.33.05.15-.35-.04-.42z"/></defs></svg>