<svg xmlns="http://www.w3.org/2000/svg" viewBox="0 0 500 500"><path d="M471.2 262.7c-10.7 39.9-36 84.4-76.3 100.7C334.3 388 331.6 439 219.3 445a227 227 0 0 1-49.1-2.5 188 188 0 0 1-23.5-5.4A163 163 0 0 1 30.5 301.4C19 221.5 71.4 178 105.5 152S175.4 35.3 285.8 28.5a220 220 0 0 1 50.4 2.5c38 6.5 77.8 25 102.8 55.3l5.4 7c34 46.9 41.5 115 26.9 169.4" fill="#0eb5b5"/><path d="M471.2 262.7c-10.7 39.9-36 84.4-76.3 100.7C334.3 388 331.6 439 219.3 445a227 227 0 0 1-49.1-2.5 188 188 0 0 1-23.5-5.4A163 163 0 0 1 30.5 301.4C19 221.5 71.4 178 105.5 152S175.4 35.3 285.8 28.5a220 220 0 0 1 50.4 2.5c38 6.5 77.8 25 102.8 55.3l5.4 7c34 46.9 41.5 115 26.9 169.4" fill="#fff" opacity=".7"/><path d="M88.4 110.7v-5.6c0-11.2-7.5-15.2-15-15.2a14.6 14.6 0 0 0-15 15.2v5.6h-2v31.4h34v-31.4Zm-14 17.3v5.7H71V128a4.3 4.3 0 1 1 3.2 0Zm9.2-17.2H63V105a10.3 10.3 0 0 1 10.3-10.4A10 10 0 0 1 83.7 105Z" fill="none" stroke="#000" stroke-miterlimit="10" opacity=".3"/><rect x="98.5" y="51.6" width="123.3" height="26.9" rx="13.5" fill="none" stroke="#000" stroke-miterlimit="10" opacity=".3"/><path d="m124.1 63.9 2.8 3-1.3 1-2.1-3.6-2.1 3.7-1.3-1 2.7-3.1-4-.9.4-1.6 3.9 1.7-.5-4.2h1.7L124 63l3.8-1.7.5 1.6Zm10.5 0 2.8 3L136 68l-2-3.7-2.1 3.7-1.4-1 2.8-3.1-4.1-.9.5-1.6 3.9 1.7-.5-4.2h1.7l-.5 4.2 4-1.7.4 1.6Zm10.4 0 2.8 3-1.3 1-2.1-3.6-2 3.7-1.4-1 2.8-3.1-4.1-.9.5-1.6L144 63l-.4-4.2h1.7l-.5 4.2 3.9-1.7.5 1.6Zm10.5 0 2.8 3L157 68l-2.1-3.7-2 3.7-1.4-1 2.7-3.1-4-.9.4-1.6 3.9 1.7-.5-4.2h1.7l-.5 4.2 4-1.7.4 1.6Zm10.5 0 2.8 3-1.3 1-2.1-3.6-2.1 3.7-1.4-1 2.8-3.1-4.1-.9.5-1.6L165 63l-.5-4.2h1.7l-.5 4.2 4-1.7.4 1.6Zm10.5 0 2.8 3-1.4 1-2-3.6-2.2 3.7-1.3-1 2.8-3.1-4.1-.9.5-1.6 3.8 1.7-.4-4.2h1.7l-.4 4.2 3.8-1.7.5 1.6Zm10.5 0 2.7 3-1.3 1-2.1-3.6-2 3.7-1.4-1 2.7-3.1-4-.9.4-1.6 4 1.7-.6-4.2h1.7l-.4 4.2 3.9-1.7.5 1.6Zm10.4 0 2.8 3-1.4 1-2-3.6-2.1 3.7-1.4-1 2.8-3.1-4.1-.9.5-1.6 3.9 1.7-.5-4.2h1.7L197 63l3.9-1.7.5 1.6Z" opacity=".3"/><path d="M83.7 235.4a4 4 0 0 0-3.4-2.4H78v-2a12 12 0 0 0 2.7-7.8c0-5-3.1-9.2-6.9-9.2s-6.8 4-6.8 9.2a13 13 0 0 0 2.5 7.6v2.2h-3a4 4 0 0 0-3.6 2.4l-4 7h28.8Z" fill="none" stroke="#000" stroke-miterlimit="10" opacity=".3"/><circle cx="73.4" cy="230.2" r="21.5" transform="rotate(-67.5 73.4 230.2)" fill="none" stroke="#000" stroke-miterlimit="10" opacity=".3"/><path d="M341.8 172.7a2.4 2.4 0 0 0 2.4-2.4v-20a2.4 2.4 0 0 0-2.4-2.4h-.1V140a9.7 9.7 0 0 0-9.7-9.6H121a9.7 9.7 0 0 0-9.6 9.7v145.7a9.7 9.7 0 0 0 9.6 9.7h211a9.7 9.7 0 0 0 9.7-9.7v-52.3a2.4 2.4 0 0 0 2.5-2.4v-20a2.4 2.4 0 0 0-2.4-2.4h-.2v-2.5h.1a2.4 2.4 0 0 0 2.5-2.5v-20a2.4 2.4 0 0 0-2.4-2.4h-.2v-8.6Z" fill="#263238"/><path fill="#0eb5b5" stroke="#263238" stroke-miterlimit="10" d="M120 136.8h213.1V289H120z"/><path fill="#e3e3e3" stroke="#263238" stroke-miterlimit="10" d="M167.3 156.4h119.2v95.7H167.3z"/><path d="M212.1 225.6v.6h-1.4v2.1h1.8v.6H210v-6h2.5v.6h-1.8v2Zm1.6 3.4h-.6v-6h.8l1.4 4.2V223h.6v6h-.7l-1.5-4.8Zm3.7 0v-5.5h-1v-.6h2.8v.6h-1.1v5.4Zm4.4-3.4v.6h-1.5v2.1h1.8v.6h-2.5v-6h2.5v.6h-1.8v2Zm2.2-2.6q1.4 0 1.4 1.3v.5q0 1-.7 1.2.7.3.7 1.3v.9l.1.7h-.6l-.2-.7v-1q0-.9-.8-.8h-.5v2.5h-.7v-6Zm-.1 2.8q.8 0 .8-.9v-.5q0-.9-.6-.9h-.7v2.3Zm6.1-1.4v.5h-.6v-.6q0-.8-.7-.8-.9 0-.7.8v3.2q0 .8.7.9.9 0 .7-.9v-.8h.7v.8q0 1.4-1.4 1.5c-1.4 0-1.3-.6-1.3-1.5v-3.1q0-1.5 1.3-1.5c1.3 0 1.4.6 1.4 1.5m.5 0q0-1.5 1.4-1.5a1.3 1.3 0 0 1 1.4 1.5v3a1.3 1.3 0 0 1-1.4 1.6q-1.5 0-1.4-1.5Zm.7 3.1q0 .9.7.9.9 0 .7-.9v-3.2q0-.8-.7-.8-.9 0-.7.8Zm4.1-4.5q1.5 0 1.4 1.4v3q0 1.5-1.4 1.5H234v-6Zm0 5.3q.7 0 .7-.8v-3.1q0-.9-.7-.9h-.7v4.8Zm4.1-2.7v.6H238v2.1h1.8v.6h-2.4v-6h2.4v.6H238v2Z" fill="#b2b2b2"/><path fill="#fff" stroke="#263238" stroke-miterlimit="10" d="M176.5 188h100.6v11.3H176.5zm0 18h100.6v11.3H176.5zm55 25.6h9.5v11.3h-9.5zm-12.1 0h9.5v11.3h-9.5zm-12.1 0h9.5v11.3h-9.5zm-11.6 0h9.1v11.3h-9.1zm47.9 0h9.8v11.3h-9.8z"/><path d="M231.7 169.4v-2.2a6.4 6.4 0 0 0-12.9 0v14.2h13zm-6 6.6v2.2h-1.3V176a1.7 1.7 0 1 1 1.2 0Zm3.6-6.6h-8v-2.2a4 4 0 0 1 8 0Z" fill="#263238"/><path d="M211.2 195q0 1 .7 1 .9 0 .7-1v-4.5h.6v4.5q0 1.5-1.3 1.5c-1.3 0-1.4-.6-1.4-1.5v-4.5h.7Zm5.3-3h-.7v-.1q0-.8-.6-.9-.8 0-.7.9c0 1.3 2 1.5 2 3.1q0 1.5-1.4 1.5c-1.4 0-1.3-.5-1.3-1.5v-.3h.6v.4q0 .8.7.8.9 0 .7-.8c0-1.4-2-1.5-2-3.2q0-1.4 1.3-1.5c1.3 0 1.4.6 1.4 1.5m2.7 1.2v.6h-1.5v2.2h1.8v.6h-2.4v-6h2.4v.6h-1.8v2Zm2.3-2.6q1.4 0 1.3 1.4v.5q0 .9-.7 1.2.7.2.7 1.2v1l.1.7h-.6l-.2-.7v-1q0-1-.8-.9h-.5v2.6h-.7v-6Zm-.2 2.8q.8 0 .8-.8v-.6q0-.8-.6-.8h-.7v2.2Zm4.1 3.2h-.6v-6h.9l1.3 4.3v-4.3h.6v6h-.6l-1.5-4.9Zm3.6-1.2-.2 1.2h-.7l1.2-6h1l1.1 6h-.6l-.3-1.2Zm0-.6h1.4l-.6-3.5Zm5.1 1.8h-.6l-1-4.8v4.8h-.6v-6h1l1 4.8.9-4.8h1v6h-.7v-4.8Zm4.4-3.4v.6h-1.4v2.2h1.8v.6h-2.5v-6h2.5v.6H237v2Zm-26.4 18 1 1-.5.3-.7-1.2-.7 1.2-.4-.3.9-1-1.3-.3.1-.5 1.3.6-.2-1.4h.6l-.2 1.4 1.3-.6.2.6Zm3.4 0 .9 1-.4.3-.7-1.2-.7 1.2-.4-.3.9-1-1.3-.3.1-.5 1.3.6-.2-1.4h.6l-.2 1.4 1.3-.6.1.6Zm3.4 0 .9 1-.5.3-.6-1.2-.7 1.2-.4-.3.9-1-1.4-.3.2-.5 1.2.6-.1-1.4h.5l-.1 1.4 1.2-.6.2.6Zm3.4 0 .8 1-.4.3-.7-1.2-.6 1.2-.5-.3 1-1-1.4-.3.2-.5 1.2.6-.1-1.4h.5l-.1 1.4 1.2-.6.2.6Zm3.3 0 1 1-.5.3-.7-1.2-.6 1.2-.5-.3 1-1-1.4-.3.2-.5 1.2.6-.2-1.4h.6l-.1 1.4 1.2-.6.2.6Zm3.4 0 1 1-.5.3-.7-1.2-.7 1.2-.4-.3.9-1-1.3-.3.1-.5 1.3.6-.2-1.4h.6l-.2 1.4 1.3-.6.1.6Zm3.4 0 .9 1-.5.3-.6-1.2-.7 1.2-.4-.3.9-1-1.4-.3.2-.5 1.2.6-.1-1.4h.5l-.1 1.4 1.2-.6.2.6Zm3.4 0 .9 1-.5.3-.6-1.2-.7 1.2-.5-.3 1-1-1.4-.3.2-.5 1.2.6-.1-1.4h.5l-.1 1.4 1.2-.6.2.6Z" fill="#b2b2b2"/><ellipse cx="237" cy="423.6" rx="64" ry="60.1" fill="#263238"/><ellipse cx="235.6" cy="420.5" rx="64" ry="60.1" fill="#fff" stroke="#263238" stroke-miterlimit="10"/><ellipse cx="235.6" cy="420.5" rx="55.2" ry="51.9" fill="#fff" stroke="#263238" stroke-miterlimit="10"/><path d="M251 385.5c-22.3 0-40.2 22.6-40.2 50.5 0 18 7.5 33.7 18.7 42.6l5.7.3c23.3 0 43.6-12 54.4-29.7A63 63 0 0 0 291 436c0-27.9-18-50.5-40-50.5" fill="#263238"/><path fill="#fff" stroke="#263238" stroke-miterlimit="10" d="M185.1 413.2h26.1v6.3h-26.1z"/><ellipse cx="244.8" cy="416" rx="39.9" ry="37.5" fill="#fff" stroke="#263238" stroke-miterlimit="10"/><ellipse cx="244.8" cy="416" rx="33.3" ry="31.3" fill="#263238" stroke="#263238" stroke-miterlimit="10"/><path d="m230.9 387.3-.8-1.5c-3.4-5.9-3-13.4-.4-20.4" fill="none" stroke="#263238" stroke-miterlimit="10"/><path d="M231.4 399.8s1.8-6.8-.5-12.5" fill="none" stroke="#fff" stroke-miterlimit="10"/><path d="M243.3 385.8c-3.4-5.9-3-13.4-.4-20.4" fill="none" stroke="#263238" stroke-miterlimit="10"/><path d="M244.6 399.8s2-8-1.3-14" fill="none" stroke="#fff" stroke-miterlimit="10"/><path d="m256.9 386.6-.5-.8c-3.3-5.9-3-13.4-.4-20.4" fill="none" stroke="#263238" stroke-miterlimit="10"/><path d="M257.7 399.8s2-7.4-.8-13.2" fill="none" stroke="#fff" stroke-miterlimit="10"/><g stroke="#263238" stroke-miterlimit="10"><path d="m384.1 360.2-2.9.3c-1.7-6-7-23.7-10.5-33-4.2-11-10-26.8-13.8-33.3s-3.5-10.4-10.8-16.5-13.8-3.5-13.8-3.5-1.2-4.6-8.5-7-17.3 2.4-17.3 2.4-1.5-2.7-8.8-2a13 13 0 0 0-10 7.4s-15-30-20.7-32.3-11.6 3.5-9.3 8.8 19.6 35.4 22 42.3 7.2 18.4 7.2 18.4-16.5-11.9-21.5-13-12.3-2-16.5 2.7 5.8 5.7 13.8 13 21.2 24.2 27.3 35 19.2 12.7 25 18.8l12.9 13.6-2.9 3.3 12.7 31.1s2.7-4.2 13.4-12.7 44.2-18.8 44.2-18.8Z" fill="#263238"/><path d="m329.5 376.4-15-15.7c-5.8-6.1-18.8-8.1-25-18.9s-19.2-27.6-27.3-35-18-8.4-13.8-13 11.6-3.8 16.6-2.7 21.5 13 21.5 13-5-11.4-7.3-18.3-19.6-37-21.9-42.3 3.5-11.1 9.2-8.8 20.8 32.2 20.8 32.2a13 13 0 0 1 10-7.3c7.3-.7 8.8 2 8.8 2s10-4.7 17.3-2.4 8.4 7 8.4 7 6.6-2.7 13.9 3.4 6.9 10 10.7 16.5 9.6 22.3 13.8 33.5 11.2 35 11.2 35l-49.6 26.8Z" fill="#fff"/><path fill="none" d="m287.3 266.9 13.4 20m5.4-25.3 12.3 19.2m13.4-14.6 8.5 14.9m-47.9 40.3 1.8 5.1m-7.7-22.3 4.7 13.6m16.8-26.3 3.1 4.2m11.1-8.4 3.5 4.6M341 285l2.3 7.3"/><path d="M324.5 377.6s8.8-12.3 26.9-18.5a133 133 0 0 1 32.3-6.9l11.1 25s-33.4 10.3-44.2 18.8-13.4 12.7-13.4 12.7Z" fill="#fff"/><path d="M354.9 460.5s-14.6-36.5-18.5-44.2 2.3-11.5 2.3-11.5 8.9-11.9 32-21.1 25-9.6 30.6-3 43.6 80 43.6 80" fill="#fff"/></g><g stroke="#263238" stroke-miterlimit="10"><path d="M115 422.1a42 42 0 0 1 17.7-17.5c12.5-6.4 20.6-9 32.5-20.8s31.5-22.2 39.5-23.7 10.8-5 7.3-8.9-13-4.2-21.4-1.3-16.3 6.4-16.3 6.4c4.3-8.5 7.1-18.7 11.4-27.1l10.8-22c1.9-4 7.5-10.5 5-14.9s-8.6-1.4-11.7 2.7c-4.9 6.6-28.7 42.6-28.7 42.6l13.6-28.9 9.2-19.4c2-4.3 5.9-10 3.5-14.9a7 7 0 0 0-12.3-.7c-3.3 5.4-28.7 53.4-28.7 53.4s15.9-41.2 17.9-46c2.5-5.8 1-10.8-2.6-10.8-5.4 0-7.9 6-10 10l1.2-1.7c-5 6.6-8.3 15.3-12.5 22.5q-7.2 12.6-15 24.9c1-8.5 4.4-16.4 8.7-23.8 2.5-4.5 13.1-15.4 11.3-20.7-1.6-4.6-13.2 4-20 13.5-3.7 5.2-13.4 19.2-16 29.1S88 367.8 83 377.1s-10.9 26-10.9 26Z" fill="#263238"/><path d="M129.3 413s-9.6-11.7-28-16.7a133 133 0 0 0-32.7-4.9L59.1 417s34 8.3 45.2 16 14.2 11.9 14.2 11.9Z" fill="#263238"/><path d="M113.8 417.7a42 42 0 0 1 17.7-17.5c12.4-6.4 20.5-9.1 32.4-20.9s31.5-22.2 39.6-23.6 10.7-5 7.3-9-13-4-21.5-1.2-16.3 6.3-16.3 6.3c4.3-8.4 7.1-18.6 11.4-27l10.8-22c1.9-4 7.6-10.6 5-14.9s-8.6-1.5-11.7 2.7c-4.8 6.5-28.7 42.5-28.7 42.5l13.6-28.8 9.2-19.5c2-4.2 6-10 3.5-14.8a7 7 0 0 0-12.3-.8c-3.3 5.4-28.7 53.4-28.7 53.4s15.9-41.2 18-45.9c2.4-5.8 1-10.8-2.7-10.8-5.4 0-7.9 6-10 10l1.2-1.8c-5 6.7-8.3 15.4-12.4 22.6q-7.3 12.6-15.1 24.9c1-8.5 4.4-16.5 8.6-23.9 2.6-4.4 13.2-15.3 11.4-20.7-1.6-4.6-13.2 4-20 13.6-3.7 5.1-13.4 19.2-16 29.1s-21.3 43.6-26.3 53-11 26-11 26Z" fill="#fff"/><path d="M128 408.6s-9.6-11.7-28-16.7a133 133 0 0 0-32.6-4.9l-9.6 25.6s34 8.3 45.3 16 14.2 11.9 14.2 11.9Z" fill="#fff"/><path d="M112.8 464s2.4-8 5.7-16-3-11.3-3-11.3-9.5-11.3-33.1-19-25.5-8.1-30.9-1.3S29 464.6 29 464.6" fill="#fff"/></g></svg>