<svg data-v-423bf9ae="" xmlns="http://www.w3.org/2000/svg" viewBox="0 0 452 107" class="iconLeft"><!----><!----><!----><g data-v-423bf9ae="" id="82c3c2d1-1a50-4952-99f0-8cec04ef980f" fill="#ffffff" transform="matrix(5.952380997433594,0,0,5.952380997433594,91.5269793510798,2.5817441276231676)"><path d="M9.42 13.43L11.77 3.63L10.49 3.63L8.95 10.21C8.79 10.86 8.71 11.52 8.68 11.97C8.64 11.52 8.50 10.86 8.34 10.22L6.64 3.63L5.38 3.63L3.65 10.22C3.49 10.86 3.36 11.52 3.33 11.97C3.30 11.52 3.21 10.86 3.07 10.21L1.53 3.63L0.24 3.63L2.59 13.43L3.93 13.43L6.01 5.25L8.08 13.43ZM15.23 6.61C13.29 6.61 12.12 7.74 12.12 9.95C12.12 12.33 13.54 13.57 15.78 13.57C16.53 13.57 17.36 13.44 17.99 13.19L17.99 12.15C17.21 12.40 16.34 12.52 15.75 12.52C14.34 12.52 13.51 11.84 13.36 10.40L18.10 10.40L18.10 9.83C18.10 7.71 17.07 6.61 15.23 6.61ZM15.22 7.56C16.31 7.56 16.86 8.40 16.86 9.53L13.34 9.53C13.45 8.18 14.18 7.56 15.22 7.56ZM20.51 8.33C20.51 7.83 20.86 7.60 21.71 7.60C22.22 7.60 22.96 7.69 23.31 7.84L23.31 6.85C23.00 6.72 22.34 6.61 21.64 6.61C19.95 6.61 19.28 7.24 19.28 8.27C19.28 9.31 19.88 9.76 21.11 10.46C22.13 11.06 22.37 11.37 22.37 11.76C22.37 12.36 21.76 12.59 20.97 12.59C20.40 12.59 19.84 12.50 19.19 12.29L19.19 13.29C19.66 13.45 20.43 13.57 21.15 13.57C22.39 13.57 23.60 13.20 23.60 11.75C23.60 10.60 22.93 10.18 21.95 9.60C20.87 8.96 20.51 8.75 20.51 8.33ZM28.57 12.38C28.24 12.45 28.01 12.49 27.69 12.49C26.92 12.49 26.61 12.17 26.61 11.12L26.61 7.71L28.45 7.71L28.45 6.75L26.61 6.75L26.61 5.07L26.01 5.07L25.41 6.75L24.29 6.75L24.29 7.71L25.35 7.71L25.35 11.26C25.35 12.78 25.86 13.50 27.40 13.50C27.93 13.50 28.24 13.44 28.57 13.36ZM34.96 3.61C34.62 3.53 34.02 3.49 33.57 3.49C30.67 3.49 29.27 5.29 29.27 7.91C29.27 11.26 31.96 13.57 35.35 13.57L35.35 12.47C32.61 12.47 30.62 10.44 30.62 7.91C30.62 5.82 31.63 4.55 33.60 4.55C33.98 4.55 34.64 4.59 34.96 4.66ZM39.16 13.57C40.99 13.57 42.36 12.53 42.36 10.07C42.36 7.71 41.09 6.61 39.16 6.61C37.25 6.61 35.97 7.71 35.97 10.07C35.97 12.53 37.34 13.57 39.16 13.57ZM41.09 10.05C41.09 11.72 40.38 12.57 39.16 12.57C37.97 12.57 37.25 11.72 37.25 10.05C37.25 8.37 38.02 7.60 39.16 7.60C40.32 7.60 41.09 8.37 41.09 10.05ZM49.76 13.43C49.63 12.78 49.60 11.63 49.60 10.57L49.60 7.22L49.59 7.22L49.59 7.03C48.87 6.75 47.77 6.61 46.98 6.61C44.72 6.61 43.50 7.94 43.50 10.42C43.50 12.70 44.58 13.57 46.03 13.57C47.11 13.57 47.89 13.08 48.37 11.89C48.40 12.38 48.45 12.87 48.55 13.43ZM46.30 12.52C45.37 12.52 44.79 11.93 44.79 10.35C44.79 8.50 45.58 7.59 47.03 7.59C47.42 7.59 47.87 7.64 48.33 7.73L48.33 7.88C48.27 11.83 47.25 12.52 46.30 12.52ZM52.37 8.33C52.37 7.83 52.72 7.60 53.58 7.60C54.08 7.60 54.82 7.69 55.17 7.84L55.17 6.85C54.87 6.72 54.21 6.61 53.51 6.61C51.81 6.61 51.14 7.24 51.14 8.27C51.14 9.31 51.74 9.76 52.98 10.46C54.00 11.06 54.24 11.37 54.24 11.76C54.24 12.36 53.62 12.59 52.84 12.59C52.26 12.59 51.70 12.50 51.06 12.29L51.06 13.29C51.52 13.45 52.29 13.57 53.02 13.57C54.25 13.57 55.47 13.20 55.47 11.75C55.47 10.60 54.80 10.18 53.82 9.60C52.74 8.96 52.37 8.75 52.37 8.33ZM60.44 12.38C60.10 12.45 59.88 12.49 59.56 12.49C58.79 12.49 58.48 12.17 58.48 11.12L58.48 7.71L60.31 7.71L60.31 6.75L58.48 6.75L58.48 5.07L57.88 5.07L57.27 6.75L56.15 6.75L56.15 7.71L57.22 7.71L57.22 11.26C57.22 12.78 57.72 13.50 59.26 13.50C59.79 13.50 60.10 13.44 60.44 13.36Z"></path></g><!----><g data-v-423bf9ae="" id="6fa7c2be-3d88-49e7-b70c-ca23845e360b" transform="matrix(1.0888888888888888,0,0,1.0888888888888888,-16.9,-0.44444444444444287)" stroke="none" fill="#14D9D9"><path d="M34.032 26.214a3.328 3.328 0 003.324 3.324 3.328 3.328 0 003.324-3.324 3.328 3.328 0 00-3.324-3.324 3.327 3.327 0 00-3.324 3.324zM66.375 26.214a3.328 3.328 0 00-3.324-3.324 3.328 3.328 0 00-3.324 3.324 3.328 3.328 0 003.324 3.324 3.328 3.328 0 003.324-3.324z"></path><path d="M50.213 1h-.01C31.336 1 16 15.257 16 34.124V97h.051C34.095 97 48 74.728 48 48.968V49h3v-.032c0 6.643-.614 13.087-2.432 19.155-1.763 5.882-4.137 11.169-7.362 15.714-3.25 4.582-6.969 8.637-11.207 11.162-2.972 1.771-5.995 3.021-9.184 4.001H50.213C69.079 99 83 82.666 83 63.8V34.124C83 15.257 69.079 1 50.213 1zm2.405 28c1.468 0 2.069.762 1.335 2.033l-2.417 4.047c-.734 1.272-1.935 1.202-2.67-.07l-2.417-3.943c-.734-1.27-.133-2.067 1.335-2.067h4.834zm14.662 8.333c-4.582 2.658-10.644 4.121-17.069 4.121s-12.487-1.464-17.069-4.122c-4.82-2.796-7.477-6.597-7.483-10.703l-.008-.415c0-6.454 5.251-11.311 11.704-11.311C43.81 14.902 49.061 21 49.061 27h-2.842c0-4-3.976-9.256-8.863-9.256-4.882 0-8.855 3.772-8.863 8.652l.008.315c0 3.057 2.155 5.941 6.067 8.211 4.156 2.411 9.711 3.714 15.643 3.714s11.487-1.34 15.643-3.751c3.907-2.266 6.061-5.201 6.067-8.253l-.008-.417c0-4.887-3.976-8.471-8.863-8.471s-8.863 5.254-8.863 9.254h-2.842c0-6 5.251-12.098 11.704-12.098 6.449 0 11.697 5.046 11.704 11.493l.008.316c.002 4.115-2.655 7.825-7.481 10.624zM43.522 26.214c0 3.4-2.766 6.166-6.166 6.166a6.173 6.173 0 01-6.166-6.166c0-3.4 2.766-6.166 6.166-6.166a6.172 6.172 0 016.166 6.166zm13.363 0c0-3.4 2.766-6.166 6.166-6.166 3.4 0 6.166 2.766 6.166 6.166 0 3.4-2.766 6.166-6.166 6.166a6.173 6.173 0 01-6.166-6.166z"></path></g><!----></svg>