<svg xmlns="http://www.w3.org/2000/svg" viewBox="0 0 500 500"><defs><clipPath id="a"><path d="M283 227.9s10.7 22.7 10.7 23.9-9.5 6.3-11.3 7.4l-4.3 2.2 1 10.5s16.3-3.7 23.2-7.4 6.5-8 5-14.1-12.1-30.3-12.1-30.3Z" fill="#fff" stroke="#263238" stroke-linecap="round" stroke-linejoin="round"/></clipPath><clipPath id="b"><path d="M206.2 222.9s-7.8 28.4-8 33.4 15.4 15 16 15.6-1-17.3-1-17.3l5.4-26Z" fill="#fff" stroke="#263238" stroke-linecap="round" stroke-linejoin="round"/></clipPath><clipPath id="c"><path d="M231 175.8s3.2 11 9 17.5 8 8 11.2 7.5 6.4-4.5 11.1-13 5-15 5.4-15.5-1-12.6-7.7-17.7-14-7.4-20.6-1.8-10.5 14.8-8.3 23" fill="#fff" stroke="#263238" stroke-linecap="round" stroke-linejoin="round"/></clipPath></defs><path d="M424.6 219.8c1.5-41.4-13.4-83.4-46.2-103.3a97 97 0 0 0-54-14.8c-20.4 1-39.5 9.2-58.6 16s-40 12.3-59.7 7.4c-14.3-3.5-26.9-12.1-41-16-55.7-15.6-104.2 47.7-77 97.9 6.7 12.3 17 22.2 25.7 33.2s16 24.4 14.8 38.4c-1 11.5-7.6 21.8-10.3 33.1-5.2 21.6 5.1 45.4 23 58.6s42.1 16.2 63.7 10.8 40.6-18.7 55.6-35.1c8-8.8 15.8-19.1 27.3-22.1 11-2.9 22.5 1.8 33.7 4a78 78 0 0 0 59.7-13.7c27-20 41.9-57 43.3-94.4" fill="#0eb5b5"/><path d="M424.6 219.8c1.5-41.4-13.4-83.4-46.2-103.3a97 97 0 0 0-54-14.8c-20.4 1-39.5 9.2-58.6 16s-40 12.3-59.7 7.4c-14.3-3.5-26.9-12.1-41-16-55.7-15.6-104.2 47.7-77 97.9 6.7 12.3 17 22.2 25.7 33.2s16 24.4 14.8 38.4c-1 11.5-7.6 21.8-10.3 33.1-5.2 21.6 5.1 45.4 23 58.6s42.1 16.2 63.7 10.8 40.6-18.7 55.6-35.1c8-8.8 15.8-19.1 27.3-22.1 11-2.9 22.5 1.8 33.7 4a78 78 0 0 0 59.7-13.7c27-20 41.9-57 43.3-94.4" fill="#fff" opacity=".7"/><ellipse cx="246.4" cy="422.2" rx="135.2" ry="27" fill="#0eb5b5"/><ellipse cx="246.4" cy="422.2" rx="135.2" ry="27" fill="#fff" opacity=".5"/><path d="M144 76.6h72a6.5 6.5 0 0 1 6.5 6.5V133h0-85 0V83a6.5 6.5 0 0 1 6.5-6.4" fill="#0eb5b5" stroke="#263238" stroke-linecap="round" stroke-linejoin="round"/><path fill="#263238" stroke="#263238" stroke-linecap="round" stroke-linejoin="round" d="M137.6 125h84.8v8h-84.8z"/><path fill="#fff" stroke="#263238" stroke-linecap="round" stroke-linejoin="round" d="M141.5 127.7h77.1v2.5h-77.1z"/><circle cx="180" cy="102.2" r="11.7" fill="#263238" stroke="#263238" stroke-linecap="round" stroke-linejoin="round"/><path fill="#fff" stroke="#263238" stroke-linecap="round" stroke-linejoin="round" d="m174.7 94.9 12.7 7.3-12.7 7.3z"/><rect x="102.4" y="153.5" width="86.2" height="36.3" rx="2.8" fill="#263238" stroke="#263238" stroke-linecap="round" stroke-linejoin="round"/><path d="m112.6 158.5.5.6c-2 1.1-3.7 3-3.7 5.1a3 3 0 0 0 2.7 3q.3.1.4-.4c.1-.5-.1-.3-.4-.4a2 2 0 0 1-1.2-1.8 2.3 2.3 0 0 1 2.5-2.2 2.5 2.5 0 0 1 2.5 2.6 3 3 0 0 1-3.3 3.1 4 4 0 0 1-4-3.9c0-2.5 1.9-4.5 4-5.7m8.6 0 .4.6c-1.9 1.1-3.6 3-3.6 5.1a3 3 0 0 0 2.7 3q.3.1.4-.4c.1-.5-.1-.3-.4-.4a2 2 0 0 1-1.2-1.8 2.3 2.3 0 0 1 2.5-2.2 2.5 2.5 0 0 1 2.5 2.6 3 3 0 0 1-3.3 3.1 4 4 0 0 1-4-3.9c0-2.5 1.9-4.5 4-5.7" fill="#0eb5b5"/><path fill="none" stroke="#fff" stroke-linecap="round" stroke-linejoin="round" d="M129.4 165.8h49.1m-49.1 4.3h49.1m-49.1 4.2h49.1m-49.1 4.2h49.1"/><circle cx="166.8" cy="227.8" r="18.6" transform="rotate(-9.3 166.8 227.9)" fill="#263238" stroke="#263238" stroke-linecap="round" stroke-linejoin="round"/><circle cx="166.8" cy="227.8" r="15.7" transform="rotate(-48.7 166.8 227.8)" fill="#fff" stroke="#263238" stroke-linecap="round" stroke-linejoin="round"/><path fill="none" stroke="#263238" stroke-linecap="round" stroke-linejoin="round" stroke-width="2" d="M166.8 216.5v11.3h7.7"/><path d="M283 227.9s10.7 22.7 10.7 23.9-9.5 6.3-11.3 7.4l-4.3 2.2 1 10.5s16.3-3.7 23.2-7.4 6.5-8 5-14.1-12.1-30.3-12.1-30.3Z" fill="#fff"/><g clip-path="url(#a)"><path d="M302.2 264.5c6.9-3.7 6.6-8 5-14.1s-12-30.3-12-30.3l-1.8 1-.5 1s9.8 24.2 10.4 32.2c.4 5.4-10.4 12-17.6 16a89 89 0 0 0 16.5-5.8" style="mix-blend-mode:multiply" fill="#0eb5b5" opacity=".5"/></g><path d="M283 227.9s10.7 22.7 10.7 23.9-9.5 6.3-11.3 7.4l-4.3 2.2 1 10.5s16.3-3.7 23.2-7.4 6.5-8 5-14.1-12.1-30.3-12.1-30.3Z" fill="none" stroke="#263238" stroke-linecap="round" stroke-linejoin="round"/><path d="M206.2 222.9s-7.8 28.4-8 33.4 15.4 15 16 15.6-1-17.3-1-17.3l5.4-26Z" fill="#fff"/><g clip-path="url(#b)"><path d="m209.7 225.2-.1-.8-3.4-1.6s-7.8 28.5-8 33.5 15.4 15 16 15.6c.2.2.1-2.4 0-5.7-4.7-4-11.4-9.6-12.2-11.9" style="mix-blend-mode:multiply" fill="#0eb5b5" opacity=".5"/></g><path d="M206.2 222.9s-7.8 28.4-8 33.4 15.4 15 16 15.6-1-17.3-1-17.3l5.4-26Z" fill="none" stroke="#263238" stroke-linecap="round" stroke-linejoin="round"/><path d="M242.7 194.3s-3 2.1-8.9 2.3-6.1-4-13.4-4c-8.8 0-19.9 28-19.9 28s5.5 5.3 11 7.6a39 39 0 0 0 9.3 2.7l.8 18.3h59.3l.8-18.3 18.5-12s-9.1-16.3-13.5-22.4-11.9-3.8-14.1-2.2-9 1.9-11.5 1.5a99 99 0 0 1-9.6-2.6s-3.8-3.2-8.8 1" fill="#0eb5b5" stroke="#263238" stroke-linecap="round" stroke-linejoin="round"/><path fill="none" stroke="#263238" stroke-linecap="round" stroke-linejoin="round" stroke-width=".5" d="m221.4 200.7-.3 30.4m2.4-27.6s.8 14.8 4 23m.5 1.3a41 41 0 0 0 2.6 5.8m-5.2-31.8a95 95 0 0 0 4.8 15.8m46.8-13.2s-2.9 11.7-5.4 17m10 9.6-.1-23.7m-1.2.5s-2.1 15-7.4 22.8m4.8-3s-2.4 4.6-4 7M239.3 196s1.7 10.3 4 15.6 6.6 6.3 10.2 4.8 6.3-9.2 6-19"/><path d="M230.8 174.5s-2.3-4-4-1.9 1.4 6.7 3.2 8.3 3 .5 3-1.1-2.2-5.3-2.2-5.3" fill="#0eb5b5" stroke="#263238" stroke-linecap="round" stroke-linejoin="round"/><path d="M230.8 174.5s-2.3-4-4-1.9 1.4 6.7 3.2 8.3 3 .5 3-1.1-2.2-5.3-2.2-5.3" fill="#fff" opacity=".5"/><path d="M230.8 174.5s-2.3-4-4-1.9 1.4 6.7 3.2 8.3 3 .5 3-1.1-2.2-5.3-2.2-5.3" fill="none" stroke="#263238" stroke-linecap="round" stroke-linejoin="round"/><path d="M267 174.5s2.3-4 4-1.9-1.4 6.7-3.2 8.3-3 .5-3-1.1 2.2-5.3 2.2-5.3" fill="#0eb5b5" stroke="#263238" stroke-linecap="round" stroke-linejoin="round"/><path d="M267 174.5s2.3-4 4-1.9-1.4 6.7-3.2 8.3-3 .5-3-1.1 2.2-5.3 2.2-5.3" fill="#fff" opacity=".5"/><path d="M267 174.5s2.3-4 4-1.9-1.4 6.7-3.2 8.3-3 .5-3-1.1 2.2-5.3 2.2-5.3" fill="none" stroke="#263238" stroke-linecap="round" stroke-linejoin="round"/><path d="M241.6 193.4a129 129 0 0 0 4.3 15c2.1 5.5 6.2 5.5 7.9 2s2.7-16.4 2.7-16.4-11.2 1.6-15-.6" fill="#fff" stroke="#263238" stroke-linecap="round" stroke-linejoin="round"/><path d="M231 175.8s3.2 11 9 17.5 8 8 11.2 7.5 6.4-4.5 11.1-13 5-15 5.4-15.5-1-12.6-7.7-17.7-14-7.4-20.6-1.8-10.5 14.8-8.3 23" fill="#fff"/><g clip-path="url(#c)"><path d="M260 154.5c-6.7-5.1-14.1-7.4-20.6-1.8s-10.5 14.9-8.3 23.1c0 0 .5 2.2 1.7 5l.2-1c1.4-4.6 5.6-13.4 19.8-9.3 11.3 3.1 10 13 8.9 18.4l.6-1.1c4.6-8.5 5-15 5.4-15.6s-1-12.5-7.7-17.7" style="mix-blend-mode:multiply" fill="#0eb5b5" opacity=".5"/></g><path d="M231 175.8s3.2 11 9 17.5 8 8 11.2 7.5 6.4-4.5 11.1-13 5-15 5.4-15.5-1-12.6-7.7-17.7-14-7.4-20.6-1.8-10.5 14.8-8.3 23" fill="none" stroke="#263238" stroke-linecap="round" stroke-linejoin="round"/><path d="M251.2 181.6a49 49 0 0 0-.6 7c0 2.4.8 3.1-.3 3.4s-2.3-1.5-2.3-1.5m-8.8-7a4 4 0 0 0 4.8.1m10.4-.1a4 4 0 0 0 4.8.1m-12.4-4.1s-2.3-5.7-9.8-3m16 2.3s2-5.5 8.8-2.3" fill="none" stroke="#263238" stroke-linecap="round" stroke-linejoin="round"/><path d="M248.3 183.9c0 3-3.6 5.6-8 5.6s-7.8-2.5-7.8-5.6 3.3-4.4 7.6-4.4 8.2 1.3 8.2 4.4m18.2 0c0 3-3.6 5.6-8 5.6s-7.8-2.5-7.8-5.6 3.3-4.4 7.6-4.4 8.2 1.3 8.2 4.4" fill="none" stroke="#263238" stroke-linecap="round" stroke-linejoin="round"/><path d="m165.6 279.8-.5 121.3a1.4 1.4 0 0 0 1.5 1.4h0a1.4 1.4 0 0 0 1.4-1.4l3.5-121.1Zm-8.1 28.4-.5 125.3a1.4 1.4 0 0 0 1.4 1.4h0a1.4 1.4 0 0 0 1.5-1.3l3.4-125.3Zm175.7-28.4.5 121.3a1.4 1.4 0 0 1-1.4 1.4h0a1.4 1.4 0 0 1-1.4-1.4L327.4 280Zm8.2 28.4.5 125.3a1.4 1.4 0 0 1-1.4 1.4h0a1.4 1.4 0 0 1-1.5-1.3l-3.4-125.3Zm-127.1 5.2-.3 111.2a1 1 0 0 0 1 1.2h0a1 1 0 0 0 .8-1.1l2.2-111.2Zm70.4-3.6.3 97a1 1 0 0 1-.8 1h0a1 1 0 0 1-.8-1l-1.8-97Zm-71.5 0 .3 97a1 1 0 0 1-.8 1h0a1 1 0 0 1-.8-1l-1.8-97Z" fill="#fff" stroke="#263238" stroke-linecap="round" stroke-linejoin="round"/><path d="m282.7 313.4.3 111.2a1 1 0 0 1-1 1.2h0a1 1 0 0 1-.8-1.1L279 313.5Z" fill="#fff" stroke="#263238" stroke-linecap="round" stroke-linejoin="round"/><ellipse cx="248" cy="311" rx="44.5" ry="10.2" fill="#fff" stroke="#263238" stroke-linecap="round" stroke-linejoin="round"/><path d="M226.3 397.3s-2.3 3.4-.6 5 3.3 1 3.1 2.7-2.8 7.3-5.1 13.3 2.5 12 7 10.4 4-18.4 4.6-21.4 1.2-3.5 1-6.3-.3-5.8-2.5-6.2-6.5 1.4-7.5 2.5" fill="#fff" stroke="#263238" stroke-linecap="round" stroke-linejoin="round"/><path d="M233.5 424c-3-1-7.6-.8-10.2-.6.9 3.8 4.2 6.4 7.4 5.3q2-1 2.8-4.6" fill="#0eb5b5" stroke="#263238" stroke-linecap="round" stroke-linejoin="round"/><path d="m221.2 390 6.1 10.3c1.3 2.1 5.9 1.5 6.4-1.5s-1.9-11.3-1.9-11.3l-10 2.5Z" fill="#fff" stroke="#263238" stroke-linecap="round" stroke-linejoin="round"/><path d="M209.7 377s-1.4 2.2-.7 3.7 2.5 5.8 3.7 8 6.5 3.5 12.6 2.5 9.7-3.9 9.9-6.4-1-5.8-1.9-9.8-3-3.8-6-3.8-15.1 3.5-17.6 5.8" fill="#0eb5b5" stroke="#263238" stroke-linecap="round" stroke-linejoin="round"/><path d="M227.7 328c0-4.1 2.4-6.1 2.6-9a35 35 0 0 0-.9-11l-4.6-6.2c-13 .1-22.5.4-22.6.4-.5.2-.9 3-1.2 5.3 0 0-5.6.7-4.6 16.2.2 2.2 5.8 27.2 6.2 30 2.5 17.5 8 26.2 8 26.2s.6 2.1 7 1.6 13-4.8 13-4.8-3.3-33.9-3-48.7" fill="#263238" stroke="#263238" stroke-linecap="round" stroke-linejoin="round"/><path d="M200.1 305s-6.9 1-11.1 5.8-.6 8 7.6 7.2 17.6-9.3 18-9.7-8.5-6.2-14.5-3.3" fill="#fff" stroke="#263238" stroke-linecap="round" stroke-linejoin="round"/><path d="M212.3 308a65 65 0 0 1 13 2c5.7 1.7 15.7 5 18 5s1.7-8.7 1.7-10.3-30-2.7-33.7-2.7 1 6 1 6" fill="#fff" stroke="#263238" stroke-linecap="round" stroke-linejoin="round"/><path d="M245 304.7s-2.7 1.3-3.7 6.3-2.3 7.7-.3 9 10.7 2.3 12 1 5-8 5.7-12.3-13.7-4-13.7-4" fill="#0eb5b5" stroke="#263238" stroke-linecap="round" stroke-linejoin="round"/><path d="M256.3 306.3a21 21 0 0 0-3.6 6 56 56 0 0 0-1.7 7 65 65 0 0 1 9.3 3.4c5.4 2.3 14.4 4 23 6s11 4 14 4 6.7-2.4 11.4-8 .6-17.7-4-21.4-29.7-6.6-33-5.6-15.4 8.6-15.4 8.6" fill="#263238" stroke="#263238" stroke-linecap="round" stroke-linejoin="round"/><path d="M193.8 318a20 20 0 0 0-4-8.1l-.8.9c-3.7 4.2-1.4 7.2 4.8 7.3" fill="#0eb5b5" stroke="#263238" stroke-linecap="round" stroke-linejoin="round"/><path d="M227.2 320.7s-3.5 36.8-10.5 42.5m8-7.6s-2.7 12-9.9 16.8M269 314s-10.7.7-3.7 5.3S285 327 285 327" fill="none" stroke="#fff" stroke-linecap="round" stroke-linejoin="round" stroke-width=".5"/><path d="m346.5 301.4-3.6-3.2-8.4-18a5 5 0 0 0-4.3-2.8H168.6a5 5 0 0 0-4.4 2.8l-10.4 22.4-1.7-.7v5.2h.1a3 3 0 0 0 2.9 2.3h188.6a3 3 0 0 0 2.8-2.6Z" fill="#263238" stroke="#263238" stroke-linecap="round" stroke-linejoin="round"/><path d="M343.7 304.8H155a2.8 2.8 0 0 1-2.7-4l11.8-25.3a5 5 0 0 1 4.4-2.8h161.6a5 5 0 0 1 4.3 2.8l11.8 25.4a2.8 2.8 0 0 1-2.6 3.9" fill="#fff" stroke="#263238" stroke-linecap="round" stroke-linejoin="round"/><path d="M164.6 287.7s-4.2 2.9-1.6 4 33.4.2 37.1-.8 8-11 8-12.6-5.3-2.7-7.3-2.8-28.2 1.5-28.2 1.5Z" style="mix-blend-mode:multiply" fill="#0eb5b5" opacity=".5"/><ellipse cx="317.3" cy="288.2" rx="10.9" ry="4.5" style="mix-blend-mode:multiply" fill="#0eb5b5" opacity=".5"/><ellipse cx="247.6" cy="291" rx="39.2" ry="7.3" style="mix-blend-mode:multiply" fill="#0eb5b5" opacity=".5"/><path d="M309.3 270.3s-.7-2.8-3.1-1.9-2.2 7.3-1.7 11 3.7 1.8 3.7 1.8v-2.1s-1.2 1-1.8-.4-.5-7.9.1-7.8 1.8 2.2 1.8 2.2.4-.2 1-2.8" fill="#0eb5b5" stroke="#263238" stroke-linecap="round" stroke-linejoin="round"/><path d="M307.6 270.8v15.7c0 1.9 4.2 3.4 9.5 3.4s9.5-1.5 9.5-3.4v-15.7Z" fill="#0eb5b5" stroke="#263238" stroke-linecap="round" stroke-linejoin="round"/><path d="M326.6 270.8c0 1.6-4.3 3-9.5 3s-9.5-1.4-9.5-3 4.2-2.9 9.5-2.9 9.5 1.3 9.5 3" fill="#fff" stroke="#263238" stroke-linecap="round" stroke-linejoin="round"/><path d="M325.3 270.8c0 1.4-3.7 2.5-8.2 2.5s-8.3-1-8.3-2.5 3.7-2.5 8.3-2.5 8.2 1.1 8.2 2.5" fill="#fff" stroke="#263238" stroke-linecap="round" stroke-linejoin="round"/><path d="M310.7 272.4a23 23 0 0 0 12.7 0 23 23 0 0 0-12.7 0" fill="#263238" stroke="#263238" stroke-linecap="round" stroke-linejoin="round"/><path fill="#fff" stroke="#263238" stroke-linecap="round" stroke-linejoin="round" d="m163.5 278 .1 5.4 36.2.3v-6.2z"/><path fill="#fff" stroke="#263238" stroke-linecap="round" stroke-linejoin="round" d="m199.8 283.7 5.3-11.3V269l-5.5 9.6z"/><path fill="#fff" stroke="#263238" stroke-linecap="round" stroke-linejoin="round" d="m163.5 282.9.1 5.4 36.2.4v-6.3z"/><path fill="#fff" stroke="#263238" stroke-linecap="round" stroke-linejoin="round" d="m199.8 288.7 5.3-11.4v-3.4l-5.5 9.6zm-22.3-24.3s.8-1.7-.4-2.4-2.5 1-3.2 1.5-15.8 10.6-16.3 12.1 0 5 3.2 5.4 6.1-1.8 7.6-2.2l2-.4 9.9-13.4Z"/><path d="M160.8 281c3.2.4 6.1-1.8 7.6-2.1l2-.5.3-.5-9.3-2a3 3 0 0 0-3.8-.3c-.5 1.6 0 5 3.2 5.4" fill="#fff" stroke="#263238" stroke-linecap="round" stroke-linejoin="round"/><path d="M161.4 276h28c8.8 0 11.4-.5 11.4-.5l5.4-11.1s-17 1-22.3.7a40 40 0 0 1-6.4-.7Z" fill="#fff" stroke="#263238" stroke-linecap="round" stroke-linejoin="round"/><path d="m161.4 276 .5 2.2h28.7c6 0 10.5.3 10.5.3l-.3-3Z" fill="#fff" stroke="#263238" stroke-linecap="round" stroke-linejoin="round"/><path fill="#fff" stroke="#263238" stroke-linecap="round" stroke-linejoin="round" d="m201.1 278.5 5.1-11.5v-2.6l-5.4 11.1zm80.8 13.5h-68.5a1.2 1.2 0 0 1-1.2-1.2h0a1.2 1.2 0 0 1 1.2-1.2h68.5a1 1 0 0 1 1.2 1.2h0a1 1 0 0 1-1.2 1.1"/><path d="M282.5 289.6h-69.7a1 1 0 0 1-1-1l-3.8-45.5a1 1 0 0 1 1-1.1h77.3a1 1 0 0 1 1 1.1l-3.8 45.6a1 1 0 0 1-1 .9" fill="#fff" stroke="#263238" stroke-linecap="round" stroke-linejoin="round"/><path d="M254.2 266.6c0 2.7-3 4.9-6.6 4.9s-6.6-2.2-6.6-5 3-4.8 6.6-4.8 6.6 2.2 6.6 4.9" fill="#fff" stroke="#263238" stroke-linecap="round" stroke-linejoin="round"/><path d="M322.3 231a6 6 0 0 0 2.2-3.3 6 6 0 0 0-.1-3m-10 42s6.6-4 4.4-8.6-9.5-7.6-9.5-14.7c0-6.2 6.6-8.4 10.8-10.9" fill="none" stroke="#263238" stroke-linecap="round" stroke-linejoin="round"/><path d="M320.5 266.5s3.7-2.4 3.7-6.4c0-2.6-2.8-4.3-6.5-8.5m-2.1-2.6s-2.4-2-.6-5.5" fill="none" stroke="#263238" stroke-linecap="round" stroke-linejoin="round"/><path d="M259.3 144.3c1.2-.3 3.8-1.3 5.5-5.3l-.3-.6-.6.2c-1.6 3.7-3.9 4.5-4.8 4.7a12 12 0 0 0 2.6-7.3c0-6.9-6.4-12.5-14.3-12.5S233 129 233 136a12 12 0 0 0 2.4 7c-1.5-.1-4 .5-7.3 4.3v.7l.3.1.4-.2c4.2-4.8 6.9-4 7.4-3.7l-2.6 1.8c-4.6 4.1-7.4 12-7 18.5a24 24 0 0 0 4.5 12 28 28 0 0 0 8.1-9 76 76 0 0 0 4-8.2c0 2.9.4 6.4 2 9a13 13 0 0 0 11.2 6.5l2.3-.2.4-.3c3.8.9 7.6.8 8.2 0 1-1.3 2.3-5.4 2.8-10.4.8-8.5-4.5-15.9-10.8-19.7m-13.2 23.4c-2-3.1-1.9-8.3-1.7-11.3l.2-.3a20 20 0 0 0 8.1 15.7 15 15 0 0 0 4.4 2c-2.4.2-7.5-.3-11-6" fill="#263238"/><path d="M246.3 152s-.9 6 6.8 12 15 3.6 15 3.6" fill="none" stroke="#fff" stroke-linecap="round" stroke-linejoin="round" stroke-width=".5"/><path d="M247.4 150s8.1 11.8 19.3 8.7M243.4 146a8 8 0 0 0-8.1.7c-4.3 2.9-6.5 9.6-6.5 9.6m14.8-6.9s-3.5-1-5.7 1.2a14 14 0 0 0-2.6 3.3" fill="none" stroke="#fff" stroke-linecap="round" stroke-linejoin="round" stroke-width=".5"/></svg>