<svg data-v-423bf9ae="" xmlns="http://www.w3.org/2000/svg" viewBox="-27 -12 128 128" width="500" class="iconLeft">
  <g data-v-423bf9ae="" id="6fa7c2be-3d88-49e7-b70c-ca23845e360b" transform="matrix(1.0888888888888888,0,0,1.0888888888888888,-16.9,-0.44444444444444287)" stroke="none" fill="#14D9D9">
    <path d="M34.032 26.214a3.328 3.328 0 003.324 3.324 3.328 3.328 0 003.324-3.324 3.328 3.328 0 00-3.324-3.324 3.327 3.327 0 00-3.324 3.324zM66.375 26.214a3.328 3.328 0 00-3.324-3.324 3.328 3.328 0 00-3.324 3.324 3.328 3.328 0 003.324 3.324 3.328 3.328 0 003.324-3.324z">
    </path>
    <path d="M50.213 1h-.01C31.336 1 16 15.257 16 34.124V97h.051C34.095 97 48 74.728 48 48.968V49h3v-.032c0 6.643-.614 13.087-2.432 19.155-1.763 5.882-4.137 11.169-7.362 15.714-3.25 4.582-6.969 8.637-11.207 11.162-2.972 1.771-5.995 3.021-9.184 4.001H50.213C69.079 99 83 82.666 83 63.8V34.124C83 15.257 69.079 1 50.213 1zm2.405 28c1.468 0 2.069.762 1.335 2.033l-2.417 4.047c-.734 1.272-1.935 1.202-2.67-.07l-2.417-3.943c-.734-1.27-.133-2.067 1.335-2.067h4.834zm14.662 8.333c-4.582 2.658-10.644 4.121-17.069 4.121s-12.487-1.464-17.069-4.122c-4.82-2.796-7.477-6.597-7.483-10.703l-.008-.415c0-6.454 5.251-11.311 11.704-11.311C43.81 14.902 49.061 21 49.061 27h-2.842c0-4-3.976-9.256-8.863-9.256-4.882 0-8.855 3.772-8.863 8.652l.008.315c0 3.057 2.155 5.941 6.067 8.211 4.156 2.411 9.711 3.714 15.643 3.714s11.487-1.34 15.643-3.751c3.907-2.266 6.061-5.201 6.067-8.253l-.008-.417c0-4.887-3.976-8.471-8.863-8.471s-8.863 5.254-8.863 9.254h-2.842c0-6 5.251-12.098 11.704-12.098 6.449 0 11.697 5.046 11.704 11.493l.008.316c.002 4.115-2.655 7.825-7.481 10.624zM43.522 26.214c0 3.4-2.766 6.166-6.166 6.166a6.173 6.173 0 01-6.166-6.166c0-3.4 2.766-6.166 6.166-6.166a6.172 6.172 0 016.166 6.166zm13.363 0c0-3.4 2.766-6.166 6.166-6.166 3.4 0 6.166 2.766 6.166 6.166 0 3.4-2.766 6.166-6.166 6.166a6.173 6.173 0 01-6.166-6.166z">
    </path>
  </g>
</svg>